<?xml version="1.0" encoding="UTF-8"?>
<svg width="28px" height="20px" viewBox="0 0 28 20" version="1.1" xmlns="http://www.w3.org/2000/svg" xmlns:xlink="http://www.w3.org/1999/xlink">
    <title>Combined Shape</title>
    <g id="04-RPA-&amp;-HIPERAUTOMATIZACIÓN" stroke="none" stroke-width="1" fill="none" fill-rule="evenodd">
        <g id="Desktop-HD-Copy-2" transform="translate(-374.000000, -5975.000000)" fill="#4A4A4A">
            <path d="M392.26515,5975.36912 L400.830764,5983.93414 C401.077443,5984.1051 401.260155,5984.36185 401.335736,5984.66123 C401.338054,5984.67127 401.34065,5984.68127 401.343121,5984.69129 C401.346181,5984.70565 401.349169,5984.72002 401.35191,5984.73447 C401.366432,5984.79864 401.374878,5984.86405 401.378219,5984.92967 L401.378219,5985.07033 C401.362908,5985.37104 401.240414,5985.66731 401.010738,5985.89699 C400.976723,5985.931 400.941248,5985.96266 400.904514,5985.99198 L392.26515,5994.63088 C391.772988,5995.12304 390.975036,5995.12304 390.482874,5994.63088 C390.023523,5994.17153 389.992899,5993.4458 390.391003,5992.95093 L390.482874,5992.8486 L397.1,5986.23 L375.26026,5986.23095 C374.564237,5986.23095 374,5985.66671 374,5984.97069 C374,5984.27467 374.564237,5983.71043 375.26026,5983.71043 L397.042,5983.71 L390.482874,5977.1514 C389.990712,5976.65924 389.990712,5975.86128 390.482874,5975.36912 C390.975036,5974.87696 391.772988,5974.87696 392.26515,5975.36912 Z" id="Combined-Shape"></path>
        </g>
    </g>
</svg>