<?xml version="1.0" encoding="UTF-8"?>
<svg width="85px" height="20px" viewBox="0 0 85 20" version="1.1" xmlns="http://www.w3.org/2000/svg" xmlns:xlink="http://www.w3.org/1999/xlink">
    <title>Group 70</title>
    <defs>
        <polygon id="path-1" points="0 0.220870588 10.5109174 0.220870588 10.5109174 12.4660471 0 12.4660471"></polygon>
    </defs>
    <g id="Page-1" stroke="none" stroke-width="1" fill="none" fill-rule="evenodd">
        <g id="Prototipo" transform="translate(-70.000000, -6457.000000)">
            <g id="Group-70" transform="translate(70.000000, 6457.000000)">
                <path d="M10.3820124,5.23712941 C10.4023843,5.2576 10.4190096,5.2976 10.4190096,5.32654118 C10.4190096,5.39642353 10.3625771,5.45312941 10.2927975,5.45312941 C10.26423,5.45312941 10.2241887,5.43665882 10.2038168,5.41618824 C9.17749449,4.38489412 7.74162672,3.76536471 6.09314187,3.76536471 C2.79640634,3.76536471 0.339601928,6.23407059 0.339601928,9.54654118 C0.339601928,12.8592471 2.79640634,15.3279529 6.09314187,15.3279529 C7.74162672,15.3279529 9.17749449,14.7081882 10.2038168,13.6771294 C10.2241887,13.6566588 10.26423,13.6399529 10.2927975,13.6399529 C10.3625771,13.6399529 10.4190096,13.6968941 10.4190096,13.7665412 C10.4190096,13.7957176 10.4023843,13.8357176 10.3820124,13.8561882 C9.30838981,14.9350118 7.8046157,15.5811294 6.09314187,15.5811294 C2.67042837,15.5811294 0.0878801653,12.9858353 0.0878801653,9.54654118 C0.0878801653,6.10748235 2.67042837,3.51218824 6.09314187,3.51218824 C7.8046157,3.51218824 9.30838981,4.15830588 10.3820124,5.23712941" id="Fill-1" fill="#FFFFFF"></path>
                <path d="M25.529668,3.50825882 C25.6006185,3.50825882 25.6582218,3.56614118 25.6582218,3.63767059 C25.6582218,3.66402353 25.6444063,3.70143529 25.6273127,3.72167059 L20.6125468,10.1452 L20.6125468,15.4550824 L20.6125468,15.4583765 C20.6125468,15.5280235 20.5563485,15.5849647 20.4865689,15.5849647 C20.4172576,15.5849647 20.3605909,15.5280235 20.3605909,15.4583765 C20.3605909,15.4574353 20.3608251,15.4560235 20.3608251,15.4550824 L20.3608251,10.1452 L15.3460592,3.72167059 C15.3301364,3.70190588 15.3174917,3.66567059 15.3174917,3.64049412 C15.3174917,3.5692 15.375095,3.51131765 15.4460455,3.51131765 L15.4486212,3.51131765 C15.4830427,3.51202353 15.5277672,3.53461176 15.5486074,3.56214118 L20.4865689,9.88778824 L25.4252328,3.56214118 C25.4458388,3.5332 25.4912658,3.5092 25.5268581,3.50825882 C25.5275606,3.50825882 25.5289656,3.50825882 25.529668,3.50825882" id="Fill-3" fill="#FFFFFF"></path>
                <path d="M35.26273,3.52032941 C36.1099201,3.52032941 37.134135,3.59585882 37.9632948,3.98009412 C38.7924545,4.36432941 39.4228127,5.08315294 39.4228127,6.29609412 C39.4228127,7.50903529 38.7957328,8.26715294 37.9677438,8.69538824 C37.6052645,8.88268235 37.2048512,9.00832941 36.7981157,9.09350588 C37.315843,9.16997647 37.8408292,9.30738824 38.3091488,9.55209412 C39.1788182,10.0066824 39.8426612,10.8445647 39.8426612,12.2631529 C39.8426612,13.6822118 39.1797548,14.5323294 38.3105537,15.0003294 C37.4413526,15.4680941 36.374989,15.5730353 35.5252231,15.5730353 L31.3258017,15.5730353 L31.3243967,15.5730353 C31.2593003,15.5730353 31.2066143,15.5198588 31.2066143,15.4546824 C31.2066143,15.3890353 31.2593003,15.3360941 31.3243967,15.3360941 L31.3258017,15.3360941 L35.5252231,15.3360941 C36.3550854,15.3360941 37.3886667,15.2280941 38.1993278,14.7913882 C39.009989,14.3551529 39.6068623,13.6097412 39.6068623,12.2631529 C39.6068623,10.9170353 39.0109256,10.1857412 38.2004986,9.76221176 C37.3900716,9.33868235 36.3562562,9.24315294 35.5252231,9.24315294 L35.26273,9.24315294 L31.3258017,9.24315294 L31.3243967,9.24315294 C31.2593003,9.24315294 31.2066143,9.18997647 31.2066143,9.12456471 C31.2066143,9.05938824 31.2593003,9.00621176 31.3243967,9.00621176 C31.324865,9.00621176 31.3253333,9.00621176 31.3258017,9.00621176 L35.26273,9.00621176 C36.0914215,9.00621176 37.0868347,8.88432941 37.8597961,8.4848 C38.6327576,8.08503529 39.1870138,7.42927059 39.1870138,6.29609412 C39.1870138,5.16291765 38.6365041,4.55303529 37.8644793,4.19515294 C37.0924545,3.83727059 36.0954022,3.75703529 35.26273,3.75703529 L31.3258017,3.75703529 L31.3243967,3.75703529 C31.2593003,3.75703529 31.2063802,3.70409412 31.2063802,3.63868235 C31.2063802,3.57327059 31.2593003,3.52032941 31.3243967,3.52032941 L31.3258017,3.52032941 L35.26273,3.52032941 Z" id="Fill-5" fill="#FFFFFF"></path>
                <path d="M65.2587383,9.79122353 C65.9008044,9.71898824 66.581741,9.55475294 67.1540275,9.23310588 C67.9649229,8.77734118 68.5594545,8.03687059 68.5594545,6.79357647 C68.5594545,5.55028235 67.9653912,4.81404706 67.15473,4.36228235 C66.3438347,3.91051765 65.3111901,3.76322353 64.4855427,3.76322353 L60.5455702,3.76322353 L65.2587383,9.79122353 Z M64.4855427,3.51004706 C65.3402259,3.51004706 66.4075262,3.6564 67.2764931,4.14063529 C68.1456942,4.62487059 68.8114105,5.46698824 68.8114105,6.79357647 C68.8114105,8.11992941 68.1461625,8.96604706 67.2771956,9.45428235 C66.7098264,9.77310588 66.0607355,9.93828235 65.438573,10.0213412 L69.6244132,15.3745176 C69.6408044,15.3940471 69.6541515,15.4307529 69.6541515,15.4564 C69.6541515,15.5262824 69.597719,15.5829882 69.5281736,15.5829882 C69.4928154,15.5829882 69.4471543,15.5596941 69.426314,15.5309882 L65.1505565,10.0627529 C64.9203774,10.0839294 64.6962865,10.0931059 64.4855427,10.0931059 L60.4123333,10.0931059 L60.4123333,15.4526353 L60.4123333,15.4559294 C60.4123333,15.5258118 60.3559008,15.5825176 60.2863554,15.5825176 C60.2168099,15.5825176 60.1603774,15.5258118 60.1603774,15.4559294 L60.1603774,15.4526353 L60.1603774,9.96675294 C60.1603774,9.89687059 60.2168099,9.84016471 60.2863554,9.84016471 L64.4855427,9.84016471 C64.6356391,9.84016471 64.7979118,9.82863529 64.9590138,9.81781176 L60.1873058,3.71498824 C60.1723196,3.69592941 60.1603774,3.66087059 60.1603774,3.63663529 C60.1603774,3.56675294 60.2168099,3.51028235 60.2863554,3.51004706 L64.4855427,3.51004706 Z" id="Fill-7" fill="#FFFFFF"></path>
                <path d="M84.8371419,5.23712941 C84.8577479,5.2576 84.8741391,5.2976 84.8741391,5.32654118 C84.8741391,5.39642353 84.8177066,5.45312941 84.7481612,5.45312941 C84.7193595,5.45312941 84.6793182,5.43665882 84.6589463,5.41618824 C83.6328581,4.38489412 82.1967562,3.76536471 80.5485055,3.76536471 C77.2515358,3.76536471 74.7949656,6.23407059 74.7949656,9.54654118 C74.7949656,12.8592471 77.2515358,15.3279529 80.5485055,15.3279529 C82.1787259,15.3279529 83.5984366,14.7180706 84.6221832,13.7074824 L84.6221832,9.67336471 L78.8686433,9.67336471 C78.7990978,9.67336471 78.7426653,9.61665882 78.7426653,9.54677647 C78.7426653,9.47689412 78.7990978,9.42018824 78.8686433,9.42018824 L84.7481612,9.42018824 C84.8177066,9.42018824 84.873905,9.47689412 84.8741391,9.54654118 L84.8741391,13.7665412 C84.8741391,13.7957176 84.8575138,13.8357176 84.8371419,13.8561882 C83.7635193,14.9350118 82.2597452,15.5811294 80.5485055,15.5811294 C77.1255579,15.5811294 74.5430096,12.9858353 74.5430096,9.54654118 C74.5430096,6.10748235 77.1255579,3.51218817 80.5485055,3.51218817 C82.2597452,3.51195294 83.7635193,4.15830588 84.8371419,5.23712941" id="Fill-9" fill="#FFFFFF"></path>
                <g id="Group-13" transform="translate(0.000000, 3.203294)">
                    <mask id="mask-2" fill="white">
                        <use xlink:href="#path-1"></use>
                    </mask>
                    <g id="Clip-12"></g>
                    <path d="M6.09325895,0.397341176 C4.41831405,0.397341176 2.99813499,0.970988235 1.87229477,2.10228235 C0.746454545,3.23357647 0.175573003,4.66063529 0.175573003,6.34345882 C0.175573003,8.02604706 0.746454545,9.45310588 1.87229477,10.5846353 C2.99836915,11.7161647 4.41854821,12.2895765 6.09325895,12.2895765 C7.78061433,12.2895765 9.20360331,11.7194588 10.3233554,10.5940471 C10.3296777,10.5879294 10.3352975,10.5796941 10.3352975,10.5620471 C10.3352975,10.5227529 10.3303802,10.5175765 10.2912755,10.5175765 C10.2737135,10.5175765 10.2652837,10.5236941 10.2589614,10.5298118 C9.15583471,11.6514588 7.75415427,12.2204 6.09325895,12.2204 C4.4325978,12.2204 3.02763912,11.6547529 1.91772176,10.5392235 C0.807570248,9.42392941 0.244650138,8.01216471 0.244650138,6.34345882 C0.244650138,4.67498824 0.807570248,3.26322353 1.91772176,2.14769412 C3.02787328,1.03216471 4.43283196,0.466517647 6.09325895,0.466517647 C7.75368595,0.466517647 9.15536639,1.03545882 10.2594298,2.15757647 C10.2662204,2.1644 10.2741818,2.16910588 10.2912755,2.16910588 C10.3308485,2.16910588 10.3352975,2.1644 10.3352975,2.12487059 C10.3352975,2.10722353 10.3294435,2.09875294 10.3228871,2.0924 C9.20336915,0.967694118 7.78014601,0.397341176 6.09325895,0.397341176 M6.09325895,12.4660471 C4.37031129,12.4660471 2.90845179,11.8752235 1.74819008,10.7095765 C0.588162534,9.54369412 -4.68319559e-05,8.07451765 -4.68319559e-05,6.34345882 C-4.68319559e-05,4.61216471 0.588162534,3.14322353 1.74819008,1.97757647 C2.90821763,0.811929412 4.37007713,0.220870588 6.09325895,0.220870588 C7.82838292,0.220870588 9.29352066,0.808635294 10.4474601,1.96792941 C10.4891405,2.01004706 10.5109174,2.06416471 10.5109174,2.12487059 C10.5109174,2.26087059 10.426854,2.34557647 10.2912755,2.34557647 C10.2299256,2.34557647 10.1758347,2.32345882 10.1346226,2.28181176 C9.06474656,1.19428235 7.70498072,0.642988235 6.09325895,0.642988235 C4.48106887,0.642988235 3.11779063,1.19122353 2.04182645,2.2724 C0.965862259,3.35357647 0.420269972,4.72345882 0.420269972,6.34345882 C0.420269972,7.96369412 0.965862259,9.33334118 2.04182645,10.4145176 C3.11755647,11.4954588 4.48083471,12.0439294 6.09325895,12.0439294 C7.70544904,12.0439294 9.06521488,11.4926353 10.1346226,10.4051059 C10.1767713,10.3629882 10.2308623,10.3411059 10.2912755,10.3411059 C10.426854,10.3411059 10.5109174,10.4258118 10.5109174,10.5620471 C10.5109174,10.6227529 10.4889063,10.6773412 10.4474601,10.7189882 C9.29375482,11.8782824 7.82885124,12.4660471 6.09325895,12.4660471" id="Fill-11" fill="#FFFFFF" mask="url(#mask-2)"></path>
                </g>
                <path d="M20.4351006,15.4888471 C20.4365055,15.4888471 20.498792,15.4879059 20.4990262,15.4876706 L20.5011336,15.4488471 L20.5011336,10.1215529 L20.5198664,10.0975529 L25.5463402,3.66578824 C25.5409545,3.66814118 25.5463402,3.65567059 25.5465744,3.64461176 C25.5465744,3.60555294 25.541657,3.60061176 25.5025523,3.60061176 C25.4992741,3.60061176 25.4929518,3.60061176 25.481478,3.61778824 L25.4774972,3.62343529 L20.4760785,10.0302588 L15.455927,3.62367059 C15.4402383,3.60061176 15.4336818,3.60061176 15.4308719,3.60061176 C15.3912989,3.60061176 15.3868499,3.60508235 15.3868499,3.64461176 L15.4058168,3.66602353 L20.4320565,10.1215529 L20.4351006,15.4888471 Z M20.4667121,15.6695529 C20.3369876,15.6695529 20.2564366,15.5919059 20.2564366,15.4674353 L20.2564366,10.1824941 L15.2674284,3.77472941 C15.2327727,3.74155294 15.21123,3.69472941 15.21123,3.64461176 C15.21123,3.50837647 15.2952934,3.42414118 15.4308719,3.42414118 C15.477938,3.42414118 15.5451419,3.44061176 15.5978278,3.51990588 L20.4758444,9.74461176 L25.3374697,3.51708235 C25.3894532,3.44014118 25.4557204,3.42414118 25.5025523,3.42414118 C25.6378967,3.42414118 25.7221942,3.50837647 25.7221942,3.64461176 C25.7221942,3.6832 25.7125937,3.72202353 25.6938609,3.75967059 L20.6767534,10.1824941 L20.6767534,15.4488471 C20.6767534,15.5919059 20.5962025,15.6695529 20.4667121,15.6695529 L20.4667121,15.6695529 Z" id="Fill-14" fill="#FFFFFF"></path>
                <path d="M31.3006529,15.4235765 C31.2807493,15.4256941 31.2755978,15.4334588 31.2755978,15.4581647 C31.2755978,15.4831059 31.2807493,15.4908706 31.2807493,15.4908706 L35.4989036,15.4929882 C36.6327052,15.4929882 37.5557631,15.2993412 38.2425537,14.9174588 C39.2374986,14.3934588 39.7409421,13.5033412 39.7409421,12.2708706 C39.7409421,11.0384 39.2374986,10.1482824 38.244427,9.62475294 C37.8416722,9.41628235 37.3440826,9.26663529 36.7661763,9.17981176 L36.2596887,9.10381176 L36.7624298,9.00592941 C37.2031185,8.92004706 37.5873747,8.78945882 37.904427,8.61769412 C38.8492617,8.12475294 39.3082149,7.36451765 39.3082149,6.29298824 C39.3082149,5.22404706 38.8506667,4.49557647 37.9098127,4.06545882 C37.258146,3.75698824 36.3589725,3.60051765 35.2352397,3.60051765 L31.3006529,3.60051765 C31.2807493,3.60287059 31.2755978,3.6104 31.2755978,3.63510588 C31.2755978,3.65981176 31.2807493,3.66781176 31.2807493,3.66781176 L35.2352397,3.66969412 C36.3470303,3.66969412 37.2396474,3.81887059 37.88827,4.11298824 C38.7975124,4.54381176 39.2578705,5.27698824 39.2578705,6.29298824 C39.2578705,7.33298824 38.7918926,8.09792941 37.8728154,8.56616471 C37.1984353,8.91134118 36.3109697,9.08616471 35.2352397,9.08616471 L31.3006529,9.08616471 C31.2807493,9.08851765 31.2755978,9.09628235 31.2755978,9.12098824 C31.2755978,9.14592941 31.2807493,9.15392941 31.2807493,9.15392941 L35.4989036,9.15581176 C36.6364518,9.15581176 37.5555289,9.33087059 38.2308457,9.67604706 C39.1873884,10.1828706 39.671865,11.0558118 39.671865,12.2708706 C39.671865,13.4736941 39.1810661,14.3464 38.2132837,14.8645176 C37.5391377,15.2353412 36.6256804,15.4235765 35.4989036,15.4235765 L31.3006529,15.4235765 Z M35.4989036,15.6694588 L31.3006529,15.6694588 C31.1767824,15.6694588 31.099978,15.5885176 31.099978,15.4581647 C31.099978,15.3280471 31.1767824,15.2471059 31.3006529,15.2471059 L35.4989036,15.2471059 C36.5959421,15.2471059 37.4810661,15.0661647 38.1299229,14.7092235 C39.0497025,14.2167529 39.4962452,13.4191059 39.4962452,12.2708706 C39.4962452,11.1101647 39.0560248,10.3125176 38.1500606,9.83275294 C37.5009697,9.50098824 36.6085868,9.33228235 35.4989036,9.33228235 L31.3006529,9.33228235 C31.1767824,9.33228235 31.099978,9.25134118 31.099978,9.12098824 C31.099978,8.99087059 31.1767824,8.90969412 31.3006529,8.90969412 L35.2352397,8.90969412 C36.2831047,8.90969412 37.143876,8.74122353 37.7934353,8.40898824 C38.6607631,7.96687059 39.0822507,7.27487059 39.0822507,6.29298824 C39.0822507,5.33816471 38.6675537,4.67745882 37.8147438,4.27322353 C37.1902397,3.99016471 36.3219752,3.84616471 35.2352397,3.84616471 L31.3006529,3.84616471 C31.1767824,3.84616471 31.099978,3.76545882 31.099978,3.63510588 C31.099978,3.50498824 31.1767824,3.42404706 31.3006529,3.42404706 L35.2352397,3.42404706 C36.3849642,3.42404706 37.3096612,3.58592941 37.983573,3.90522353 C38.9787521,4.36004706 39.4838347,5.16357647 39.4838347,6.29298824 C39.4838347,7.42075294 38.9799229,8.25534118 37.9866171,8.77369412 C37.7587796,8.89698824 37.4983939,9.00004706 37.2092066,9.08145882 C37.6320992,9.17369412 38.0062865,9.30310588 38.3254463,9.46828235 C39.3815069,10.0249882 39.916562,10.9678118 39.916562,12.2708706 C39.916562,13.5744 39.3812727,14.5169882 38.3259146,15.0727529 C37.6145372,15.4682824 36.6626777,15.6694588 35.4989036,15.6694588 L35.4989036,15.6694588 Z" id="Fill-16" fill="#FFFFFF"></path>
                <path d="M60.6988044,3.84625882 L65.2815455,9.6992 C65.9980744,9.61049412 66.6036116,9.42531765 67.082,9.14861176 C68.0027163,8.64296471 68.4497273,7.87308235 68.4497273,6.79425882 C68.4497273,5.71543529 68.0088044,4.94555294 67.1021377,4.44061176 C66.3907603,4.04625882 65.5054022,3.84625882 64.4713526,3.84625882 L60.6988044,3.84625882 Z M65.2045069,9.88578824 L65.1740661,9.8472 L60.3370275,3.66978824 L64.4713526,3.66978824 C65.5353747,3.66978824 66.4493003,3.87708235 67.1869036,4.28625882 C68.1413388,4.81755294 68.6253471,5.66155294 68.6253471,6.79425882 C68.6253471,7.92767059 68.1350165,8.77143529 67.1679366,9.30249412 C66.6595758,9.59637647 66.0146997,9.7912 65.2532121,9.88037647 L65.2045069,9.88578824 Z M65.1691488,9.96437647 L69.4727713,15.4700235 C69.4828402,15.4843765 69.4903333,15.4928471 69.5165592,15.4928471 C69.5345895,15.4904941 69.5418485,15.4813176 69.5418485,15.4488471 C69.5418485,15.4373176 69.5385702,15.4253176 69.5322479,15.4121412 L65.2487631,9.95331765 L65.4007328,9.93237647 C66.1142176,9.83355294 66.7246722,9.64602353 67.2152369,9.37496471 C68.2094793,8.82649412 68.7136253,7.95825882 68.7136253,6.79425882 C68.7136253,5.63025882 68.2094793,4.76202353 67.2152369,4.21378824 C66.4788044,3.80696471 65.5555124,3.60061176 64.4713526,3.60061176 L60.2731019,3.60061176 C60.2339972,3.60061176 60.229314,3.60508235 60.229314,3.64461176 C60.229314,3.65614118 60.2325923,3.66814118 60.2386804,3.68108235 L65.1089697,9.88155294 L64.9518485,9.8992 C64.7202645,9.92508235 64.5629091,9.93778824 64.4713526,9.93778824 L60.2731019,9.93778824 C60.2407879,9.93778824 60.2316556,9.94484706 60.2316556,9.94484706 L60.229314,15.4488471 C60.229314,15.4928471 60.2354022,15.4928471 60.2637355,15.4928471 C60.2918347,15.4928471 60.2983912,15.4928471 60.2983912,15.4488471 L60.2983912,10.0072 L64.4713526,10.0072 C64.6816281,10.0072 64.899865,9.99472941 65.1204435,9.96978824 L65.1691488,9.96437647 Z M69.5165592,15.6693176 C69.4364766,15.6693176 69.3723168,15.6361412 69.3306364,15.5733176 L65.0914077,10.1504941 C64.8806639,10.1726118 64.6724959,10.1836706 64.4713526,10.1836706 L60.474011,10.1836706 L60.474011,15.4488471 C60.474011,15.5848471 60.3932259,15.6693176 60.2637355,15.6693176 C60.1342452,15.6693176 60.0536942,15.5848471 60.0536942,15.4488471 L60.0536942,9.96296471 C60.0536942,9.86555294 60.1112975,9.76131765 60.2731019,9.76131765 L64.4713526,9.76131765 C64.5336391,9.76131765 64.6354986,9.75425882 64.7743554,9.74061176 L60.0913939,3.7752 C60.0630606,3.72249412 60.0536942,3.68390588 60.0536942,3.64461176 C60.0536942,3.50861176 60.1377576,3.42414118 60.2731019,3.42414118 L64.4713526,3.42414118 C65.5854848,3.42414118 66.5371102,3.63778824 67.2997686,4.05896471 C68.3544242,4.64061176 68.8892452,5.56108235 68.8892452,6.79425882 C68.8892452,8.02767059 68.3544242,8.94790588 67.2997686,9.52955294 C66.825595,9.79167059 66.2460496,9.97825882 65.575416,10.0848471 L69.6797686,15.3184941 C69.7081019,15.3716706 69.7174683,15.4102588 69.7174683,15.4488471 C69.7174683,15.6112 69.6135014,15.6693176 69.5165592,15.6693176 L69.5165592,15.6693176 Z" id="Fill-18" fill="#FFFFFF"></path>
                <path d="M80.530124,3.60063529 C78.8556474,3.60063529 77.4354683,4.17428235 76.3096281,5.30557647 C75.1835537,6.43687059 74.6126722,7.86392941 74.6126722,9.54675294 C74.6126722,11.2293412 75.1835537,12.6564 76.3096281,13.7879294 C77.4357025,14.9194588 78.8558815,15.4928706 80.530124,15.4928706 C82.2172452,15.4928706 83.6404683,14.9227529 84.7599862,13.7973412 C84.7665427,13.7912235 84.7721625,13.7829882 84.7721625,13.7653412 L84.7721625,9.54675294 C84.7721625,9.50769412 84.7672452,9.50275294 84.7283747,9.50275294 L78.8547107,9.50275294 C78.8153719,9.50275294 78.8106887,9.50722353 78.8106887,9.54675294 C78.8106887,9.58628235 78.8153719,9.59098824 78.8547107,9.59098824 L84.6841185,9.59098824 L84.6841185,13.7455765 L84.6581267,13.7712235 C83.5542975,14.8676941 82.1654959,15.4236941 80.530124,15.4236941 C78.8692287,15.4236941 77.4645041,14.8580471 76.3545868,13.7425176 C75.2444353,12.6272235 74.681281,11.2154588 74.681281,9.54675294 C74.681281,7.87828235 75.2444353,6.46651765 76.3545868,5.35098824 C77.4647383,4.23545882 78.8694628,3.66981176 80.530124,3.66981176 C82.190551,3.66981176 83.5922314,4.23875294 84.6965289,5.36087059 C84.7023829,5.36698824 84.7103444,5.3724 84.7283747,5.3724 C84.7677135,5.3724 84.7721625,5.36769412 84.7721625,5.32816471 C84.7721625,5.31051765 84.7663085,5.30204706 84.7599862,5.29592941 C83.6402342,4.17098824 82.217011,3.60063529 80.530124,3.60063529 M80.530124,15.6693412 C78.8076446,15.6693412 77.345551,15.0785176 76.1852893,13.9128706 C75.0250275,12.7469882 74.4370523,11.2778118 74.4370523,9.54675294 C74.4370523,7.81545882 75.0250275,6.34628235 76.1850551,5.18087059 C77.3453168,4.01522353 78.8074105,3.42416471 80.530124,3.42416471 C82.2652479,3.42416471 83.7303857,4.01192941 84.8843251,5.17122353 C84.9257713,5.21310588 84.9477824,5.26722353 84.9477824,5.32816471 C84.9477824,5.46416471 84.863719,5.54887059 84.7283747,5.54887059 C84.6667906,5.54887059 84.6126997,5.52675294 84.5717218,5.48487059 C83.5016116,4.39757647 82.1420799,3.84628235 80.530124,3.84628235 C78.9176997,3.84628235 77.5548898,4.39451765 76.4789256,5.47569412 C75.4027273,6.55710588 74.8569008,7.92675294 74.8569008,9.54675294 C74.8569008,11.1669882 75.4027273,12.5366353 76.4786915,13.6178118 C77.5546556,14.6987529 78.9174656,15.2472235 80.530124,15.2472235 C82.1048485,15.2472235 83.4430716,14.7171059 84.5084986,13.6714588 L84.5084986,9.76745882 L78.8547107,9.76745882 C78.717259,9.76745882 78.6350689,9.68487059 78.6350689,9.54675294 C78.6350689,9.41075294 78.7193664,9.32628235 78.8547107,9.32628235 L84.7283747,9.32628235 C84.863719,9.32628235 84.9477824,9.41075294 84.9477824,9.54675294 L84.9477824,13.7653412 C84.9477824,13.8262824 84.9257713,13.8808706 84.8843251,13.9225176 C83.7306198,15.0815765 82.2654821,15.6693412 80.530124,15.6693412" id="Fill-20" fill="#FFFFFF"></path>
                <path d="M45.4857245,8.25503529 C44.6411102,8.25503529 44.0278457,8.43221176 43.660449,8.78303529 C43.3850771,9.04585882 43.2455179,9.4108 43.2455179,9.86774118 C43.2455179,11.5588 44.7951873,13.5333882 49.1629697,13.5333882 C51.8928044,13.5333882 55.0808898,12.5733882 55.0808898,9.86774118 C55.0808898,9.50515294 54.9090165,9.14727059 54.5971157,8.85974118 C54.1072534,8.40821176 53.3424876,8.19032941 52.4992782,8.26397647 C50.7707107,8.41174118 47.5589752,8.35315294 45.8306419,8.26421176 C45.7116887,8.25809412 45.5967163,8.25503529 45.4857245,8.25503529 M49.1629697,13.7098588 C44.6654628,13.7098588 43.0698981,11.6399765 43.0698981,9.86774118 C43.0698981,9.36068235 43.2277218,8.95268235 43.5393884,8.65527059 C43.9917851,8.22350588 44.7647466,8.03338824 45.8397741,8.08797647 C47.5631901,8.17668235 50.7643884,8.23527059 52.484292,8.08821176 C53.3771433,8.01032941 54.190146,8.24491765 54.7158347,8.72962353 C55.0642645,9.05103529 55.2565096,9.45527059 55.2565096,9.86774118 C55.2565096,11.6399765 53.6604766,13.7098588 49.1629697,13.7098588" id="Fill-22" fill="#FFFFFF"></path>
                <path d="M45.5097493,8.99355294 C44.8168705,8.99355294 44.2532479,9.55967059 44.2532479,10.2554353 C44.2532479,10.9516706 44.8168705,11.5182588 45.5097493,11.5182588 C46.2026281,11.5182588 46.7662507,10.9516706 46.7662507,10.2554353 C46.7662507,9.55967059 46.2026281,8.99355294 45.5097493,8.99355294 M45.5097493,11.6947294 C44.7201625,11.6947294 44.0776281,11.0490824 44.0776281,10.2554353 C44.0776281,9.46225882 44.7201625,8.81708235 45.5097493,8.81708235 C46.2993361,8.81708235 46.9418705,9.46225882 46.9418705,10.2554353 C46.9418705,11.0490824 46.2993361,11.6947294 45.5097493,11.6947294" id="Fill-24" fill="#FFFFFF"></path>
                <path d="M52.815792,8.99355294 C52.1229132,8.99355294 51.5592906,9.55967059 51.5592906,10.2554353 C51.5592906,10.9516706 52.1229132,11.5182588 52.815792,11.5182588 C53.5084366,11.5182588 54.0720592,10.9516706 54.0720592,10.2554353 C54.0720592,9.55967059 53.5084366,8.99355294 52.815792,8.99355294 M52.815792,11.6947294 C52.0262052,11.6947294 51.3836708,11.0490824 51.3836708,10.2554353 C51.3836708,9.46225882 52.0262052,8.81708235 52.815792,8.81708235 C53.6053788,8.81708235 54.2476791,9.46225882 54.2476791,10.2554353 C54.2476791,11.0490824 53.6053788,11.6947294 52.815792,11.6947294" id="Fill-26" fill="#FFFFFF"></path>
                <path d="M49.184489,0.174964706 C49.1481942,0.174964706 49.1245441,0.177552941 49.1198609,0.178258824 C48.8868719,0.202023529 48.7145303,0.282729412 48.6054118,0.418729412 C48.4447782,0.619435294 48.4717066,0.8792 48.4719408,0.881788235 C48.5005083,1.40131765 48.8529187,1.53072941 48.8676708,1.53614118 L48.9351088,1.55967059 L48.7412245,3.09355294 L48.6868994,3.11025882 C48.3569683,3.21190588 48.1986763,3.77049412 48.1970372,3.77614118 L48.1818168,3.83143529 L48.1253843,3.83990588 C41.6834146,4.79449412 41.6089518,9.75355294 41.6089518,9.80343529 C41.9592548,16.0735529 49.1308664,16.1460235 49.2032218,16.1460235 C56.5778499,15.8013176 56.7169408,10.0243765 56.7174091,9.96602353 C56.6384972,4.62672941 50.3403017,3.8472 50.2766102,3.83990588 L50.208938,3.83214118 L50.1995716,3.76437647 C50.1274504,3.24790588 49.7804256,3.11402353 49.7769132,3.11284706 L49.7291446,3.0952 L49.4685248,1.57378824 L49.5429876,1.55143529 C49.9497231,1.42908235 49.9380152,0.916847059 49.9373127,0.8952 C49.8354532,0.237082353 49.360343,0.174964706 49.184489,0.174964706 L49.184489,0.174964706 Z M49.2072025,16.3224941 C49.1203292,16.3224941 41.7930014,16.2443765 41.433332,9.80837647 C41.433332,9.75214118 41.5087314,4.67002353 48.0450675,3.67355294 C48.0963485,3.52014118 48.2623678,3.09825882 48.5810592,2.96178824 L48.7440344,1.67308235 C48.6105634,1.60272941 48.324186,1.39472941 48.2972576,0.896847059 C48.2960868,0.889082353 48.2607287,0.569317647 48.4672576,0.310023529 C48.6068168,0.134729412 48.819668,0.0314352941 49.1001915,0.00296470588 C49.1069821,0.00225882353 49.9626019,-0.0925647059 50.1119959,0.878729412 C50.1206598,1.10555294 50.0347231,1.53543529 49.6673264,1.69378824 L49.8857975,2.96931765 C49.9991309,3.02884706 50.2766102,3.21731765 50.3625468,3.67355294 C51.0495716,3.77355294 56.8164587,4.77190588 56.8930289,9.96555294 C56.8925606,10.0276706 56.7501915,15.9700235 49.2074366,16.3224941 L49.2072025,16.3224941 Z" id="Fill-28" fill="#FFFFFF"></path>
                <path d="M61.4723981,17.9263529 C61.4763788,17.9301176 61.4791887,17.9374118 61.4791887,17.9428235 C61.4791887,17.9555294 61.4688857,17.9661176 61.456241,17.9661176 C61.4508554,17.9661176 61.4435964,17.9628235 61.4398499,17.9592941 C61.2518196,17.7701176 60.988624,17.6567059 60.6863237,17.6567059 C60.0819573,17.6567059 59.6314339,18.1091765 59.6314339,18.7164706 C59.6314339,19.3237647 60.0819573,19.7762353 60.6863237,19.7762353 C60.988624,19.7762353 61.2518196,19.6628235 61.4398499,19.4736471 C61.4435964,19.4701176 61.4508554,19.4670588 61.456241,19.4670588 C61.4688857,19.4670588 61.4791887,19.4774118 61.4791887,19.4901176 C61.4791887,19.4955294 61.4763788,19.5028235 61.4723981,19.5065882 C61.2757039,19.7044706 60.9998636,19.8228235 60.6863237,19.8228235 C60.0587755,19.8228235 59.5850702,19.3470588 59.5850702,18.7164706 C59.5850702,18.0861176 60.0587755,17.6101176 60.6863237,17.6101176 C60.9998636,17.6101176 61.2757039,17.7284706 61.4723981,17.9263529" id="Fill-30" fill="#FFFFFF"></path>
                <path d="M62.5407521,18.7165647 C62.5407521,19.3033882 62.9650496,19.7763294 63.5689477,19.7763294 C64.1728457,19.7763294 64.6505317,19.3019765 64.6505317,18.7165647 C64.6505317,18.1309176 64.1728457,17.6565647 63.5689477,17.6565647 C62.9650496,17.6565647 62.5407521,18.1295059 62.5407521,18.7165647 M64.6966612,18.7165647 C64.6966612,19.3273882 64.1969642,19.8229176 63.5689477,19.8229176 C62.9409311,19.8229176 62.4946226,19.3259765 62.4946226,18.7165647 C62.4946226,18.1069176 62.9409311,17.6102118 63.5689477,17.6102118 C64.1969642,17.6102118 64.6966612,18.1055059 64.6966612,18.7165647" id="Fill-32" fill="#FFFFFF"></path>
                <path d="M67.2742452,17.6099294 C67.287124,17.6099294 67.297427,17.6202824 67.297427,17.6332235 L67.297427,17.6334588 L67.297427,19.7998118 C67.297427,19.8125176 67.287124,19.8228706 67.2742452,19.8228706 C67.2679229,19.8228706 67.2594931,19.8186353 67.2555124,19.8132235 L65.7573581,17.7059294 L65.7573581,19.7998118 C65.7573581,19.8125176 65.7472893,19.8228706 65.7344105,19.8228706 C65.7215317,19.8228706 65.7112287,19.8125176 65.7112287,19.7998118 L65.7112287,17.6334588 C65.7112287,17.6205176 65.7215317,17.6101647 65.7344105,17.6101647 C65.7409669,17.6101647 65.7493967,17.6146353 65.7531433,17.6200471 L67.2510634,19.7273412 L67.2510634,17.6334588 L67.2510634,17.6332235 C67.2510634,17.6205176 67.2613664,17.6101647 67.274011,17.6099294 L67.2742452,17.6099294 Z" id="Fill-34" fill="#FFFFFF"></path>
                <path d="M70.3192355,17.8971529 C70.3234504,17.9011529 70.3267287,17.9086824 70.3267287,17.9143294 C70.3267287,17.9270353 70.3161915,17.9376235 70.303781,17.9376235 C70.2981612,17.9376235 70.290668,17.9343294 70.2869215,17.9303294 C70.1267562,17.7729176 69.8366322,17.6566824 69.453781,17.6566824 C69.1521832,17.6566824 68.9189601,17.7329176 68.762073,17.8404471 C68.6054201,17.9479765 68.5258058,18.0860941 68.5258058,18.2096235 C68.5258058,18.2870353 68.5520317,18.3486824 68.599332,18.4016235 C68.6466322,18.4543294 68.7157094,18.4980941 68.8007094,18.5348 C68.9700069,18.6082118 69.200186,18.6531529 69.4310675,18.6971529 C69.661949,18.7416235 69.8940014,18.7853882 70.070792,18.8606824 C70.1593044,18.8983294 70.2344697,18.9437412 70.2880923,19.0028 C70.3421832,19.0618588 70.3735606,19.1350353 70.3735606,19.2220941 C70.3735606,19.4110353 70.251095,19.5628 70.0733678,19.6651529 C69.8954063,19.7672706 69.6612466,19.8228 69.4266185,19.8228 C69.0587534,19.8228 68.7077479,19.7265647 68.4410399,19.5282118 C68.4354201,19.5242118 68.4309711,19.5157412 68.4309711,19.5091529 C68.4309711,19.4962118 68.4410399,19.4858588 68.4539187,19.4858588 C68.4586019,19.4858588 68.4649242,19.4882118 68.4684366,19.4908 C68.7253099,19.6820941 69.0667149,19.7762118 69.4266185,19.7762118 C69.6539876,19.7762118 69.8818251,19.7218588 70.0504201,19.6249176 C70.2190152,19.5277412 70.3274311,19.3908 70.3274311,19.2220941 C70.3274311,19.1460941 70.3014394,19.0860941 70.2541391,19.0340941 C70.207073,18.9823294 70.1377617,18.9395059 70.0527617,18.9032706 C69.8834642,18.8315059 69.6532851,18.7872706 69.4224036,18.7430353 C69.1912879,18.6985647 68.9592355,18.6543294 68.7824449,18.5776235 C68.6939325,18.5392706 68.6187672,18.4924471 68.5649105,18.4324471 C68.5110537,18.3724471 68.4796763,18.2980941 68.4796763,18.2096235 C68.4796763,18.0660941 68.570062,17.9159765 68.7360813,17.8020941 C68.9018664,17.6882118 69.1442218,17.6100941 69.453781,17.6100941 C69.8459986,17.6100941 70.1473623,17.7279765 70.3192355,17.8971529" id="Fill-36" fill="#FFFFFF"></path>
                <path d="M71.4118485,17.6099294 C71.4247273,17.6099294 71.4350303,17.6202824 71.4350303,17.6332235 L71.4350303,17.6336941 L71.4350303,18.9584 C71.4350303,19.4120471 71.7975096,19.7765176 72.2492039,19.7765176 C72.7006639,19.7765176 73.0633774,19.4120471 73.0633774,18.9584 L73.0633774,17.6336941 C73.0633774,17.6207529 73.0739146,17.6101647 73.0863251,17.6101647 C73.0992039,17.6101647 73.1095069,17.6207529 73.1095069,17.6336941 L73.1095069,18.9584 C73.1095069,19.4369882 72.7254848,19.8228706 72.2492039,19.8228706 C71.7729229,19.8228706 71.3886667,19.4369882 71.3886667,18.9584 L71.3886667,17.6336941 L71.3886667,17.6332235 C71.3886667,17.6205176 71.3989697,17.6101647 71.4113802,17.6099294 L71.4118485,17.6099294 Z" id="Fill-38" fill="#FFFFFF"></path>
                <path d="M74.2661157,17.6099294 C74.2789945,17.6099294 74.2892975,17.6202824 74.2892975,17.6332235 L74.2892975,17.6334588 L74.2892975,19.7765176 L75.8059504,19.7765176 C75.8188292,19.7765176 75.8291322,19.7868706 75.8291322,19.7998118 C75.8291322,19.8125176 75.8188292,19.8228706 75.8059504,19.8228706 L74.2661157,19.8228706 C74.2532369,19.8228706 74.2429339,19.8125176 74.2429339,19.7998118 L74.2429339,17.6334588 L74.2429339,17.6332235 C74.2429339,17.6205176 74.2532369,17.6101647 74.2658815,17.6099294 L74.2661157,17.6099294 Z" id="Fill-40" fill="#FFFFFF"></path>
                <path d="M77.9955317,17.609704 C78.0271433,17.6087765 78.0271433,17.6567765 77.9955317,17.6560706 L77.0944848,17.6560706 L77.0944848,19.7996 C77.0954215,19.8311294 77.0476529,19.8311294 77.0483554,19.7996 L77.0483554,17.6560706 L76.1475427,17.6560706 C76.1161653,17.6567765 76.1161653,17.6087765 76.1475427,17.609704 L77.9955317,17.609704 Z" id="Fill-42" fill="#FFFFFF"></path>
                <path d="M79.0334683,17.6331529 C79.0334683,17.6204471 79.0437713,17.6100941 79.056416,17.6098588 L79.0566501,17.6098588 C79.0692948,17.6098588 79.0795978,17.6202118 79.0795978,17.6331529 L79.0795978,17.6333882 L79.0795978,19.7992706 L79.0795978,19.7997412 C79.0795978,19.8124471 79.0692948,19.8230353 79.0566501,19.8230353 L79.056416,19.8230353 C79.0437713,19.8228 79.0334683,19.8122118 79.0334683,19.7997412 L79.0334683,19.7992706 L79.0334683,17.6333882 L79.0334683,17.6331529 Z" id="Fill-44" fill="#FFFFFF"></path>
                <path d="M81.7802562,17.6099294 C81.793135,17.6099294 81.803438,17.6202824 81.803438,17.6332235 L81.803438,17.6334588 L81.803438,19.7998118 C81.803438,19.8125176 81.793135,19.8228706 81.7802562,19.8228706 C81.7739339,19.8228706 81.7655041,19.8186353 81.7615234,19.8132235 L80.2633691,17.7059294 L80.2633691,19.7998118 C80.2633691,19.8125176 80.2533003,19.8228706 80.2404215,19.8228706 C80.2275427,19.8228706 80.2172397,19.8125176 80.2172397,19.7998118 L80.2172397,17.6334588 C80.2172397,17.6205176 80.2275427,17.6101647 80.2404215,17.6101647 C80.246978,17.6101647 80.2554077,17.6146353 80.2591543,17.6200471 L81.7570744,19.7273412 L81.7570744,17.6334588 L81.7570744,17.6332235 C81.7570744,17.6205176 81.7673774,17.6101647 81.780022,17.6099294 L81.7802562,17.6099294 Z" id="Fill-46" fill="#FFFFFF"></path>
                <path d="M84.7033664,17.9263529 C84.7073471,17.9301176 84.710157,17.9374118 84.710157,17.9428235 C84.710157,17.9555294 84.699854,17.9661176 84.6872094,17.9661176 C84.6818237,17.9661176 84.6745647,17.9628235 84.6708182,17.9592941 C84.4827879,17.7701176 84.2193581,17.6567059 83.917292,17.6567059 C83.3129256,17.6567059 82.8624022,18.1091765 82.8624022,18.7164706 C82.8624022,19.3237647 83.3129256,19.7762353 83.917292,19.7762353 C84.2160799,19.7762353 84.4762314,19.6647059 84.6640275,19.4792941 L84.6640275,18.7397647 L83.6091377,18.7397647 C83.596259,18.7397647 83.5861901,18.7294118 83.5861901,18.7164706 C83.5861901,18.7037647 83.596259,18.6934118 83.6091377,18.6934118 L84.6872094,18.6934118 C84.699854,18.6934118 84.710157,18.7037647 84.710157,18.7164706 L84.710157,19.4901176 C84.710157,19.4955294 84.7073471,19.5028235 84.7033664,19.5065882 C84.5066722,19.7044706 84.230832,19.8228235 83.917292,19.8228235 C83.2897438,19.8228235 82.8160386,19.3470588 82.8160386,18.7164706 C82.8160386,18.0861176 83.2897438,17.6101176 83.917292,17.6101176 C84.230832,17.6101176 84.5066722,17.7284706 84.7033664,17.9263529" id="Fill-48" fill="#FFFFFF"></path>
                <path d="M60.6861364,19.8818118 C60.3590152,19.8818118 60.0805992,19.7691059 59.8595523,19.5472235 C59.6387397,19.3253412 59.5265771,19.0455765 59.5265771,18.7166353 C59.5265771,18.3872235 59.6387397,18.1079294 59.8595523,17.8858118 C60.0805992,17.6639294 60.358781,17.5514588 60.6861364,17.5514588 C61.0158333,17.5514588 61.2944835,17.6632235 61.5143595,17.8844 C61.529814,17.8992235 61.538478,17.9204 61.538478,17.9432235 C61.538478,17.9921647 61.5042906,18.0260471 61.4555854,18.0260471 C61.4331061,18.0260471 61.4120317,18.0173412 61.3968113,18.0018118 C61.2092493,17.8109882 60.9701722,17.7140471 60.6861364,17.7140471 C60.4021006,17.7140471 60.1625551,17.8102824 59.973354,18.0001647 C59.7818113,18.1928706 59.6886157,18.4269882 59.6886157,18.7166353 C59.6886157,19.0060471 59.7818113,19.2404 59.973354,19.4328706 C60.1648967,19.6253412 60.3978857,19.7187529 60.6861364,19.7187529 C60.9701722,19.7187529 61.2092493,19.6220471 61.3970455,19.4312235 C61.4132025,19.4152235 61.4338085,19.4067529 61.4555854,19.4067529 C61.5042906,19.4067529 61.538478,19.4411059 61.538478,19.4900471 C61.538478,19.5121647 61.5302824,19.5326353 61.5148278,19.5484 C61.2944835,19.7695765 61.0160675,19.8818118 60.6861364,19.8818118" id="Fill-50" fill="#FFFFFF"></path>
                <path d="M63.5681749,17.7142588 C63.2855441,17.7142588 63.0584091,17.8086118 62.873657,18.0029647 C62.6882025,18.1980235 62.598051,18.4314353 62.598051,18.7166118 C62.598051,18.9977882 62.6907782,19.2380235 62.873657,19.4302588 C63.0581749,19.6243765 63.2853099,19.7189647 63.5681749,19.7189647 C63.8526791,19.7189647 64.097376,19.6201412 64.2950069,19.4250824 C64.4956818,19.2283765 64.5933264,18.9963765 64.5933264,18.7166118 C64.5933264,18.4366118 64.4956818,18.2048471 64.2950069,18.0076706 C64.0969077,17.8130824 63.8524449,17.7142588 63.5681749,17.7142588 M63.5681749,19.8817882 C63.3534504,19.8817882 63.1567562,19.8286118 62.9841804,19.7241412 C62.8116047,19.6199059 62.6753237,19.4768471 62.5795523,19.2994353 C62.4844835,19.1224941 62.4362466,18.9264941 62.4362466,18.7166118 C62.4362466,18.5067294 62.4844835,18.3104941 62.5795523,18.1335529 C62.6755579,17.9556706 62.8118388,17.8128471 62.9841804,17.7090824 C63.1572245,17.6043765 63.3539187,17.5514353 63.5681749,17.5514353 C63.8952961,17.5514353 64.177927,17.6662588 64.4081061,17.8923765 C64.6382851,18.1192 64.7551309,18.3961412 64.7551309,18.7166118 C64.7551309,19.0368471 64.6382851,19.3140235 64.4081061,19.5408471 C64.177927,19.7669647 63.8955303,19.8817882 63.5681749,19.8817882" id="Fill-52" fill="#FFFFFF"></path>
                <path d="M67.3092287,19.9091059 L67.2888567,19.8806353 C67.2567769,19.8853412 67.2228237,19.8719294 67.2050275,19.8444 L65.8145868,17.8907529 L65.8145868,19.7982824 C65.8145868,19.8474588 65.7813361,19.8818118 65.7335675,19.8818118 C65.6857989,19.8818118 65.6527824,19.8474588 65.6527824,19.7982824 L65.6527824,17.6345176 C65.6527824,17.5996941 65.6701102,17.5721647 65.6975069,17.5594588 L65.6975069,17.5239294 L65.7181129,17.5528706 C65.7480854,17.5479294 65.7820386,17.5594588 65.8012397,17.5876941 L67.1921488,19.5422824 L67.1921488,17.6345176 C67.1921488,17.5855765 67.2261019,17.5512235 67.2748072,17.5512235 C67.3228099,17.5512235 67.3574656,17.5862824 67.3574656,17.6345176 L67.3574656,19.7982824 C67.3574656,19.8347529 67.3387328,19.8629882 67.3092287,19.8749882 L67.3092287,19.9091059 Z" id="Fill-54" fill="#FFFFFF"></path>
                <path d="M69.4319807,19.8814588 C69.0278209,19.8814588 68.6838402,19.7786353 68.4101074,19.5753412 C68.3895014,19.5619294 68.3759201,19.5376941 68.3759201,19.5108706 C68.3759201,19.4616941 68.4101074,19.4275765 68.4588127,19.4275765 L68.4723939,19.4275765 L68.4986198,19.4372235 C68.7512782,19.6259294 69.0622424,19.7188706 69.4319807,19.7188706 C69.6602865,19.7188706 69.8593223,19.6701647 70.0239366,19.5744 C70.1925317,19.4781647 70.2742534,19.3631059 70.2742534,19.2228706 C70.2742534,19.1664 70.2548182,19.1184 70.2145427,19.0760471 C70.1749697,19.0301647 70.115259,18.9913412 70.0344738,18.9584 C69.9253554,18.9113412 69.7171873,18.8588706 69.4144187,18.8019294 C69.0987713,18.7407529 68.8861543,18.6849882 68.7636887,18.6318118 C68.6594876,18.5871059 68.5791708,18.5329882 68.525314,18.4711059 C68.4585785,18.3988706 68.424157,18.3106353 68.424157,18.2101647 C68.424157,18.1252235 68.4501488,18.0414588 68.5009614,17.9616941 C68.5496667,17.8852235 68.6180413,17.8151059 68.7042121,17.7529882 L68.7056171,17.7522824 C68.9034821,17.6188706 69.1559063,17.5513412 69.4563333,17.5513412 C69.6523251,17.5513412 69.8302865,17.5786353 69.9843636,17.6327529 C70.1400799,17.6871059 70.2674628,17.7624 70.3634683,17.8560471 C70.3796253,17.8727529 70.3878209,17.8929882 70.3878209,17.9153412 C70.3878209,17.9614588 70.3545702,17.9951059 70.3086749,17.9951059 C70.2861956,17.9951059 70.2651212,17.9861647 70.2494325,17.9701647 C70.1719256,17.8969882 70.0632755,17.8346353 69.9283994,17.7871059 C69.7916501,17.7386353 69.6326556,17.7139294 69.4563333,17.7139294 C69.1889229,17.7139294 68.967876,17.7725176 68.7988127,17.8878118 C68.730438,17.9358118 68.6770496,17.9894588 68.6412231,18.0471059 C68.60727,18.1021647 68.589708,18.1567529 68.589708,18.2101647 C68.589708,18.2678118 68.6086749,18.3174588 68.6475455,18.3619294 C68.6859477,18.4066353 68.7461267,18.4468706 68.827146,18.4824 C68.9369669,18.5285176 69.1453691,18.5809882 69.4462645,18.6379294 C69.7651901,18.6998118 69.9780413,18.7555765 70.0974628,18.8082824 C70.2004931,18.8501647 70.2810441,18.9033412 70.3353691,18.9656941 C70.4018705,19.0376941 70.4360579,19.1249882 70.4360579,19.2228706 C70.4360579,19.4249882 70.3253003,19.5913412 70.106595,19.7179294 C69.9141157,19.8266353 69.6872149,19.8814588 69.4319807,19.8814588 L69.4319807,19.8814588 Z" id="Fill-56" fill="#FFFFFF"></path>
                <path d="M72.2535826,19.8817647 C72.0004559,19.8817647 71.7815165,19.7907059 71.6030868,19.6114118 C71.4244229,19.4318824 71.333803,19.2123529 71.333803,18.9591765 L71.333803,17.6344706 C71.333803,17.5855294 71.3679904,17.5514118 71.4166956,17.5514118 C71.4623567,17.5514118 71.4958416,17.5862353 71.4958416,17.6344706 L71.4958416,18.9591765 C71.4958416,19.1716471 71.5679628,19.3474118 71.7168884,19.4968235 C71.8655799,19.6462353 72.0404972,19.7189412 72.2517094,19.7189412 C72.4631556,19.7189412 72.638073,19.6462353 72.7867645,19.4968235 C72.9354559,19.3474118 73.0078113,19.1714118 73.0078113,18.9591765 L73.0078113,17.6344706 C73.0078113,17.5855294 73.0417645,17.5514118 73.0904697,17.5514118 C73.1389408,17.5514118 73.1728939,17.5855294 73.1728939,17.6344706 L73.1728939,18.9591765 C73.1728939,19.2123529 73.0825083,19.4318824 72.9040785,19.6114118 C72.7254146,19.7907059 72.5064752,19.8817647 72.2535826,19.8817647" id="Fill-58" fill="#FFFFFF"></path>
                <path d="M75.813303,19.8817647 L74.2741708,19.8817647 C74.2254656,19.8817647 74.1912782,19.8474118 74.1912782,19.7984706 L74.1912782,17.6344706 C74.1912782,17.5855294 74.2254656,17.5514118 74.2741708,17.5514118 C74.319832,17.5514118 74.3533168,17.5862353 74.3533168,17.6344706 L74.3533168,19.7189412 L75.813303,19.7189412 C75.8613058,19.7189412 75.8961956,19.7530588 75.8961956,19.8003529 C75.8961956,19.8481176 75.8620083,19.8817647 75.813303,19.8817647" id="Fill-60" fill="#FFFFFF"></path>
                <path d="M77.0760331,19.8824471 C77.0640909,19.8824471 77.0521488,19.8798588 77.0411433,19.8749176 C77.0118733,19.8622118 76.993843,19.8337412 76.993843,19.7986824 L76.993843,17.7139765 L76.1518044,17.7139765 C76.1232369,17.7139765 76.0979477,17.7010353 76.0824931,17.6779765 C76.0653994,17.6520941 76.0644628,17.6208 76.0801515,17.5932706 C76.0951377,17.5666824 76.1213636,17.5516235 76.1518044,17.5516235 L77.9981543,17.5516235 C78.0323416,17.5516235 78.0606749,17.5688 78.074022,17.5977412 C78.087135,17.6299765 78.0808127,17.6549176 78.0733196,17.6706824 C78.057865,17.6991529 78.0309366,17.7139765 77.9981543,17.7139765 L77.1558815,17.7139765 L77.1558815,19.7986824 C77.1558815,19.8464471 77.1266116,19.8669176 77.1139669,19.8735059 C77.1017906,19.8793882 77.0889118,19.8824471 77.0760331,19.8824471" id="Fill-62" fill="#FFFFFF"></path>
                <path d="M79.0629725,19.8817647 C79.0161405,19.8817647 78.9819532,19.8469412 78.9819532,19.7984706 L78.9819532,17.6344706 C78.9819532,17.5855294 79.0161405,17.5516471 79.0648457,17.5516471 C79.1114435,17.5516471 79.1439917,17.5855294 79.1439917,17.6344706 L79.1439917,19.7984706 C79.1439917,19.8469412 79.1098044,19.8817647 79.0629725,19.8817647" id="Fill-64" fill="#FFFFFF"></path>
                <path d="M81.822124,19.9091059 L81.8017521,19.8806353 C81.7692039,19.8853412 81.735719,19.8719294 81.7179229,19.8444 L80.3274821,17.8907529 L80.3274821,19.7982824 C80.3274821,19.8474588 80.2942314,19.8818118 80.2464628,19.8818118 C80.1986942,19.8818118 80.1656777,19.8474588 80.1656777,19.7982824 L80.1656777,17.6345176 C80.1656777,17.5996941 80.1830055,17.5721647 80.2104022,17.5594588 L80.2104022,17.5239294 L80.2310083,17.5528706 C80.2609807,17.5479294 80.2949339,17.5594588 80.314135,17.5876941 L81.7050441,19.5422824 L81.7050441,17.6345176 C81.7050441,17.5855765 81.7389972,17.5512235 81.7877025,17.5512235 C81.8357052,17.5512235 81.8703609,17.5862824 81.8703609,17.6345176 L81.8703609,19.7982824 C81.8703609,19.8347529 81.8516281,19.8629882 81.822124,19.8749882 L81.822124,19.9091059 Z" id="Fill-66" fill="#FFFFFF"></path>
                <path d="M83.927876,19.8818118 C83.6005207,19.8818118 83.3221047,19.7691059 83.1010579,19.5472235 C82.8802452,19.3253412 82.7680826,19.0455765 82.7680826,18.7166353 C82.7680826,18.3872235 82.8802452,18.1079294 83.1010579,17.8858118 C83.3221047,17.6639294 83.6005207,17.5514588 83.927876,17.5514588 C84.2573388,17.5514588 84.535989,17.6632235 84.755865,17.8844 C84.7713196,17.8992235 84.7799835,17.9204 84.7799835,17.9432235 C84.7799835,17.9921647 84.7457961,18.0260471 84.6970909,18.0260471 C84.6746116,18.0260471 84.6535372,18.0173412 84.6383168,18.0018118 C84.4507548,17.8109882 84.2116777,17.7140471 83.927876,17.7140471 C83.6398595,17.7140471 83.4066364,17.8076941 83.2148595,18.0001647 C83.0233168,18.1931059 82.9301212,18.4272235 82.9301212,18.7166353 C82.9301212,19.0058118 83.0233168,19.2401647 83.2148595,19.4328706 C83.4064022,19.6253412 83.6396253,19.7187529 83.927876,19.7187529 C84.2025455,19.7187529 84.4273388,19.6321647 84.6146667,19.4545176 L84.6146667,18.7994588 L83.6204242,18.7994588 C83.571719,18.7994588 83.5377658,18.7655765 83.5377658,18.7166353 C83.5377658,18.6676941 83.571719,18.6333412 83.6204242,18.6333412 L84.6970909,18.6333412 C84.7457961,18.6333412 84.7799835,18.6676941 84.7799835,18.7166353 L84.7799835,19.4900471 C84.7799835,19.5121647 84.7717879,19.5326353 84.7563333,19.5484 C84.535989,19.7695765 84.257573,19.8818118 83.927876,19.8818118" id="Fill-68" fill="#FFFFFF"></path>
            </g>
        </g>
    </g>
</svg>