<?xml version="1.0" encoding="UTF-8"?>
<svg width="37px" height="40px" viewBox="0 0 37 40" version="1.1" xmlns="http://www.w3.org/2000/svg" xmlns:xlink="http://www.w3.org/1999/xlink">
    <title>send</title>
    <g id="01-HOME" stroke="none" stroke-width="1" fill="none" fill-rule="evenodd">
        <g id="send" fill="#E8511D" fill-rule="nonzero">
            <path d="M36.1161719,0.554765625 C36.1149219,0.531171875 36.1121875,0.507734375 36.108125,0.48453125 C36.1072656,0.479609375 36.1060938,0.474765625 36.1051563,0.46984375 C36.1010157,0.44921875 36.0957813,0.428828125 36.089375,0.40859375 C36.0882813,0.405078125 36.0873438,0.4015625 36.0861719,0.398046875 C36.0784375,0.37515625 36.0692188,0.352734375 36.0585938,0.33078125 C36.0567969,0.327109375 36.0547656,0.323515625 36.0528906,0.31984375 C36.043125,0.300703125 36.0322656,0.28203125 36.0203125,0.263828125 C36.018125,0.26046875 36.0160938,0.257109375 36.0138282,0.253828125 C36.0000781,0.23390625 35.9850781,0.2146875 35.9685938,0.19625 C35.9654688,0.192734375 35.9620313,0.189453125 35.9588282,0.186015625 C35.9510938,0.1778125 35.9436719,0.169375 35.9354688,0.161484375 C35.9283594,0.1546875 35.9207031,0.148671875 35.9133594,0.14234375 C35.9107813,0.14015625 35.90875,0.137578125 35.9060938,0.135390625 C35.9046094,0.134140625 35.9028906,0.13328125 35.9014063,0.13203125 C35.8821094,0.11625 35.8621094,0.101796875 35.8414063,0.088828125 C35.8383594,0.086953125 35.8351563,0.0853125 35.8320313,0.0834375 C35.8134375,0.072265625 35.794375,0.06234375 35.7748438,0.0534375 C35.7702344,0.051328125 35.7657813,0.049140625 35.7610938,0.047109375 C35.7390625,0.037734375 35.7166406,0.02953125 35.69375,0.02296875 C35.6897656,0.021796875 35.6857813,0.021015625 35.6817188,0.019921875 C35.6621094,0.014765625 35.6423438,0.010625 35.6224219,0.0075 C35.6165625,0.0065625 35.6107813,0.005546875 35.6048438,0.004765625 C35.5819531,0.001875 35.5589844,-3.12638804e-13 35.5359375,-3.12638804e-13 C35.5308594,-3.12638804e-13 35.5257813,-3.12638804e-13 35.520625,0.000390625 C35.5010156,0.00078125 35.4814063,0.002109375 35.461875,0.004453125 C35.4560938,0.00515625 35.4503906,0.005625 35.4446875,0.006484375 C35.42125,0.009921875 35.3980469,0.014765625 35.3750781,0.021171875 C35.3710156,0.022265625 35.3670313,0.023671875 35.3629688,0.024921875 C35.341875,0.03125 35.3210938,0.038828125 35.300625,0.0475 C35.2982031,0.048515625 35.295625,0.049140625 35.2932031,0.050234375 L9.99374997,11.2946875 C9.69804687,11.4261719 9.56484374,11.7723438 9.69625,12.068125 C9.82765624,12.36375 10.1739063,12.4969531 10.4696094,12.365625 L32.3247657,2.65226563 L12.1273438,20.6055469 L2.02859374,16.1171875 L8.12992187,13.4054687 C8.42562499,13.2739844 8.55882812,12.9278125 8.42742187,12.6321094 C8.29601562,12.3364844 7.94968749,12.2032812 7.65406249,12.3346094 L0.34796875,15.5817188 C0.13640625,15.6757813 -1.88293825e-13,15.885625 -1.88293825e-13,16.1171875 C-1.88293825e-13,16.34875 0.13640625,16.5585156 0.34796875,16.6526563 L11.6969532,21.6966406 L12.9479688,31.0789063 C12.9483594,31.0815625 12.9492969,31.0839844 12.9496875,31.0867188 C12.9538281,31.115 12.9596875,31.143125 12.9679688,31.1707031 C12.9688281,31.1735156 12.9699219,31.17625 12.9707813,31.1789844 C12.9790625,31.2052344 12.9892969,31.2309375 13.0014063,31.2559375 C13.0025781,31.2583594 13.0035156,31.2609375 13.0047657,31.2633594 C13.0171094,31.2880469 13.0316406,31.311875 13.0477344,31.3350781 C13.0508594,31.3396094 13.0540625,31.3439844 13.0573438,31.3483594 C13.07375,31.370625 13.09125,31.3922656 13.1111719,31.4125 C13.13125,31.4328906 13.1528125,31.4508594 13.175,31.4677344 C13.179375,31.4710938 13.18375,31.4744531 13.1882813,31.4775781 C13.2113281,31.4940625 13.2350781,31.5089844 13.2596875,31.5217969 C13.2617188,31.5228125 13.2638281,31.5236719 13.2658594,31.5246875 C13.2907813,31.5371875 13.3164063,31.5477344 13.3425,31.5564844 C13.3457031,31.5575781 13.34875,31.5588281 13.3520313,31.5598438 C13.3794531,31.5685156 13.4073438,31.5747656 13.4355469,31.579375 C13.4380469,31.5797656 13.4403906,31.5807031 13.4429688,31.5810938 C13.4460156,31.5815625 13.4489063,31.5813281 13.4519531,31.5817969 C13.4775,31.5851563 13.503125,31.5875 13.5288281,31.5875 C13.5289063,31.5875 13.5289063,31.5875 13.5289844,31.5875 L13.5290625,31.5875 C13.5292188,31.5875 13.529375,31.5874219 13.5294532,31.5874219 C13.554375,31.5874219 13.5792188,31.5852344 13.6039063,31.5820313 C13.6098438,31.58125 13.6157813,31.5804688 13.6216407,31.5795313 C13.6707813,31.5716406 13.7190625,31.5575 13.7653125,31.5370313 C13.7698438,31.535 13.7742969,31.5329688 13.7788282,31.5308594 C13.800625,31.5205469 13.8220313,31.5092188 13.8426563,31.4960938 C13.8434375,31.4955469 13.8442969,31.4951563 13.8451563,31.4946094 C13.8658594,31.4813281 13.8857813,31.46625 13.905,31.45 C13.91,31.4457813 13.9147657,31.4413281 13.9196875,31.4369531 C13.9264063,31.4309375 13.9333594,31.4253906 13.9398438,31.4190625 L18.9747657,26.4621875 L27.3933594,33.3951563 C27.4997656,33.4828125 27.631875,33.5288281 27.7659375,33.5288281 C27.8282813,33.5288281 27.8910938,33.5188281 27.9519531,33.4984375 C28.1435156,33.434375 28.2885156,33.2760156 28.335625,33.0796094 L36.1011719,0.722578125 C36.1015625,0.721015625 36.1015625,0.719453125 36.1019531,0.71796875 C36.1075,0.69390625 36.1115625,0.6696875 36.1139844,0.6453125 C36.1144531,0.64078125 36.1146094,0.63625 36.1149219,0.63171875 C36.1167023,0.610859375 36.1167023,0.589921875 36.1167023,0.5690625 C36.1163282,0.564296875 36.1167023,0.55953125 36.1161719,0.554765625 Z M13.8397656,28.9009375 L12.8563281,21.5253125 L30.6575,5.7021875 L16.3080469,23.5151563 C16.3053125,23.5185156 16.303125,23.5223437 16.3004688,23.5258594 C16.2896094,23.5399219 16.279375,23.5542188 16.27,23.5689844 C16.2664063,23.5746875 16.263125,23.5804688 16.2596875,23.58625 C16.2510156,23.6009375 16.2430469,23.6158594 16.2357813,23.6310938 C16.2342969,23.6342188 16.2323438,23.6371094 16.2309375,23.6402344 L13.8397656,28.9009375 Z M15.3700781,28.3663281 L16.9816406,24.8207812 L18.0651563,25.7130469 L15.3700781,28.3663281 Z M27.4147656,31.8945312 L17.5842969,23.7989062 L34.3538281,2.98171875 L27.4147656,31.8945312 Z" id="Shape"></path>
            <path d="M17.8259375,31.2339062 C17.5971875,31.0051562 17.2261719,31.0050781 16.9973438,31.2339844 L11.8204688,36.4109375 C11.5916406,36.6398437 11.5916406,37.0107812 11.8204688,37.2396094 C11.9348438,37.3539844 12.0848438,37.4111719 12.2347656,37.4111719 C12.3846875,37.4111719 12.5346875,37.3539844 12.6490625,37.2395312 L17.8259375,32.0625781 C18.0547656,31.8336719 18.0547656,31.4627344 17.8259375,31.2339062 Z" id="Path"></path>
            <path d="M10.06,24.8029687 C9.83125,24.5742188 9.46023438,24.5742188 9.23140626,24.8029687 L4.09484376,29.9396094 C3.86601563,30.1685156 3.86601563,30.5394531 4.09484376,30.7682812 C4.20921876,30.8826562 4.35921875,30.9398437 4.50914063,30.9398437 C4.6590625,30.9398437 4.80906251,30.8825781 4.92343751,30.7682812 L10.06,25.6316406 C10.2888282,25.4027344 10.2888282,25.0317969 10.06,24.8029687 Z" id="Path"></path>
            <path d="M10.06,31.2340625 C9.83124999,31.0053125 9.46023437,31.0053125 9.23140624,31.2340625 L1.46585937,38.9998437 C1.23703125,39.22875 1.23703125,39.5996875 1.46585937,39.8285156 C1.58023437,39.9428906 1.73023437,40.0000781 1.88015624,40.0000781 C2.03007812,40.0000781 2.18007812,39.9428906 2.29445312,39.8284375 L10.06,32.0627344 C10.2888282,31.8338281 10.2888282,31.4628906 10.06,31.2340625 Z" id="Path"></path>
        </g>
    </g>
</svg>