<?xml version="1.0" encoding="utf-8"?><svg id="gear" image-rendering="auto" baseProfile="basic" version="1.1" x="0px" y="0px" width="40" height="40" xmlns="http://www.w3.org/2000/svg" xmlns:xlink="http://www.w3.org/1999/xlink"><g id="Escena-1" overflow="visible"><g id="Interpolaci.__C3.__B3n-3" transform="translate(20.25 20.25)"><path fill="#000" stroke="none" d="M10.8 -10.8Q6.3 -15.25 0 -15.25 -5.7 -15.25 -9.9 -11.65 -10.35 -11.2 -10 -10.8 -9.6 -10.4 -9.15 -10.75 -5.2 -14.1 0 -14.1 5.8 -14.1 9.95 -9.95 14.05 -5.85 14.05 0 14.05 5.8 9.95 9.95 5.8 14.05 0 14.05 -5.85 14.05 -9.95 9.95 -14.1 5.8 -14.1 0 -14.1 -5.2 -10.75 -9.15 -10.4 -9.6 -10.8 -10 -11.2 -10.35 -11.65 -9.9 -15.25 -5.7 -15.25 0 -15.25 6.3 -10.8 10.8 -6.35 15.25 0 15.25 6.3 15.25 10.8 10.8 15.25 6.3 15.25 0 15.25 -6.35 10.8 -10.8M12.75 -.25Q12.75 -5.65 8.95 -9.45 5.1 -13.25 -.25 -13.25 -5.65 -13.25 -9.45 -9.45 -13.25 -5.65 -13.25 -.25 -13.25 5.1 -9.45 8.95 -5.65 12.75 -.25 12.75 5.1 12.75 8.95 8.95 12.75 5.1 12.75 -.25M5.6 -.85Q6.2 -.85 6.2 -.25 6.2 .3 5.6 .3 5 .3 5 -.25 5 -.85 5.6 -.85M1.5 -6.8Q1.5 -7.55 1 -8.05 .45 -8.6 -.25 -8.6 -1 -8.6 -1.5 -8.05 -2.05 -7.55 -2.05 -6.8 -2.05 -5.6 -.85 -5.15L-.85 11.55Q-2.2 11.45 -3.2 11.2L-3.2 6.75Q-3.2 6.5 -3.4 6.35L-5.55 4.2 -5.55 1.4Q-4.4 .95 -4.4 -.25 -4.4 -1 -4.9 -1.5 -5.45 -2.05 -6.15 -2.05 -6.85 -2.05 -7.4 -1.5 -7.9 -1 -7.9 -.25 -7.9 .95 -6.75 1.4L-6.75 4.4Q-6.75 4.65 -6.55 4.85L-4.4 7 -4.4 10.8Q-7.8 9.55 -9.95 6.55 -12.1 3.5 -12.1 -.25 -12.1 -5.15 -8.65 -8.65 -5.15 -12.1 -.25 -12.1 4.65 -12.1 8.1 -8.65 11.55 -5.15 11.55 -.25 11.55 3.5 9.4 6.55 7.25 9.55 3.85 10.8L3.85 7 6 4.85Q6.2 4.65 6.2 4.4L6.2 1.4Q7.35 .95 7.35 -.25 7.35 -1 6.85 -1.5 6.3 -2.05 5.6 -2.05 4.9 -2.05 4.35 -1.5 3.85 -1 3.85 -.25 3.85 .95 5 1.4L5 4.2 2.85 6.35Q2.65 6.5 2.65 6.75L2.65 11.2Q1.65 11.45 .3 11.55L.3 -5.15Q1.5 -5.6 1.5 -6.8M-.25 -6.25Q-.85 -6.25 -.85 -6.8 -.85 -7.4 -.25 -7.4 .3 -7.4 .3 -6.8 .3 -6.25 -.25 -6.25M-6.15 -.85Q-5.55 -.85 -5.55 -.25 -5.55 .3 -6.15 .3 -6.75 .3 -6.75 -.25 -6.75 -.85 -6.15 -.85Z"/></g><g id="Interpolaci.__C3.__B3n-2" transform="translate(20 20)"><animateTransform attributeName="transform" additive="replace" type="translate" repeatCount="indefinite" dur="10s" keyTimes="0;1" values="20,20;20,20"/><animateTransform attributeName="transform" additive="sum" type="rotate" repeatCount="indefinite" dur="10s" keyTimes="0;.997;1" values="0,0,0;360,0,0;360,0,0"/><path fill="#000" stroke="none" d="M-2.35 -20Q-2.75 -20 -2.9 -19.65L-3.95 -17.25 -5.25 -16.9 -7.35 -18.5Q-7.75 -18.7 -8 -18.5L-12.05 -16.15Q-12.35 -16 -12.35 -15.6L-12.05 -12.95 -12.95 -12.05 -15.6 -12.35Q-16 -12.35 -16.15 -12.05L-18.5 -8Q-18.7 -7.75 -18.5 -7.35L-16.9 -5.25 -17.25 -3.95 -19.65 -2.9Q-20 -2.75 -20 -2.35L-20 2.3Q-20 2.7 -19.65 2.85L-17.25 3.9 -16.9 5.2 -18.5 7.3Q-18.7 7.7 -18.5 7.95L-16.15 12Q-16 12.3 -15.6 12.3L-12.95 12 -12.05 12.9 -12.35 15.55Q-12.35 15.95 -12.05 16.1L-8 18.45Q-7.75 18.65 -7.35 18.45L-5.25 16.85 -3.95 17.2 -2.9 19.6Q-2.75 20 -2.35 20L2.3 20Q2.7 20 2.85 19.6L3.9 17.2 5.2 16.85 7.3 18.45Q7.7 18.65 7.95 18.45L12 16.1Q12.3 15.95 12.3 15.55L12 12.9 12.9 12 15.55 12.3Q15.95 12.3 16.1 12L18.45 7.95Q18.65 7.7 18.45 7.3L16.85 5.2 17.2 3.9 19.6 2.85Q20 2.7 20 2.3L20 -2.35Q20 -2.75 19.6 -2.9L17.2 -3.95 16.85 -5.25 18.45 -7.35Q18.65 -7.75 18.45 -8L16.1 -12.05Q15.95 -12.35 15.55 -12.35L12.9 -12.05 12 -12.95 12.3 -15.6Q12.3 -16 12 -16.15L7.95 -18.5Q7.7 -18.7 7.3 -18.5L5.2 -16.9 3.9 -17.25 2.85 -19.65Q2.7 -20 2.3 -20L-2.35 -20M-7.75 -17.3L-5.7 -15.8Q-5.5 -15.6 -5.15 -15.7 -4.35 -16 -3.4 -16.15 -3.15 -16.25 -3 -16.5L-2 -18.85 1.95 -18.85 2.95 -16.5Q3.1 -16.25 3.35 -16.15 4.3 -16 5.1 -15.7 5.45 -15.6 5.65 -15.8L7.7 -17.3 11.1 -15.35 10.8 -12.8Q10.7 -12.5 11 -12.3L12.25 -11.05Q12.45 -10.75 12.75 -10.85L15.3 -11.15 17.25 -7.75 15.75 -5.7Q15.55 -5.5 15.65 -5.15 15.95 -4.35 16.1 -3.4 16.2 -3.15 16.45 -3L18.8 -2 18.8 1.95 16.45 2.95Q16.2 3.1 16.1 3.35 15.95 4.3 15.65 5.1 15.55 5.45 15.75 5.65L17.25 7.7 15.3 11.1 12.75 10.8Q12.45 10.7 12.25 11L11 12.25Q10.7 12.45 10.8 12.75L11.1 15.3 7.7 17.25 5.65 15.75Q5.45 15.55 5.1 15.65 4.3 15.95 3.35 16.1 3.1 16.2 2.95 16.45L1.95 18.8 -2 18.8 -3 16.45Q-3.15 16.2 -3.4 16.1 -4.35 15.95 -5.15 15.65 -5.5 15.55 -5.7 15.75L-7.75 17.25 -11.15 15.3 -10.85 12.75Q-10.75 12.45 -11.05 12.25L-12.3 11Q-12.5 10.7 -12.8 10.8L-15.35 11.1 -17.3 7.7 -15.8 5.65Q-15.6 5.45 -15.7 5.1 -16 4.3 -16.15 3.35 -16.25 3.1 -16.5 2.95L-18.85 1.95 -18.85 -2 -16.5 -3Q-16.25 -3.15 -16.15 -3.4 -16 -4.35 -15.7 -5.15 -15.6 -5.5 -15.8 -5.7L-17.3 -7.75 -15.35 -11.15 -12.8 -10.85Q-12.5 -10.75 -12.3 -11.05L-11.05 -12.3Q-10.75 -12.5 -10.85 -12.8L-11.15 -15.35 -7.75 -17.3Z"/></g></g></svg>