<?xml version="1.0" encoding="utf-8"?><svg id="chip" image-rendering="auto" baseProfile="basic" version="1.1" x="0px" y="0px" width="50" height="50" xmlns="http://www.w3.org/2000/svg" xmlns:xlink="http://www.w3.org/1999/xlink"><g id="Escena-1" overflow="visible"><g id="Interpolaci.__C3.__B3n-12" transform="translate(27.5 25)"><path fill="#000" stroke="none" d="M-9.4 -20.65Q-8.65 -21.4 -8.65 -22.5 -8.65 -23.55 -9.4 -24.3 -10.15 -25.05 -11.25 -25.05 -12.3 -25.05 -13.05 -24.3 -13.8 -23.55 -13.8 -22.5 -13.8 -21.4 -13.05 -20.65 -12.55 -20.15 -11.95 -20L-11.95 -17.05 -8.6 -13.75 -8.6 -11.05 -11.1 -11.05Q-12.1 -11.05 -12.85 -10.3 -13.6 -9.6 -13.6 -8.55L-13.6 -.7 -17.35 -.7Q-17.55 -1.3 -18.05 -1.8 -18.8 -2.55 -19.85 -2.55 -20.9 -2.55 -21.7 -1.8 -22.45 -1.05 -22.45 0 -22.45 1.1 -21.7 1.85 -20.9 2.6 -19.85 2.6 -18.8 2.6 -18.05 1.85 -17.55 1.35 -17.35 .75L-13.6 .75 -13.6 8.6Q-13.6 9.6 -12.85 10.35 -12.1 11.1 -11.1 11.1L-8.6 11.1 -8.6 13.75 -11.95 17.1 -11.95 20.05Q-12.55 20.2 -13.05 20.7 -13.8 21.45 -13.8 22.5 -13.8 23.6 -13.05 24.35 -12.3 25.1 -11.25 25.1 -10.15 25.1 -9.4 24.35 -8.65 23.6 -8.65 22.5 -8.65 21.45 -9.4 20.7 -9.9 20.2 -10.5 20.05L-10.5 17.7 -7.2 14.35 -7.2 11.1 -3.45 11.1 -3.45 14.9Q-4.05 15.1 -4.55 15.6 -5.3 16.35 -5.3 17.4 -5.3 18.45 -4.55 19.2 -3.8 20 -2.75 20 -1.65 20 -.9 19.2 -.15 18.45 -.15 17.4 -.15 16.35 -.9 15.6 -1.4 15.1 -2 14.9L-2 11.1 1.95 11.1 1.95 14.35 5.25 17.7 5.25 20.05Q4.65 20.2 4.15 20.7 3.4 21.45 3.4 22.5 3.4 23.6 4.15 24.35 4.9 25.1 6 25.1 7.05 25.1 7.8 24.35 8.55 23.6 8.55 22.5 8.55 21.45 7.8 20.7 7.3 20.2 6.7 20.05L6.7 17.1 3.4 13.75 3.4 11.1 6.05 11.1Q7.1 11.1 7.85 10.35 8.55 9.6 8.55 8.6L8.55 -4.45 17.45 -4.45Q17.6 -3.85 18.1 -3.35 18.85 -2.6 19.9 -2.6 21 -2.6 21.75 -3.35 22.5 -4.1 22.5 -5.15 22.5 -6.25 21.75 -7 21 -7.75 19.9 -7.75 18.85 -7.75 18.1 -7 17.6 -6.5 17.45 -5.9L8.55 -5.9 8.55 -8.55Q8.55 -9.6 7.85 -10.3 7.1 -11.05 6.05 -11.05L3.4 -11.05 3.4 -13.75 6.7 -17.05 6.7 -20Q7.3 -20.15 7.8 -20.65 8.55 -21.4 8.55 -22.5 8.55 -23.55 7.8 -24.3 7.05 -25.05 6 -25.05 4.9 -25.05 4.15 -24.3 3.4 -23.55 3.4 -22.5 3.4 -21.4 4.15 -20.65 4.65 -20.15 5.25 -20L5.25 -17.65 1.95 -14.3 1.95 -11.05 -7.2 -11.05 -7.2 -14.3 -10.5 -17.65 -10.5 -20Q-9.9 -20.15 -9.4 -20.65M-12.4 -22.5Q-12.4 -22.95 -12.05 -23.3 -11.7 -23.6 -11.25 -23.6 -10.75 -23.6 -10.45 -23.3 -10.1 -22.95 -10.1 -22.5 -10.1 -22 -10.45 -21.65 -10.75 -21.35 -11.25 -21.35 -11.7 -21.35 -12.05 -21.65 -12.4 -22 -12.4 -22.5M-11.85 -9.3Q-11.5 -9.6 -11.1 -9.6L6.05 -9.6Q6.5 -9.6 6.8 -9.3 7.15 -9 7.15 -8.55L7.15 8.6Q7.15 9.05 6.8 9.35 6.5 9.65 6.05 9.65L-11.1 9.65Q-11.5 9.65 -11.85 9.35 -12.15 9.05 -12.15 8.6L-12.15 -8.55Q-12.15 -9 -11.85 -9.3M-19.85 -1.1Q-19.4 -1.1 -19.05 -.8 -18.7 -.45 -18.7 0 -18.7 .5 -19.05 .8 -19.4 1.15 -19.85 1.15 -20.3 1.15 -20.65 .8 -21 .5 -21 0 -21 -.45 -20.65 -.8 -20.3 -1.1 -19.85 -1.1M5.2 -23.3Q5.5 -23.6 6 -23.6 6.45 -23.6 6.8 -23.3 7.15 -22.95 7.15 -22.5 7.15 -22 6.8 -21.65 6.45 -21.35 6 -21.35 5.5 -21.35 5.2 -21.65 4.85 -22 4.85 -22.5 4.85 -22.95 5.2 -23.3M19.9 -4.05Q19.45 -4.05 19.1 -4.35 18.8 -4.7 18.8 -5.15 18.8 -5.65 19.1 -6 19.45 -6.3 19.9 -6.3 20.4 -6.3 20.75 -6 21.05 -5.65 21.05 -5.15 21.05 -4.7 20.75 -4.35 20.4 -4.05 19.9 -4.05M6 23.65Q5.5 23.65 5.2 23.3 4.85 23 4.85 22.5 4.85 22.05 5.2 21.7 5.5 21.35 6 21.35 6.45 21.35 6.8 21.7 7.15 22.05 7.15 22.5 7.15 23 6.8 23.3 6.45 23.65 6 23.65M-11.25 23.65Q-11.7 23.65 -12.05 23.3 -12.4 23 -12.4 22.5 -12.4 22.05 -12.05 21.7 -11.7 21.35 -11.25 21.35 -10.75 21.35 -10.45 21.7 -10.1 22.05 -10.1 22.5 -10.1 23 -10.45 23.3 -10.75 23.65 -11.25 23.65M-3.55 16.6Q-3.2 16.25 -2.75 16.25 -2.25 16.25 -1.95 16.6 -1.6 16.95 -1.6 17.4 -1.6 17.85 -1.95 18.2 -2.25 18.55 -2.75 18.55 -3.2 18.55 -3.55 18.2 -3.85 17.85 -3.85 17.4 -3.85 16.95 -3.55 16.6Z"/></g><g id="Interpolaci.__C3.__B3n-11" transform="translate(24.95 3.6)"><animateTransform attributeName="transform" additive="replace" type="translate" repeatCount="indefinite" dur="3s" keyTimes="0;.489;.989;1" values="24.95,3.6;24.95,7.6;24.95,3.6;24.95,3.6" keySplines=".25 .5 .5 1;.25 .5 .5 1;0 0 1 1" calcMode="spline"/><path fill="#000" stroke="none" d="M1.85 -1.8Q1.1 -2.55 .05 -2.55 -1 -2.55 -1.8 -1.8 -2.55 -1.05 -2.55 .05 -2.55 1.1 -1.8 1.85 -1 2.6 .05 2.6 1.1 2.6 1.85 1.85 2.6 1.1 2.6 .05 2.6 -1.05 1.85 -1.8M.05 -1.1Q.5 -1.1 .85 -.75 1.2 -.45 1.2 .05 1.2 .5 .85 .85 .5 1.2 .05 1.2 -.45 1.2 -.75 .85 -1.1 .5 -1.1 .05 -1.1 -.45 -.75 -.75 -.45 -1.1 .05 -1.1Z"/></g><g id="Interpolaci.__C3.__B3n-10" transform="translate(40.9 30.15)"><animateTransform attributeName="transform" additive="replace" type="translate" repeatCount="indefinite" dur="3s" keyTimes="0;.489;.989;1" values="40.9,30.15;47.4,30.15;40.9,30.15;40.9,30.15" keySplines=".25 .5 .5 1;.25 .5 .5 1;0 0 1 1" calcMode="spline"/><path fill="#000" stroke="none" d="M1.85 -1.8Q1.1 -2.55 0 -2.55 -1.05 -2.55 -1.8 -1.8 -2.55 -1.05 -2.55 .05 -2.55 1.1 -1.8 1.85 -1.05 2.6 0 2.6 1.1 2.6 1.85 1.85 2.6 1.1 2.6 .05 2.6 -1.05 1.85 -1.8M0 -1.1Q.5 -1.1 .85 -.75 1.15 -.45 1.15 .05 1.15 .5 .85 .85 .5 1.2 0 1.2 -.45 1.2 -.8 .85 -1.1 .5 -1.1 .05 -1.1 -.45 -.8 -.75 -.45 -1.1 0 -1.1Z"/></g><g id="Interpolaci.__C3.__B3n-9" transform="translate(38.8 25)"><animateTransform attributeName="transform" additive="replace" type="translate" repeatCount="indefinite" dur="3s" keyTimes="0;.489;.989;1" values="38.8,25;42.3,25;38.8,25;38.8,25" keySplines=".25 .5 .5 1;.25 .5 .5 1;0 0 1 1" calcMode="spline"/><path fill="#000" stroke="none" d="M1.85 -1.8Q1.1 -2.55 .05 -2.55 -1.05 -2.55 -1.8 -1.8 -2.55 -1.05 -2.55 0 -2.55 1.1 -1.8 1.85 -1.05 2.6 .05 2.6 1.1 2.6 1.85 1.85 2.6 1.1 2.6 0 2.6 -1.05 1.85 -1.8M.05 -1.1Q.5 -1.1 .85 -.8 1.2 -.45 1.2 0 1.2 .5 .85 .8 .5 1.15 .05 1.15 -.45 1.15 -.75 .8 -1.1 .5 -1.1 0 -1.1 -.45 -.75 -.8 -.45 -1.1 .05 -1.1Z"/></g><g id="Interpolaci.__C3.__B3n-8" transform="translate(2.55 19.8)"><animateTransform attributeName="transform" additive="replace" type="translate" repeatCount="indefinite" dur="3s" keyTimes="0;.489;.989;1" values="2.55,19.8;9.55,19.8;2.55,19.8;2.55,19.8" keySplines=".25 .5 .5 1;.25 .5 .5 1;0 0 1 1" calcMode="spline"/><path fill="#000" stroke="none" d="M1.85 -1.8Q1.1 -2.55 0 -2.55 -1.05 -2.55 -1.8 -1.8 -2.55 -1.05 -2.55 .05 -2.55 1.1 -1.8 1.85 -1.05 2.6 0 2.6 1.1 2.6 1.85 1.85 2.6 1.1 2.6 .05 2.6 -1.05 1.85 -1.8M0 -1.1Q.5 -1.1 .8 -.8 1.15 -.45 1.15 .05 1.15 .5 .8 .85 .5 1.15 0 1.15 -.45 1.15 -.8 .85 -1.15 .5 -1.15 .05 -1.15 -.45 -.8 -.8 -.45 -1.1 0 -1.1Z"/></g><g id="Interpolaci.__C3.__B3n-7" transform="translate(9.55 30.15)"><animateTransform attributeName="transform" additive="replace" type="translate" repeatCount="indefinite" dur="3s" keyTimes="0;.489;.989;1" values="9.55,30.15;2.55,30.15;9.55,30.15;9.55,30.15" keySplines=".25 .5 .5 1;.25 .5 .5 1;0 0 1 1" calcMode="spline"/><path fill="#000" stroke="none" d="M1.85 -1.8Q1.1 -2.55 0 -2.55 -1.05 -2.55 -1.8 -1.8 -2.55 -1.05 -2.55 .05 -2.55 1.1 -1.8 1.85 -1.05 2.6 0 2.6 1.1 2.6 1.85 1.85 2.6 1.1 2.6 .05 2.6 -1.05 1.85 -1.8M0 -1.1Q.5 -1.1 .8 -.75 1.15 -.45 1.15 .05 1.15 .5 .8 .85 .5 1.2 0 1.2 -.45 1.2 -.8 .85 -1.15 .5 -1.15 .05 -1.15 -.45 -.8 -.75 -.45 -1.1 0 -1.1Z"/></g><g id="Interpolaci.__C3.__B3n-6" transform="matrix(1 0 0 1.816 24.95 9.95)"><animateTransform attributeName="transform" additive="replace" type="translate" repeatCount="indefinite" dur="3s" keyTimes="0;.489;.989;1" values="24.95,10.172;24.95,12.05;24.95,10.172;24.95,10.172" keySplines=".25 .5 .5 1;.25 .5 .5 1;0 0 1 1" calcMode="spline"/><animateTransform attributeName="transform" additive="sum" type="scale" repeatCount="indefinite" dur="3s" keyTimes="0;.489;.989;1" values="1,1.816;1,1;1,1.816;1,1.816" keySplines=".25 .5 .5 1;.25 .5 .5 1;0 0 1 1" calcMode="spline"/><animateTransform attributeName="transform" additive="sum" type="translate" repeatCount="indefinite" dur="3s" keyTimes="0;.489;.989;1" values="0,-.15;0,0;0,-.15;0,-.15" keySplines=".25 .5 .5 1;.25 .5 .5 1;0 0 1 1" calcMode="spline"/><path fill="#000" stroke="none" d="M.75 -2.55L-.7 -2.55 -.7 2.6 .75 2.6 .75 -2.55Z"/></g><g id="Interpolaci.__C3.__B3n-5" transform="translate(9.5 19.8)"><animateTransform attributeName="transform" additive="replace" type="translate" repeatCount="indefinite" dur="3s" keyTimes="0;.489;.989;1" values="9.5,19.8;12.968,19.8;9.5,19.8;9.5,19.8" keySplines=".25 .5 .5 1;.25 .5 .5 1;0 0 1 1" calcMode="spline"/><animateTransform attributeName="transform" additive="sum" type="scale" repeatCount="indefinite" dur="3s" keyTimes="0;.489;.989;1" values="1,1;.337,1;1,1;1,1" keySplines=".25 .5 .5 1;.25 .5 .5 1;0 0 1 1" calcMode="spline"/><animateTransform attributeName="transform" additive="sum" type="translate" repeatCount="indefinite" dur="3s" keyTimes="0;.489;.989;1" values="0,0;-.35,0;0,0;0,0" keySplines=".25 .5 .5 1;.25 .5 .5 1;0 0 1 1" calcMode="spline"/><path fill="#000" stroke="none" d="M5.15 -.7L-5.1 -.7 -5.1 .75 5.15 .75 5.15 -.7Z"/></g><g id="Interpolaci.__C3.__B3n-4" transform="matrix(.337 0 0 1 12.9 30.15)"><animateTransform attributeName="transform" additive="replace" type="translate" repeatCount="indefinite" dur="3s" keyTimes="0;.489;.989;1" values="12.968,30.15;9.5,30.15;12.968,30.15;12.968,30.15" keySplines=".25 .5 .5 1;.25 .5 .5 1;0 0 1 1" calcMode="spline"/><animateTransform attributeName="transform" additive="sum" type="scale" repeatCount="indefinite" dur="3s" keyTimes="0;.489;.989;1" values=".337,1;1,1;.337,1;.337,1" keySplines=".25 .5 .5 1;.25 .5 .5 1;0 0 1 1" calcMode="spline"/><animateTransform attributeName="transform" additive="sum" type="translate" repeatCount="indefinite" dur="3s" keyTimes="0;.489;.989;1" values="-.35,0;0,0;-.35,0;-.35,0" keySplines=".25 .5 .5 1;.25 .5 .5 1;0 0 1 1" calcMode="spline"/><path fill="#000" stroke="none" d="M5.15 -.7L-5.1 -.7 -5.1 .75 5.15 .75 5.15 -.7Z"/></g><g id="Interpolaci.__C3.__B3n-3" transform="matrix(.377 0 0 1 37.25 30.15)"><animateTransform attributeName="transform" additive="replace" type="translate" repeatCount="indefinite" dur="3s" keyTimes="0;.489;.989;1" values="37.257,30.15;40.45,30.15;37.257,30.15;37.257,30.15" keySplines=".25 .5 .5 1;.25 .5 .5 1;0 0 1 1" calcMode="spline"/><animateTransform attributeName="transform" additive="sum" type="scale" repeatCount="indefinite" dur="3s" keyTimes="0;.489;.989;1" values=".377,1;1,1;.377,1;.377,1" keySplines=".25 .5 .5 1;.25 .5 .5 1;0 0 1 1" calcMode="spline"/><animateTransform attributeName="transform" additive="sum" type="translate" repeatCount="indefinite" dur="3s" keyTimes="0;.489;.989;1" values="-.15,0;0,0;-.15,0;-.15,0" keySplines=".25 .5 .5 1;.25 .5 .5 1;0 0 1 1" calcMode="spline"/><path fill="#000" stroke="none" d="M5.1 -.7L-5.1 -.7 -5.1 .75 5.1 .75 5.1 -.7Z"/></g><g id="Interpolaci.__C3.__B3n-2" transform="matrix(.33 0 0 1 36.15 25)"><animateTransform attributeName="transform" additive="replace" type="translate" repeatCount="indefinite" dur="3s" keyTimes="0;.489;.989;1" values="36.15,25.05;37.9,25;36.15,25.05;36.15,25.05" keySplines=".25 .5 .5 1;.25 .5 .5 1;0 0 1 1" calcMode="spline"/><animateTransform attributeName="transform" additive="sum" type="scale" repeatCount="indefinite" dur="3s" keyTimes="0;.489;.989;1" values=".33,1;1,1;.33,1;.33,1" keySplines=".25 .5 .5 1;.25 .5 .5 1;0 0 1 1" calcMode="spline"/><animateTransform attributeName="transform" additive="sum" type="translate" repeatCount="indefinite" dur="3s" keyTimes="0;.489;.989;1" values="-.15,-.05;0,0;-.15,-.05;-.15,-.05" keySplines=".25 .5 .5 1;.25 .5 .5 1;0 0 1 1" calcMode="spline"/><path fill="#000" stroke="none" d="M2.6 -.7L-2.55 -.7 -2.55 .75 2.6 .75 2.6 -.7Z"/></g></g></svg>