<?xml version="1.0" encoding="UTF-8"?>
<svg width="26px" height="26px" viewBox="0 0 26 26" version="1.1" xmlns="http://www.w3.org/2000/svg" xmlns:xlink="http://www.w3.org/1999/xlink">
    <title>phone copy</title>
    <g id="Page-1" stroke="none" stroke-width="1" fill="none" fill-rule="evenodd">
        <g id="Prototipo" transform="translate(-1402.000000, -180.000000)" fill="#FFFFFF" fill-rule="nonzero">
            <g id="phone-copy" transform="translate(1402.000000, 180.000000)">
                <path d="M24.4739528,22.1392181 C24.4676113,22.1392181 24.4676113,22.1455269 24.4739528,22.1392181 C24.2266371,22.4041863 23.97298,22.6439194 23.7002987,22.9088875 C23.2881059,23.300031 22.8695717,23.7101007 22.4764032,24.1706406 C21.8359191,24.8519873 21.0812893,25.1737343 20.0920267,25.1737343 C19.9969053,25.1737343 19.8954424,25.1737343 19.800321,25.1674256 C17.9169172,25.047559 16.1666833,24.3157422 14.8540079,23.6911744 C11.2647602,21.9625727 8.11307096,19.5084629 5.49406158,16.3982415 C3.33163496,13.8053388 1.88578959,11.4080079 0.928234102,8.83403158 C0.338481385,7.26314896 0.122872865,6.03924844 0.217994271,4.88474434 C0.281408541,4.14661878 0.566772759,3.53466852 1.09311121,3.01104098 L3.25553783,0.859751928 C3.56626776,0.569548713 3.89602197,0.411829574 4.21943475,0.411829574 C4.61894465,0.411829574 4.94235743,0.651562665 5.1452831,0.853443162 C5.15162452,0.859751928 5.15796595,0.866060693 5.16430738,0.872369459 C5.55113443,1.23196909 5.9189372,1.60418626 6.30576425,2.00163849 C6.50234849,2.20351899 6.70527415,2.40539949 6.90819982,2.61358875 L8.63940941,4.33588174 C9.31160067,5.00461089 9.31160067,5.62286991 8.63940941,6.29159906 C8.45550802,6.47455326 8.27794806,6.65750746 8.09404668,6.8341529 C7.56136681,7.37670673 7.05405264,7.88140798 6.50234849,8.37349169 C6.48966563,8.38610922 6.47698278,8.39241799 6.47064135,8.40503552 C5.92527862,8.94758936 6.02674146,9.47752566 6.14088714,9.8371253 C6.14722857,9.85605159 6.15357,9.87497789 6.15991143,9.89390419 C6.61015275,10.9790119 7.24429545,12.0010319 8.20819237,13.2186236 L8.21453379,13.2249324 C9.96476766,15.3699127 11.8101229,17.0417355 13.845721,18.322415 C14.1057195,18.4864429 14.3720595,18.6189269 14.6257165,18.7451022 C14.8540079,18.85866 15.0696164,18.965909 15.2535178,19.0794668 C15.2788835,19.0920844 15.3042492,19.1110106 15.329615,19.1236282 C15.5452235,19.2308772 15.7481491,19.2813473 15.9574162,19.2813473 C16.4837547,19.2813473 16.8135089,18.9532915 16.9213131,18.8460425 L19.0900812,16.6884447 C19.3056897,16.4739467 19.6481268,16.2152873 20.0476367,16.2152873 C20.4408052,16.2152873 20.7642179,16.4613291 20.9608022,16.6758271 C20.9671436,16.6821359 20.9671436,16.6821359 20.973485,16.6884447 L24.4676113,20.1645745 C25.1207783,20.8080686 25.1207783,21.470489 24.4739528,22.1392181 Z" id="Shape"></path>
                <path d="M14.6168375,5.92721805 C15.9855335,6.15659148 17.2288527,6.80300752 18.2214185,7.79348371 C19.2139843,8.7839599 19.8565401,10.0246617 20.0916215,11.3904762 C20.1490858,11.7345363 20.4468555,11.9743358 20.7864175,11.9743358 C20.8282098,11.9743358 20.864778,11.9691228 20.9065702,11.9639098 C21.2931485,11.9013534 21.549126,11.5364411 21.4864376,11.1506767 C21.20434,9.49814536 20.4207354,7.99157895 19.2244324,6.79779449 C18.0281294,5.60401003 16.5183846,4.82205514 14.8623669,4.54055138 C14.4757886,4.47799499 14.1153305,4.73343358 14.0474181,5.11398496 C13.9795057,5.49453634 14.2302592,5.86466165 14.6168375,5.92721805 Z" id="Path"></path>
                <path d="M25.9634318,10.9473684 C25.4984931,8.22616541 24.2133816,5.74997494 22.238698,3.77944862 C20.2640145,1.80892231 17.7826,0.526516291 15.055656,0.062556391 C14.6743018,-0.00521303258 14.3138437,0.255438596 14.2459313,0.635989975 C14.1832429,1.02175439 14.4392204,1.38145363 14.8257987,1.44922306 C17.2601969,1.86105263 19.4804099,3.01313283 21.2461322,4.76992481 C23.0118545,6.53192982 24.1611412,8.74746867 24.5738397,11.1767419 C24.631304,11.520802 24.9290737,11.7606015 25.2686357,11.7606015 C25.310428,11.7606015 25.3469962,11.7553885 25.3887884,11.7501754 C25.7701427,11.6928321 26.0313442,11.3279198 25.9634318,10.9473684 Z" id="Path"></path>
            </g>
        </g>
    </g>
</svg>