<?xml version="1.0" encoding="UTF-8"?>
<svg width="30px" height="30px" viewBox="0 0 30 30" version="1.1" xmlns="http://www.w3.org/2000/svg" xmlns:xlink="http://www.w3.org/1999/xlink">
    <title>check</title>
    <g id="01-HOME" stroke="none" stroke-width="1" fill="none" fill-rule="evenodd">
        <g id="check" fill="#E8511D" fill-rule="nonzero">
            <path d="M29.1421875,4.10126953 C28.7008594,3.65917969 27.9847852,3.65841797 27.543457,4.09939453 L13.9794141,17.6276367 L9.08554688,12.3124219 C8.66267578,11.8533984 7.94771484,11.8236328 7.48792969,12.2464453 C7.02849609,12.6693164 6.99908203,13.3846289 7.42195313,13.8440625 L13.1129297,20.0245898 C13.3213477,20.2511133 13.6130273,20.3826563 13.9205859,20.389043 C13.9288477,20.3893945 13.9368164,20.3893945 13.9447266,20.3893945 C14.2436133,20.3893945 14.5311328,20.2706836 14.7429492,20.0596289 L29.1399609,5.70035156 C29.5824023,5.25943359 29.5831641,4.54335938 29.1421875,4.10126953 Z" id="Path"></path>
            <path d="M28.8693164,13.8693164 C28.2448242,13.8693164 27.7386914,14.3754492 27.7386914,15 C27.7386914,22.0243945 22.0243945,27.7386914 15,27.7386914 C7.97601562,27.7386914 2.26130859,22.0243945 2.26130859,15 C2.26130859,7.97601562 7.97601562,2.26130859 15,2.26130859 C15.6244922,2.26130859 16.1306836,1.75517578 16.1306836,1.13068359 C16.1306836,0.506132812 15.6244922,0 15,0 C6.72890625,0 0,6.72890625 0,15 C0,23.2707422 6.72890625,30 15,30 C23.2707422,30 30,23.2707422 30,15 C30,14.3755078 29.4938672,13.8693164 28.8693164,13.8693164 Z" id="Path"></path>
        </g>
    </g>
</svg>