<?xml version="1.0" encoding="utf-8"?><svg id="gears" image-rendering="auto" baseProfile="basic" version="1.1" x="0px" y="0px" width="40" height="40" xmlns="http://www.w3.org/2000/svg" xmlns:xlink="http://www.w3.org/1999/xlink"><g id="Escena-1" overflow="visible"><g id="Interpolaci.__C3.__B3n-5" transform="translate(12.5 11.35)"><animateTransform attributeName="transform" additive="replace" type="translate" repeatCount="indefinite" dur="10s" keyTimes="0;1" values="12.5,11.35;12.5,11.35"/><animateTransform attributeName="transform" additive="sum" type="rotate" repeatCount="indefinite" dur="10s" keyTimes="0;.997;1" values="0,0,0;360,0,0;360,0,0"/><path fill="#000" stroke="none" d="M5.8 -7.9Q5.7 -7.95 5.15 -8.3 4.8 -8.5 4.65 -8.75 4.5 -8.95 4.5 -9.4 4.45 -9.9 4.45 -10.15 4.45 -10.45 4.3 -10.6 4.15 -10.75 3.85 -10.8 3.5 -10.9 2.95 -11.1 2.1 -11.35 2 -11.35L1.6 -11.35Q1.25 -10.9 1.1 -10.7 .75 -10.3 .55 -10 .45 -9.95 .35 -9.85 .2 -9.8 .1 -9.8 -.15 -9.75 -.7 -9.75 -1.2 -9.7 -1.5 -9.65 -1.55 -9.65 -2.2 -9.5 -2.65 -9.4 -2.9 -9.45 -3.15 -9.5 -3.5 -9.8 -3.85 -10.15 -4.05 -10.3 -4.25 -10.5 -4.45 -10.5 -4.65 -10.5 -4.9 -10.4 -5.85 -9.8 -6.55 -9.45 -6.75 -9.3 -6.85 -9.1 -6.95 -8.95 -6.9 -8.7 -6.85 -8.5 -6.8 -8.05 -6.75 -7.7 -6.7 -7.45 -6.7 -7.35 -6.75 -7.2 -6.75 -7.1 -6.85 -7 -7.55 -6.05 -8.55 -4.8 -8.6 -4.7 -8.7 -4.65 -8.8 -4.6 -8.9 -4.55 -9.5 -4.45 -10.2 -4.4 -10.65 -4.35 -10.8 -3.9 -11.2 -2.3 -11.3 -2 -11.35 -1.75 -11.3 -1.6 -11.25 -1.4 -11.05 -1.25 -10.25 -.7 -10 -.5 -9.85 -.35 -9.8 -.1 -9.55 1.45 -9.45 2.6 -9.4 2.75 -9.45 2.85 -9.45 3 -9.55 3.1 -9.8 3.5 -10.3 4.05 -10.45 4.25 -10.5 4.45 -10.5 4.7 -10.35 4.95 -9.95 5.6 -9.4 6.6 -9.15 7 -8.7 6.95 -8.5 6.9 -8.1 6.8 -7.7 6.75 -7.45 6.75 -7.35 6.75 -7.2 6.8 -7.05 6.8 -6.95 6.9 -5.95 7.65 -4.85 8.55 -4.75 8.6 -4.65 8.7 -4.55 8.85 -4.55 8.95 -4.45 9.45 -4.4 10.2 -4.4 10.45 -4.25 10.6 -4.15 10.75 -3.9 10.8 -2.35 11.2 -1.95 11.35 -1.75 11.4 -1.55 11.35 -1.4 11.25 -1.25 11.1 -.75 10.35 -.45 10 -.4 9.95 -.3 9.9 -.2 9.85 -.1 9.8 1.45 9.6 2.65 9.45 2.75 9.45 2.9 9.45 3 9.5 3.1 9.55 3.35 9.75 4.15 10.35 4.5 10.65 4.85 10.45L6.65 9.4Q7 9.2 6.95 8.8 6.85 8.35 6.85 8.1 6.8 7.7 6.75 7.45 6.75 7.35 6.8 7.2 6.8 7.1 6.9 7 7.05 6.8 7.45 6.35 7.8 5.95 7.95 5.7 8.05 5.65 8.35 5.1 8.6 4.75 8.8 4.65 9.05 4.5 9.45 4.45 9.7 4.45 10.2 4.45 10.45 4.4 10.6 4.3 10.75 4.15 10.85 3.9 11.05 3.1 11.35 2.05 11.45 1.55 11.1 1.3 11 1.2 10.6 .95 10.3 .7 10.15 .6 9.95 .5 9.9 .35 9.8 .2 9.8 0 9.8 -.7 9.7 -1.5 9.7 -1.55 9.55 -2.2 9.4 -2.65 9.45 -2.9 9.55 -3.15 9.85 -3.5 10 -3.7 10.35 -4.05 10.55 -4.25 10.55 -4.45 10.55 -4.65 10.4 -4.9 9.9 -5.75 9.5 -6.55 9.35 -6.75 9.15 -6.85 8.95 -6.95 8.7 -6.9 7.9 -6.75 7.45 -6.7 7.35 -6.7 7.25 -6.75 7.1 -6.8 7 -6.85 6.8 -7.05 6.4 -7.4 6 -7.75 5.8 -7.9M3.35 -9.75Q3.4 -9.7 3.45 -9.55 3.45 -9.35 3.5 -8.95 3.55 -8.6 3.55 -8.4 3.6 -7.95 3.95 -7.75 5.3 -7.1 6.5 -5.8 6.65 -5.7 6.8 -5.65 7 -5.6 7.15 -5.6 7.4 -5.6 7.8 -5.65 8.25 -5.75 8.4 -5.75 8.5 -5.75 8.6 -5.7 8.7 -5.65 8.75 -5.6 9.25 -4.85 9.25 -4.6 9.2 -4.35 8.65 -3.65 8.35 -3.35 8.3 -3.1 8.25 -2.8 8.4 -2.4 8.85 -1.15 8.7 .35 8.7 .65 8.8 .85 8.9 1.1 9.15 1.25 9.35 1.35 9.6 1.55 9.85 1.75 10 1.85 10.15 1.9 10.15 2 10.2 2.15 10.15 2.3L10 2.85Q9.95 3.2 9.8 3.35 9.65 3.45 9.3 3.5 8.9 3.5 8.7 3.5 8.35 3.5 8.1 3.65 7.85 3.85 7.65 4.2 7.05 5.4 5.9 6.4 5.7 6.6 5.65 6.8 5.55 7 5.6 7.3 5.65 7.4 5.7 7.75 5.7 8.05 5.75 8.2 5.85 8.45 5.75 8.6 5.7 8.75 5.45 8.85 5.25 8.95 5.05 9.1 4.9 9.15 4.6 9.35L4.4 9.2Q3.65 8.6 3.5 8.45 3.15 8.15 2.75 8.3 1.2 8.8 -.45 8.7 -.7 8.7 -.85 8.8 -1.05 8.9 -1.15 9.1L-1.35 9.35Q-1.85 10.05 -2.1 10.15 -2.3 10.2 -3.15 9.9 -3.25 9.85 -3.3 9.75 -3.35 9.65 -3.4 9.6 -3.4 9.45 -3.45 8.95 -3.5 8.55 -3.55 8.35 -3.55 8.2 -3.65 8.05 -3.8 7.85 -3.9 7.8 -5.35 7 -6.5 5.8 -6.6 5.7 -6.8 5.65 -6.95 5.6 -7.1 5.6 -7.35 5.6 -7.75 5.65 -8.15 5.75 -8.35 5.75 -8.4 5.75 -8.55 5.7 -8.65 5.65 -8.7 5.6 -8.75 5.6 -8.75 5.55 -9.2 4.85 -9.2 4.6 -9.15 4.35 -8.6 3.75 -8.35 3.4 -8.3 3.1 -8.25 2.8 -8.35 2.4 -8.45 1.8 -8.55 1 -8.6 .6 -8.7 -.4 -8.7 -.7 -8.75 -.85 -8.85 -1.05 -9.05 -1.2 -9.2 -1.25 -9.35 -1.35 -9.5 -1.5 -9.6 -1.55 -10.05 -1.85 -10.05 -2 -10.15 -2.15 -10 -2.7 -9.95 -2.85 -9.95 -2.9 -9.9 -3 -9.9 -3.05 -9.85 -3.25 -9.8 -3.3 -9.7 -3.4 -9.5 -3.4 -8.8 -3.45 -8.35 -3.55 -8.2 -3.6 -8 -3.7 -7.85 -3.8 -7.8 -3.9 -7 -5.35 -5.8 -6.5 -5.7 -6.6 -5.65 -6.8 -5.55 -7 -5.55 -7.15 -5.6 -7.4 -5.65 -7.75 -5.7 -8.2 -5.75 -8.4 -5.75 -8.45 -5.7 -8.55 -5.65 -8.6 -5.6 -8.75L-5.55 -8.75Q-4.8 -9.2 -4.55 -9.2 -4.35 -9.2 -3.65 -8.6 -3.35 -8.35 -3.1 -8.3 -2.8 -8.2 -2.4 -8.35 -1.1 -8.8 .4 -8.7 .7 -8.65 .9 -8.75 1.1 -8.85 1.2 -9.1 1.25 -9.15 1.35 -9.3 1.85 -10 2.1 -10.05 2.3 -10.15 3.15 -9.9 3.3 -9.85 3.35 -9.75M4.5 -4.45Q3.6 -5.35 2.5 -5.8 1.3 -6.35 .05 -6.35 -1.25 -6.35 -2.45 -5.85 -3.55 -5.35 -4.45 -4.45 -5.3 -3.6 -5.8 -2.45 -6.3 -1.3 -6.3 0 -6.3 1.3 -5.8 2.45 -5.35 3.6 -4.45 4.5 -3.6 5.35 -2.45 5.85 -1.25 6.35 .05 6.35 1.3 6.35 2.5 5.85 3.65 5.35 4.5 4.45 5.4 3.6 5.85 2.45 6.35 1.3 6.35 0 6.35 -1.3 5.85 -2.45 5.35 -3.6 4.5 -4.45M.2 -5.25Q2.4 -5.15 3.9 -3.55 5.35 -1.95 5.25 .25 5.15 2.4 3.55 3.85 2 5.35 -.1 5.25 -2.35 5.15 -3.85 3.55 -5.3 2 -5.2 -.2 -5.1 -2.35 -3.55 -3.85 -1.95 -5.35 .2 -5.25Z"/></g><g id="Interpolaci.__C3.__B3n-4" transform="translate(12.6 32.1)"><animateTransform attributeName="transform" additive="replace" type="translate" repeatCount="indefinite" dur="10s" keyTimes="0;1" values="12.6,32.1;12.6,32.1"/><animateTransform attributeName="transform" additive="sum" type="rotate" repeatCount="indefinite" dur="10s" keyTimes="0;.997;1" values="0,0,0;360,0,0;360,0,0"/><path fill="#000" stroke="none" d="M-3.5 -7.25Q-4.25 -6.9 -4.35 -6.7 -4.45 -6.5 -4.4 -5.65 -4.4 -5.55 -4.45 -5.4 -4.5 -5.25 -4.6 -5.15 -4.75 -5 -5.1 -4.6 -5.4 -4.25 -5.55 -4.05 -5.7 -3.9 -5.85 -3.8 -6 -3.75 -6.2 -3.75 -7 -3.75 -7.15 -3.65 -7.3 -3.55 -7.55 -2.75L-7.55 -2.7 -7.8 -2.05Q-7.9 -1.8 -7.85 -1.65 -7.8 -1.5 -7.65 -1.35 -7.6 -1.3 -7.1 -.85 -7.05 -.8 -6.95 -.65 -6.9 -.5 -6.9 -.4 -6.85 .35 -6.8 1.15 -6.8 1.5 -6.95 1.65 -7.4 2.15 -7.45 2.15 -7.6 2.35 -7.65 2.5 -7.65 2.65 -7.55 2.9 -7.5 3.05 -7.25 3.55 -6.9 4.3 -6.7 4.4 -6.5 4.5 -5.7 4.4 -5.5 4.4 -5.4 4.45 -5.25 4.5 -5.15 4.6 -4.9 4.9 -4.75 5 -4.55 5.25 -4.35 5.35 -4 5.6 -3.85 5.9 -3.7 6.2 -3.75 6.6 -3.75 6.95 -3.65 7.15 -3.5 7.35 -3.15 7.45 -2.9 7.5 -2.55 7.65 -2.4 7.75 -2 7.9L-1.6 7.9Q-1.35 7.65 -1.25 7.5 -1 7.25 -.85 7.1 -.65 6.95 -.4 6.95 -.2 6.9 .35 6.9 .85 6.85 1.1 6.85 1.3 6.8 1.4 6.85 1.55 6.9 1.65 7 2.1 7.4 2.15 7.5 2.35 7.65 2.5 7.65 2.65 7.7 2.9 7.6L3.5 7.3Q3.75 7.15 4.1 7 4.3 6.9 4.4 6.8 4.5 6.6 4.4 5.7 4.4 5.55 4.45 5.4 4.5 5.3 4.65 5.15 5.15 4.65 5.6 4.1 5.7 3.95 5.85 3.85 6 3.8 6.2 3.8 6.5 3.75 6.85 3.75 7.05 3.75 7.15 3.7 7.3 3.6 7.6 2.75 7.8 2.25 7.85 2.05 7.9 1.8 7.9 1.7 7.85 1.55 7.65 1.35L7.15 .9Q6.95 .75 6.9 .4 6.85 -.3 6.85 -1.1 6.85 -1.45 7 -1.6 7.35 -2 7.5 -2.15 7.65 -2.35 7.65 -2.5 7.7 -2.6 7.55 -2.85 7.4 -3.25 7.25 -3.55 7.05 -3.95 7 -4.05 6.9 -4.25 6.8 -4.35 6.6 -4.5 5.75 -4.4 5.6 -4.35 5.45 -4.4 5.3 -4.45 5.15 -4.6 4.7 -5.1 4.05 -5.6 3.9 -5.7 3.85 -5.8 3.8 -5.95 3.8 -6.15 3.8 -6.7 3.75 -6.8 3.75 -7 3.65 -7.15 3.6 -7.25 3.35 -7.35 3.25 -7.4 2.75 -7.55L2.7 -7.6Q2.2 -7.75 2.05 -7.8 1.8 -7.9 1.7 -7.85 1.55 -7.8 1.4 -7.65 1.3 -7.55 .9 -7.1 .8 -7 .7 -6.9 .55 -6.9 .4 -6.9 .15 -6.9 -.35 -6.85 -.9 -6.8 -1.15 -6.8 -1.25 -6.8 -1.4 -6.85 -1.55 -6.9 -1.6 -6.95 -2.1 -7.4 -2.15 -7.45 -2.35 -7.6 -2.5 -7.65 -2.6 -7.65 -2.85 -7.55 -3.2 -7.35 -3.5 -7.25M-2.95 -6.3Q-2.75 -6.4 -2.65 -6.35 -2.5 -6.35 -2.4 -6.2 -2.1 -5.9 -1.95 -5.8 -1.7 -5.65 -1.4 -5.65 -1.2 -5.65 -.35 -5.75 .3 -5.8 .7 -5.75 1.05 -5.75 1.3 -5.95 1.45 -6.05 1.7 -6.4 1.85 -6.55 2 -6.6 2.1 -6.65 2.35 -6.6 2.55 -6.5 2.65 -6.4 2.75 -6.25 2.7 -6.05 2.65 -5.6 2.8 -5.3 3 -4.95 3.4 -4.7 4 -4.4 4.4 -3.85 4.65 -3.45 5 -3.3 5.3 -3.2 5.75 -3.3 5.95 -3.35 6.1 -3.3 6.2 -3.2 6.3 -3 6.4 -2.8 6.4 -2.65 6.4 -2.5 6.2 -2.35 5.95 -2.15 5.85 -1.95 5.7 -1.65 5.7 -1.35 5.7 -1.2 5.8 -.5 5.85 .05 5.8 .4 5.8 .85 5.9 1.15 6 1.45 6.35 1.7 6.6 1.8 6.65 2 6.7 2.15 6.6 2.4 6.5 2.6 6.4 2.65 6.3 2.7 6.15 2.7 5.9 2.7 5.85 2.7 5.7 2.7 5.6 2.75 5.2 2.9 5 3.05 4.8 3.25 4.3 3.85 3.85 4.35 3.55 4.65 3.3 4.85 3.3 5.2 3.3 5.25 3.35 5.75 3.35 6 3.3 6.1 3.2 6.25 3 6.35 2.8 6.4 2.7 6.4 2.55 6.4 2.4 6.25 2.15 5.85 1.8 5.75 1.4 5.65 .95 5.75 .6 5.85 .2 5.85 -.05 5.85 -.6 5.8 -.9 5.8 -1.1 5.85 -1.3 5.95 -1.45 6.15 -1.5 6.2 -1.55 6.25 -1.65 6.35 -1.7 6.4 -1.8 6.6 -1.9 6.65 -2.05 6.7 -2.3 6.6 -2.5 6.55 -2.6 6.4 -2.7 6.25 -2.7 6.05 -2.65 5.6 -2.8 5.3 -2.95 5 -3.35 4.75 -3.65 4.6 -3.95 4.25 -4.2 4.05 -4.5 3.7 -4.7 3.45 -4.9 3.35 -5.15 3.25 -5.4 3.3 -5.55 3.35 -5.75 3.35L-6.1 3.35 -6.45 2.7Q-6.25 2.5 -6.15 2.35 -5.95 2.2 -5.85 2.05 -5.65 1.75 -5.65 1.4 -5.7 .35 -5.8 -.8 -5.8 -1 -6 -1.35 -6.05 -1.45 -6.15 -1.5 -6.3 -1.6 -6.35 -1.65 -6.6 -1.9 -6.65 -2.1 -6.65 -2.3 -6.45 -2.55 -6.45 -2.6 -6.3 -2.65 -6.25 -2.7 -6.15 -2.65 -5.65 -2.6 -5.3 -2.8 -4.95 -3 -4.65 -3.45 -4.4 -3.95 -3.75 -4.45 -3.45 -4.65 -3.3 -4.95 -3.2 -5.25 -3.3 -5.6 -3.35 -5.9 -3.3 -6.05 -3.2 -6.25 -2.95 -6.3M2.8 -2.8Q1.65 -3.9 0 -3.9 -1.65 -3.9 -2.75 -2.75 -3.95 -1.6 -3.95 0 -3.95 1.65 -2.8 2.8 -1.65 3.95 0 3.95 1.65 3.95 2.8 2.8 3.95 1.65 3.95 0 3.95 -1.65 2.8 -2.8M0 -2.85Q1.2 -2.85 2 -2 2.85 -1.2 2.85 0 2.85 1.2 2.05 2 1.2 2.85 .05 2.85 -1.15 2.9 -2 2.05 -2.85 1.2 -2.85 .05 -2.85 -1.15 -2 -2 -1.2 -2.85 0 -2.85Z"/></g><g id="Interpolaci.__C3.__B3n-3" transform="translate(29.25 24.1)"><animateTransform attributeName="transform" additive="replace" type="translate" repeatCount="indefinite" dur="10s" keyTimes="0;1" values="29.25,24.1;29.25,24.1"/><animateTransform attributeName="transform" additive="sum" type="rotate" repeatCount="indefinite" dur="10s" keyTimes="0;.997;1" values="0,0,0;-360,0,0;-360,0,0"/><path fill="#000" stroke="none" d="M6.8 -6.85L5.5 -7.95Q5.15 -8.2 4.8 -8 4.5 -7.85 4.35 -7.75 4.1 -7.65 3.95 -7.55 3.8 -7.45 3.7 -7.45 3.55 -7.4 3.4 -7.5 2.9 -7.75 2.8 -7.75 2.5 -7.9 2.2 -7.9 1.6 -7.95 1.2 -8.3 .8 -8.65 .6 -9.25 .5 -9.45 .35 -9.6 .2 -9.7 -.1 -9.65 -.15 -9.65 -.95 -9.55 -1.45 -9.55 -1.8 -9.45 -2 -9.45 -2.25 -9.1 -2.35 -8.9 -2.4 -8.55 -2.45 -8.15 -2.65 -7.9 -2.9 -7.65 -3.3 -7.55 -3.65 -7.45 -3.95 -7.2 -4.5 -6.75 -5 -6.7 -5.6 -6.65 -6.2 -6.95 -6.35 -7.05 -6.55 -7 -6.75 -6.95 -6.9 -6.75 -7.1 -6.5 -7.55 -5.95 -8.1 -5.3 -8.15 -5.1 -8.15 -4.95 -7.7 -4.25 -7.5 -3.9 -7.5 -3.65 -7.45 -3.35 -7.65 -3.05 -7.9 -2.6 -7.95 -2.2 -8 -1.55 -8.3 -1.15 -8.65 -.75 -9.3 -.55 -9.5 -.5 -9.6 -.3 -9.7 -.15 -9.65 .1 -9.65 .4 -9.6 .95 -9.55 1.45 -9.5 1.8 -9.45 1.95 -9.35 2.1 -9.2 2.2 -9.05 2.3 -8.9 2.4 -8.55 2.45 -8.2 2.55 -8.1 2.6 -8 2.65 -7.9 2.7 -7.8 2.8 -7.75 2.9 -7.2 3.85 -6.75 4.75 -6.7 4.9 -6.7 5.05 -6.65 5.2 -6.7 5.3 -6.75 5.55 -6.85 5.9 -6.95 6.05 -7.05 6.5 -7.05 6.55 -6.95 6.7 -6.9 6.8 -6.8 6.9 -6.55 7.1 -6.15 7.45 -5.95 7.6 -5.5 8 -5.15 8.25 -4.75 8.05 -4.4 7.8 -4.35 7.8 -4.1 7.65 -3.9 7.55 -3.8 7.55 -3.65 7.5 -3.55 7.5 -3.4 7.55 -3.3 7.6 -2.85 7.75 -2.55 7.9 -2.3 7.95 -1.6 8 -1.2 8.35 -.75 8.7 -.55 9.35 -.5 9.55 -.3 9.65 -.15 9.75 .15 9.7 .85 9.6 1.35 9.6 1.95 9.55 2.1 9.4 2.2 9.3 2.4 8.75L2.45 8.55Q2.5 8.15 2.7 7.95 2.85 7.7 3.25 7.6 3.7 7.5 4 7.25 5 6.35 6.2 7 6.55 7.2 6.9 6.8L7.55 6.05Q7.95 5.55 7.95 5.5 8.1 5.3 8.15 5.15 8.15 5.05 8.05 4.8 8 4.75 7.7 4.2 7.5 3.95 7.5 3.7 7.45 3.45 7.6 3.2 7.85 2.7 7.9 2.35 8 1.65 8.3 1.25 8.65 .8 9.3 .55 9.45 .55 9.55 .35 9.65 .15 9.65 0 9.65 -.35 9.6 -.85 9.55 -1.4 9.55 -1.7 9.5 -2.15 9 -2.3 8.45 -2.45 8.15 -2.5 8 -2.55 7.9 -2.65 7.8 -2.75 7.7 -2.9 7.55 -3.35 7.5 -3.45 7.4 -3.75 7.25 -3.9 6.8 -4.45 6.75 -5 6.7 -5.55 7 -6.2 7.2 -6.55 6.8 -6.85M5.1 -6.85Q5.7 -6.4 5.75 -6.25 5.8 -6.05 5.55 -5.3 5.45 -5.05 5.5 -4.8 5.55 -4.55 5.7 -4.3 6.3 -3.4 6.8 -2.2 6.95 -1.95 7.05 -1.8 7.25 -1.6 7.5 -1.6 7.55 -1.6 7.8 -1.5 8.3 -1.35 8.4 -1.25 8.5 -1.1 8.55 -.55 8.55 -.35 8.5 -.25 8.4 -.15 8.25 -.05 7.65 .1 7.35 .5 7.05 .85 7 1.5 6.95 1.9 6.75 2.4 6.75 2.45 6.4 3.25 6.3 3.55 6.3 3.7 6.3 3.95 6.4 4.15 6.45 4.2 6.55 4.35 6.6 4.5 6.65 4.55 6.85 4.8 6.85 5.05 6.8 5.25 6.55 5.55 6.35 5.75 6.2 5.8 6 5.9 5.8 5.75 5.7 5.7 5.55 5.65 5.4 5.6 5.35 5.6 5.1 5.45 4.8 5.5 4.6 5.55 4.3 5.75 3.5 6.25 2.25 6.85 1.95 6.95 1.85 7.1 1.65 7.25 1.6 7.5 1.6 7.55 1.55 7.7 1.55 7.75 1.5 7.85 1.4 8.35 1.25 8.45 1.15 8.5 .65 8.55 .45 8.6 .3 8.5 .2 8.45 .1 8.25 -.15 7.8 -.2 7.6 -.35 7.4 -.45 7.3 -.6 7.2 -1.45 7.05 -1.85 6.95 -2.35 6.8 -2.6 6.7 -3.25 6.4 -3.5 6.3 -3.7 6.3 -3.9 6.3 -4.15 6.45 -4.2 6.5 -4.4 6.6 -4.6 6.7 -4.7 6.75 -4.85 6.9 -5 6.9 -5.15 6.85 -5.35 6.7 -5.75 6.35 -5.8 6.25 -5.85 6.05 -5.65 5.6 -5.45 5.2 -5.5 4.85 -5.55 4.5 -5.85 4.15 -6.1 3.75 -6.4 3.2 -6.45 3 -6.8 2.2 -6.95 1.95 -7.05 1.85 -7.2 1.7 -7.45 1.65L-7.75 1.55Q-8.35 1.4 -8.45 1.25 -8.55 1.1 -8.55 .45 -8.55 .4 -8.5 .3 -8.45 .25 -8.4 .2 -8 -.05 -7.6 -.2 -7.4 -.3 -7.25 -.45 -7.15 -.6 -7.1 -.9 -6.75 -2.25 -6.4 -3.2 -6.3 -3.5 -6.3 -3.7 -6.3 -3.9 -6.45 -4.15 -6.55 -4.3 -6.7 -4.55 -6.85 -4.85 -6.9 -5 -6.45 -5.65 -6.25 -5.75 -6.05 -5.8 -5.35 -5.55 -5.05 -5.45 -4.8 -5.5 -4.6 -5.5 -4.3 -5.7 -3.5 -6.2 -2.2 -6.8 -1.95 -6.9 -1.8 -7 -1.65 -7.2 -1.6 -7.4 -1.6 -7.5 -1.6 -7.6L-1.55 -7.7Q-1.4 -8.25 -1.25 -8.35 -1.15 -8.45 -.6 -8.5 -.4 -8.55 -.3 -8.5 -.15 -8.4 -.1 -8.25 .1 -7.65 .45 -7.35 .85 -7 1.5 -6.95 1.9 -6.95 2.4 -6.75L3.25 -6.35Q3.5 -6.25 3.7 -6.25 3.95 -6.25 4.15 -6.4 4.3 -6.5 4.6 -6.65 4.75 -6.75 5 -6.9 5.05 -6.85 5.1 -6.85M3.3 -3.25Q1.95 -4.6 0 -4.65 -1.9 -4.65 -3.3 -3.25 -4.65 -1.9 -4.65 0 -4.65 1.95 -3.3 3.3 -1.95 4.65 0 4.65 1.9 4.65 3.3 3.3 4.65 1.95 4.65 .05 4.65 -1.9 3.3 -3.25M0 -3.55Q1.45 -3.55 2.5 -2.5 3.55 -1.45 3.55 0 3.55 1.5 2.55 2.55 1.5 3.55 .05 3.6 -1.45 3.6 -2.5 2.55 -3.55 1.5 -3.55 .05 -3.55 -1.45 -2.5 -2.5 -1.45 -3.55 0 -3.55Z"/></g></g></svg>