<?xml version="1.0" encoding="UTF-8"?>
<svg width="26px" height="26px" viewBox="0 0 26 26" version="1.1" xmlns="http://www.w3.org/2000/svg" xmlns:xlink="http://www.w3.org/1999/xlink">
    <title>whatsapp copy</title>
    <g id="Page-1" stroke="none" stroke-width="1" fill="none" fill-rule="evenodd">
        <g id="Prototipo" transform="translate(-1402.000000, -120.000000)" fill="#FFFFFF" fill-rule="nonzero">
            <g id="whatsapp-copy" transform="translate(1402.000000, 120.000000)">
                <path d="M0,26 L1.83651929,19.3238639 C0.703755,17.3701153 0.107816429,15.1536051 0.108735714,12.8828384 C0.111502857,5.77933571 5.918705,0 13.0544329,0 C16.5172429,0.00144114286 19.7674564,1.34330021 22.2117721,3.77827729 C24.6558186,6.21351621 26.0011886,9.45054221 26,12.893322 C25.9969729,19.9965619 20.1889721,25.7769469 13.0544329,25.7769469 C13.0539036,25.7769469 13.0548321,25.7769469 13.0544329,25.7769469 L13.0489079,25.7769469 C10.8823557,25.7761604 8.75345714,25.235171 6.8627,24.2086269 L0,26 Z M9.76901714,7.49708236 C9.52679929,6.960811 9.27168357,6.95006464 9.041175,6.94075943 C8.85266571,6.93263443 8.63677286,6.93315131 8.42127929,6.93315131 C8.20565571,6.93315131 7.85509214,7.01375629 7.55876643,7.33601793 C7.26218071,7.65827864 6.42652214,8.43726186 6.42652214,10.0215691 C6.42652214,11.6061391 7.58575071,13.1371082 7.74727571,13.3520363 C7.90906071,13.5667025 9.98504,16.9219384 13.2727771,18.2126861 C16.0052471,19.2853607 16.5612943,19.0720047 17.1543357,19.0182729 C17.7473771,18.9646721 19.0681307,18.2395516 19.3377321,17.4874347 C19.6072036,16.7357116 19.6072036,16.0913201 19.5263714,15.9565974 C19.4455486,15.8223984 19.2299157,15.7419312 18.9063457,15.5808659 C18.5829057,15.4198014 16.9926807,14.6406873 16.696095,14.5332228 C16.3995093,14.4260211 16.1838764,14.3722893 15.9681229,14.6946809 C15.75249,15.0166798 15.1329936,15.7419312 14.944215,15.9565974 C14.7555757,16.1717874 14.5668064,16.1986528 14.2433571,16.0375884 C13.9197871,15.8761302 12.8781157,15.5364393 11.6421407,14.4393888 C10.6806329,13.5858357 10.0313757,12.5317716 9.84273643,12.2095109 C9.65396714,11.8873801 9.82246571,11.712948 9.98478,11.5524073 C10.1299807,11.4081175 10.30822,11.1765457 10.470005,10.9884831 C10.6314,10.8004214 10.6852386,10.6662224 10.793185,10.4515561 C10.9010014,10.2364971 10.8470236,10.0484354 10.7662007,9.88737007 C10.6852386,9.72643657 10.0566514,8.1338725 9.76901714,7.49708236 Z" id="Combined-Shape"></path>
            </g>
        </g>
    </g>
</svg>