<?xml version="1.0" encoding="UTF-8"?>
<svg width="20px" height="20px" viewBox="0 0 20 20" version="1.1" xmlns="http://www.w3.org/2000/svg" xmlns:xlink="http://www.w3.org/1999/xlink">
    <title>Group 3</title>
    <g id="Page-1" stroke="none" stroke-width="1" fill="none" fill-rule="evenodd">
        <g id="Prototipo" transform="translate(-998.000000, -1214.000000)">
            <g id="Group-3" transform="translate(998.000000, 1214.000000)">
                <circle id="Oval" fill="#191919" cx="10" cy="10" r="10"></circle>
                <path d="M14.8166487,5.12939839 C15.0187503,5.29493433 15.0557692,5.56514691 14.9177839,5.76847697 L14.8578167,5.84125555 L10.745,9.999 L14.8578167,14.1587445 L14.9177839,14.231523 C15.0557692,14.4348531 15.0187503,14.7050657 14.8166487,14.8706016 C14.5892845,15.0568295 14.2390857,15.0400554 14.0344579,14.8331354 L14.0344579,14.8331354 L10,10.753 L5.9655421,14.8331354 C5.76091428,15.0400554 5.41071552,15.0568295 5.18335128,14.8706016 C4.98124973,14.7050657 4.94423083,14.4348531 5.08221615,14.231523 L5.14218334,14.1587445 L9.254,9.999 L5.14218334,5.84125555 L5.08221615,5.76847697 C4.94423083,5.56514691 4.98124973,5.29493433 5.18335128,5.12939839 C5.41071552,4.94317046 5.76091428,4.95994463 5.9655421,5.16686455 L5.9655421,5.16686455 L10,9.246 L14.0344579,5.16686455 C14.2390857,4.95994463 14.5892845,4.94317046 14.8166487,5.12939839 Z" id="Combined-Shape" fill="#FFFFFF" fill-rule="nonzero"></path>
            </g>
        </g>
    </g>
</svg>