<?xml version="1.0" encoding="utf-8"?><svg id="productividad" image-rendering="optimizeQuality" baseProfile="basic" version="1.1" x="0px" y="0px" width="50" height="50" xmlns="http://www.w3.org/2000/svg" xmlns:xlink="http://www.w3.org/1999/xlink"><g id="Escena-1" overflow="visible"><g id="Interpolaci.__C3.__B3n-3" transform="translate(24.95 25)"><path fill="#FFF" stroke="none" d="M4.7 -4.65Q2.8 -6.6 .05 -6.6 -2.7 -6.6 -4.65 -4.65 -6.6 -2.75 -6.6 0 -6.6 2.8 -4.65 4.7 -2.7 6.65 .05 6.65 2.8 6.65 4.7 4.7 6.65 2.75 6.65 0 6.65 -2.75 4.7 -4.65M.05 -4.95Q2.1 -4.95 3.55 -3.5 5 -2 5 0 5 2.05 3.55 3.55 2.1 5 .05 5 -2 5 -3.5 3.55 -4.95 2.05 -4.95 0 -4.95 -2.05 -3.5 -3.5 -2 -4.95 .05 -4.95Z"/></g><g id="Interpolaci.__C3.__B3n-2" transform="translate(25 25)"><path fill="#FFF" stroke="none" d="M16.65 -21.35Q16.4 -19.75 17.25 -18.45L14.6 -15.8Q8.4 -21.55 0 -21.55 -8.45 -21.55 -14.65 -15.8L-17.3 -18.45Q-16.45 -19.75 -16.65 -21.35 -16.9 -22.95 -18.15 -23.95 -19.4 -24.95 -21 -24.9 -22.6 -24.8 -23.7 -23.65 -24.8 -22.55 -24.9 -20.95 -25 -19.35 -24 -18.1 -23 -16.85 -21.4 -16.6 -19.8 -16.4 -18.5 -17.25L-15.85 -14.6Q-21.6 -8.4 -21.6 .05 -21.6 8.45 -15.85 14.65L-18.5 17.3Q-19.8 16.45 -21.4 16.7 -23 16.9 -24 18.15 -25 19.4 -24.9 21 -24.8 22.6 -23.7 23.75 -22.6 24.85 -21 24.9 -19.4 25 -18.15 24 -16.9 23 -16.65 21.4 -16.45 19.8 -17.3 18.5L-14.65 15.85Q-8.45 21.6 0 21.6 8.4 21.6 14.6 15.85L17.25 18.5Q16.45 19.65 16.6 21.1 16.7 22.5 17.65 23.55 18.6 24.65 20.05 24.85 21.4 25.1 22.7 24.4 23.95 23.7 24.5 22.45 25.1 21.15 24.75 19.75 24.4 18.35 23.25 17.5 22.15 16.6 20.7 16.6 19.45 16.6 18.45 17.3L15.8 14.65Q21.55 8.45 21.55 .05 21.55 -8.4 15.8 -14.6L18.45 -17.25Q19.75 -16.4 21.35 -16.6 22.95 -16.85 23.95 -18.1 24.95 -19.35 24.9 -20.95 24.85 -22.5 23.7 -23.65 22.55 -24.8 20.95 -24.9 19.35 -24.95 18.1 -23.95 16.85 -22.95 16.65 -21.35M18.25 -20.7Q18.25 -21.75 18.95 -22.45 19.7 -23.2 20.7 -23.2 21.75 -23.2 22.5 -22.45 23.2 -21.75 23.2 -20.7 23.2 -19.7 22.5 -18.95 21.75 -18.25 20.7 -18.25 19.7 -18.25 18.95 -18.95 18.25 -19.7 18.25 -20.7M13.45 -14.6L11.85 -13 13 -11.85 14.6 -13.45Q19.9 -7.75 19.9 .05 19.9 7.8 14.6 13.5L13 11.9 11.85 13.05 13.45 14.65Q10.7 17.2 7.2 18.6 3.7 19.95 0 19.95 -3.75 19.95 -7.25 18.6 -10.75 17.2 -13.5 14.65L-11.9 13.05 -13.05 11.9 -14.65 13.5Q-19.95 7.8 -19.95 .05 -19.95 -7.75 -14.65 -13.45L-13.05 -11.85 -11.9 -13 -13.5 -14.6Q-7.8 -19.9 0 -19.9 7.75 -19.9 13.45 -14.6M22.5 22.55Q21.75 23.25 20.7 23.25 19.7 23.25 18.95 22.55 18.25 21.8 18.25 20.75 18.25 19.75 18.95 19 19.7 18.3 20.7 18.3 21.75 18.3 22.5 19 23.2 19.75 23.2 20.75 23.2 21.8 22.5 22.55M-22.5 -22.45Q-21.8 -23.2 -20.75 -23.2 -19.75 -23.2 -19 -22.45 -18.3 -21.75 -18.3 -20.7 -18.3 -19.75 -19 -18.95 -19.8 -18.25 -20.75 -18.25 -21.8 -18.25 -22.5 -18.95 -23.25 -19.7 -23.25 -20.7 -23.25 -21.75 -22.5 -22.45M-18.3 20.75Q-18.3 21.8 -19 22.55 -19.75 23.25 -20.75 23.25 -21.8 23.25 -22.5 22.55 -23.25 21.8 -23.25 20.75 -23.25 19.75 -22.5 19 -21.8 18.3 -20.75 18.3 -19.75 18.3 -19 19 -18.3 19.75 -18.3 20.75Z"/></g><g id="Interpolaci.__C3.__B3n-1" transform="translate(24.95 25)"><animateTransform attributeName="transform" additive="replace" type="translate" repeatCount="indefinite" dur="1s" keyTimes="0;.967;1" values="24.95,25;24.885,25.056;24.885,25.056"/><animateTransform attributeName="transform" additive="sum" type="rotate" repeatCount="indefinite" dur="1s" keyTimes="0;.967;1" values="0,0,0;45,0,0;45,0,0"/><animateTransform attributeName="transform" additive="sum" type="translate" repeatCount="indefinite" dur="1s" keyTimes="0;.967;1" values="0,0;-.1,-.05;-.1,-.05"/><path fill="#FFF" stroke="none" d="M3.35 -14.2Q3.25 -14.9 2.5 -14.9L-2.45 -14.9Q-3.2 -14.9 -3.3 -14.2L-3.75 -10.95 -5.1 -10.4 -7.7 -12.35Q-8.25 -12.85 -8.8 -12.3L-12.3 -8.8Q-12.85 -8.25 -12.35 -7.7L-10.4 -5.1 -10.95 -3.75 -14.2 -3.3Q-14.9 -3.2 -14.9 -2.45L-14.9 2.5Q-14.9 3.25 -14.2 3.35L-10.95 3.8 -10.4 5.15 -12.35 7.75Q-12.85 8.3 -12.3 8.85L-8.8 12.35Q-8.3 12.85 -7.7 12.45L-5.1 10.45 -3.75 11 -3.3 14.25Q-3.2 14.95 -2.45 14.95L2.5 14.95Q3.25 14.95 3.35 14.25L3.8 11 5.15 10.45 7.75 12.45Q8.35 12.85 8.85 12.35L12.35 8.85Q12.85 8.35 12.45 7.75L10.45 5.15 11 3.8 14.25 3.35Q14.95 3.25 14.95 2.5L14.95 -2.45Q14.95 -3.2 14.25 -3.3L11 -3.75 10.45 -5.1 12.45 -7.7Q12.85 -8.3 12.35 -8.8L8.85 -12.3Q8.3 -12.85 7.75 -12.35L5.15 -10.4 3.8 -10.95 3.35 -14.2M5.7 -8.75L8.15 -10.6 10.65 -8.1 8.8 -5.65Q8.55 -5.2 8.75 -4.75 9.3 -3.8 9.6 -2.75 9.7 -2.2 10.25 -2.2L13.3 -1.75 13.3 1.8 10.25 2.25Q9.7 2.35 9.6 2.8 9.3 3.85 8.75 4.8 8.55 5.25 8.8 5.7L10.65 8.15 8.15 10.65 5.7 8.8Q5.25 8.55 4.8 8.75 3.85 9.3 2.8 9.6 2.25 9.7 2.25 10.25L1.8 13.3 -1.75 13.3 -2.2 10.25Q-2.3 9.7 -2.75 9.6 -3.8 9.3 -4.75 8.75 -5.2 8.55 -5.65 8.8L-8.1 10.65 -10.6 8.15 -8.75 5.7Q-8.5 5.25 -8.7 4.8 -9.25 3.85 -9.55 2.8 -9.65 2.25 -10.2 2.25L-13.25 1.8 -13.25 -1.75 -10.2 -2.2Q-9.6 -2.3 -9.55 -2.75 -9.25 -3.8 -8.7 -4.75 -8.5 -5.2 -8.75 -5.65L-10.6 -8.1 -8.1 -10.6 -5.65 -8.75Q-5.2 -8.5 -4.75 -8.7 -3.8 -9.25 -2.75 -9.55 -2.2 -9.65 -2.2 -10.2L-1.75 -13.25 1.8 -13.25 2.25 -10.2Q2.35 -9.6 2.8 -9.55 3.85 -9.25 4.8 -8.7 5.25 -8.5 5.7 -8.75M-8.8 7.65L-7.6 8.85 -6.45 7.65 -7.6 6.5 -8.8 7.65M-9.95 -.8L-11.6 -.8 -11.6 .85 -9.95 .85 -9.95 -.8M-8.8 -7.6L-7.6 -6.45 -6.45 -7.6 -7.6 -8.8 -8.8 -7.6M7.65 6.5L6.5 7.65 7.65 8.85 8.85 7.65 7.65 6.5M.85 11.65L.85 10 -.8 10 -.8 11.65 .85 11.65M11.65 -.8L10 -.8 10 .85 11.65 .85 11.65 -.8M.85 -9.95L.85 -11.6 -.8 -11.6 -.8 -9.95 .85 -9.95M6.5 -7.6L7.65 -6.45 8.85 -7.6 7.65 -8.8 6.5 -7.6Z"/></g></g></svg>