<?xml version="1.0" encoding="utf-8"?><svg id="experiencia" image-rendering="optimizeQuality" baseProfile="basic" version="1.1" x="0px" y="0px" width="50" height="50" xmlns="http://www.w3.org/2000/svg" xmlns:xlink="http://www.w3.org/1999/xlink"><g id="Escena-1" overflow="visible"><g id="Interpolaci.__C3.__B3n-5" transform="translate(24.85 33.85)"><path fill="#FFF" stroke="none" d="M11 5Q11.25 5.25 11.55 5.25 11.95 5.2 12.2 4.8 12.35 4.35 12.05 4.05 11.35 3.35 10.75 2.95 10.15 2.6 9.8 3.2 9.4 3.8 9.95 4.15 10.5 4.5 11 5M-6.2 11.3Q-6.2 11 -6.4 10.8 -6.65 10.55 -6.95 10.55 -7.2 10.55 -7.45 10.8 -7.65 11 -7.65 11.3L-7.65 14.65 -12.8 14.65 -12.8 9.5Q-12.8 6.85 -10.95 4.95 -9.05 3.1 -6.4 3.1L6.4 3.1Q6.7 3.1 6.95 2.9 7.15 2.65 7.15 2.4 7.15 2.1 6.95 1.9 6.7 1.65 6.4 1.65L-6.4 1.65Q-9.65 1.65 -11.9 3.95 -14.2 6.25 -14.2 9.5L-14.2 15.35Q-14.2 16.05 -13.5 16.05L13.55 16.05Q14.25 16.05 14.25 15.35L14.25 9.45Q14.25 8.45 14.05 7.65 13.95 7.25 13.55 7.15 13.15 7 12.85 7.3 12.55 7.6 12.65 8 12.85 9 12.85 9.5L12.85 14.65 7.7 14.65 7.7 11.3Q7.7 11 7.5 10.8 7.25 10.55 6.95 10.55 6.25 10.55 6.25 11.3L6.25 14.65 -6.2 14.65 -6.2 11.3M5.3 -13.8Q3.1 -16 0 -16 -3.05 -16 -5.25 -13.8 -7.45 -11.6 -7.45 -8.55 -7.45 -5.45 -5.25 -3.25 -3.1 -1.05 0 -1.05 3.1 -1.05 5.3 -3.25 7.5 -5.45 7.5 -8.55 7.5 -11.65 5.3 -13.8M4.3 -4.25Q2.5 -2.5 0 -2.5 -2.5 -2.5 -4.3 -4.25 -6.05 -6.05 -6.05 -8.55 -6.05 -11.05 -4.3 -12.8 -2.5 -14.55 0 -14.55 2.5 -14.55 4.3 -12.8 6.05 -11.05 6.05 -8.55 6.05 -6.05 4.3 -4.25Z"/></g><g><g id="Interpolaci.__C3.__B3n-4" transform="translate(7.2 13.15)"><animate attributeName="opacity" repeatCount="indefinite" dur="3.467s" keyTimes="0;.231;.519;.76;1" values="0;1;1;0;0"/><path fill="#FFF" stroke="none" d="M.6 -6.5Q.45 -6.85 0 -6.85 -.45 -6.85 -.65 -6.5L-2.5 -2.75 -6.6 -2.15Q-7 -2.15 -7.2 -1.7 -7.2 -1.15 -7 -.95L-4.05 1.95 -4.75 6.05Q-4.85 6.45 -4.45 6.75 -4.1 7.05 -3.7 6.8L0 4.85 3.65 6.8 4 6.9Q4.3 6.9 4.55 6.65 4.8 6.35 4.7 6.05L4 1.95 7 -.95Q7.3 -1.25 7.15 -1.7 7.05 -2.15 6.6 -2.15L2.45 -2.75 .6 -6.5M1.9 -1.4L4.95 -.95 2.75 1.2Q2.45 1.4 2.55 1.8L3.05 4.85 .3 3.45 0 3.35Q-.25 3.35 -.35 3.45L-3.1 4.85 -2.55 1.8Q-2.45 1.5 -2.75 1.2L-5 -.95 -1.9 -1.4Q-1.55 -1.5 -1.4 -1.8L0 -4.6 1.35 -1.8Q1.5 -1.5 1.9 -1.4Z"/></g><animate attributeName="display" repeatCount="indefinite" dur="3.467s" keyTimes="0;.769;1" values="inline;none;none"/></g><g display="none"><g id="Interpolaci.__C3.__B3n-3" transform="translate(24.9 6.9)"><animate attributeName="opacity" repeatCount="indefinite" dur="3.467s" keyTimes="0;.115;.346;.635;.875;1" values="0;0;1;1;0;0"/><path fill="#FFF" stroke="none" d="M.65 -6.5Q.4 -6.9 0 -6.9 -.4 -6.9 -.65 -6.5L-2.45 -2.8 -6.6 -2.2Q-7.05 -2.1 -7.15 -1.7 -7.3 -1.25 -7 -.95L-4 1.95 -4.7 6.05Q-4.8 6.5 -4.45 6.75 -4 7 -3.7 6.8L0 4.85 3.7 6.8 4.05 6.9Q4.4 6.9 4.55 6.65 4.75 6.4 4.75 6.05L4.05 1.95 7 -.95Q7.3 -1.25 7.2 -1.7 7.05 -2.15 6.6 -2.2L2.5 -2.8 .65 -6.5M1.9 -1.4L4.95 -.95 2.75 1.2Q2.45 1.5 2.55 1.8L3.1 4.85 .35 3.45Q.25 3.35 0 3.35 -.2 3.35 -.3 3.45L-3.05 4.85 -2.55 1.8Q-2.45 1.4 -2.75 1.2L-4.95 -.95 -1.9 -1.4Q-1.5 -1.5 -1.35 -1.8L0 -4.6 1.4 -1.8Q1.55 -1.5 1.9 -1.4Z"/></g><animate attributeName="display" repeatCount="indefinite" dur="3.467s" keyTimes="0;.115;.885;1" values="none;inline;none;none"/></g><g display="none"><g id="Interpolaci.__C3.__B3n-2" transform="translate(42.6 13.15)"><animate attributeName="opacity" repeatCount="indefinite" dur="3.467s" keyTimes="0;.231;.461;.75;.99;1" values="0;0;1;1;0;0"/><path fill="#FFF" stroke="none" d="M.65 -6.5Q.5 -6.9 .05 -6.9 -.35 -6.9 -.6 -6.5L-2.45 -2.8 -6.55 -2.2Q-7 -2.15 -7.15 -1.7 -7.3 -1.3 -6.95 -.95L-4 1.95 -4.7 6.05Q-4.8 6.45 -4.4 6.75 -4.05 7.05 -3.65 6.8L.05 4.85 3.7 6.8 4.05 6.9Q4.35 6.9 4.6 6.65 4.85 6.35 4.75 6.05L4.05 1.95 7.05 -.95Q7.35 -1.25 7.2 -1.7 7.1 -2.1 6.65 -2.2L2.5 -2.8 .65 -6.5M1.95 -1.4L5 -.95 2.8 1.2Q2.5 1.4 2.6 1.8L3.1 4.85 .35 3.45 .05 3.35Q-.2 3.35 -.3 3.45L-3.05 4.85 -2.5 1.8Q-2.4 1.5 -2.7 1.2L-4.95 -.95 -1.85 -1.4Q-1.5 -1.5 -1.35 -1.8L.05 -4.6 1.4 -1.8Q1.55 -1.5 1.95 -1.4Z"/></g><animate attributeName="display" repeatCount="indefinite" dur="3.467s" keyTimes="0;.231;1" values="none;inline;inline"/></g></g></svg>