<?xml version="1.0" encoding="utf-8"?><svg id="costo" image-rendering="optimizeQuality" baseProfile="basic" version="1.1" x="0px" y="0px" width="50" height="50" xmlns="http://www.w3.org/2000/svg" xmlns:xlink="http://www.w3.org/1999/xlink"><g id="Escena-1" overflow="visible"><g id="Interpolaci.__C3.__B3n-3" transform="translate(25 25.05)"><path fill="#FFF" stroke="none" d="M17 2.2Q17 1.5 16.25 1.5 15.55 1.5 15.55 2.2 15.55 3.15 14.6 3.15 14.2 3.15 13.95 2.9 13.7 2.6 13.7 2.2 13.7 1.5 13 1.5 12.25 1.5 12.25 2.2 12.25 3.2 12.95 3.95 13.6 4.65 14.6 4.65 15.6 4.65 16.3 3.95 17 3.2 17 2.2M6.4 -19.45Q5.55 -21.05 4.55 -22.05 1.65 -25 -2.5 -25 -6.6 -25 -9.5 -22.05 -12.45 -19.05 -12.45 -14.9 -12.45 -10.8 -9.5 -7.7 -8.75 -6.95 -7.75 -6.3L-9.1 -5.9Q-9.8 -5.65 -9.55 -4.95 -9.45 -4.65 -9.2 -4.5 -8.9 -4.4 -8.65 -4.5 -2.5 -6.6 3.7 -4.5L3.9 -4.45Q4.45 -4.45 4.6 -4.95 4.85 -5.65 4.15 -5.9L2.8 -6.3Q3.85 -7 4.55 -7.7 5.3 -8.45 5.8 -9.3L7.2 -9 7.2 -8.9Q6.6 -6.4 7.25 -4.4 7.75 -2.7 9.15 -1.6 10.75 -.45 12.8 -.45 14.15 -.45 15.1 -1 16.1 -1.6 16.8 -3.5L17.4 -2.7Q18.5 -1.05 19.1 .8 19.5 1.95 20.65 2.35L22.65 3Q23.6 3.35 23.6 4.25L23.6 7.75Q23.6 8.65 22.65 9L19.35 10.05Q18.5 10.35 18.1 11.1 16.15 14.55 12.05 16.75 11.55 16.95 11.45 17.55L10.4 23.25Q10.4 23.55 10.1 23.55L6.6 23.55Q6.4 23.55 6.3 23.25L5.7 20.1Q5.65 19.65 5.25 19.35 4.9 19.1 4.4 19.15 2.35 19.5 -.1 19.5 -2.05 19.5 -3.45 19.3 -3.9 19.25 -4.3 19.55 -4.65 19.8 -4.75 20.25L-5.25 23.25Q-5.35 23.55 -5.6 23.55L-9.05 23.55Q-9.35 23.55 -9.35 23.25L-10.4 17.85Q-10.5 17.3 -10.95 17.05 -18.1 13.25 -18.1 4.85 -18.1 .7 -16.3 -2.45 -14.75 -5.3 -11.55 -7.15 -10.95 -7.6 -11.3 -8.2 -11.65 -8.8 -12.3 -8.45 -18.35 -4.9 -19.35 2.15L-19.55 2.15Q-19.55 1.5 -19.8 .65 -20.55 -1.2 -22 -1.35 -23.15 -1.5 -23.9 -.5 -24.75 .65 -24.3 1.65 -23.7 2.85 -21.4 3.35L-21.55 3.5Q-22.65 4.9 -24.25 5 -25 5 -25 5.75 -25 6.55 -24.3 6.55L-24.1 6.55Q-22.1 6.55 -20.45 4.45 -20.1 4.05 -19.9 3.55L-19.5 3.6 -19.55 4.85Q-19.55 9.5 -17.4 13.05 -15.4 16.3 -11.8 18.3L-10.75 23.55Q-10.65 24.2 -10.2 24.6 -9.7 25 -9.05 25L-5.6 25Q-4.95 25 -4.45 24.6 -3.95 24.2 -3.85 23.55L-3.35 20.8Q-1.95 21 -.1 21 2.15 21 4.35 20.7L4.9 23.55Q5 24.2 5.45 24.6 5.95 25 6.6 25L10.1 25Q10.7 25 11.2 24.6 11.7 24.2 11.8 23.55L12.85 18Q17.2 15.6 19.35 11.85 19.5 11.6 19.8 11.5L23.1 10.4Q23.95 10.15 24.5 9.4 25 8.65 25 7.75L25 4.25Q25 3.35 24.5 2.6 23.95 1.85 23.1 1.6L21.05 .95Q20.65 .8 20.5 .35 19.95 -1.6 18.55 -3.6 18.2 -4.15 17.3 -5.15 17.75 -7.15 17.75 -9.35 17.7 -12.15 16.6 -12.75 14.85 -13.55 8.5 -10.55 8.4 -10.5 8.05 -10.3L6.75 -10.65 6.55 -10.65Q7.4 -12.45 7.45 -14.45 7.5 -14.75 7.25 -14.95 7.05 -15.2 6.75 -15.2 6 -15.2 6 -14.5 5.85 -11.15 3.5 -8.75 2.25 -7.45 .45 -6.75 -2.5 -7.2 -5.4 -6.75 -7.2 -7.45 -8.45 -8.75 -10.95 -11.3 -10.95 -14.9 -10.95 -18.45 -8.45 -21 -6.05 -23.55 -2.5 -23.55 1.1 -23.55 3.5 -21 4.5 -20 5.15 -18.75 5.25 -18.5 5.5 -18.4 5.8 -18.3 6.05 -18.45 6.75 -18.8 6.4 -19.45M8.6 -8.6Q8.7 -9.05 9.1 -9.2 13.9 -11.45 15.65 -11.45L15.85 -11.45Q16.1 -11.2 16.2 -10.2 16.3 -8.95 16.15 -7.25 15.9 -5.4 15.45 -4.05 14.95 -2.65 14.35 -2.3 13.65 -1.85 12.45 -1.95 11.05 -2.05 10.05 -2.8 7.8 -4.55 8.6 -8.6M-22.75 .45Q-22.55 .15 -22.3 .15L-22.2 .15Q-21.5 .25 -21.15 1.2 -21.05 1.65 -21.05 1.9 -22.7 1.55 -23 1 -23.05 .8 -22.75 .45Z"/></g><g id="Interpolaci.__C3.__B3n-2" transform="translate(22.65 10.15)"><animateTransform attributeName="transform" additive="replace" type="translate" repeatCount="indefinite" dur="4s" keyTimes="0;.242;.492;.742;1" values="22.65,15.55;22.643,15.564;22.703,15.59;22.65,15.55;22.65,15.55" keySplines=".25 .5 .5 1;.25 .5 .5 1;.25 .5 .5 1;.25 .5 .5 1" calcMode="spline"/><animateTransform attributeName="transform" additive="sum" type="rotate" repeatCount="indefinite" dur="4s" keyTimes="0;.242;.492;.742;1" values="0,0,0;-14.998,0,0;14.998,0,0;0,0,0;0,0,0" keySplines=".25 .5 .5 1;.25 .5 .5 1;.25 .5 .5 1;.25 .5 .5 1" calcMode="spline"/><animateTransform attributeName="transform" additive="sum" type="scale" repeatCount="indefinite" dur="4s" keyTimes="0;.242;.492;.742;1" values="1,1;1,.999;1,.999;1,1;1,1" keySplines=".25 .5 .5 1;.25 .5 .5 1;.25 .5 .5 1;.25 .5 .5 1" calcMode="spline"/><animateTransform attributeName="transform" additive="sum" type="translate" repeatCount="indefinite" dur="4s" keyTimes="0;.242;.492;.742;1" values="0,-5.4;0,-5.45;-.1,-5.45;0,-5.4;0,-5.4" keySplines=".25 .5 .5 1;.25 .5 .5 1;.25 .5 .5 1;.25 .5 .5 1" calcMode="spline"/><path fill="#FFF" stroke="none" d="M.55 -5.05Q.55 -5.35 .2 -5.35 -.2 -5.35 -.2 -5.05L-.2 -4.65Q-2.65 -4.45 -2.65 -2.25 -2.65 -1.1 -1.85 -.5 -1.4 -.1 -.2 .35L-.2 3.4Q-.95 3.35 -1.55 2.85 -2.15 2.4 -2.25 2.4 -2.85 2.4 -2.85 3.15 -2.85 3.65 -2.1 4.15 -1.25 4.65 -.2 4.65L-.2 5.1Q-.2 5.4 .2 5.4 .55 5.4 .55 5.1L.55 4.65Q2.9 4.3 2.9 1.95 2.9 .75 2.2 .05 1.7 -.4 .55 -.85L.55 -3.5Q1.5 -3.4 2.15 -3 2.65 -3 2.65 -3.75 2.65 -4.6 .55 -4.7L.55 -5.05M1.65 2.1Q1.65 3.15 .5 3.4L.5 .6Q1.65 1.15 1.65 2.1M-.1 -3.45L-.1 -1.1Q-1.35 -1.55 -1.35 -2.35 -1.35 -3.3 -.1 -3.45Z"/></g></g></svg>