<?xml version="1.0" encoding="UTF-8"?>
<svg width="50px" height="50px" viewBox="0 0 50 50" version="1.1" xmlns="http://www.w3.org/2000/svg" xmlns:xlink="http://www.w3.org/1999/xlink">
    <title>1935669</title>
    <g id="04-RPA-&amp;-HIPERAUTOMATIZACIÓN" stroke="none" stroke-width="1" fill="none" fill-rule="evenodd">
        <g id="Desktop-HD-Copy-2" transform="translate(-695.000000, -1337.000000)" fill="#FFFFFF" fill-rule="nonzero">
            <g id="1935669" transform="translate(695.000000, 1337.000000)">
                <path d="M47.5806452,35.483871 L43.1451613,35.483871 C42.9225806,35.483871 42.7419355,35.3032258 42.7419355,35.0806452 C42.7419355,34.9927419 42.7701613,34.908871 42.8225806,34.8387097 C44.3314516,32.8282258 45.1612903,30.3362903 45.1612903,27.8225806 L45.1612903,27.4193548 C45.1612903,25.1959677 43.3524194,23.3870968 41.1290323,23.3870968 C40.2395161,23.3870968 39.516129,24.1104839 39.516129,25 L39.516129,26.391129 C39.516129,28.3991935 38.733871,30.2862903 37.3145161,31.7064516 C36.8419355,32.1782258 36.308871,32.5862903 35.7290323,32.9169355 L31.2370968,35.483871 L29.0322581,35.483871 L29.0322581,33.8709677 L14.5008065,33.8709677 C15.5177419,32.5209677 16.1290323,30.8491935 16.1290323,29.0322581 C16.1290323,24.5854839 12.5112903,20.9677419 8.06451613,20.9677419 C3.61774194,20.9677419 0,24.5854839 0,29.0322581 C0,33.4790323 3.61774194,37.0967742 8.06451613,37.0967742 C9.21129032,37.0967742 10.3016129,36.8524194 11.2903226,36.4185484 L11.2903226,50 L29.0322581,50 L29.0322581,48.3870968 L31.2967742,48.3870968 L35.3290323,50 L47.5806452,50 C48.9145161,50 50,48.9145161 50,47.5806452 C50,46.958871 49.7572581,46.3967742 49.3709677,45.9677419 C49.7580645,45.5387097 50,44.9766129 50,44.3548387 C50,43.7330645 49.7572581,43.1709677 49.3709677,42.7419355 C49.7580645,42.3129032 50,41.7508065 50,41.1290323 C50,40.5072581 49.7572581,39.9451613 49.3709677,39.516129 C49.7580645,39.0870968 50,38.525 50,37.9032258 C50,36.5693548 48.9145161,35.483871 47.5806452,35.483871 Z M1.61290323,29.0322581 C1.61290323,25.475 4.50725806,22.5806452 8.06451613,22.5806452 C11.6217742,22.5806452 14.516129,25.475 14.516129,29.0322581 C14.516129,30.558871 13.9806452,31.9620968 13.0903226,33.0677419 C12.4516129,32.2725806 11.6419355,31.6459677 10.7266129,31.2306452 C11.5604839,30.491129 12.0967742,29.425 12.0967742,28.2258065 C12.0967742,26.0024194 10.2879032,24.1935484 8.06451613,24.1935484 C5.84112903,24.1935484 4.03225806,26.0024194 4.03225806,28.2258065 C4.03225806,29.425 4.56854839,30.491129 5.40241935,31.2306452 C4.48709677,31.6467742 3.67741935,32.2733871 3.03870968,33.0677419 C2.1483871,31.9620968 1.61290323,30.558871 1.61290323,29.0322581 Z M5.64516129,28.2258065 C5.64516129,26.8919355 6.73064516,25.8064516 8.06451613,25.8064516 C9.3983871,25.8064516 10.483871,26.8919355 10.483871,28.2258065 C10.483871,29.5596774 9.3983871,30.6451613 8.06451613,30.6451613 C6.73064516,30.6451613 5.64516129,29.5596774 5.64516129,28.2258065 Z M4.2,34.1862903 C5.10725806,32.9830645 6.53467742,32.2580645 8.06451613,32.2580645 C9.59435484,32.2580645 11.0217742,32.983871 11.9290323,34.1862903 C10.85,34.9967742 9.51451613,35.483871 8.06451613,35.483871 C6.61451613,35.483871 5.27903226,34.9967742 4.2,34.1862903 Z M12.9032258,35.483871 L24.1935484,35.483871 L24.1935484,48.3870968 L12.9032258,48.3870968 L12.9032258,35.483871 Z M27.4193548,48.3870968 L25.8064516,48.3870968 L25.8064516,35.483871 L27.4193548,35.483871 L27.4193548,48.3870968 Z M47.5806452,48.3870968 L35.6387097,48.3870968 L31.6064516,46.7741935 L29.0322581,46.7741935 L29.0322581,37.0967742 L31.666129,37.0967742 L36.5290323,34.3177419 C37.2330645,33.9153226 37.8814516,33.4209677 38.4548387,32.8467742 C40.1790323,31.1225806 41.1290323,28.8298387 41.1290323,26.391129 L41.1290323,25 C42.4629032,25 43.5483871,26.0854839 43.5483871,27.4193548 L43.5483871,27.8225806 C43.5483871,29.9895161 42.8322581,32.1379032 41.5314516,33.8717742 C41.2717742,34.2185484 41.1290323,34.6475806 41.1290323,35.0806452 C41.1290323,36.1919355 42.033871,37.0967742 43.1451613,37.0967742 L47.5806452,37.0967742 C48.025,37.0967742 48.3870968,37.458871 48.3870968,37.9032258 C48.3870968,38.3475806 48.025,38.7096774 47.5806452,38.7096774 L43.5483871,38.7096774 L43.5483871,40.3225806 L47.5806452,40.3225806 C48.025,40.3225806 48.3870968,40.6846774 48.3870968,41.1290323 C48.3870968,41.5733871 48.025,41.9354839 47.5806452,41.9354839 L43.5483871,41.9354839 L43.5483871,43.5483871 L47.5806452,43.5483871 C48.025,43.5483871 48.3870968,43.9104839 48.3870968,44.3548387 C48.3870968,44.7991935 48.025,45.1612903 47.5806452,45.1612903 L43.5483871,45.1612903 L43.5483871,46.7741935 L47.5806452,46.7741935 C48.025,46.7741935 48.3870968,47.1362903 48.3870968,47.5806452 C48.3870968,48.025 48.025,48.3870968 47.5806452,48.3870968 Z" id="Shape"></path>
                <path d="M41.9354839,21.7741935 C46.3822581,21.7741935 50,18.1564516 50,13.7096774 C50,9.26290323 46.3822581,5.64516129 41.9354839,5.64516129 C37.4887097,5.64516129 33.8709677,9.26290323 33.8709677,13.7096774 C33.8709677,18.1564516 37.4887097,21.7741935 41.9354839,21.7741935 Z M38.0709677,18.8637097 C38.9782258,17.6604839 40.4056452,16.9354839 41.9354839,16.9354839 C43.4653226,16.9354839 44.8927419,17.6612903 45.8,18.8637097 C44.7209677,19.6741935 43.3854839,20.1612903 41.9354839,20.1612903 C40.4854839,20.1612903 39.15,19.6741935 38.0709677,18.8637097 Z M39.516129,12.9032258 C39.516129,11.5693548 40.6016129,10.483871 41.9354839,10.483871 C43.2693548,10.483871 44.3548387,11.5693548 44.3548387,12.9032258 C44.3548387,14.2370968 43.2693548,15.3225806 41.9354839,15.3225806 C40.6016129,15.3225806 39.516129,14.2370968 39.516129,12.9032258 Z M41.9354839,7.25806452 C45.4927419,7.25806452 48.3870968,10.1524194 48.3870968,13.7096774 C48.3870968,15.2362903 47.8516129,16.6395161 46.9612903,17.7451613 C46.3225806,16.95 45.5129032,16.3233871 44.5975806,15.9080645 C45.4314516,15.1685484 45.9677419,14.1024194 45.9677419,12.9032258 C45.9677419,10.6798387 44.158871,8.87096774 41.9354839,8.87096774 C39.7120968,8.87096774 37.9032258,10.6798387 37.9032258,12.9032258 C37.9032258,14.1024194 38.4395161,15.1685484 39.2733871,15.9080645 C38.3580645,16.3241935 37.5483871,16.9508065 36.9096774,17.7451613 C36.0193548,16.6395161 35.483871,15.2362903 35.483871,13.7096774 C35.483871,10.1524194 38.3782258,7.25806452 41.9354839,7.25806452 Z" id="Shape"></path>
                <path d="M20.9677419,22.5806452 C27.1935484,22.5806452 32.2580645,17.516129 32.2580645,11.2903226 C32.2580645,5.06451613 27.1935484,0 20.9677419,0 C14.7419355,0 9.67741935,5.06451613 9.67741935,11.2903226 C9.67741935,17.516129 14.7419355,22.5806452 20.9677419,22.5806452 Z M20.9677419,20.9677419 C18.25,20.9677419 15.7935484,19.8370968 14.033871,18.0266129 C14.4112903,16.7919355 15.0935484,15.7137097 15.991129,14.8701613 L17.2540323,19.9217742 L20.9677419,17.1370968 L24.6814516,19.9225806 L25.9443548,14.8709677 C26.841129,15.7145161 27.5233871,16.7927419 27.9016129,18.0274194 C26.1419355,19.8370968 23.6854839,20.9677419 20.9677419,20.9677419 L20.9677419,20.9677419 Z M17.7419355,8.06451613 C17.7419355,6.28548387 19.1887097,4.83870968 20.9677419,4.83870968 C22.7467742,4.83870968 24.1935484,6.28548387 24.1935484,8.06451613 C24.1935484,9.84354839 22.7467742,11.2903226 20.9677419,11.2903226 C19.1887097,11.2903226 17.7419355,9.84354839 17.7419355,8.06451613 Z M20.9677419,14.8693548 L19.4637097,13.0645161 C19.9508065,12.9629032 20.4532258,12.9032258 20.9677419,12.9032258 C21.4822581,12.9032258 21.9846774,12.9629032 22.4717742,13.0645161 L20.9677419,14.8693548 Z M24.1096774,13.6185484 C24.2556452,13.6879032 24.3991935,13.7604839 24.5395161,13.8395161 L23.7056452,17.175 L22.1306452,15.9935484 L24.1096774,13.6185484 Z M17.8258065,13.6185484 L19.8048387,15.9935484 L18.2298387,17.175 L17.3959677,13.8395161 C17.5362903,13.7596774 17.6798387,13.6879032 17.8258065,13.6185484 L17.8258065,13.6185484 Z M20.9677419,1.61290323 C26.3040323,1.61290323 30.6451613,5.95403226 30.6451613,11.2903226 C30.6451613,13.2330645 30.0645161,15.0395161 29.075,16.5572581 C28.0927419,14.3346774 26.2516129,12.6395161 24.0056452,11.825 C25.1032258,10.9370968 25.8064516,9.58225806 25.8064516,8.06451613 C25.8064516,5.39596774 23.6362903,3.22580645 20.9677419,3.22580645 C18.2991935,3.22580645 16.1290323,5.39596774 16.1290323,8.06451613 C16.1290323,9.58225806 16.8322581,10.9370968 17.9290323,11.825 C15.6830645,12.6387097 13.8419355,14.3346774 12.8596774,16.5572581 C11.8709677,15.0395161 11.2903226,13.2330645 11.2903226,11.2903226 C11.2903226,5.95403226 15.6314516,1.61290323 20.9677419,1.61290323 L20.9677419,1.61290323 Z" id="Shape"></path>
            </g>
        </g>
    </g>
</svg>