<?xml version="1.0" encoding="UTF-8"?>
<svg width="40px" height="50px" viewBox="0 0 40 50" version="1.1" xmlns="http://www.w3.org/2000/svg" xmlns:xlink="http://www.w3.org/1999/xlink">
    <title>1378526</title>
    <g id="04-RPA-&amp;-HIPERAUTOMATIZACIÓN" stroke="none" stroke-width="1" fill="none" fill-rule="evenodd">
        <g id="Desktop-HD-Copy-2" transform="translate(-701.000000, -981.000000)" fill="#FFFFFF" fill-rule="nonzero">
            <g id="1378526" transform="translate(701.000000, 981.000000)">
                <path d="M32.7320099,18.6515809 C32.7320099,11.4448547 26.8688202,5.58166504 19.6620941,5.58166504 C12.4549865,5.58166504 6.59179688,11.4448547 6.59179688,18.6515809 C6.59179688,25.8586884 12.4549865,31.721878 19.6620941,31.721878 C26.8688202,31.721878 32.7320099,25.8586884 32.7320099,18.6515809 Z M19.6620941,30.2570343 C13.2629395,30.2570343 8.05664062,25.0507354 8.05664062,18.6515809 C8.05664062,12.2528076 13.2629395,7.04650879 19.6620941,7.04650879 C26.0612488,7.04650879 31.2671661,12.2528076 31.2671661,18.6515809 C31.2671661,25.0507354 26.0612488,30.2570343 19.6620941,30.2570343 Z" id="Shape"></path>
                <path d="M28.7643433,15.7863617 C28.6262512,15.3606415 28.232956,15.0749207 27.785492,15.0749207 L22.327423,15.0749207 L20.6409454,9.88426211 C20.5024719,9.45892334 20.1091767,9.17320254 19.6620941,9.17320254 C19.2150116,9.17320254 18.8217163,9.45892334 18.6832428,9.88426211 L16.9967651,15.0753021 L11.5386963,15.0753021 C11.0912323,15.0753021 10.697937,15.3610229 10.5598449,15.7863617 C10.4217529,16.2117004 10.572052,16.6740418 10.9336854,16.9368744 L15.3491974,20.1450348 L13.6627197,25.3356934 C13.5246277,25.7610321 13.6745453,26.2237549 14.0365601,26.4865875 C14.3981934,26.7494201 14.8845673,26.7494201 15.246582,26.4865875 L19.6620941,23.2784271 L24.0776063,26.4865875 C24.2588043,26.6181945 24.47052,26.6838074 24.6826172,26.6838074 C24.8947144,26.6838074 25.1068115,26.6181945 25.2876281,26.4865875 C25.649643,26.2237549 25.7995605,25.7610321 25.6614686,25.3356934 L23.9746094,20.1450348 L28.3901215,16.9368744 C28.7521362,16.6740418 28.9024354,16.2117004 28.7643433,15.7863617 Z M22.857666,19.1459656 C22.4960327,19.4087982 22.3457336,19.8711396 22.4838257,20.2968598 L23.8536835,24.5132446 L20.2671051,21.9074249 C20.085907,21.7758179 19.8741913,21.7102051 19.6620941,21.7102051 C19.449997,21.7102051 19.2378998,21.7758179 19.0570831,21.9074249 L15.4705048,24.5132446 L16.8403625,20.2964783 C16.9784546,19.8711396 16.8281555,19.4087982 16.4665223,19.1459656 L12.8795624,16.5397645 L17.313385,16.5397645 C17.7604676,16.5397645 18.1537628,16.2540436 18.2922363,15.8287049 L19.6620941,11.6119385 L21.031952,15.8287049 C21.1704254,16.2540436 21.5637207,16.5397645 22.0108032,16.5397645 L26.4446259,16.5397645 L22.857666,19.1459656 Z" id="Shape"></path>
                <path d="M39.125061,42.8821563 L32.2574615,30.8254242 L33.4606171,30.4393769 C34.9102021,29.9747467 35.8669281,28.5884857 35.7875824,27.0683289 L35.6964111,25.3223419 C35.6685639,24.7940063 35.8654022,24.2744445 36.2365723,23.897171 L37.4629975,22.6509094 C38.5303497,21.565628 38.7332916,19.8936463 37.9566192,18.5844422 L37.0643615,17.0810699 C36.7942811,16.6259766 36.7275238,16.0743713 36.8804932,15.5677795 L37.387085,13.8942719 C37.828064,12.437439 37.2306824,10.8627319 35.9348297,10.0646973 L34.4459533,9.14764404 C33.9954376,8.87031553 33.6795807,8.41331484 33.5800171,7.89337158 L33.2508087,6.17637637 C32.964325,4.68139648 31.7035675,3.56445312 30.1849365,3.45993047 L28.4404755,3.34014893 C27.9125214,3.30390928 27.4208068,3.0456543 27.091217,2.63175967 L26.001358,1.26419062 C25.0530243,0.0740050781 23.4172821,-0.328826953 22.0245361,0.284194922 L20.4242706,0.988769531 C20.4242706,0.988769531 20.4242706,0.988769531 20.4238892,0.988769531 C19.9398041,1.20201113 19.3843842,1.20201113 18.8999176,0.988769531 L17.2996521,0.284194922 C15.9065246,-0.328826953 14.271164,0.0740050781 13.3224487,1.26457217 L12.2329712,2.63175967 C11.9033813,3.0456543 11.4116669,3.30390928 10.8837128,3.34014893 L9.13925176,3.45993047 C7.6206207,3.56445312 6.35986328,4.68139648 6.07337949,6.17637637 L5.74417109,7.89337158 C5.64422607,8.4129334 5.32875059,8.87031553 4.87823486,9.14764404 L3.3893585,10.0643158 C2.09350586,10.8623505 1.49612422,12.437439 1.93710332,13.8942719 L2.44331357,15.5677795 C2.59666445,16.0743713 2.52990723,16.6255951 2.25982666,17.0806885 L1.36756895,18.5844422 C0.590896582,19.8932647 0.793838477,21.565628 1.86119082,22.6505279 L3.08761602,23.897171 C3.45840449,24.2744445 3.65562441,24.7936249 3.62777715,25.3219604 L3.53660586,27.0683289 C3.45726016,28.5881043 4.41398623,29.9743652 5.86318965,30.4393769 L7.06672666,30.8250428 L0.199127148,42.8821563 C-0.00839233398,43.24646 -0.000762939453,43.6943055 0.219345117,44.0513611 C0.439453125,44.4084168 0.838088965,44.6174621 1.25503535,44.594574 L6.99501035,44.2974091 L9.66720586,49.3865967 C9.86213682,49.7573853 10.2436065,49.9927521 10.6628418,50 C10.6693268,50 10.6758117,50 10.6822968,50 C11.0939025,50 11.4746094,49.7795105 11.6786957,49.4209289 L18.6676025,37.1505737 C18.9910889,37.2509003 19.3264008,37.3031616 19.6620941,37.3031616 C19.9977875,37.3031616 20.3327179,37.2509003 20.6565857,37.1505737 L27.6454926,49.4209289 C27.8495789,49.7795105 28.2299042,50 28.64151,50 C28.647995,50 28.6548614,50 28.6613465,50 C29.0805816,49.9927521 29.4620514,49.7577667 29.6569824,49.3865967 L32.3287964,44.2974091 L38.0691528,44.594574 C38.4895324,44.6166992 38.8847352,44.4080353 39.1044617,44.0513611 C39.3245697,43.6943055 39.3325806,43.24646 39.125061,42.8821563 Z M10.6937408,48.1906891 L8.25996396,43.5558319 L9.69696045,41.0335541 C9.89723203,40.681839 9.77478027,40.2347564 9.42306523,40.0344849 C9.07211309,39.8345947 8.62464902,39.9570465 8.42437744,40.3083801 L6.98738096,42.8310395 L1.75971982,43.1018829 L8.35990908,31.51474 C8.48426816,31.6539765 8.58955381,31.8115234 8.66889951,31.9839478 L9.39979551,33.5727691 C9.77897646,34.3971252 10.4625702,35.0082397 11.2701416,35.3115082 L10.1257324,37.3210907 C9.92546084,37.6724243 10.048294,38.1198883 10.3996277,38.32016 C10.5140686,38.3850098 10.6388092,38.4159088 10.7616425,38.4159088 C11.0160828,38.4159088 11.2636566,38.2831573 11.3986969,38.0458832 L12.8479004,35.5018615 C12.9074097,35.4946137 12.9669189,35.4866027 13.0264282,35.4759217 L14.7491455,35.174942 C15.2698517,35.0837707 15.8092499,35.2169037 16.2284852,35.5396271 L17.3900604,36.4341736 L10.6937408,48.1906891 Z M20.6142426,35.5800629 C20.6115723,35.5815888 20.6092834,35.5823517 20.6069946,35.5838775 C20.6031799,35.5861664 20.5993652,35.5888367 20.5955506,35.5911255 C20.0176239,35.9195709 19.3065644,35.9195709 18.7286377,35.5911255 C18.724823,35.5888367 18.7213897,35.5861664 18.7171936,35.5838775 C18.7149048,35.5823517 18.712616,35.5815888 18.7103271,35.5800629 C18.6408996,35.5396271 18.572998,35.4961396 18.5081482,35.446167 L17.1226502,34.3791962 C16.5325165,33.9244843 15.8081055,33.6818695 15.0718689,33.6818695 C14.8803711,33.6818695 14.6881104,33.6986542 14.496994,33.731842 L12.7742768,34.0328217 C12.663269,34.0522766 12.5522613,34.0610504 12.442398,34.0606689 C12.4332428,34.0602875 12.4244689,34.0599061 12.4156952,34.0599061 C11.7004395,34.0473175 11.038208,33.6288452 10.7307434,32.9601288 L9.99984746,31.3716889 C9.68742373,30.6922912 9.15527344,30.1403046 8.50028994,29.7985077 C8.49876406,29.7977447 8.49761963,29.7966004 8.49609375,29.7958374 C8.49189756,29.7935486 8.48770137,29.7916412 8.48388672,29.7897339 C8.46824648,29.781723 8.45260625,29.7737121 8.43696592,29.7660828 C8.43315127,29.7641754 8.43009951,29.7626495 8.42628477,29.7611236 C8.28132627,29.6897889 8.13102725,29.6283722 7.97576904,29.5783996 L6.31065371,29.0447235 C5.49392695,28.7826538 4.95452881,28.0014038 4.99954219,27.1450043 L5.09071348,25.3986358 C5.1395416,24.4609833 4.79011533,23.5393524 4.13169863,22.8702545 L2.90565488,21.6236114 C2.30407715,21.0121154 2.18963623,20.0698853 2.62718203,19.3321229 L3.51943965,17.8283691 C3.99856563,17.0207978 4.11758418,16.0423279 3.84559629,15.1435852 L3.33900449,13.4700775 C3.09028623,12.6491547 3.42712402,11.7614746 4.15763857,11.3121033 L5.64651484,10.39505 C6.44607539,9.90257266 7.00607305,9.09156797 7.18269346,8.16917422 L7.51190186,6.45217891 C7.67326357,5.60989375 8.3839416,4.98046875 9.23957822,4.92134092 L10.9840393,4.80155947 C11.9205475,4.73709102 12.7933502,4.2789459 13.3785248,3.5446167 L14.4680023,2.1774292 C15.0028229,1.50642393 15.9244537,1.27944941 16.7095185,1.62506104 L18.3094024,2.3292541 C19.1688537,2.70767207 20.154953,2.70767207 21.0140229,2.3292541 L22.6142883,1.62506104 C23.3997345,1.27944941 24.3209839,1.50642393 24.8554229,2.1774292 L25.945282,3.54499814 C26.5300751,4.27932734 27.4032593,4.73709102 28.3397675,4.80155947 L30.0842285,4.92172246 C30.9398651,4.98046875 31.6505432,5.60989375 31.8119049,6.45217891 L32.1411133,8.16955566 C32.3181152,9.09156797 32.8781128,9.9029541 33.6772919,10.39505 L35.1661682,11.3121033 C35.8966827,11.7618561 36.2335205,12.6491547 35.9848022,13.4700775 L35.4782104,15.1439667 C35.2062226,16.0423279 35.3252411,17.0207978 35.8043671,17.8287506 L36.6966248,19.3321229 C37.1341705,20.0698853 37.0201111,21.0121154 36.4181519,21.6236114 L35.1921082,22.8702545 C34.5336914,23.5393524 34.1842651,24.4609833 34.2330933,25.3990174 L34.3242646,27.1450043 C34.3692779,28.0014038 33.8298798,28.7826538 33.0131531,29.0447235 L31.3480377,29.5783996 C31.1927795,29.6283722 31.0424805,29.6897889 30.897522,29.7607422 C30.8937072,29.7626495 30.890274,29.7641754 30.8868408,29.7657013 C30.8712006,29.7737121 30.8551788,29.781723 30.8395386,29.7897339 C30.8357238,29.7920227 30.8315277,29.7935486 30.827713,29.7958374 C30.8261871,29.7966004 30.8250428,29.7973633 30.8238983,29.7981262 C30.1685333,30.139923 29.636383,30.6922912 29.3239594,31.3716889 L28.5930634,32.9605103 C28.2859803,33.6284638 27.6245117,34.046936 26.9096375,34.0599061 C26.8993378,34.0599061 26.8886566,34.0602875 26.8783569,34.0610504 C26.7692566,34.0610504 26.6593934,34.0522766 26.5491485,34.0328217 L24.8268127,33.731842 C23.9017486,33.5700988 22.9446411,33.8062286 22.2007752,34.3791962 L20.8156586,35.446167 C20.7511902,35.4961396 20.6832886,35.5396271 20.6142426,35.5800629 Z M32.3368072,42.8310395 L30.8879853,40.2877808 C30.6877137,39.9360656 30.2402496,39.8136139 29.8892975,40.0138855 C29.5375824,40.2141571 29.4151307,40.6612396 29.6154022,41.0129547 L31.0638428,43.5558319 L28.6304474,48.1906891 L21.9341278,36.4341736 L23.0953217,35.5396271 C23.5145568,35.2169037 24.0539551,35.0837707 24.5750428,35.174942 L26.2973785,35.4759217 C26.3568878,35.4866027 26.4167785,35.4946137 26.4762879,35.5018615 L27.9247284,38.0451202 C28.0597687,38.2820129 28.3073426,38.4151459 28.5617828,38.4151459 C28.6846161,38.4151459 28.8093566,38.3842469 28.9237977,38.3190155 C29.2751312,38.1187439 29.397583,37.6716613 29.1976929,37.3199463 L28.0536651,35.3115082 C28.8612365,35.0078583 29.5448303,34.3971252 29.9240112,33.5727691 L30.6549072,31.9839478 C30.7342529,31.8115234 30.8395386,31.6539765 30.9638977,31.51474 L37.5640869,43.1018829 L32.3368072,42.8310395 Z" id="Shape"></path>
            </g>
        </g>
    </g>
</svg>