<?xml version="1.0" encoding="utf-8"?><svg id="normativa" image-rendering="optimizeQuality" baseProfile="basic" version="1.1" x="0px" y="0px" width="50" height="50" xmlns="http://www.w3.org/2000/svg" xmlns:xlink="http://www.w3.org/1999/xlink"><g id="Escena-1" overflow="visible"><g id="Interpolaci.__C3.__B3n-5" transform="translate(13.85 20.95)"><animateTransform attributeName="transform" additive="replace" type="translate" repeatCount="indefinite" dur="3s" keyTimes="0;.489;.989;1" values="13.85,20.95;13.85,12.1;13.85,20.95;13.85,20.95" keySplines=".25 .5 .5 1;.25 .5 .5 1;.25 .5 .5 1" calcMode="spline"/><path fill="#FFF" stroke="none" d="M8 -7.95Q4.65 -11.3 0 -11.3 -4.7 -11.3 -8 -7.95 -11.3 -4.65 -11.3 0 -11.3 4.7 -8 8 -4.7 11.3 0 11.3 4.65 11.3 8 8 11.3 4.7 11.3 0 11.3 -4.65 8 -7.95M3.2 -3.2Q3.2 -1.9 2.25 -.95 1.3 0 0 0 -1.35 0 -2.3 -.95 -3.25 -1.9 -3.25 -3.2 -3.25 -4.55 -2.3 -5.5 -1.35 -6.45 0 -6.45 1.3 -6.45 2.25 -5.5 3.2 -4.55 3.2 -3.2M3.4 -6.65Q2 -8.05 0 -8.05 -2 -8.05 -3.45 -6.65 -4.85 -5.2 -4.85 -3.2 -4.85 -.9 -3.05 .55 -6.65 1.85 -8.1 5.3 -9.7 2.8 -9.7 0 -9.7 -4 -6.85 -6.8 -4 -9.65 0 -9.65 4 -9.65 6.85 -6.8 9.65 -4 9.65 0 9.65 2.9 8.1 5.3 6.55 1.8 3.05 .55 4.85 -.9 4.85 -3.2 4.85 -5.2 3.4 -6.65M3.15 2.35L3.55 2.55 2.75 5.9 1.15 4.7 3.15 2.35M0 1.65Q.75 1.65 1.5 1.8L0 3.6 -1.5 1.8Q-.75 1.65 0 1.65M6.95 6.75Q4 9.7 0 9.7 -4.1 9.7 -6.95 6.75 -6.35 4.9 -5 3.6L-3.7 8.65 0 5.85 3.7 8.65 4.95 3.6Q6.35 4.95 6.95 6.75M-3.6 2.55L-3.15 2.35 -1.15 4.7 -2.75 5.9 -3.6 2.55Z"/></g><g id="Interpolaci.__C3.__B3n-4" transform="translate(41.9 8.05)"><animateTransform attributeName="transform" additive="replace" type="translate" repeatCount="indefinite" dur="3s" keyTimes="0;.489;.989;1" values="41.9,8.05;41.9,14.6;41.9,8.05;41.9,8.05" keySplines=".25 .5 .5 1;.25 .5 .5 1;.25 .5 .5 1" calcMode="spline"/><path fill="#FFF" stroke="none" d="M5.7 -5.65Q3.35 -8.05 0 -8.05 -3.35 -8.05 -5.7 -5.65 -8.05 -3.3 -8.05 .05 -8.05 3.4 -5.7 5.75 -3.35 8.1 0 8.1 3.35 8.1 5.7 5.75 8.1 3.4 8.1 .05 8.1 -3.3 5.7 -5.65M1.75 -2.5Q2.45 -1.75 2.45 -.75 2.45 .25 1.75 .95 1 1.65 0 1.65 -.95 1.65 -1.7 .95 -2.4 .25 -2.4 -.75 -2.4 -1.75 -1.7 -2.5 -1 -3.2 0 -3.2 1 -3.2 1.75 -2.5M2.85 -3.6Q1.7 -4.8 0 -4.8 -1.65 -4.8 -2.8 -3.6 -4 -2.45 -4 -.75 -4 1.05 -2.65 2.25 -4.05 2.9 -5 4.05 -6.45 2.3 -6.45 .05 -6.45 -2.6 -4.55 -4.5 -2.65 -6.4 0 -6.4 2.65 -6.4 4.55 -4.5 6.45 -2.6 6.45 .05 6.45 2.35 5.05 4.05 3.95 2.8 2.65 2.25 4.05 1 4.05 -.75 4.05 -2.45 2.85 -3.6M3.85 5.2Q2.15 6.5 0 6.5 -2.05 6.5 -3.85 5.2 -2.4 3.25 0 3.25 2.4 3.25 3.85 5.2Z"/></g><g id="Interpolaci.__C3.__B3n-3" transform="translate(30.6 36.7)"><path fill="#FFF" stroke="none" d="M5.1 -3.75L.6 -1.2 -1.6 -1.2 -1.6 -2.8 -18.95 -2.8Q-19 -2.25 -19.35 -2.05L-19.35 13.3 -1.6 13.3 -1.6 11.7 .65 11.7 4.7 13.3 16.95 13.3Q17.95 13.3 18.7 12.6 19.4 11.9 19.4 10.9 19.4 9.95 18.75 9.3 19.4 8.55 19.4 7.7 19.4 6.8 18.75 6.05 19.4 5.4 19.4 4.45 19.4 3.5 18.75 2.85 19.4 2.1 19.4 1.25 19.4 .25 18.7 -.5 17.95 -1.2 16.95 -1.2L12.5 -1.2Q12.1 -1.2 12.1 -1.6L12.2 -1.85Q14.55 -4.95 14.55 -8.75 14.55 -8.8 14.55 -8.85L14.55 -9.25Q14.55 -10.95 13.35 -12.1 12.2 -13.3 10.5 -13.3 9.85 -13.3 9.35 -12.8 8.9 -12.35 8.9 -11.7L8.9 -10.3Q8.9 -10 8.9 -9.7 8.7 -7 6.7 -4.95 5.85 -4.2 5.1 -3.75M5.9 -2.35Q6.95 -2.95 7.85 -3.85 10.2 -6.2 10.5 -9.45 10.5 -9.85 10.5 -10.3L10.5 -11.7Q11.5 -11.7 12.2 -11 12.9 -10.25 12.9 -9.25L12.9 -8.85Q12.9 -5.5 10.9 -2.8 10.5 -2.25 10.5 -1.6 10.5 -.75 11.1 -.2 11.7 .4 12.5 .4L16.95 .4Q17.3 .4 17.5 .65 17.75 .9 17.75 1.25 17.75 1.55 17.5 1.8 17.3 2.05 16.95 2.05L12.9 2.05 12.9 3.65 16.95 3.65Q17.75 3.65 17.75 4.45 17.75 5.25 16.95 5.25L12.9 5.25 12.9 6.85 16.95 6.85Q17.3 6.85 17.5 7.1 17.75 7.35 17.75 7.7 17.75 8 17.5 8.25 17.3 8.5 16.95 8.5L12.9 8.5 12.9 10.1 16.95 10.1Q17.75 10.1 17.75 10.9 17.75 11.7 16.95 11.7L5 11.7 1 10.1 -1.6 10.1 -1.6 .4 1.05 .4 5.9 -2.35M-4.8 -1.2L-3.2 -1.2 -3.2 11.7 -4.8 11.7 -4.8 -1.2M-17.7 -1.2L-6.45 -1.2 -6.45 11.7 -17.7 11.7 -17.7 -1.2Z"/></g></g></svg>