<?xml version="1.0" encoding="UTF-8"?>
<svg width="51px" height="50px" viewBox="0 0 51 50" version="1.1" xmlns="http://www.w3.org/2000/svg" xmlns:xlink="http://www.w3.org/1999/xlink">
    <title>584093</title>
    <g id="04-RPA-&amp;-HIPERAUTOMATIZACIÓN" stroke="none" stroke-width="1" fill="none" fill-rule="evenodd">
        <g id="Desktop-HD-Copy-2" transform="translate(-473.000000, -980.000000)" fill="#FFFFFF" fill-rule="nonzero">
            <g id="584093" transform="translate(473.000000, 980.000000)">
                <path d="M42.0819721,26.4554781 C41.6721116,26.4554781 41.3398406,26.787749 41.3398406,27.1976096 C41.3398406,27.7172311 40.9171315,28.1399402 40.39751,28.1399402 C39.877988,28.1399402 39.4551793,27.7172311 39.4551793,27.1976096 C39.4551793,26.7876494 39.1229084,26.4554781 38.7130478,26.4554781 C38.3031873,26.4554781 37.9709163,26.787749 37.9709163,27.1976096 C37.9709163,28.5356574 39.0595618,29.6242032 40.39751,29.6242032 C41.7354582,29.6242032 42.8241036,28.5355578 42.8241036,27.1976096 C42.8241036,26.7875498 42.4918327,26.4554781 42.0819721,26.4554781 Z" id="Path"></path>
                <path d="M49.0482072,26.5766932 L46.9593625,25.9075697 C46.6918327,25.8218127 46.4809761,25.6082669 46.3954183,25.336255 C45.9551793,23.9365538 45.2908367,22.62251 44.4208167,21.4304781 C44.0243028,20.8871514 43.5833665,20.3683267 43.1016932,19.8744024 C43.4098606,18.52251 43.5773904,16.9925299 43.5556773,15.6707171 C43.5246016,13.7797809 43.1467131,12.6707171 42.400498,12.2798805 C41.9986056,12.0691235 40.775498,11.4288845 34.1552789,14.4593625 C33.998506,14.5310757 33.8520916,14.6194223 33.7165339,14.7206175 C33.2702191,14.6006972 32.8140438,14.489741 32.3550797,14.3901394 C32.2998008,14.3780876 32.2428287,14.3674303 32.1871514,14.3556773 C32.7236056,13.1837649 33.0368526,11.9109562 33.0957171,10.597012 C33.1140438,10.1874502 32.797012,9.84063745 32.3874502,9.82241036 C31.9789841,9.80209163 31.6310757,10.1210159 31.6128486,10.5305777 C31.5161355,12.6910359 30.6199203,14.7238048 29.0894422,16.2543825 C28.175,17.1688247 27.1042829,17.8330677 25.9631474,18.2513944 C23.9841633,17.9737052 21.9684263,17.9737052 19.9894422,18.2513944 C18.8482072,17.8330677 17.7775896,17.1688247 16.8631474,16.2543825 C15.2302789,14.6215139 14.3309761,12.450498 14.3309761,10.1412351 C14.3309761,7.83187251 15.2302789,5.66095618 16.8631474,4.02808765 C18.4960159,2.39511952 20.6671315,1.49581673 22.9762948,1.49581673 C25.2854582,1.49581673 27.4565737,2.39511952 29.0894422,4.02808765 C29.7456175,4.68426295 30.2878486,5.43306773 30.7010956,6.25348606 C30.8854582,6.61962151 31.3317729,6.76703187 31.6978088,6.58256972 C32.0639442,6.39830677 32.211255,5.95199203 32.0268924,5.58595618 C31.5425299,4.62390438 30.9073705,3.74671315 30.1391434,2.97838645 C28.2258964,1.06513944 25.6820717,0.0114541833 22.9763944,0.0114541833 C20.2707171,0.0114541833 17.7268924,1.06513944 15.8136454,2.97838645 C13.9003984,4.89173307 12.8467131,7.43545817 12.8467131,10.1411355 C12.8467131,12.8468127 13.9003984,15.3906375 15.8136454,17.3038845 C16.3655378,17.8557769 16.9659363,18.3303785 17.600996,18.727988 C17.6011952,18.727988 17.6013944,18.7278884 17.6015936,18.7278884 C17.1401394,18.8478088 16.6821713,18.9824701 16.2292829,19.1338645 C15.8405378,19.2638446 15.6307769,19.6842629 15.760757,20.0731076 C15.8906375,20.4618526 16.311255,20.6716135 16.6999004,20.5417331 C20.7473108,19.1886454 25.2054781,19.1886454 29.2528884,20.5417331 C29.3309761,20.5678287 29.410259,20.5801793 29.488247,20.5801793 C29.7987052,20.5801793 30.0881474,20.3837649 30.1920319,20.0731076 C30.322012,19.6843625 30.112251,19.2638446 29.723506,19.1338645 C29.2706175,18.9824701 28.8126494,18.8477092 28.3511952,18.7278884 C28.3513944,18.7278884 28.3515936,18.727988 28.3517928,18.727988 C28.9869522,18.3303785 29.587251,17.8557769 30.1391434,17.3038845 C30.6273904,16.8156375 31.0583665,16.2824701 31.4325697,15.7158367 C31.6371514,15.7555777 31.840239,15.7972112 32.0403386,15.8406375 C32.3068725,15.898506 32.5722112,15.9606574 32.8351594,16.0258964 C32.8268924,16.0581673 32.8184263,16.0903386 32.8115538,16.1231076 C32.4496016,17.8407371 32.4731076,19.3598606 32.8813745,20.6380478 C33.2483068,21.7869522 33.9105578,22.7177291 34.849502,23.4046813 C35.9561753,24.214243 37.2922311,24.5639442 38.50249,24.5639442 C39.4133466,24.5639442 40.2530876,24.3657371 40.8698207,24.0164343 C41.5674303,23.6213147 42.1518924,22.788745 42.6145418,21.538745 C42.8283865,21.7883466 43.0310757,22.0440239 43.2221116,22.3057769 C43.9967131,23.3669323 44.5880478,24.5364542 44.9796813,25.7816733 C45.2096614,26.5130478 45.7805777,27.0885458 46.5067729,27.3213147 L48.5956175,27.9904382 C49.1437251,28.1660359 49.5119522,28.6705179 49.5119522,29.2460159 L49.5119522,32.7096614 C49.5119522,33.2851594 49.1437251,33.7896414 48.5956175,33.965239 L45.2301793,35.0432271 C44.6917331,35.2158367 44.2360558,35.5858566 43.9471116,36.085259 C42.6249004,38.3703187 40.5461155,40.261255 37.7681275,41.7055777 C37.4472112,41.8726096 37.2249004,42.1713147 37.1579681,42.5252988 L36.0800797,48.2327689 C36.0502988,48.3900398 35.9125498,48.5040837 35.75249,48.5040837 L32.2478088,48.5040837 C32.087749,48.5040837 31.95,48.3899402 31.9202191,48.2327689 L31.3232072,45.0784861 C31.2056773,44.4578685 30.6236056,44.0456175 29.9971116,44.1405378 C28.4874502,44.3688247 26.9318725,44.4844622 25.3738048,44.4844622 C24.2146414,44.4844622 23.0703187,44.4198207 21.9724104,44.2922311 C21.3653386,44.2224104 20.7998008,44.636255 20.6863546,45.2356574 L20.1190239,48.2327689 C20.089243,48.3900398 19.951494,48.5040837 19.7914343,48.5040837 L16.286753,48.5040837 C16.1266932,48.5040837 15.9889442,48.3899402 15.9587649,48.2303785 L14.9209163,42.839741 C14.8540837,42.4924303 14.6359562,42.1971116 14.3221116,42.0294821 C9.58665339,39.501494 7.08366534,35.277988 7.08366534,29.8158367 C7.08366534,27.0560757 7.6874502,24.6157371 8.87818725,22.5623506 C9.98934263,20.6461155 11.612251,19.061753 13.7017928,17.8530876 C14.0565737,17.6478088 14.1777888,17.1938247 13.9726096,16.8389442 C13.7674303,16.4841633 13.3134462,16.3631474 12.9585657,16.5681275 C8.90687251,18.9119522 6.46314741,22.5278884 5.79033865,27.1205179 L5.79033865,27.1204183 C5.7189243,27.1139442 5.64741036,27.1077689 5.57619522,27.1003984 C5.58914343,26.6048805 5.49950199,26.1048805 5.30428287,25.6196215 C4.87370518,24.5493028 3.98924303,23.7767928 3.05089641,23.6515936 C2.31145418,23.5525896 1.60776892,23.8665339 1.11942231,24.511753 C0.411354582,25.4474104 0.526792829,26.1878486 0.748207171,26.6442231 C1.12201195,27.4144422 2.08286853,27.9592629 3.67739044,28.3017928 C3.63356574,28.3674303 3.58535857,28.4333665 3.53256972,28.4996016 C2.59043825,29.6811753 1.48047809,29.9424303 0.759760956,29.9670319 C0.337848606,29.9812749 0,30.3200199 0,30.7422311 L0,30.7458167 C0,31.162251 0.328585657,31.5018924 0.744621514,31.5209163 C0.797908367,31.5234064 0.853585657,31.5247012 0.911553785,31.5247012 C1.82350598,31.5247012 3.28715139,31.1883466 4.69332669,29.4250996 C4.91533865,29.1468127 5.09621514,28.8531873 5.23525896,28.5498008 C5.3752988,28.5656375 5.50986056,28.5791833 5.63874502,28.5911355 C5.63874502,28.5908367 5.63874502,28.5906375 5.63884462,28.5903386 C5.61354582,28.9925299 5.59950199,29.4005976 5.59950199,29.8158367 C5.59950199,32.9062749 6.33625498,35.661753 7.78914343,38.0060757 C9.12878486,40.1674303 11.0468127,41.9371514 13.4918327,43.2680279 L14.5007968,48.5086653 C14.6630478,49.3660359 15.4141434,49.9884462 16.286753,49.9884462 L19.7914343,49.9884462 C20.6640438,49.9884462 21.4151394,49.3660359 21.5773904,48.5086653 L22.0903386,45.7987052 C23.1556773,45.9115538 24.2586653,45.9687251 25.3737052,45.9687251 C26.9035857,45.9687251 28.4316733,45.8621514 29.9209163,45.6517928 L30.4616534,48.5088645 C30.624004,49.3662351 31.3750996,49.9884462 32.2476096,49.9884462 L35.7522908,49.9884462 C36.6249004,49.9884462 37.375996,49.3661355 37.5383466,48.5084661 L38.5878486,42.9515936 C41.5527888,41.3837649 43.7876494,39.3242032 45.2316733,36.8285857 C45.335757,36.6487052 45.4960159,36.5167331 45.6828685,36.4568725 L49.0482072,35.3788845 C50.213247,35.0054781 50.9960159,33.9328685 50.9960159,32.7094622 L50.9960159,29.2458167 C50.9960159,28.02251 50.213247,26.9499004 49.0482072,26.5766932 Z M41.9599602,17.7562749 C41.6743028,20.1991036 40.9080677,22.288745 40.1381474,22.7248008 C39.2630478,23.2205179 37.2426295,23.3162351 35.7256972,22.2065737 C34.2069721,21.0956175 33.701494,19.0978088 34.263745,16.4290837 C34.263745,16.4289841 34.263745,16.4289841 34.263745,16.4289841 C34.3202191,16.1609562 34.5106574,15.9290837 34.7731076,15.8089641 C38.4886454,14.1081673 40.6307769,13.5518924 41.4265936,13.5518924 C41.5467131,13.5518924 41.6361554,13.5645418 41.6957171,13.5878486 C41.934761,13.8426295 42.2483068,15.2909363 41.9599602,17.7562749 Z M2.08376494,25.9961155 C2.00697211,25.837749 2.18824701,25.5593625 2.30318725,25.4073705 C2.48535857,25.1667331 2.65318725,25.1175299 2.77998008,25.1175299 C2.80677291,25.1175299 2.83177291,25.1197211 2.85468127,25.1228088 C3.19591633,25.1683267 3.67400398,25.5438247 3.92729084,26.1734064 C3.98695219,26.3216135 4.06444223,26.5671315 4.08256972,26.8733068 C3.05517928,26.6604582 2.25697211,26.3535857 2.08376494,25.9961155 Z" id="Shape"></path>
                <path d="M23.697012,9.29053785 L23.697012,6.63476096 C24.6128486,6.7001992 24.9530876,7.1188247 25.2670319,7.1188247 C25.6595618,7.1188247 25.8427291,6.62171315 25.8427291,6.37310757 C25.8427291,5.73197211 24.5866534,5.45727092 23.697012,5.4310757 L23.697012,5.07768924 C23.697012,4.92071713 23.5006972,4.77679283 23.3044821,4.77679283 C23.0819721,4.77679283 22.925,4.92071713 22.925,5.07768924 L22.925,5.45707171 C21.6820717,5.58794821 20.4391434,6.24213147 20.4391434,7.89063745 C20.4391434,9.56533865 21.74751,10.0363546 22.925,10.4549801 L22.925,13.5295817 C21.5904382,13.4249004 21.237251,12.5090637 20.8054781,12.5090637 C20.4783865,12.5090637 20.2036853,12.9408367 20.2036853,13.2548805 C20.2036853,13.8959163 21.3026892,14.77251 22.925,14.7987052 L22.925,14.7987052 L22.925,15.2042829 C22.925,15.361255 23.0820717,15.5051793 23.3044821,15.5051793 C23.5007968,15.5051793 23.697012,15.361255 23.697012,15.2042829 L23.697012,14.7594622 C25.1100598,14.5631474 26.0781873,13.673506 26.0781873,12.064243 C26.0781873,10.2849602 24.835259,9.70916335 23.697012,9.29053785 Z M23.0034861,9.04203187 C22.3100598,8.78037849 21.74751,8.50567729 21.74751,7.75996016 C21.74751,7.07958167 22.2708167,6.75249004 23.0034861,6.66095618 L23.0034861,9.04203187 L23.0034861,9.04203187 Z M23.6184263,13.5033865 L23.6184263,10.7428287 C24.2594622,11.0175299 24.7697211,11.3838645 24.7697211,12.2080677 C24.7697211,12.9539841 24.3249004,13.3726096 23.6184263,13.5033865 Z" id="Shape"></path>
            </g>
        </g>
    </g>
</svg>