<?xml version="1.0" encoding="utf-8"?>
<svg width="601px" height="601px" viewBox="0 0 601 601" version="1.1" xmlns:xlink="http://www.w3.org/1999/xlink" xmlns="http://www.w3.org/2000/svg">
  <desc>Created with Lunacy</desc>
  <g id="infografia1" transform="translate(0.4238281 0.4238281)">
    <g id="Group-15_2_" transform="translate(237 234)">
      <path d="M48.9 44.5104C83.9 44.5104 97.8 29.0104 97.8 13.9104C97.8 6.31042 89.2 -0.989576 76 0.110424C61.7 1.31042 35.4 0.810424 21.8 0.110424C4.5 -0.789576 0 6.31042 0 13.9104C0 28.4104 13.5 44.5104 48.9 44.5104" transform="translate(14.1 65.98958)" id="Fill-1_2_" fill="#E8511D" stroke="none" />
      <path d="M48.9 44.5104C83.9 44.5104 97.8 29.0104 97.8 13.9104C97.8 6.31042 89.2 -0.989576 76 0.110424C61.7 1.31042 35.4 0.810424 21.8 0.110424C4.5 -0.789576 0 6.31042 0 13.9104C0 28.4104 13.5 44.5104 48.9 44.5104Z" transform="translate(14.1 65.98958)" id="Stroke-3_2_" fill="none" stroke="#E8511D" stroke-width="0.8473" />
      <path d="M21.8 11C21.8 17.1 16.9 22 10.9 22C4.9 22 0 17.1 0 11C0 4.9 4.9 0 10.9 0C16.9 0 21.8 4.9 21.8 11" transform="translate(22.4 72.1)" id="Fill-5_2_" fill="#FEFEFE" stroke="none" />
      <path d="M21.8 11C21.8 17.1 16.9 22 10.9 22C4.9 22 0 17.1 0 11C0 4.9 4.9 0 10.9 0C16.9 0 21.8 4.9 21.8 11Z" transform="translate(22.4 72.1)" id="Stroke-7_2_" fill="none" stroke="#E8511D" stroke-width="0.8473" />
      <path d="M21.8 11C21.8 17.1 16.9 22 10.9 22C4.9 22 0 17.1 0 11C0 4.9 4.9 0 10.9 0C16.9 0 21.8 4.9 21.8 11" transform="translate(81.9 72.1)" id="Fill-9_2_" fill="#FEFEFE" stroke="none" />
      <path d="M21.8 11C21.8 17.1 16.9 22 10.9 22C4.9 22 0 17.1 0 11C0 4.9 4.9 0 10.9 0C16.9 0 21.8 4.9 21.8 11Z" transform="translate(81.9 72.1)" id="Stroke-11_2_" fill="none" stroke="#E8511D" stroke-width="0.8473" />
      <path d="M53.5081 29.8259C53.5081 29.8259 54.9081 24.8259 58.0081 23.9259L59.5081 12.4259C59.5081 12.4259 56.1081 11.2259 55.8081 6.52586C55.8081 6.52586 55.1081 0.625855 61.7081 0.0258553C61.7081 0.0258553 68.0081 -0.774145 69.2081 6.52586C69.2081 6.52586 69.4081 11.4259 65.5081 12.6259L67.4081 24.0259C67.4081 24.0259 70.6081 25.2259 71.3081 29.9259C71.3081 29.9259 123.708 35.9259 124.408 80.5258C124.408 80.5258 124.008 128.726 62.5081 131.626C62.5081 131.626 2.90811 131.626 0.00810956 79.2259C-0.0918904 79.1259 -0.0918904 37.7259 53.5081 29.8259Z" transform="translate(0.8918905 0.2741447)" id="Stroke-13_2_" fill="none" stroke="#E8511D" stroke-width="0.8473" />
    </g>
    <g id="Group" transform="translate(26 0)">
      <path d="M133 223.8C158.7 176.2 207.9 143.3 265.1 140.4L289.1 70.8L254.7 0C141.2 6.9 44.8 76.9 0 175.3L77.9 172.5L133 223.8Z" transform="translate(0.8 0.6)" id="Path" fill="#E8511D" stroke="none" />
      <g id="Group" transform="translate(116 76)">
        <path d="M7.6 0.4Q8.8 0.85 9.7 1.6C10.3 2.2 10.8 2.8 11.1 3.6C11.4 4.4 11.6 5.4 11.6 6.5C11.6 7.6 11.4 8.6 11 9.4C10.6 10.2 10.1 10.9 9.4 11.4C8.8 11.9 8 12.3 7.2 12.6C6.4 12.9 5.6 13 4.8 13L0 13L0 0L5.1 0C6 0 6.8 0.1 7.6 0.4ZM7.8 9.9C8.2 9.5 8.6 9.1 8.9 8.5C9.1 8 9.3 7.3 9.4 6.5C9.4 5.7 9.2 5.1 9 4.5C8.8 3.9 8.4 3.4 8 3.1C7.6 2.7 7.1 2.5 6.5 2.3C5.9 2.2 5.2 2.1 4.5 2.1L2.4 2.1L2.4 10.9L4.1 10.9C4.8 10.9 5.5 10.9 6.1 10.7C6.8 10.5 7.3 10.2 7.8 9.9Z" transform="translate(0.8 1)" id="Shape" fill="#FFFFFF" fill-rule="evenodd" stroke="none" />
        <path d="M0 0L2.3 0L2.3 13L0 13L0 0Z" transform="translate(14.7 1)" id="Rectangle" fill="#FFFFFF" stroke="none" />
        <path d="M5.8 11.3C5.6 11.4 5.3 11.6 5.1 11.6C4.9 11.6 4.6 11.7 4.3 11.7C3.8 11.7 3.3 11.6 2.8 11.3C2.3 11.1 2 10.7 1.7 10.3L0 12C0.5 12.6 1.2 13.1 1.9 13.4C2.6 13.7 3.4 13.8 4.2 13.8C4.8 13.8 5.4 13.7 6 13.5C6.6 13.3 7.1 13.1 7.5 12.7C7.9 12.4 8.3 11.9 8.5 11.4C8.8 10.9 8.9 10.3 8.9 9.6C8.9 8.8 8.7 8.2 8.4 7.7C8.1 7.2 7.7 6.9 7.3 6.6C6.8 6.3 6.4 6.1 5.8 5.9C5.3 5.7 4.8 5.6 4.3 5.4C3.8 5.2 3.5 5 3.2 4.8C2.9 4.6 2.7 4.2 2.7 3.8C2.7 3.5 2.8 3.3 2.9 3C3 2.8 3.2 2.6 3.4 2.5C3.6 2.4 3.8 2.3 4.1 2.2C4.4 2.1 4.6 2.1 4.9 2.1C5.4 2.1 5.8 2.2 6.2 2.3C6.6 2.5 6.9 2.7 7.2 3.1L8.9 1.3C8.4 0.8 7.8 0.5 7.2 0.3C6.6 0.1 5.9 0 5.2 0C4.6 0 4 0.1 3.4 0.2C2.8 0.4 2.3 0.6 1.9 0.9C1.5 1.2 1.1 1.6 0.8 2.1C0.5 2.6 0.4 3.2 0.4 3.8C0.4 4.6 0.6 5.2 0.9 5.6C1.2 6.1 1.6 6.4 2 6.7C2.5 7 2.9 7.2 3.5 7.4C4 7.6 4.5 7.7 5 7.9C5.5 8.1 5.8 8.3 6.1 8.6C6.4 8.9 6.6 9.2 6.6 9.7C6.6 10 6.5 10.3 6.4 10.5C6.2 11 6 11.2 5.8 11.3Z" transform="translate(19 0.5)" id="Path" fill="#FFFFFF" stroke="none" />
        <path d="M1.9 11.9C2.5 12.5 3.2 13 4.1 13.3C4.9 13.6 5.9 13.8 6.9 13.8C7.9 13.8 8.8 13.6 9.6 13.2C10.4 12.8 11.2 12.2 11.7 11.4L9.8 10C9.4 10.6 8.9 11 8.4 11.2C7.9 11.5 7.4 11.6 6.9 11.6C6.2 11.6 5.6 11.5 5.1 11.2C4.6 11 4.1 10.6 3.7 10.2C3.3 9.8 3 9.3 2.8 8.7C2.6 8.1 2.5 7.5 2.5 6.8C2.5 6.2 2.6 5.5 2.8 5C3 4.4 3.3 3.9 3.7 3.5C4.1 3.1 4.6 2.7 5.1 2.5C5.6 2.3 6.3 2.1 6.9 2.1C7.4 2.1 7.8 2.2 8.2 2.4C8.6 2.6 9.1 2.9 9.6 3.4L11.4 2.1C10.8 1.4 10.1 0.8 9.3 0.5C8.5 0.2 7.7 0 6.9 0C5.9 0 5 0.2 4.1 0.5C3.3 0.8 2.5 1.3 1.9 1.9C1.3 2.5 0.8 3.2 0.5 4.1C0.2 4.9 0 5.9 0 6.9C0 7.9 0.2 8.8 0.5 9.7C0.8 10.6 1.3 11.3 1.9 11.9Z" transform="translate(29.7 0.6)" id="Path" fill="#FFFFFF" stroke="none" />
        <path d="M11.9 1.82601C12.5 2.42601 13 3.22601 13.3 4.02601C13.6 4.82601 13.8 5.82601 13.8 6.92601C13.8 7.92601 13.6 8.92601 13.3 9.72601C13 10.526 12.5 11.226 11.9 11.826C11.3 12.426 10.5 12.926 9.7 13.226C8.8 13.526 7.9 13.726 6.9 13.726C5.9 13.726 4.9 13.526 4.1 13.226C3.2 12.926 2.5 12.426 1.9 11.826C1.3 11.226 0.8 10.526 0.5 9.72601C0.2 8.82601 0 7.92601 0 6.92601C0 5.92601 0.2 4.92601 0.5 4.12601C0.8 3.22601 1.3 2.52601 1.9 1.92601C2.5 1.32601 3.3 0.826013 4.1 0.526013C5 0.226013 5.9 0.026013 6.9 0.026013C7.9 -0.073987 8.9 0.126013 9.7 0.426013C10.6 0.726013 11.3 1.22601 11.9 1.82601ZM10.1 10.226C10.5 9.82601 10.8 9.32601 11 8.72601C11.2 8.12601 11.3 7.42601 11.3 6.82601Q11.3 5.92601 11 5.02601C10.8 4.42601 10.5 3.92601 10.1 3.52601C9.7 3.12601 9.3 2.72601 8.7 2.52601C8.2 2.22601 7.6 2.12601 6.9 2.12601C6.3 2.12601 5.6 2.32601 5.1 2.52601C4.6 2.72601 4.1 3.12601 3.7 3.52601Q3.1 4.12601 2.8 5.02601C2.6 5.52601 2.5 6.22601 2.5 6.82601C2.5 7.52601 2.6 8.12601 2.8 8.72601C3 9.32601 3.3 9.82601 3.7 10.226C4.1 10.626 4.6 11.026 5.1 11.226C5.6 11.526 6.2 11.626 6.9 11.626C7.5 11.626 8.2 11.426 8.7 11.226C9.2 11.026 9.7 10.626 10.1 10.226Z" transform="translate(42.2 0.673987)" id="Shape" fill="#FFFFFF" fill-rule="evenodd" stroke="none" />
        <path d="M7.1 13L12.3 0L9.8 0L6.2 9.8L2.6 0L0 0L5.1 13L7.1 13Z" transform="translate(56.7 1)" id="Path" fill="#FFFFFF" stroke="none" />
        <path d="M2.3 7.4L8.3 7.4L8.3 5.3L2.3 5.3L2.3 2.1L8.6 2.1L8.6 0L0 0L0 13L8.9 13L8.9 10.9L2.3 10.9L2.3 7.4Z" transform="translate(70.4 1)" id="Path" fill="#FFFFFF" stroke="none" />
        <path d="M8.6 6.1C8.1 6.8 7.4 7.2 6.4 7.3L9.8 13L7 13L4 7.5L2.3 7.5L2.3 13L0 13L0 0L4.5 0C5.1 0 5.7 0.1 6.3 0.2C6.9 0.3 7.4 0.5 7.9 0.8C8.4 1 8.7 1.4 9 1.9C9.3 2.4 9.4 3 9.4 3.7C9.4 4.7 9.1 5.5 8.6 6.1ZM4.1 5.5L5.1 5.5C5.4 5.5 5.7 5.4 5.9 5.2C6.2 5.1 6.4 4.9 6.6 4.7C6.8 4.5 6.9 4.1 6.9 3.7C6.9 3.3 6.9 3 6.7 2.8C6.6 2.6 6.4 2.4 6.1 2.3C5.8 2.2 5.5 2.1 5.2 2.1C4.9 2 4.6 2 4.3 2L2.3 2L2.3 5.5L4.1 5.5Z" transform="translate(81.6 1)" id="Shape" fill="#FFFFFF" fill-rule="evenodd" stroke="none" />
        <path d="M8.4 0L7 5.2L6.9 5.2L5.2 0L4.3 0L2.6 5.2L2.6 5.2L1.1 0L0 0L2 6.4L3.1 6.4L4.8 1.1L4.8 1.1L6.5 6.4L7.5 6.4L9.5 0L8.4 0Z" transform="translate(22.9 31.3)" id="Path" fill="#FFFFFF" stroke="none" />
        <path d="M4.1 5.4C4.3 5.8 4.5 6.3 4.5 7L4.5 10.5L5.4 10.5L5.4 6.4C5.4 5.6 5.2 5 4.8 4.5C4.4 4.1 3.8 3.8 3 3.8C2.8 3.8 2.6 3.8 2.4 3.9C2.2 4 2 4 1.8 4.1C1.6 4.2 1.4 4.3 1.3 4.5C1.1 4.6 1 4.8 0.9 5L0.9 5L0.9 0L0 0L0 10.3L0.9 10.3L0.9 7C0.9 6.4 1 6 1.2 5.6C1.4 5.3 1.6 5 1.8 4.9C2 4.7 2.3 4.6 2.5 4.6C2.7 4.6 2.8 4.5 2.9 4.5C3.4 4.8 3.9 5 4.1 5.4Z" transform="translate(33.7 27.1)" id="Path" fill="#FFFFFF" stroke="none" />
        <path d="M4.5 6.1L4.5 5.6C4.3 6 4 6.3 3.5 6.5C3.2 6.7 2.7 6.8 2.2 6.8C1.9 6.8 1.7 6.8 1.4 6.7C1.1 6.6 0.9 6.5 0.7 6.3C0.5 6.1 0.3 5.9 0.2 5.7C0.1 5.5 0 5.2 0 4.9C0 4.4 0.1 4 0.4 3.7C0.7 3.4 1 3.1 1.4 3C1.8 2.8 2.2 2.7 2.7 2.7C3.2 2.6 3.6 2.6 4 2.6L4.5 2.6L4.5 2.4C4.5 1.3 4 0.7 2.9 0.7C2.1 0.7 1.5 1 0.9 1.5L0.4 0.9Q1.3 0 3.1 0C3.4 0 3.7 0 4 0.1C4.2 0.2 4.5 0.3 4.7 0.5C4.9 0.7 5.1 0.9 5.2 1.2C5.3 1.5 5.4 1.8 5.4 2.2L5.4 5.9C5.4 6.2 5.5 6.4 5.5 6.6L4.6 6.6C4.5 6.5 4.5 6.3 4.5 6.1ZM2.5 6C2.9 6 3.2 5.9 3.4 5.8C3.7 5.7 3.9 5.5 4.1 5.4C4.3 5.2 4.4 5 4.5 4.7C4.6 4.4 4.6 4.2 4.6 3.9L4.6 3.4L3.2 3.4C2.8 3.5 2.5 3.5 2.2 3.6C1.9 3.7 1.6 3.8 1.4 4C1.2 4.2 1.1 4.5 1.1 4.8C1.1 5 1.1 5.1 1.2 5.3C1.2 5.5 1.4 5.6 1.5 5.7C1.7 5.8 1.8 5.9 2 5.9C2.1 6 2.3 6 2.5 6Z" transform="translate(40.8 31.1)" id="Shape" fill="#FFFFFF" fill-rule="evenodd" stroke="none" />
        <path d="M1.4 0L1.4 1.8L0 1.8L0 2.6L1.4 2.6L1.4 6.6C1.4 7 1.5 7.2 1.6 7.5C1.7 7.7 1.8 7.9 2 8C2.2 8.1 2.3 8.2 2.5 8.3C2.7 8.3 2.9 8.4 3 8.4C3.5 8.4 3.9 8.3 4.2 8.2L4.2 7.4C4.1 7.5 3.9 7.5 3.7 7.6C3.5 7.6 3.4 7.7 3.2 7.7C3.1 7.7 2.9 7.7 2.8 7.7C2.7 7.7 2.6 7.6 2.5 7.5C2.4 7.4 2.4 7.3 2.3 7.2C2.3 7 2.2 6.9 2.2 6.6L2.2 2.8L4 2.8L4 2L2.2 2L2.2 0.2L1.4 0.2L1.4 0Z" transform="translate(47.5 29.5)" id="Path" fill="#FFFFFF" stroke="none" />
        <path d="M1.5 6.4C1.5 6.8 1.6 7 1.7 7.3C1.8 7.6 1.9 7.7 2.1 7.8C2.3 7.9 2.4 8 2.6 8.1C2.8 8.1 3 8.2 3.1 8.2C3.6 8.2 4 8.1 4.3 8L4.3 7.2C4.2 7.3 4 7.3 3.8 7.4C3.6 7.4 3.5 7.5 3.3 7.5C3.2 7.5 3 7.5 2.9 7.5C2.8 7.5 2.7 7.4 2.6 7.3C2.5 7.2 2.5 7.1 2.4 7C2.4 6.8 2.3 6.7 2.3 6.4L2.3 2.6L4.1 2.6L4.1 1.8L2.3 1.8L2.3 0L1.4 0L1.4 1.8L0 1.8L0 2.6L1.4 2.6L1.4 6.4L1.5 6.4Z" transform="translate(55.7 29.7)" id="Path" fill="#FFFFFF" stroke="none" />
        <path d="M4.9 0.3C5.3 0.5 5.7 0.7 6 1C6.3 1.3 6.5 1.6 6.7 2.1C6.9 2.5 7 2.9 7 3.4C7 3.8 6.9 4.3 6.7 4.7C6.5 5.1 6.3 5.5 6 5.8C5.7 6.1 5.3 6.3 4.9 6.5C4.5 6.7 4 6.8 3.5 6.8C3 6.8 2.5 6.7 2.1 6.5C1.7 6.3 1.3 6.1 1 5.8C0.7 5.5 0.5 5.1 0.3 4.7C0.1 4.3 0 3.9 0 3.4C0 3 0.1 2.5 0.3 2.1C0.5 1.7 0.7 1.3 1 1C1.3 0.7 1.7 0.5 2.1 0.3C2.6 0.1 3 0 3.5 0C4 0 4.5 0.1 4.9 0.3ZM5.3 5.2C5.5 5 5.7 4.7 5.8 4.4C5.9 4.1 6 3.7 6 3.4C6 3 5.9 2.7 5.8 2.4C5.7 2.1 5.5 1.8 5.3 1.6C5 1.4 4.8 1.2 4.5 1.1C4.2 1 3.9 0.9 3.5 0.9C3.1 0.9 2.8 1 2.5 1.1C2.2 1.2 1.9 1.4 1.7 1.6C1.5 1.8 1.3 2.1 1.2 2.4C1.1 2.7 1 3 1 3.4C1 3.8 1.1 4.1 1.2 4.4C1.3 4.7 1.5 5 1.7 5.2C2 5.4 2.2 5.6 2.5 5.7C2.8 5.8 3.1 5.9 3.5 5.9C3.9 5.9 4.2 5.8 4.5 5.7C4.8 5.6 5.1 5.4 5.3 5.2Z" transform="translate(60.7 31.1)" id="Shape" fill="#FFFFFF" fill-rule="evenodd" stroke="none" />
        <path d="M5.4 2.2L5.4 5.1C5.4 5.4 5.4 5.6 5.3 5.9C5.3 6.2 5.4 6.4 5.4 6.6L4.5 6.6C4.4 6.5 4.4 6.3 4.4 6.1L4.4 5.6Q4.1 6.2 3.5 6.5C3.2 6.7 2.7 6.8 2.2 6.8C1.9 6.8 1.7 6.8 1.4 6.7C1.1 6.6 0.9 6.5 0.7 6.3C0.5 6.1 0.3 5.9 0.2 5.7C0.1 5.5 0 5.2 0 4.9C0 4.4 0.1 4 0.4 3.7C0.7 3.4 1 3.1 1.4 3C1.8 2.8 2.2 2.7 2.7 2.7C3.2 2.6 3.6 2.6 4 2.6L4.5 2.6L4.5 2.4C4.5 1.3 4 0.7 2.9 0.7C2.1 0.7 1.5 1 0.9 1.5L0.4 0.9Q1.3 0 3.1 0C3.4 0 3.7 0 4 0.1C4.2 0.2 4.5 0.3 4.7 0.5C4.9 0.7 5.1 0.9 5.2 1.2C5.3 1.5 5.4 1.8 5.4 2.2ZM4.4 4.7C4.5 4.4 4.5 4.2 4.5 3.9L4.6 3.9L4.6 3.4L4.1 3.4C4 3.4 3.91111 3.38889 3.82222 3.37778C3.64444 3.35556 3.46667 3.33333 3.2 3.4C2.8 3.5 2.5 3.5 2.2 3.6C1.9 3.7 1.6 3.8 1.4 4C1.2 4.2 1.1 4.5 1.1 4.8C1.1 5 1.1 5.1 1.2 5.3C1.2 5.5 1.4 5.6 1.5 5.7C1.7 5.8 1.8 5.9 2 5.9C2.1 6 2.3 6 2.5 6C2.9 6 3.2 5.9 3.4 5.8C3.6 5.7 3.8 5.6 4 5.4C4.2 5.2 4.3 5 4.4 4.7Z" transform="translate(17 44.8)" id="Shape" fill="#FFFFFF" fill-rule="evenodd" stroke="none" />
        <path d="M5.5 5L5.5 0L4.6 0L4.6 3.3C4.6 3.9 4.5 4.3 4.3 4.7C4.1 5 3.9 5.3 3.7 5.4C3.5 5.6 3.2 5.7 3 5.7C2.8 5.7 2.7 5.8 2.6 5.8C2.3 5.8 2 5.8 1.8 5.7C1.6 5.6 1.4 5.5 1.3 5.3C1.2 5.1 1.1 4.9 1 4.6C0.9 4.3 0.9 4 0.9 3.7L0.9 0L0 0L0 4.1C0 4.9 0.2 5.5 0.6 6C1 6.4 1.6 6.7 2.4 6.7C2.6 6.7 2.8 6.7 3 6.6C3.2 6.5 3.4 6.5 3.6 6.4C3.8 6.3 4 6.2 4.1 6C4.3 5.9 4.4 5.7 4.5 5.5L4.5 5.5C4.5 5.7 4.5 5.8 4.5 6C4.5 6.2 4.5 6.3 4.5 6.5L5.4 6.5C5.4 6.3 5.4 6 5.4 5.7C5.5 5.4 5.5 5.1 5.5 5Z" transform="translate(24.5 45)" id="Path" fill="#FFFFFF" stroke="none" />
        <path d="M3.8 7.5C3.6 7.5 3.5 7.6 3.3 7.6C3.2 7.6 3 7.6 2.9 7.6C2.8 7.6 2.7 7.5 2.6 7.4C2.5 7.3 2.5 7.2 2.4 7.1C2.4 6.9 2.3 6.8 2.3 6.5L2.3 2.7L4.1 2.7L4.1 1.8L2.3 1.8L2.3 0L1.4 0L1.4 1.8L0 1.8L0 2.6L1.4 2.6L1.4 6.6C1.4 7 1.5 7.2 1.6 7.5C1.7 7.8 1.8 7.9 2 8C2.2 8.1 2.3 8.2 2.5 8.3C2.7 8.3 2.9 8.4 3 8.4C3.5 8.4 3.9 8.3 4.2 8.2L4.2 7.4C4.1 7.4 3.9 7.4 3.8 7.5Z" transform="translate(31.2 43.2)" id="Path" fill="#FFFFFF" stroke="none" />
        <path d="M4.9 0.3C5.3 0.5 5.7 0.7 6 1C6.3 1.3 6.5 1.7 6.7 2.1C6.9 2.5 7 2.9 7 3.4C7 3.8 6.9 4.3 6.7 4.7C6.5 5.1 6.3 5.5 6 5.8C5.7 6.1 5.3 6.3 4.9 6.5C4.5 6.7 4 6.8 3.5 6.8C3 6.8 2.5 6.7 2.1 6.5C1.7 6.3 1.3 6.1 1 5.8C0.7 5.5 0.5 5.1 0.3 4.7C0.1 4.3 0 3.9 0 3.4C0 3 0.1 2.5 0.3 2.1C0.5 1.7 0.7 1.3 1 1C1.3 0.7 1.7 0.5 2.1 0.3C2.6 0.1 3 0 3.5 0C4 0 4.5 0.1 4.9 0.3ZM5.3 5.2C5.5 5 5.7 4.7 5.8 4.4C6 4.1 6 3.7 6 3.4C6 3 5.9 2.7 5.8 2.4C5.7 2.1 5.5 1.8 5.3 1.6C5 1.4 4.8 1.2 4.5 1.1C4.2 1 3.9 0.9 3.5 0.9C3.1 0.9 2.8 1 2.5 1.1C2.2 1.2 1.9 1.4 1.7 1.6C1.5 1.8 1.3 2.1 1.2 2.4C1.1 2.7 1 3 1 3.4C1 3.8 1.1 4.1 1.2 4.4C1.3 4.7 1.5 5 1.7 5.2C2 5.4 2.2 5.6 2.5 5.7C2.8 5.8 3.1 5.9 3.5 5.9C3.9 5.9 4.2 5.8 4.5 5.7C4.8 5.6 5.1 5.4 5.3 5.2Z" transform="translate(36.1 44.8)" id="Shape" fill="#FFFFFF" fill-rule="evenodd" stroke="none" />
        <path d="M7.3 0C6.9 0 6.5 0.1 6.1 0.4C5.7 0.6 5.4 1 5.2 1.4C5.1 1.1 5 0.9 4.8 0.7C4.6 0.5 4.5 0.4 4.3 0.3C4.1 0.2 3.9 0.1 3.7 0.1C3.5 0.1 3.3 0 3.1 0C2.7 0 2.3 0.1 1.9 0.3C1.5 0.5 1.2 0.8 1 1.1L1 1.1L1 0.1L0 0.1C0 0.3 0 0.6 0 0.8C0 1 0 1.3 0 1.5L0 6.5L0.9 6.5L0.9 3.2C0.9 2.6 1 2.2 1.2 1.8C1.4 1.5 1.6 1.2 1.8 1.1C2 0.9 2.2 0.8 2.4 0.8C2.6 0.8 2.7 0.7 2.8 0.7C3.4 0.7 3.8 0.9 4.1 1.2C4.3 1.5 4.4 2 4.4 2.7L4.4 6.4L5.3 6.4L5.3 3.2C5.3 2.9 5.3 2.6 5.4 2.3C5.5 2 5.6 1.8 5.7 1.6C5.8 1.4 6 1.2 6.3 1.1C6.5 1 6.8 0.9 7.1 0.9C7.7 0.9 8.1 1.1 8.4 1.4C8.6 1.7 8.7 2.2 8.7 2.9L8.7 6.6L9.6 6.6L9.6 2.5C9.6 1.7 9.4 1.1 9 0.6C8.7 0.2 8.1 0 7.3 0Z" transform="translate(44.6 44.8)" id="Path" fill="#FFFFFF" stroke="none" />
        <path d="M5.4 2.2L5.4 5.1C5.4 5.4 5.4 5.6 5.3 5.9C5.3 6.2 5.4 6.4 5.4 6.6L4.5 6.6C4.4 6.5 4.4 6.3 4.4 6.1L4.4 5.6Q4.1 6.2 3.5 6.5C3.2 6.7 2.7 6.8 2.2 6.8C1.9 6.8 1.7 6.8 1.4 6.7C1.1 6.6 0.9 6.5 0.7 6.3C0.5 6.1 0.3 5.9 0.2 5.7C0.1 5.5 0 5.2 0 4.9C0 4.4 0.1 4 0.4 3.7C0.7 3.4 1 3.1 1.4 3C1.8 2.8 2.2 2.7 2.7 2.7C3.2 2.6 3.6 2.6 4 2.6L4.5 2.6L4.5 2.4C4.5 1.3 4 0.7 2.9 0.7C2.1 0.7 1.5 1 0.9 1.5L0.4 0.9Q1.3 0 3.1 0C3.4 0 3.7 0 4 0.1C4.2 0.2 4.5 0.3 4.7 0.5C4.9 0.7 5.1 0.9 5.2 1.2C5.3 1.5 5.4 1.8 5.4 2.2ZM4.4 4.7C4.5 4.4 4.5 4.2 4.5 3.9L4.6 3.9L4.6 3.4L4.1 3.4C4 3.4 3.91111 3.38889 3.82222 3.37778C3.64444 3.35556 3.46667 3.33333 3.2 3.4C2.8 3.5 2.5 3.5 2.2 3.6C1.9 3.7 1.6 3.8 1.4 4C1.2 4.2 1.1 4.5 1.1 4.8C1.1 5 1.1 5.1 1.2 5.3C1.2 5.5 1.4 5.6 1.5 5.7C1.7 5.8 1.8 5.9 2 5.9C2.1 6 2.3 6 2.5 6C2.9 6 3.2 5.9 3.4 5.8C3.6 5.7 3.8 5.6 4 5.4C4.2 5.2 4.3 5 4.4 4.7Z" transform="translate(56 44.8)" id="Shape" fill="#FFFFFF" fill-rule="evenodd" stroke="none" />
        <path d="M3.7 7.5C3.5 7.5 3.4 7.6 3.2 7.6C3.1 7.6 2.9 7.6 2.8 7.6C2.7 7.6 2.6 7.5 2.5 7.4C2.4 7.3 2.4 7.2 2.3 7.1C2.3 6.9 2.2 6.8 2.2 6.5L2.2 2.7L4 2.7L4 1.8L2.3 1.8L2.3 0L1.4 0L1.4 1.8L0 1.8L0 2.6L1.4 2.6L1.4 6.6C1.4 7 1.5 7.2 1.6 7.5C1.7 7.7 1.8 7.9 2 8C2.2 8.1 2.3 8.2 2.5 8.3C2.7 8.3 2.9 8.4 3 8.4C3.5 8.4 3.9 8.3 4.2 8.2L4.2 7.4C4 7.4 3.8 7.4 3.7 7.5Z" transform="translate(62.7 43.2)" id="Path" fill="#FFFFFF" stroke="none" />
        <path d="M4.5 0.3C4.9 0.5 5.2 0.7 5.5 1C5.8 1.3 6 1.6 6.1 2C6.2 2.3 6.3 2.8 6.3 3.2L6.3 3.7L1 3.7C1 4 1.1 4.3 1.2 4.6C1.3 4.9 1.5 5.1 1.7 5.3C1.9 5.5 2.1 5.7 2.4 5.8C2.7 5.9 3 6 3.3 6C3.8 6 4.2 5.9 4.6 5.7C5 5.4 5.2 5.2 5.4 4.9L6.1 5.5C5.7 5.9 5.3 6.3 4.8 6.5Q4.05 6.8 3.3 6.8C2.8 6.8 2.4 6.7 2 6.5C1.6 6.3 1.3 6.1 1 5.8C0.7 5.5 0.5 5.1 0.3 4.7C0.1 4.3 0 3.9 0 3.4C0 3 0 2.5 0.2 2.1C0.4 1.7 0.6 1.3 0.9 1C1.2 0.7 1.5 0.5 1.9 0.3C2.3 0.1 2.7 0 3.2 0C3.7 0 4.1 0.1 4.5 0.3ZM1.00383 2.8C1.00133 2.83221 1 2.86544 1 2.9L1 2.8L1.00383 2.8ZM1.00383 2.8L5.2 2.8C5.2 2.2 5.1 1.7 4.7 1.3Q4.25 0.7 3.2 0.7C3 0.7 2.7 0.8 2.4 0.9C2.1 1.1 1.9 1.2 1.7 1.4C1.5 1.6 1.3 1.9 1.2 2.1C1.11152 2.36544 1.02304 2.5526 1.00383 2.8Z" transform="translate(67.7 44.8)" id="Shape" fill="#FFFFFF" fill-rule="evenodd" stroke="none" />
      </g>
    </g>
    <g id="Group" transform="translate(302 0)">
      <path d="M9.6 141.2C56.5 144.8 97.7 168.7 124.4 204.2L195.5 185.1L234.8 116.9C180.5 46.5 95.6 0.9 0 0L34.1 70L9.6 141.2Z" transform="translate(0.8 0)" id="Path" fill="#E6E6E6" stroke="none" />
      <g id="Group" transform="translate(78 76)">
        <path d="M8.1 12.2C7.6 12.5 7.1 12.7 6.5 12.8C5.9 12.9 5.3 13 4.7 13L0 13L0 0L5.1 0C5.5 0 6 0.1 6.5 0.2C7 0.3 7.4 0.5 7.8 0.8C8.2 1 8.5 1.4 8.7 1.8Q9 2.4 9 3.3Q9 4.35 8.4 5.1C8 5.6 7.5 5.9 6.8 6.1C7.2 6.1 7.6 6.2 7.9 6.4C8.3 6.6 8.6 6.8 8.8 7.1C9.1 7.4 9.3 7.7 9.4 8.1C9.5 8.5 9.6 8.9 9.6 9.3C9.6 10 9.5 10.6 9.2 11.1C8.9 11.5 8.6 11.9 8.1 12.2ZM2.4 2L4.3 2C5.2 2 5.8 2.1 6.2 2.4C6.6 2.7 6.8 3.1 6.8 3.7Q6.8 4.45 6.2 4.9C5.8 5.2 5.2 5.3 4.5 5.3L2.4 5.3L2.4 2ZM2.4 7.3L2.4 11.1L4.6 11.1C4.8 11.1 5.2 11.1 5.5 11L6.4 10.7C6.7 10.5 6.9 10.4 7.1 10.1C7.3 9.9 7.4 9.5 7.4 9.1C7.4 8.4 7.1 8 6.7 7.7C6.2 7.4 5.5 7.3 4.6 7.3L2.4 7.3Z" transform="translate(12.3 0.7)" id="Shape" fill="#E8511D" fill-rule="evenodd" stroke="none" />
        <path d="M1.3 11.9C1.8 12.3 2.3 12.7 3 12.9C3.6 13.1 4.3 13.3 5.1 13.3C5.8 13.3 6.5 13.2 7.2 12.9C7.8 12.7 8.4 12.3 8.9 11.9C9.4 11.5 9.7 10.9 10 10.3C10.3 9.7 10.4 9 10.4 8.2L10.4 0L8.1 0L8.1 8.1C8.1 8.4 8.1 8.8 8 9.1C7.9 9.4 7.7 9.8 7.5 10.1C7.3 10.4 7 10.6 6.6 10.8C6.2 11 5.8 11.1 5.2 11.1C4.7 11.1 4.2 11 3.8 10.8C3.4 10.6 3.1 10.4 2.9 10.1C2.7 9.8 2.5 9.5 2.4 9.1C2.3 8.8 2.3 8.4 2.3 8.1L2.3 0L0 0L0 8.2C0 9 0.1 9.7 0.4 10.3C0.4 11 0.8 11.5 1.3 11.9Z" transform="translate(24.4 0.7)" id="Path" fill="#E8511D" stroke="none" />
        <path d="M0 0L2.3 0L2.3 13L0 13L0 0Z" transform="translate(37.4 0.7)" id="Rectangle" fill="#E8511D" stroke="none" />
        <path d="M7.8 10.9L2.3 10.9L2.3 0L0 0L0 13L7.8 13L7.8 10.9Z" transform="translate(42.6 0.7)" id="Path" fill="#E8511D" stroke="none" />
        <path d="M11.2 3.6C11.5 4.4 11.7 5.4 11.7 6.5C11.7 7.6 11.5 8.6 11 9.4C10.6 10.2 10.1 10.9 9.4 11.4C8.8 11.9 8 12.3 7.2 12.6C6.4 12.9 5.6 13 4.8 13L0 13L0 0L5.1 0C6 0 6.8 0.1 7.6 0.4Q8.8 0.85 9.7 1.6C10.3 2.1 10.8 2.8 11.2 3.6ZM7.8 9.9C8.2 9.5 8.6 9.1 8.9 8.5C9.2 8 9.3 7.3 9.4 6.5C9.4 5.7 9.2 5.1 9 4.5C8.8 3.9 8.4 3.4 8 3.1C7.6 2.7 7.1 2.5 6.5 2.3C5.9 2.2 5.2 2.1 4.5 2.1L2.4 2.1L2.4 10.9L4.1 10.9C4.8 10.9 5.5 10.9 6.1 10.7C6.8 10.5 7.3 10.2 7.8 9.9Z" transform="translate(52.1 0.7)" id="Shape" fill="#E8511D" fill-rule="evenodd" stroke="none" />
        <path d="M5.4 2.2L5.4 5.1C5.4 5.4 5.4 5.6 5.3 5.9C5.3 6.2 5.4 6.4 5.4 6.6L4.5 6.6C4.4 6.5 4.4 6.3 4.4 6.1L4.4 5.6Q4.1 6.2 3.5 6.5C3.2 6.7 2.7 6.8 2.2 6.8C1.9 6.8 1.7 6.8 1.4 6.7C1.1 6.6 0.9 6.5 0.7 6.3C0.5 6.1 0.3 5.9 0.2 5.7C0.1 5.5 0 5.2 0 4.9C0 4.4 0.1 4 0.4 3.7C0.7 3.4 1 3.2 1.4 3C1.8 2.8 2.2 2.8 2.7 2.7C3.2 2.6 3.6 2.6 4 2.6L4.5 2.6L4.5 2.4C4.5 1.3 4 0.7 2.9 0.7C2.1 0.7 1.5 1 0.9 1.5L0.4 0.9Q1.3 0 3.1 0C3.4 0 3.7 0 4 0.1C4.2 0.2 4.5 0.3 4.7 0.5C4.9 0.7 5.1 0.9 5.2 1.2C5.3 1.5 5.4 1.8 5.4 2.2ZM4.4 4.6C4.5 4.3 4.5 4.1 4.5 3.8L4.6 3.8L4.6 3.3L3.2 3.3C2.8 3.4 2.5 3.4 2.2 3.5C1.9 3.6 1.6 3.7 1.4 3.9C1.2 4.1 1.1 4.4 1.1 4.7C1.1 4.9 1.1 5 1.2 5.2C1.2 5.4 1.4 5.5 1.5 5.6C1.7 5.7 1.8 5.8 2 5.8C2.1 5.9 2.3 5.9 2.5 5.9C2.9 5.9 3.2 5.8 3.4 5.7C3.6 5.6 3.8 5.5 4 5.3C4.2 5.1 4.3 4.9 4.4 4.6Z" transform="translate(0.6 30.8)" id="Shape" fill="#E8511D" fill-rule="evenodd" stroke="none" />
        <path d="M5.5 5L5.5 0L4.6 0L4.6 3.3C4.6 3.9 4.5 4.3 4.3 4.7C4.1 5 3.9 5.3 3.7 5.4C3.5 5.6 3.2 5.7 3 5.7C2.8 5.7 2.7 5.8 2.6 5.8C2.3 5.8 2 5.8 1.8 5.7C1.6 5.6 1.4 5.5 1.3 5.3C1.2 5.1 1.1 4.9 1 4.6C0.9 4.3 0.9 4 0.9 3.7L0.9 0L0 0L0 4.1C0 4.9 0.2 5.5 0.6 6C1 6.4 1.6 6.7 2.4 6.7C2.6 6.7 2.8 6.7 3 6.6C3.2 6.5 3.4 6.5 3.6 6.4C3.8 6.3 4 6.2 4.1 6C4.3 5.9 4.4 5.7 4.5 5.5L4.5 5.5C4.5 5.7 4.5 5.8 4.5 6C4.5 6.2 4.5 6.3 4.5 6.5L5.4 6.5C5.4 6.3 5.4 6 5.4 5.7C5.4 5.4 5.5 5.1 5.5 5Z" transform="translate(8.1 31)" id="Path" fill="#E8511D" stroke="none" />
        <path d="M3.1 8.3C3.6 8.3 4 8.2 4.3 8.1L4.3 7.3C4.2 7.4 4 7.4 3.8 7.5C3.6 7.5 3.5 7.6 3.3 7.6C3.2 7.6 3 7.6 2.9 7.6C2.8 7.6 2.7 7.5 2.6 7.4C2.5 7.3 2.5 7.2 2.4 7.1C2.4 6.9 2.3 6.8 2.3 6.5L2.3 2.7L4.1 2.7L4.1 1.8L2.3 1.8L2.3 0L1.4 0L1.4 1.8L0 1.8L0 2.6L1.4 2.6L1.4 6.6C1.4 7 1.5 7.2 1.6 7.5C1.7 7.7 1.8 7.9 2 8C2.2 8.1 2.3 8.2 2.5 8.3C2.8 8.3 3 8.3 3.1 8.3Z" transform="translate(14.7 29.2)" id="Path" fill="#E8511D" stroke="none" />
        <path d="M6.7 2.1C6.9 2.5 7 2.9 7 3.4C7 3.8 6.9 4.3 6.7 4.7C6.5 5.1 6.3 5.5 6 5.8C5.7 6.1 5.3 6.3 4.9 6.5C4.5 6.7 4 6.8 3.5 6.8C3 6.8 2.5 6.7 2.1 6.5C1.7 6.3 1.3 6.1 1 5.8C0.7 5.5 0.5 5.1 0.3 4.7C0.1 4.3 0 3.9 0 3.4C0 3 0.1 2.5 0.3 2.1C0.5 1.7 0.7 1.3 1 1C1.3 0.7 1.7 0.5 2.1 0.3C2.6 0.1 3 0 3.5 0C4 0 4.5 0.1 4.9 0.3C5.3 0.5 5.7 0.7 6 1C6.3 1.3 6.5 1.7 6.7 2.1ZM5.3 5.2C5.5 5 5.7 4.7 5.8 4.4C6 4.1 6 3.7 6 3.4C6 3 5.9 2.7 5.8 2.4C5.7 2.1 5.5 1.8 5.3 1.6C5 1.4 4.8 1.2 4.5 1.1C4.2 1 3.9 0.9 3.5 0.9C3.1 0.9 2.8 1 2.5 1.1C2.2 1.2 1.9 1.4 1.7 1.6C1.5 1.8 1.3 2.1 1.2 2.4C1.1 2.7 1 3 1 3.4C1 3.8 1.1 4.1 1.2 4.4C1.3 4.7 1.5 5 1.7 5.2C2 5.4 2.2 5.6 2.5 5.7C2.8 5.8 3.1 5.9 3.5 5.9C3.9 5.9 4.2 5.8 4.5 5.7C4.8 5.6 5.1 5.4 5.3 5.2Z" transform="translate(19.7 30.8)" id="Shape" fill="#E8511D" fill-rule="evenodd" stroke="none" />
        <path d="M8.8 3L8.8 6.7L9.7 6.7L9.7 2.6C9.7 1.8 9.5 1.2 9.1 0.7C8.7 0.3 8.1 0 7.3 0C6.9 0 6.5 0.1 6.1 0.4C5.7 0.6 5.4 1 5.2 1.4C5.1 1.1 5 0.9 4.8 0.7C4.6 0.5 4.5 0.4 4.3 0.3C4.1 0.2 3.9 0.1 3.7 0.1C3.5 0.1 3.3 0 3.1 0C2.7 0 2.3 0.1 1.9 0.3C1.5 0.5 1.2 0.8 1 1.1L1 1.1L1 0.1L0 0.1C0 0.3 0 0.6 0 0.8C0 1 0 1.3 0 1.5L0 6.5L0.9 6.5L0.9 3.2C0.9 2.6 1 2.2 1.2 1.8C1.4 1.5 1.6 1.2 1.8 1.1C2 0.9 2.2 0.8 2.4 0.8C2.6 0.8 2.7 0.7 2.8 0.7C3.4 0.7 3.8 0.9 4.1 1.2C4.3 1.5 4.4 2 4.4 2.7L4.4 6.4L5.3 6.4L5.3 3.4C5.3 3.1 5.3 2.8 5.4 2.5C5.5 2.2 5.6 2 5.7 1.8C5.8 1.6 6 1.4 6.3 1.3C6.5 1.2 6.8 1.1 7.1 1.1C7.7 1.1 8.1 1.3 8.4 1.6C8.7 1.9 8.8 2.4 8.8 3Z" transform="translate(28.2 30.6)" id="Path" fill="#E8511D" stroke="none" />
        <path d="M4.5 6.1L4.5 5.6C4.3 6.1 4 6.4 3.5 6.5C3.2 6.7 2.7 6.8 2.2 6.8C1.9 6.8 1.7 6.8 1.4 6.7C1.1 6.6 0.9 6.5 0.7 6.3C0.5 6.1 0.3 5.9 0.2 5.7C0.1 5.5 0 5.2 0 4.9C0 4.4 0.1 4 0.4 3.7C0.7 3.4 1 3.2 1.4 3C1.8 2.8 2.2 2.8 2.7 2.7C3.2 2.6 3.6 2.6 4 2.6L4.5 2.6L4.5 2.4C4.5 1.3 4 0.7 2.9 0.7C2.1 0.7 1.5 1 0.9 1.5L0.4 0.9Q1.3 0 3.1 0C3.4 0 3.7 0 4 0.1C4.2 0.2 4.5 0.3 4.7 0.5C4.9 0.7 5.1 0.9 5.2 1.2C5.3 1.5 5.4 1.8 5.4 2.2L5.4 5.9C5.4 6.2 5.5 6.4 5.5 6.6L4.6 6.6C4.5 6.5 4.5 6.3 4.5 6.1ZM2.5 6C2.9 6 3.2 5.9 3.4 5.8C3.7 5.7 3.9 5.6 4.1 5.4C4.3 5.2 4.4 5 4.5 4.7C4.6 4.4 4.6 4.2 4.6 3.9L4.6 3.4L3.2 3.4C2.8 3.5 2.5 3.5 2.2 3.6C1.9 3.7 1.6 3.8 1.4 4C1.2 4.2 1.1 4.5 1.1 4.8C1.1 5 1.1 5.1 1.2 5.3C1.2 5.5 1.4 5.6 1.5 5.7C1.7 5.8 1.8 5.9 2 5.9C2.1 6 2.3 6 2.5 6Z" transform="translate(39.6 30.7)" id="Shape" fill="#E8511D" fill-rule="evenodd" stroke="none" />
        <path d="M4.3 7.3C4.2 7.4 4 7.4 3.8 7.5C3.6 7.5 3.5 7.6 3.3 7.6C3.2 7.6 3 7.6 2.9 7.6C2.8 7.6 2.7 7.5 2.6 7.4C2.5 7.3 2.5 7.2 2.4 7.1C2.4 6.9 2.3 6.8 2.3 6.5L2.3 2.7L4.1 2.7L4.1 1.8L2.3 1.8L2.3 0L1.4 0L1.4 1.8L0 1.8L0 2.6L1.4 2.6L1.4 6.6C1.4 7 1.5 7.2 1.6 7.5C1.7 7.7 1.8 7.9 2 8C2.2 8.1 2.3 8.2 2.5 8.3C2.7 8.3 2.9 8.4 3 8.4C3.5 8.4 3.9 8.3 4.2 8.2L4.3 7.3Z" transform="translate(46.1 29.2)" id="Path" fill="#E8511D" stroke="none" />
        <path d="M0 0L0.900002 0L0.900002 6.4L0 6.4L0 0Z" transform="translate(51.9 31)" id="Rectangle" fill="#E8511D" stroke="none" />
        <path d="M0.700001 1.4C0.900001 1.4 1 1.3 1.2 1.2C1.3 1.1 1.4 0.9 1.4 0.7C1.4 0.5 1.3 0.4 1.2 0.2C1.1 0 0.900001 0 0.700001 0C0.500001 0 0.4 0.1 0.2 0.2C0.1 0.3 0 0.5 0 0.7C0 0.9 0.1 1 0.2 1.2C0.4 1.3 0.500001 1.4 0.700001 1.4Z" transform="translate(51.6 27.8)" id="Path" fill="#E8511D" stroke="none" />
        <path d="M4.9 0.3C5.3 0.5 5.7 0.7 6 1C6.3 1.3 6.6 1.6 6.7 2.1C6.9 2.5 7 2.9 7 3.4C7 3.8 6.9 4.3 6.7 4.7C6.5 5.1 6.3 5.5 6 5.8C5.7 6.1 5.3 6.3 4.9 6.5C4.5 6.7 4 6.8 3.5 6.8C3 6.8 2.5 6.7 2.1 6.5C1.7 6.3 1.3 6.1 1 5.8C0.7 5.5 0.5 5.1 0.3 4.7C0.1 4.3 0 3.9 0 3.4C0 3 0.1 2.5 0.3 2.1C0.5 1.7 0.7 1.3 1 1C1.3 0.7 1.7 0.5 2.1 0.3C2.6 0.1 3 0 3.5 0C4 0 4.5 0.1 4.9 0.3ZM5.3 5.2C5.5 5 5.7 4.7 5.8 4.4C6 4.1 6 3.7 6 3.4C6 3 5.9 2.7 5.8 2.4C5.7 2.1 5.5 1.8 5.3 1.6C5 1.4 4.8 1.2 4.5 1.1C4.2 1 3.9 0.9 3.5 0.9C3.1 0.9 2.8 1 2.5 1.1C2.2 1.2 1.9 1.4 1.7 1.6C1.5 1.8 1.3 2.1 1.2 2.4C1.1 2.7 1 3 1 3.4C1 3.8 1.1 4.1 1.2 4.4C1.3 4.7 1.4 5 1.7 5.2C2 5.4 2.2 5.6 2.5 5.7C2.8 5.8 3.1 5.9 3.5 5.9C3.9 5.9 4.2 5.8 4.5 5.7C4.8 5.6 5.1 5.4 5.3 5.2Z" transform="translate(54.4 30.8)" id="Shape" fill="#E8511D" fill-rule="evenodd" stroke="none" />
        <path d="M3.1 0C2.9 0 2.7 0 2.5 0.1C2.3 0.2 2.1 0.2 1.9 0.3C1.7 0.4 1.5 0.5 1.4 0.7C1.2 0.8 1.1 1 1 1.2L1 1.2C1 1 1 0.9 1 0.7C1 0.5 1 0.4 1 0.2L0 0.2C0 0.4 0 0.7 0 1C0 1.3 0 1.5 0 1.7L0 6.7L0.9 6.7L0.9 3.4C0.9 2.8 1 2.4 1.2 2C1.4 1.7 1.6 1.4 1.8 1.3C2 1.1 2.3 1 2.5 1C2.7 1 2.8 0.9 2.9 0.9C3.6 0.9 4 1.1 4.3 1.5C4.5 1.9 4.7 2.4 4.7 3.1L4.7 6.6L5.6 6.6L5.6 2.5C5.6 1.7 5.4 1.1 5 0.6C4.6 0.2 3.9 0 3.1 0Z" transform="translate(63 30.8)" id="Path" fill="#E8511D" stroke="none" />
        <path d="M4.4 3.8C4.1 3.5 3.7 3.3 3.3 3.2L2.4 3C2 2.9 1.7 2.8 1.5 2.6C1.3 2.5 1.2 2.2 1.2 1.9C1.2 1.7 1.2 1.6 1.3 1.5C1.4 1.4 1.5 1.3 1.6 1.2C1.7 1.1 1.9 1.1 2 1C2.2 1 2.3 0.9 2.5 0.9C2.8 0.9 3.1 1 3.3 1.1C3.5 1.3 3.7 1.5 3.8 1.7L4.6 1.2C4.4 0.8 4.1 0.5 3.7 0.3C3.3 0.1 2.9 0 2.5 0C2.2 0 1.9 0 1.6 0.1C1.3 0.2 1.1 0.3 0.8 0.4C0.6 0.6 0.4 0.8 0.3 1C0.2 1.2 0.1 1.5 0.1 1.9C0.1 2.2 0.2 2.5 0.3 2.7C0.4 2.9 0.6 3.1 0.8 3.2C1 3.3 1.2 3.4 1.3 3.5C1.5 3.6 1.6 3.6 1.7 3.6L2.6 3.8C2.9 3.9 3.2 4 3.5 4.1C3.7 4.2 3.9 4.5 3.9 4.8C3.9 5 3.9 5.1 3.8 5.3C3.7 5.4 3.6 5.5 3.5 5.6C3.4 5.7 3.2 5.8 3 5.8C2.8 5.8 2.6 5.9 2.5 5.9C2.1 5.9 1.8 5.8 1.5 5.6C1.2 5.4 1 5.2 0.8 4.9L0 5.4C0.3 5.9 0.7 6.2 1.1 6.4C1.5 6.6 2 6.7 2.5 6.7C2.8 6.7 3.1 6.7 3.4 6.6C3.7 6.5 4 6.4 4.2 6.3C4.4 6.1 4.6 5.9 4.8 5.7C4.9 5.4 5 5.2 5 4.8C4.9 4.5 4.7 4.1 4.4 3.8Z" transform="translate(70.2 30.6)" id="Path" fill="#E8511D" stroke="none" />
        <path d="M4.9 0.3C5.1 0.4 5.3 0.5 5.5 0.7C5.7 0.9 5.8 1.1 6 1.3L6 0.2L6.9 0.2L6.9 10.5L6 10.5L6 5.5C5.9 5.8 5.7 5.9 5.5 6.1C5.3 6.3 5.1 6.4 4.9 6.5C4.7 6.6 4.4 6.7 4.2 6.7C3.9 6.8 3.7 6.8 3.5 6.8C3 6.8 2.5 6.7 2.1 6.5C1.7 6.3 1.3 6.1 1 5.8C0.7 5.5 0.5 5.1 0.3 4.7C0.1 4.3 0 3.9 0 3.4C0 3 0.1 2.5 0.3 2.1C0.5 1.7 0.7 1.3 1 1C1.3 0.7 1.7 0.5 2.1 0.3C2.5 0.1 3 0 3.5 0C3.7 0 4 0.1 4.2 0.1C4.5 0.1 4.7 0.2 4.9 0.3ZM5.4 5.2C5.6 5 5.8 4.7 5.9 4.4C6 4.1 6.1 3.8 6.1 3.4C6.1 3 6 2.7 5.9 2.4C5.8 2.1 5.6 1.8 5.4 1.6C5.2 1.4 4.9 1.2 4.6 1.1C4.3 1 4 0.9 3.6 0.9C3.2 0.9 2.9 1 2.6 1.1C2.3 1.2 2 1.4 1.8 1.6C1.6 1.8 1.4 2.1 1.3 2.4C1.2 2.7 1.1 3 1.1 3.4C1.1 3.8 1.2 4.1 1.3 4.4C1.4 4.7 1.5 5 1.8 5.2C2.1 5.4 2.3 5.6 2.6 5.7C2.9 5.8 3.2 5.9 3.6 5.9C3.9 5.9 4.3 5.8 4.6 5.7C4.9 5.6 5.2 5.4 5.4 5.2Z" transform="translate(17 44.4)" id="Shape" fill="#E8511D" fill-rule="evenodd" stroke="none" />
        <path d="M5.5 5L5.5 0L4.6 0L4.6 3.3C4.6 3.9 4.5 4.3 4.3 4.7C4.1 5 3.9 5.3 3.7 5.4C3.5 5.6 3.2 5.7 3 5.7C2.8 5.7 2.7 5.8 2.6 5.8C2.3 5.8 2 5.8 1.8 5.7C1.6 5.6 1.4 5.5 1.3 5.3C1.2 5.1 1.1 4.9 1 4.6C0.9 4.3 0.9 4 0.9 3.7L0.9 0.2L0 0.2L0 4.3C0 5.1 0.2 5.7 0.6 6.2C1 6.7 1.6 6.9 2.4 6.9C2.6 6.9 2.8 6.9 3 6.8C3.2 6.7 3.4 6.7 3.6 6.6C3.8 6.5 4 6.4 4.1 6.2C4.3 6.1 4.4 5.9 4.5 5.7L4.5 5.7C4.5 5.9 4.5 6 4.5 6.2C4.5 6.4 4.5 6.5 4.5 6.7L5.4 6.7C5.4 6.5 5.4 6.2 5.4 5.9C5.4 5.6 5.5 5.2 5.5 5Z" transform="translate(25.9 44.6)" id="Path" fill="#E8511D" stroke="none" />
        <path d="M0.700001 0C0.500001 0 0.4 0.1 0.2 0.2C0.1 0.3 0 0.500001 0 0.700001C0 0.900001 0.1 1 0.2 1.2C0.3 1.4 0.500001 1.4 0.700001 1.4C0.900001 1.4 1 1.3 1.2 1.2C1.4 1.1 1.4 0.900001 1.4 0.700001C1.4 0.500001 1.3 0.4 1.2 0.2C1 0.1 0.900001 0 0.700001 0Z" transform="translate(33.5 41.5)" id="Path" fill="#E8511D" stroke="none" />
        <path d="M0 0L0.900002 0L0.900002 6.4L0 6.4L0 0Z" transform="translate(33.7 44.6)" id="Rectangle" fill="#E8511D" stroke="none" />
        <path d="M1.6 1.6C1.8 1.4 2.1 1.2 2.4 1.1C2.7 1 3 0.9 3.4 0.9C3.8 0.9 4.1 1 4.4 1.1C4.7 1.3 4.9 1.5 5.1 1.7L5.8 1.1C5.5 0.7 5.1 0.4 4.7 0.3C4.3 0.1 3.9 0 3.4 0C2.9 0 2.4 0.1 2 0.2C1.6 0.3 1.2 0.6 0.9 0.9C0.6 1.2 0.4 1.6 0.2 2C0 2.4 0 2.9 0 3.3C0 3.8 0.1 4.2 0.2 4.6C0.3 5 0.6 5.4 0.9 5.7C1.2 6 1.6 6.2 2 6.4C2.4 6.6 2.9 6.6 3.4 6.6C3.8 6.6 4.3 6.5 4.7 6.3C5.1 6.1 5.5 5.8 5.8 5.5L5.1 4.9C4.9 5.1 4.7 5.3 4.4 5.5C4.1 5.7 3.8 5.7 3.4 5.7C3 5.7 2.7 5.6 2.4 5.5C2.1 5.4 1.9 5.2 1.6 5C1.4 4.8 1.2 4.5 1.1 4.2C1 3.9 0.9 3.5 0.9 3.2C0.9 2.8 1 2.5 1.1 2.2C1.2 2.1 1.4 1.8 1.6 1.6Z" transform="translate(36.5 44.4)" id="Path" fill="#E8511D" stroke="none" />
        <path d="M5.3 3.9L3.9 3.9L0.9 6.8L0.9 0L0 0L0 10.4L0.9 10.4L0.9 7L4.2 10.4L5.6 10.4L2.1 6.9L5.3 3.9Z" transform="translate(43.4 40.7)" id="Path" fill="#E8511D" stroke="none" />
        <path d="M0 0L0.900002 0L0.900002 10.3L0 10.3L0 0Z" transform="translate(50.2 40.7)" id="Rectangle" fill="#E8511D" stroke="none" />
        <path d="M3.1 5.4L1.1 0.1L0 0.1L2.6 6.6L2.1 7.8C2 8.2 1.8 8.4 1.6 8.6C1.4 8.8 1.2 8.9 0.8 8.9C0.5 8.9 0.3 8.8 0.1 8.7L0 9.6C0.1 9.6 0.3 9.7 0.4 9.7C0.5 9.7 0.7 9.7 0.8 9.7C1.4 9.7 1.8 9.6 2.1 9.3C2.4 9 2.6 8.6 2.8 8.1L6 0L4.9 0L3.1 5.4Z" transform="translate(52.6 44.5)" id="Path" fill="#E8511D" stroke="none" />
      </g>
    </g>
    <g id="Group" transform="translate(438 134)">
      <path d="M0 87C13.2 110.2 20.8 137.1 20.8 165.7C20.8 185.8 17.1 205 10.3 222.7L64.2 272.8L142.9 269.9C154.9 237.5 161.5 202.4 161.5 165.7C161.5 104.4 143.1 47.4 111.6 0L72.7 67.5L0 87Z" transform="translate(0.5 0.3)" id="Path" fill="#E8511D" stroke="none" />
      <g id="Group" transform="translate(54 138)">
        <path d="M7.8 13L11.7 2.2L11.8 2.2L11.8 13L14 13L14 0L10.5 0L7 9.1L3.5 0L0 0L0 13L2.2 13L2.2 2.2L2.2 2.2L6.2 13L7.8 13Z" transform="translate(0 1.3)" id="Path" fill="#FFFFFF" stroke="none" />
        <path d="M9.4 10L3.8 10L2.6 13L0 13L5.6 0L7.6 0L13.2 13L10.6 13L9.4 10ZM8.7 8L6.7 2.7L4.7 8L8.7 8Z" transform="translate(15.4 1.4)" id="Shape" fill="#FFFFFF" fill-rule="evenodd" stroke="none" />
        <path d="M9.4 9.7L9.3 9.7L3 0L0 0L0 13L2.3 13L2.3 3.1L2.3 3.1L8.7 13L11.7 13L11.7 0L9.4 0L9.4 9.7Z" transform="translate(30.2 1.3)" id="Path" fill="#FFFFFF" stroke="none" />
        <path d="M9.4 10L3.8 10L2.6 13L0 13L5.6 0L7.6 0L13.2 13L10.6 13L9.4 10ZM8.6 8L6.6 2.7L4.6 8L8.6 8Z" transform="translate(43.3 1.4)" id="Shape" fill="#FFFFFF" fill-rule="evenodd" stroke="none" />
        <path d="M12.3 5.8L7.3 5.8L7.3 7.9L10 7.9L10 11C9.6 11.2 9.1 11.4 8.6 11.5C8.1 11.6 7.5 11.7 6.9 11.7C6.2 11.7 5.6 11.6 5.1 11.3C4.6 11.1 4.1 10.7 3.7 10.3C3.3 9.9 3 9.4 2.8 8.8C2.6 8.2 2.5 7.6 2.5 6.9C2.5 6.3 2.6 5.6 2.8 5.1C3 4.5 3.3 4 3.7 3.6C4.1 3.2 4.6 2.8 5.1 2.6C5.6 2.4 6.3 2.2 6.9 2.2C7.6 2.2 8.2 2.3 8.8 2.5C9.4 2.7 9.9 3 10.3 3.4L12 1.7C11.3 1.1 10.5 0.7 9.7 0.4C8.8 0.2 7.9 0 6.9 0C5.9 0 5 0.2 4.1 0.5C3.3 0.8 2.5 1.3 1.9 1.9C1.3 2.5 0.8 3.2 0.5 4.1C0.2 4.9 0 5.9 0 6.9C0 7.9 0.2 8.8 0.5 9.7C0.8 10.5 1.3 11.2 1.9 11.8C2.5 12.4 3.2 12.9 4.1 13.2C4.9 13.5 5.9 13.7 6.9 13.7C8.9 13.7 10.7 13.3 12.3 12.4L12.3 5.8L12.3 5.8Z" transform="translate(57.2 0.9)" id="Path" fill="#FFFFFF" stroke="none" />
        <path d="M2.3 10.9L2.3 7.4L8.3 7.4L8.3 5.3L2.3 5.3L2.3 2.1L8.6 2.1L8.6 0L0 0L0 13L8.9 13L8.9 10.9L2.3 10.9Z" transform="translate(72.3 1.3)" id="Path" fill="#FFFFFF" stroke="none" />
        <path d="M4.5 6.1L4.5 5.6C4.3 6 4 6.3 3.5 6.5C3.2 6.7 2.7 6.8 2.2 6.8C1.9 6.8 1.7 6.8 1.4 6.7C1.1 6.6 0.9 6.5 0.7 6.3C0.5 6.1 0.3 5.9 0.2 5.7C0.1 5.5 0 5.2 0 4.9C0 4.4 0.1 4 0.4 3.7C0.7 3.4 1 3.1 1.4 3C1.8 2.8 2.2 2.8 2.7 2.7C3.2 2.6 3.6 2.6 4 2.6L4.5 2.6L4.5 2.4C4.5 1.3 4 0.7 2.9 0.7C2.1 0.7 1.5 1 0.9 1.5L0.4 0.9Q1.3 0 3.1 0C3.4 0 3.7 0 4 0.1C4.2 0.2 4.5 0.3 4.7 0.5C4.9 0.7 5.1 0.9 5.2 1.2C5.3 1.5 5.4 1.8 5.4 2.2L5.4 5.9C5.4 6.2 5.5 6.4 5.5 6.6L4.6 6.6C4.5 6.5 4.5 6.3 4.5 6.1ZM2.1 5.9C2.2 6 2.4 6 2.6 6C2.9 6 3.2 5.9 3.6 5.8C3.8 5.7 4 5.6 4.2 5.4C4.4 5.2 4.5 5 4.6 4.7C4.7 4.4 4.7 4.2 4.7 3.9L4.7 3.4L3.3 3.4C2.9 3.5 2.6 3.5 2.3 3.6C2 3.7 1.7 3.8 1.5 4C1.3 4.2 1.2 4.5 1.2 4.8C1.2 5 1.2 5.1 1.3 5.3C1.3 5.5 1.5 5.6 1.6 5.7C1.8 5.8 1.9 5.9 2.1 5.9Z" transform="translate(3.1 31.4)" id="Shape" fill="#FFFFFF" fill-rule="evenodd" stroke="none" />
        <path d="M2.6 5.6C2.3 5.6 2 5.6 1.8 5.5C1.6 5.4 1.4 5.3 1.3 5.1C1.2 4.9 1.1 4.7 1 4.4C0.9 4.1 0.9 3.8 0.9 3.5L0.9 0L0 0L0 4.1C0 4.9 0.2 5.5 0.6 6C1 6.4 1.6 6.7 2.4 6.7C2.6 6.7 2.8 6.7 3 6.6C3.2 6.5 3.4 6.5 3.6 6.4C3.8 6.3 4 6.2 4.1 6C4.3 5.9 4.4 5.7 4.5 5.5L4.5 5.5C4.5 5.7 4.5 5.8 4.5 6C4.5 6.2 4.5 6.3 4.5 6.5L5.4 6.5C5.4 6.3 5.4 6 5.4 5.7C5.4 5.4 5.4 5.2 5.4 5L5.4 0L4.5 0L4.5 3.3C4.5 3.9 4.4 4.3 4.2 4.7C4 5 3.8 5.3 3.6 5.4C3.4 5.6 3.1 5.7 2.9 5.7C2.8 5.5 2.7 5.6 2.6 5.6Z" transform="translate(10.6 31.8)" id="Path" fill="#FFFFFF" stroke="none" />
        <path d="M3.8 7.4C3.6 7.4 3.5 7.5 3.3 7.5C3.2 7.5 3 7.5 2.9 7.5C2.8 7.5 2.7 7.4 2.6 7.3C2.5 7.2 2.5 7.1 2.4 7C2.4 6.8 2.3 6.7 2.3 6.4L2.3 2.6L4.1 2.6L4.1 1.8L2.3 1.8L2.3 0L1.4 0L1.4 1.8L0 1.8L0 2.6L1.4 2.6L1.4 6.6C1.4 7 1.5 7.2 1.6 7.5C1.7 7.7 1.8 7.9 2 8C2.2 8.1 2.3 8.2 2.5 8.3C2.7 8.3 2.9 8.4 3 8.4C3.5 8.4 3.9 8.3 4.2 8.2L4.2 7.4C4.1 7.3 3.9 7.3 3.8 7.4Z" transform="translate(17.3 29.9)" id="Path" fill="#FFFFFF" stroke="none" />
        <path d="M4.9 0.3C5.3 0.5 5.7 0.7 6 1C6.3 1.3 6.5 1.7 6.7 2.1C6.9 2.5 7 2.9 7 3.4C7 3.8 6.9 4.3 6.7 4.7C6.5 5.1 6.3 5.5 6 5.8C5.7 6.1 5.3 6.3 4.9 6.5C4.5 6.7 4 6.8 3.5 6.8C3 6.8 2.5 6.7 2.1 6.5C1.7 6.3 1.3 6.1 1 5.8C0.7 5.5 0.5 5.1 0.3 4.7C0.1 4.3 0 3.9 0 3.4C0 3 0.1 2.5 0.3 2.1C0.5 1.7 0.7 1.3 1 1C1.3 0.7 1.7 0.5 2.1 0.3C2.6 0.1 3 0 3.5 0C4 0 4.5 0.1 4.9 0.3ZM5.3 5.2C5.5 5 5.7 4.7 5.8 4.4C5.9 4.1 5.9 3.8 6 3.4C6 3 5.9 2.7 5.8 2.4C5.7 2.1 5.5 1.8 5.3 1.6C5 1.4 4.8 1.2 4.5 1.1C4.2 1 3.9 0.9 3.5 0.9C3.1 0.9 2.8 1 2.5 1.1C2.2 1.2 1.9 1.4 1.7 1.6C1.5 1.8 1.3 2.1 1.2 2.4C1.1 2.7 1 3 1 3.4C1 3.8 1.1 4.1 1.2 4.4C1.3 4.7 1.5 5 1.7 5.2C2 5.4 2.2 5.6 2.5 5.7C2.8 5.8 3.1 5.9 3.5 5.9C3.9 5.9 4.2 5.8 4.5 5.7C4.8 5.6 5.1 5.4 5.3 5.2Z" transform="translate(22.3 31.4)" id="Shape" fill="#FFFFFF" fill-rule="evenodd" stroke="none" />
        <path d="M7.3 0C6.9 0 6.5 0.1 6.1 0.4C5.7 0.6 5.4 1 5.2 1.4C5.1 1.1 5 0.9 4.8 0.7C4.6 0.5 4.5 0.4 4.3 0.3C4.1 0.2 3.9 0.1 3.7 0.1C3.5 0.1 3.3 0 3.1 0C2.7 0 2.3 0.1 1.9 0.3C1.5 0.5 1.2 0.8 1 1.1L1 1.1L1 0.1L0 0.1C0 0.3 0 0.6 0 0.8C0 1 0 1.3 0 1.5L0 6.5L0.9 6.5L0.9 3.2C0.9 2.6 1 2.2 1.2 1.8C1.4 1.5 1.6 1.2 1.8 1.1C2 0.9 2.2 0.8 2.4 0.8C2.6 0.8 2.7 0.7 2.8 0.7C3.4 0.7 3.8 0.9 4.1 1.2C4.3 1.5 4.4 2 4.4 2.7L4.4 6.4L5.3 6.4L5.3 3C5.3 2.7 5.3 2.4 5.4 2.1C5.5 1.8 5.6 1.6 5.7 1.4C5.8 1.2 6 1 6.3 0.9C6.5 0.8 6.8 0.7 7.1 0.7C7.7 0.7 8.1 0.9 8.4 1.2C8.6 1.5 8.7 2 8.7 2.7L8.7 6.4L9.6 6.4L9.6 2.3C9.6 1.5 9.4 0.9 9 0.4C8.7 0.3 8.1 0 7.3 0Z" transform="translate(30.7 31.4)" id="Path" fill="#FFFFFF" stroke="none" />
        <path d="M4.5 6.1L4.5 5.6C4.2 6 3.9 6.3 3.5 6.5C3.2 6.7 2.7 6.8 2.2 6.8C1.9 6.8 1.7 6.8 1.4 6.7C1.1 6.6 0.9 6.5 0.7 6.3C0.5 6.1 0.3 5.9 0.2 5.7C0.1 5.5 0 5.2 0 4.9C0 4.4 0.1 4 0.4 3.7C0.7 3.4 1 3.1 1.4 3C1.8 2.8 2.2 2.7 2.7 2.7C3.2 2.6 3.6 2.6 4 2.6L4.5 2.6L4.5 2.4C4.5 1.3 4 0.7 2.9 0.7C2.1 0.7 1.5 1 0.9 1.5L0.4 0.9Q1.3 0 3.1 0C3.4 0 3.7 0 4 0.1C4.2 0.2 4.5 0.3 4.7 0.5C4.9 0.7 5.1 0.9 5.2 1.2C5.3 1.5 5.4 1.8 5.4 2.2L5.4 5.9C5.4 6.2 5.5 6.4 5.5 6.6L4.6 6.6C4.5 6.5 4.5 6.3 4.5 6.1ZM2 5.9C2.1 6 2.3 6 2.5 6C2.8 6 3.1 5.9 3.5 5.8C3.7 5.7 3.9 5.6 4.1 5.4C4.3 5.2 4.4 5 4.5 4.7C4.6 4.4 4.6 4.2 4.6 3.9L4.6 3.4L3.2 3.4C2.8 3.5 2.5 3.5 2.2 3.6C1.9 3.7 1.6 3.8 1.4 4C1.2 4.2 1.1 4.5 1.1 4.8C1.1 5 1.1 5.1 1.2 5.3C1.2 5.5 1.4 5.6 1.5 5.7C1.7 5.8 1.8 5.9 2 5.9Z" transform="translate(42.2 31.4)" id="Shape" fill="#FFFFFF" fill-rule="evenodd" stroke="none" />
        <path d="M3.1 8.2C3.6 8.2 4 8.1 4.3 8L4.3 7.2C4.2 7.3 4 7.3 3.8 7.4C3.6 7.4 3.5 7.5 3.3 7.5C3.2 7.5 3 7.5 2.9 7.5C2.8 7.5 2.7 7.4 2.6 7.3C2.5 7.2 2.5 7.1 2.4 7C2.4 6.8 2.3 6.7 2.3 6.4L2.3 2.6L4.1 2.6L4.1 1.8L2.3 1.8L2.3 0L1.4 0L1.4 1.8L0 1.8L0 2.6L1.4 2.6L1.4 6.6C1.4 7 1.5 7.2 1.6 7.5C1.7 7.7 1.8 7.9 2 8C2.2 8.1 2.3 8.2 2.5 8.3C2.7 8.2 2.9 8.2 3.1 8.2Z" transform="translate(48.7 30)" id="Path" fill="#FFFFFF" stroke="none" />
        <path d="M0 0L0.900002 0L0.900002 6.4L0 6.4L0 0Z" transform="translate(54.4 31.6)" id="Rectangle" fill="#FFFFFF" stroke="none" />
        <path d="M1.4 0.7C1.4 0.5 1.3 0.4 1.2 0.2C1.1 0.1 0.900001 0 0.700001 0C0.500001 0 0.4 0.1 0.2 0.2C0.1 0.3 0 0.5 0 0.7C0 0.9 0.1 1 0.2 1.2C0.3 1.3 0.500001 1.4 0.700001 1.4C0.900001 1.4 1 1.3 1.2 1.2C1.3 1.1 1.4 0.9 1.4 0.7Z" transform="translate(54.1 28.4)" id="Path" fill="#FFFFFF" stroke="none" />
        <path d="M4.9 0.3C5.3 0.5 5.7 0.7 6 1C6.3 1.3 6.5 1.7 6.7 2.1C6.9 2.5 7 2.9 7 3.4C7 3.8 6.9 4.3 6.7 4.7C6.5 5.1 6.3 5.5 6 5.8C5.7 6.1 5.3 6.3 4.9 6.5C4.5 6.7 4 6.8 3.5 6.8C3 6.8 2.5 6.7 2.1 6.5C1.7 6.3 1.3 6.1 1 5.8C0.7 5.5 0.5 5.1 0.3 4.7C0.1 4.3 0 3.9 0 3.4C0 3 0.1 2.5 0.3 2.1C0.5 1.7 0.7 1.3 1 1C1.3 0.7 1.7 0.5 2.1 0.3C2.6 0.1 3 0 3.5 0C4 0 4.5 0.1 4.9 0.3ZM5.3 5.2C5.5 5 5.7 4.7 5.8 4.4C5.9 4.1 5.9 3.8 6 3.4C6 3 5.9 2.7 5.8 2.4C5.7 2.1 5.5 1.8 5.3 1.6C5 1.4 4.8 1.2 4.5 1.1C4.2 1 3.9 0.9 3.5 0.9C3.1 0.9 2.8 1 2.5 1.1C2.2 1.2 1.9 1.4 1.7 1.6C1.5 1.8 1.3 2.1 1.2 2.4C1.1 2.7 1 3 1 3.4C1 3.8 1.1 4.1 1.2 4.4C1.3 4.7 1.5 5 1.7 5.2C2 5.4 2.2 5.6 2.5 5.7C2.8 5.8 3.1 5.9 3.5 5.9C3.9 5.9 4.2 5.8 4.5 5.7C4.8 5.6 5.1 5.4 5.3 5.2Z" transform="translate(57 31.4)" id="Shape" fill="#FFFFFF" fill-rule="evenodd" stroke="none" />
        <path d="M4.1 1.6C4.3 2 4.5 2.5 4.5 3.2L4.5 6.7L5.4 6.7L5.4 2.6C5.4 1.8 5.2 1.2 4.8 0.7C4.4 0.3 3.8 0 3 0C2.8 0 2.6 0 2.4 0.1C2.2 0.2 2 0.2 1.8 0.3C1.6 0.4 1.4 0.5 1.3 0.7C1.1 0.8 1 1 0.9 1.2L0.9 1.2C0.9 1 0.9 0.9 0.9 0.7C0.9 0.5 0.9 0.4 0.9 0.2L0 0.2C0 0.4 0 0.7 0 1C0 1.3 0 1.5 0 1.7L0 6.7L0.9 6.7L0.9 3.4C0.9 2.8 1 2.4 1.2 2C1.4 1.7 1.6 1.4 1.8 1.3C2 1.1 2.3 1 2.5 1C2.7 1 2.8 0.9 2.9 0.9C3.4 1.1 3.8 1.3 4.1 1.6Z" transform="translate(65.7 31.2)" id="Path" fill="#FFFFFF" stroke="none" />
        <path d="M3.3 3.2L2.4 3C2 2.9 1.7 2.8 1.5 2.6C1.3 2.5 1.2 2.2 1.2 1.9C1.2 1.7 1.2 1.6 1.3 1.5C1.4 1.4 1.5 1.3 1.6 1.2C1.7 1.1 1.9 1.1 2 1C2.2 1 2.3 0.9 2.5 0.9C2.8 0.9 3.1 1 3.3 1.1C3.5 1.3 3.7 1.5 3.8 1.7L4.6 1.2C4.4 0.8 4.1 0.5 3.7 0.3C3.3 0.1 2.9 0 2.5 0C2.2 0 1.9 0 1.6 0.1C1.3 0.2 1.1 0.3 0.8 0.4C0.6 0.6 0.4 0.8 0.3 1C0.2 1.2 0.1 1.5 0.1 1.9C0.1 2.2 0.2 2.5 0.3 2.7C0.4 2.9 0.6 3.1 0.8 3.2C1 3.3 1.2 3.4 1.3 3.5C1.5 3.6 1.6 3.6 1.7 3.6L2.6 3.8C2.9 3.9 3.2 4 3.5 4.1C3.7 4.2 3.9 4.5 3.9 4.8C3.9 5 3.9 5.1 3.8 5.3C3.7 5.4 3.6 5.5 3.5 5.6C3.4 5.7 3.2 5.8 3 5.8C2.8 5.8 2.6 5.9 2.5 5.9C2.1 5.9 1.8 5.8 1.5 5.6C1.2 5.4 1 5.2 0.8 4.9L0 5.4C0.3 5.9 0.7 6.2 1.1 6.4C1.5 6.6 2 6.7 2.5 6.7C2.8 6.7 3.1 6.7 3.4 6.6C3.7 6.5 4 6.4 4.2 6.3C4.4 6.1 4.6 5.9 4.8 5.7C4.9 5.4 5 5.2 5 4.8C5 4.3 4.9 4 4.6 3.7C4.3 3.4 3.8 3.3 3.3 3.2Z" transform="translate(72.7 31.3)" id="Path" fill="#FFFFFF" stroke="none" />
        <path d="M5.4 2.2L5.4 5.1C5.4 5.3 5.4 5.6 5.3 5.9C5.3 6.2 5.4 6.4 5.4 6.6L4.5 6.6C4.4 6.5 4.4 6.3 4.4 6.1L4.4 5.6Q4.1 6.2 3.5 6.5C3.2 6.7 2.7 6.8 2.2 6.8C1.9 6.8 1.7 6.8 1.4 6.7C1.1 6.6 0.9 6.5 0.7 6.3C0.5 6.1 0.3 5.9 0.2 5.7C0.1 5.5 0 5.2 0 4.9C0 4.4 0.1 4 0.4 3.7C0.7 3.4 1 3.1 1.4 3C1.8 2.8 2.2 2.7 2.7 2.7C3.2 2.6 3.6 2.6 4 2.6L4.5 2.6L4.5 2.4C4.5 1.3 4 0.7 2.9 0.7C2.1 0.7 1.5 1 0.9 1.5L0.4 0.9Q1.3 0 3.1 0C3.4 0 3.7 0 4 0.1C4.2 0.2 4.5 0.3 4.7 0.5C4.9 0.7 5.1 0.9 5.2 1.2C5.3 1.5 5.4 1.8 5.4 2.2ZM4.4 4.6C4.5 4.3 4.5 4.1 4.5 3.8L4.6 3.8L4.6 3.3L3.2 3.3C2.8 3.4 2.5 3.4 2.2 3.5C1.9 3.6 1.6 3.7 1.4 3.9C1.2 4.1 1.1 4.4 1.1 4.7C1.1 4.9 1.1 5 1.2 5.2C1.2 5.4 1.4 5.5 1.5 5.6C1.7 5.7 1.8 5.8 2 5.8C2.1 5.9 2.3 5.9 2.5 5.9C2.9 5.9 3.2 5.8 3.4 5.7C3.6 5.6 3.8 5.5 4 5.3C4.2 5.1 4.3 4.9 4.4 4.6Z" transform="translate(6 45.2)" id="Shape" fill="#FFFFFF" fill-rule="evenodd" stroke="none" />
        <path d="M3.7 7.4C3.5 7.4 3.4 7.5 3.2 7.5C3.1 7.5 2.9 7.5 2.8 7.5C2.7 7.5 2.6 7.4 2.5 7.3C2.4 7.2 2.4 7.1 2.3 7C2.3 6.8 2.2 6.7 2.2 6.4L2.2 2.6L4 2.6L4 1.8L2.3 1.8L2.3 0L1.4 0L1.4 1.8L0 1.8L0 2.6L1.4 2.6L1.4 6.6C1.4 7 1.5 7.2 1.6 7.5C1.7 7.7 1.8 7.9 2 8C2.2 8.1 2.3 8.2 2.5 8.3C2.7 8.3 2.9 8.4 3 8.4C3.5 8.4 3.9 8.3 4.2 8.2L4.2 7.4C4 7.3 3.9 7.3 3.7 7.4Z" transform="translate(12.7 43.6)" id="Path" fill="#FFFFFF" stroke="none" />
        <path d="M4.8 4C5.2 4.2 5.6 4.4 5.9 4.7C6.2 5 6.5 5.3 6.6 5.8C6.8 6.2 6.9 6.6 6.9 7.1C6.9 7.5 6.8 8 6.6 8.4C6.4 8.8 6.2 9.2 5.9 9.5C5.6 9.8 5.2 10 4.8 10.2C4.4 10.4 3.9 10.5 3.4 10.5C3.2 10.5 2.9 10.4 2.7 10.4C2.4 10.4 2.2 10.3 2 10.2C1.8 10.1 1.6 10 1.4 9.8C1.2 9.6 1 9.4 0.9 9.2L0.9 10.3L0 10.3L0 0L0.9 0L0.9 5C1 4.7 1.2 4.6 1.4 4.4C1.6 4.2 1.8 4.1 2 4C2.2 3.9 2.5 3.8 2.7 3.8C3 3.7 3.2 3.7 3.4 3.7C3.9 3.7 4.4 3.8 4.8 4ZM5.2 8.9C5.4 8.7 5.6 8.4 5.7 8.1C5.8 7.8 5.9 7.5 5.9 7.1C5.9 6.7 5.8 6.4 5.7 6.1C5.6 5.8 5.4 5.5 5.2 5.3C4.9 5.1 4.7 4.9 4.4 4.8C4.1 4.7 3.8 4.6 3.4 4.6C3.1 4.6 2.7 4.7 2.4 4.8C2.1 4.9 1.8 5.1 1.6 5.3C1.4 5.5 1.2 5.8 1.1 6.1C1 6.4 0.9 6.7 0.9 7.1C0.9 7.5 1 7.8 1.1 8.1C1.2 8.4 1.4 8.7 1.6 8.9C1.8 9.1 2.1 9.3 2.4 9.4C2.7 9.5 3 9.6 3.4 9.6C3.8 9.6 4.1 9.5 4.4 9.4C4.7 9.3 5 9.1 5.2 8.9Z" transform="translate(21.8 41.4)" id="Shape" fill="#FFFFFF" fill-rule="evenodd" stroke="none" />
        <path d="M0 0L0.9 0L0.9 6.4L0 6.4L0 0Z" transform="translate(30.4 45.3)" id="Rectangle" fill="#FFFFFF" stroke="none" />
        <path d="M0.7 0C0.5 0 0.4 0.1 0.2 0.2C0.1 0.3 0 0.500001 0 0.700001C0 0.900001 0.1 1 0.2 1.2C0.3 1.3 0.5 1.4 0.7 1.4C0.9 1.4 1 1.3 1.2 1.2C1.3 1.1 1.4 0.900001 1.4 0.700001C1.4 0.500001 1.3 0.4 1.2 0.2C1 0 0.8 0 0.7 0Z" transform="translate(30.2 42.2)" id="Path" fill="#FFFFFF" stroke="none" />
        <path d="M5 0.7L5.6 1.3L5.8 1.3L5.8 0.1L6.7 0.1L6.7 6.5C6.7 6.8 6.7 7.2 6.6 7.6C6.5 8 6.3 8.4 6.1 8.7C5.9 9 5.5 9.3 5.1 9.5C4.6 9.7 4 9.8 3.3 9.8C2.7 9.8 2.1 9.7 1.6 9.5C1.1 9.3 0.6 8.9 0.2 8.5L0.9 7.8C1.1 8.2 1.5 8.5 1.9 8.7C2.3 8.9 2.8 9 3.3 9C3.8 9 4.2 8.9 4.5 8.8C4.8 8.7 5.1 8.5 5.3 8.3C5.5 8.1 5.6 7.8 5.7 7.5C5.8 7.2 5.8 6.8 5.8 6.5L5.8 5.4C5.5 5.8 5.1 6.1 4.7 6.3C4.3 6.5 3.9 6.6 3.4 6.6C2.9 6.6 2.5 6.6 2.1 6.4C1.7 6.2 1.3 6 1 5.7C0.7 5.4 0.5 5.1 0.3 4.7C0.1 4.3 0 3.9 0 3.4C0 2.9 0 2.5 0.2 2.1C0.4 1.7 0.6 1.3 0.9 1C1.2 0.7 1.5 0.5 1.9 0.3C2.3 0.1 2.7 0 3.2 0C3.4 0 3.6 0.1 3.8 0.1C4 0.1 4.2 0.2 4.4 0.3C4.6 0.4 4.8 0.5 5 0.7ZM5 5.1C5.2 4.9 5.4 4.6 5.5 4.3C5.6 4 5.7 3.7 5.8 3.3C5.8 2.9 5.7 2.6 5.6 2.3C5.5 2 5.3 1.7 5.1 1.5C4.9 1.3 4.6 1.1 4.3 1C4 0.9 3.7 0.8 3.3 0.8C3 0.8 2.7 0.9 2.4 1C2.1 1.1 1.8 1.3 1.6 1.5C1.4 1.7 1.2 2 1.1 2.3C1 2.6 0.9 3 0.9 3.3C0.9 3.7 1 4 1.1 4.3C1.2 4.6 1.4 4.9 1.6 5.1C1.9 5.3 2.1 5.5 2.4 5.6C2.7 5.7 3 5.8 3.3 5.8C3.6 5.8 3.9 5.7 4.2 5.6C4.5 5.5 4.8 5.3 5 5.1Z" transform="translate(33.3 45.1)" id="Shape" fill="#FFFFFF" fill-rule="evenodd" stroke="none" />
        <path d="M3.3 3.2L2.4 3C2 2.9 1.7 2.8 1.5 2.6C1.3 2.5 1.2 2.2 1.2 1.9C1.2 1.7 1.2 1.6 1.3 1.5C1.4 1.4 1.5 1.3 1.6 1.2C1.7 1.1 1.9 1.1 2 1C2.1 0.9 2.3 0.9 2.5 0.9C2.8 0.9 3.1 1 3.3 1.1C3.5 1.3 3.7 1.5 3.8 1.7L4.6 1.2C4.4 0.8 4.1 0.5 3.7 0.3C3.3 0.1 2.9 0 2.5 0C2.2 0 1.9 0 1.6 0.1C1.3 0.2 1.1 0.3 0.8 0.4C0.6 0.6 0.4 0.8 0.3 1C0.2 1.2 0.1 1.5 0.1 1.9C0.1 2.2 0.2 2.5 0.3 2.7C0.4 2.9 0.6 3.1 0.8 3.2C1 3.3 1.2 3.4 1.3 3.5C1.5 3.6 1.6 3.6 1.7 3.6L2.6 3.8C2.9 3.9 3.2 4 3.5 4.1C3.7 4.2 3.9 4.5 3.9 4.8C3.9 5 3.9 5.1 3.8 5.3C3.7 5.4 3.6 5.5 3.5 5.6C3.4 5.7 3.2 5.8 3 5.8C2.8 5.8 2.6 5.9 2.5 5.9C2.1 5.9 1.8 5.8 1.5 5.6C1.2 5.4 1 5.2 0.8 4.9L0 5.4C0.3 5.9 0.7 6.2 1.1 6.4C1.5 6.6 2 6.7 2.5 6.7C2.8 6.7 3.1 6.7 3.4 6.6C3.7 6.5 4 6.4 4.2 6.3C4.4 6.1 4.6 5.9 4.8 5.7C5 5.5 5 5.2 5 4.8C5 4.3 4.9 4 4.6 3.7C4.3 3.4 3.8 3.3 3.3 3.2Z" transform="translate(45.2 44.9)" id="Path" fill="#FFFFFF" stroke="none" />
        <path d="M1.6 1.6C1.8 1.4 2.1 1.2 2.4 1.1C2.7 1 3 0.9 3.4 0.9C3.8 0.9 4.1 1 4.4 1.1C4.7 1.3 4.9 1.5 5.1 1.7L5.8 1.1C5.5 0.7 5.1 0.4 4.7 0.3C4.3 0.1 3.9 0 3.4 0C2.9 0 2.4 0.1 2 0.2C1.6 0.4 1.2 0.6 0.9 0.9C0.6 1.2 0.4 1.6 0.2 2C0 2.4 0 2.9 0 3.3C0 3.8 0.1 4.2 0.2 4.6C0.3 5 0.6 5.4 0.9 5.7C1.2 6 1.6 6.2 2 6.4C2.4 6.6 2.9 6.6 3.4 6.6C3.8 6.6 4.3 6.5 4.7 6.3C5.1 6.1 5.5 5.8 5.8 5.5L5.1 4.9C4.9 5.1 4.7 5.3 4.4 5.5C4.1 5.7 3.8 5.7 3.4 5.7C3 5.7 2.7 5.6 2.4 5.5C2.1 5.4 1.9 5.2 1.6 5C1.4 4.8 1.2 4.5 1.1 4.2C1 3.9 0.9 3.5 0.9 3.2C0.9 2.8 1 2.5 1.1 2.2C1.2 2.1 1.4 1.8 1.6 1.6Z" transform="translate(51.2 45.1)" id="Path" fill="#FFFFFF" stroke="none" />
        <path d="M5.4 2.2L5.4 5.1C5.4 5.3 5.4 5.6 5.3 5.9C5.3 6.2 5.4 6.4 5.4 6.6L4.5 6.6C4.4 6.5 4.4 6.3 4.4 6.1L4.4 5.6Q4.1 6.2 3.5 6.5C3.2 6.7 2.7 6.8 2.2 6.8C1.9 6.8 1.7 6.8 1.4 6.7C1.1 6.6 0.9 6.5 0.7 6.3C0.5 6.1 0.3 5.9 0.2 5.7C0.1 5.5 0 5.2 0 4.9C0 4.4 0.1 4 0.4 3.7C0.7 3.4 1 3.1 1.4 3C1.8 2.8 2.2 2.8 2.7 2.7C3.2 2.6 3.6 2.6 4 2.6L4.5 2.6L4.5 2.4C4.5 1.3 4 0.7 2.9 0.7C2.1 0.7 1.5 1 0.9 1.5L0.4 0.9Q1.3 0 3.1 0C3.4 0 3.7 0 4 0.1C4.2 0.2 4.5 0.3 4.7 0.5C4.9 0.7 5.1 0.9 5.2 1.2C5.3 1.5 5.4 1.8 5.4 2.2ZM4.4 4.6C4.5 4.3 4.5 4.1 4.5 3.8L4.6 3.8L4.6 3.3L3.2 3.3C2.8 3.4 2.5 3.4 2.2 3.5C1.9 3.6 1.6 3.7 1.4 3.9C1.2 4.1 1.1 4.4 1.1 4.7C1.1 4.9 1.1 5 1.2 5.2C1.2 5.4 1.4 5.5 1.5 5.6C1.7 5.7 1.8 5.8 2 5.8C2.1 5.9 2.3 5.9 2.5 5.9C2.9 5.9 3.2 5.8 3.4 5.7C3.6 5.6 3.8 5.5 4 5.3C4.2 5.1 4.3 4.9 4.4 4.6Z" transform="translate(57.7 45.2)" id="Shape" fill="#FFFFFF" fill-rule="evenodd" stroke="none" />
        <path d="M0 0L0.900002 0L0.900002 10.3L0 10.3L0 0Z" transform="translate(65.4 41.4)" id="Rectangle" fill="#FFFFFF" stroke="none" />
        <path d="M4.5 0.3C4.9 0.5 5.2 0.7 5.5 1C5.7 1.3 5.9 1.6 6.1 2.1C6.2 2.4 6.3 2.9 6.3 3.3L6.3 3.7L1 3.7C1 4 1.1 4.3 1.2 4.6C1.3 4.9 1.5 5.1 1.7 5.3C1.9 5.5 2.1 5.7 2.4 5.8C2.7 5.9 3 6 3.3 6C3.8 6 4.2 5.9 4.6 5.7C4.9 5.4 5.2 5.2 5.4 4.9L6.1 5.5C5.7 5.9 5.3 6.3 4.8 6.5Q4.05 6.8 3.3 6.8C2.8 6.8 2.4 6.7 2 6.5C1.6 6.3 1.3 6.1 1 5.8C0.7 5.5 0.5 5.1 0.3 4.7C0.1 4.3 0 3.9 0 3.4C0 3 0 2.5 0.2 2.1C0.4 1.7 0.6 1.3 0.9 1C1.2 0.7 1.5 0.5 1.9 0.3C2.3 0.1 2.7 0 3.2 0C3.7 0 4.1 0.1 4.5 0.3ZM0.903828 2.8C0.901327 2.83221 0.9 2.86544 0.9 2.9L0.9 2.8L0.903828 2.8ZM0.903828 2.8L5.1 2.8C5.1 2.2 5 1.7 4.6 1.3Q4.15 0.7 3.1 0.7C2.9 0.7 2.6 0.8 2.3 0.9C2 1.1 1.8 1.2 1.6 1.4C1.4 1.6 1.2 1.9 1.1 2.1C1.01152 2.36544 0.923039 2.5526 0.903828 2.8Z" transform="translate(68.2 45.1)" id="Shape" fill="#FFFFFF" fill-rule="evenodd" stroke="none" />
      </g>
    </g>
    <g id="Group" transform="translate(284 375)">
      <path d="M289.1 48.5L211.2 51.3L156.1 0C130.4 47.6 81.2 80.5 24 83.4L0 153L34.5 223.7C147.9 216.9 244.3 146.9 289.1 48.5Z" transform="translate(0.1 0.6)" id="Path" fill="#E6E6E6" stroke="none" />
      <g id="Group" transform="translate(96 96)">
        <path d="M3.9 7.5L2.3 7.5L2.3 13L0 13L0 0L4.5 0C5.1 0 5.7 0.1 6.3 0.2Q7.05 0.35 7.8 0.8C8.3 1 8.6 1.4 8.9 1.9C9.2 2.4 9.3 3 9.3 3.7C9.3 4.7 9 5.5 8.5 6.1C8 6.8 7.3 7.2 6.3 7.3L9.7 13L6.9 13L3.9 7.5ZM4.2 2L2.1 2L2.1 5.4L4.9 5.4C5.2 5.4 5.5 5.3 5.8 5.2C6.1 5.1 6.3 4.9 6.5 4.7C6.7 4.5 6.8 4.1 6.8 3.7C6.8 3.3 6.8 3 6.6 2.8C6.5 2.6 6.3 2.4 6 2.3C5.7 2.2 5.4 2.1 5.1 2.1C4.8 2 4.5 2 4.2 2Z" transform="translate(19.6 0)" id="Shape" fill="#E8511D" fill-rule="evenodd" stroke="none" />
        <path d="M1.5 11.9C2 12.3 2.5 12.7 3.2 12.9C3.8 13.1 4.5 13.3 5.3 13.3C6 13.3 6.7 13.2 7.4 12.9C8 12.7 8.6 12.3 9.1 11.9C9.6 11.5 9.9 10.9 10.2 10.3C10.5 9.7 10.6 9 10.6 8.2L10.6 0L8.3 0L8.3 8.1C8.3 8.4 8.3 8.8 8.2 9.1C8.1 9.4 7.9 9.8 7.7 10.1C7.5 10.4 7.2 10.6 6.8 10.8C6.4 11 6 11.1 5.4 11.1C4.9 11.1 4.4 11 4 10.8C3.6 10.6 3.3 10.4 3.1 10.1C2.9 9.8 2.7 9.5 2.6 9.1C2.5 8.8 2.5 8.4 2.5 8.1L2.5 0L0 0L0 8.2C0 9 0.1 9.7 0.4 10.3C0.6 10.9 1 11.5 1.5 11.9Z" transform="translate(31 0.1)" id="Path" fill="#E8511D" stroke="none" />
        <path d="M2.3 3L2.3 3L8.8 12.9L11.7 12.9L11.7 0L9.4 0L9.4 9.6L9.3 9.6L3 0L0 0L0 12.9L2.3 12.9L2.3 3Z" transform="translate(44.3 0.1)" id="Path" fill="#E8511D" stroke="none" />
        <path d="M5.4 2.2L5.4 5.1C5.4 5.3 5.4 5.6 5.3 5.9C5.3 6.2 5.4 6.4 5.4 6.6L4.5 6.6C4.4 6.5 4.4 6.3 4.4 6.1L4.4 5.6Q4.1 6.2 3.5 6.5C3.2 6.7 2.7 6.8 2.2 6.8C1.9 6.8 1.7 6.8 1.4 6.7C1.1 6.6 0.9 6.5 0.7 6.3C0.5 6.1 0.3 5.9 0.2 5.7C0.1 5.5 0 5.2 0 4.9C0 4.4 0.1 4 0.4 3.7C0.7 3.4 1 3.1 1.4 3C1.8 2.8 2.2 2.8 2.7 2.7C3.2 2.6 3.6 2.6 4 2.6L4.5 2.6L4.5 2.4C4.5 1.3 4 0.7 2.9 0.7C2.1 0.7 1.5 1 0.9 1.5L0.4 0.9Q1.3 0 3.1 0C3.4 0 3.7 0 4 0.1C4.2 0.2 4.5 0.3 4.7 0.5C4.9 0.7 5.1 0.9 5.2 1.2C5.3 1.5 5.4 1.8 5.4 2.2ZM4.4 4.6C4.5 4.3 4.5 4.1 4.5 3.8L4.6 3.8L4.6 3.3L3.2 3.3C2.8 3.4 2.5 3.4 2.2 3.5C1.9 3.6 1.6 3.7 1.4 3.9C1.2 4.1 1.1 4.4 1.1 4.7C1.1 4.9 1.1 5 1.2 5.2C1.2 5.4 1.4 5.5 1.5 5.6C1.7 5.7 1.8 5.8 2 5.8C2.1 5.9 2.3 5.9 2.5 5.9C2.9 5.9 3.2 5.8 3.4 5.7C3.6 5.6 3.8 5.5 4 5.3C4.2 5.1 4.3 4.9 4.4 4.6Z" transform="translate(0.6 30.2)" id="Shape" fill="#E8511D" fill-rule="evenodd" stroke="none" />
        <path d="M3.1 6.6C3.3 6.5 3.5 6.5 3.7 6.4C3.9 6.3 4.1 6.2 4.2 6C4.4 5.9 4.5 5.7 4.6 5.5L4.6 5.5C4.6 5.7 4.6 5.8 4.6 6C4.6 6.2 4.6 6.3 4.6 6.5L5.5 6.5C5.5 6.3 5.5 6 5.5 5.7C5.5 5.4 5.5 5.2 5.5 5L5.5 0L4.6 0L4.6 3.3C4.6 3.9 4.5 4.3 4.3 4.7C4.1 5 3.9 5.3 3.7 5.4C3.5 5.6 3.2 5.7 3 5.7C2.8 5.7 2.7 5.8 2.6 5.8C2.3 5.8 2 5.8 1.8 5.7C1.6 5.6 1.4 5.5 1.3 5.3C1.2 5.1 1.1 4.9 1 4.6C0.9 4.3 0.9 4 0.9 3.7L0.9 0.2L0 0.2L0 4.3C0 5.1 0.2 5.7 0.6 6.2C1 6.6 1.6 6.9 2.4 6.9C2.7 6.7 2.9 6.7 3.1 6.6Z" transform="translate(8 30.2)" id="Path" fill="#E8511D" stroke="none" />
        <path d="M2.6 8.1C2.8 8.1 3 8.2 3.1 8.2C3.6 8.2 4 8.1 4.3 8L4.3 7.2C4.2 7.3 4 7.3 3.8 7.4C3.6 7.4 3.5 7.5 3.3 7.5C3.2 7.5 3 7.5 2.9 7.5C2.8 7.5 2.7 7.4 2.6 7.3C2.5 7.2 2.5 7.1 2.4 7C2.4 6.8 2.3 6.7 2.3 6.4L2.3 2.6L4.1 2.6L4.1 1.8L2.3 1.8L2.3 0L1.4 0L1.4 1.8L0 1.8L0 2.6L1.4 2.6L1.4 6.6C1.4 7 1.5 7.2 1.6 7.5C1.7 7.7 1.8 7.9 2 8C2.2 8 2.4 8.1 2.6 8.1Z" transform="translate(14.7 28.7)" id="Path" fill="#E8511D" stroke="none" />
        <path d="M4.9 0.3C5.3 0.5 5.7 0.7 6 1C6.3 1.3 6.6 1.7 6.7 2.1C6.9 2.5 7 2.9 7 3.4C7 3.8 6.9 4.3 6.7 4.7C6.5 5.1 6.3 5.5 6 5.8C5.7 6.1 5.3 6.3 4.9 6.5C4.5 6.7 4 6.8 3.5 6.8C3 6.8 2.5 6.7 2.1 6.5C1.7 6.3 1.3 6.1 1 5.8C0.7 5.5 0.5 5.1 0.3 4.7C0.1 4.3 0 3.9 0 3.4C0 3 0.1 2.5 0.3 2.1C0.5 1.7 0.7 1.3 1 1C1.3 0.7 1.7 0.5 2.1 0.3C2.6 0.1 3 0 3.5 0C4 0 4.5 0.1 4.9 0.3ZM5.3 5.2C5.5 5 5.7 4.7 5.8 4.4C6 4.1 6 3.8 6 3.4C6 3 5.9 2.7 5.8 2.4C5.7 2.1 5.5 1.8 5.3 1.6C5 1.4 4.8 1.2 4.5 1.1C4.2 1 3.9 0.9 3.5 0.9C3.1 0.9 2.8 1 2.5 1.1C2.2 1.2 1.9 1.4 1.7 1.6C1.5 1.8 1.3 2.1 1.2 2.4C1.1 2.7 1 3 1 3.4C1 3.8 1.1 4.1 1.2 4.4C1.3 4.7 1.5 5 1.7 5.2C2 5.4 2.2 5.6 2.5 5.7C2.8 5.8 3.1 5.9 3.5 5.9C3.9 5.9 4.2 5.8 4.5 5.7C4.8 5.6 5.1 5.4 5.3 5.2Z" transform="translate(19.7 30.1)" id="Shape" fill="#E8511D" fill-rule="evenodd" stroke="none" />
        <path d="M8.5 1.5C8.7 1.8 8.8 2.3 8.8 3L8.8 6.7L9.7 6.7L9.7 2.6C9.7 1.8 9.5 1.2 9.1 0.7C8.7 0.3 8.1 0 7.3 0C6.9 0 6.5 0.1 6.1 0.4C5.7 0.6 5.4 1 5.2 1.4C5.1 1.1 5 0.9 4.8 0.7C4.6 0.5 4.5 0.4 4.3 0.3C4.1 0.2 3.9 0.1 3.7 0.1C3.5 0.1 3.3 0 3.1 0C2.7 0 2.3 0.1 1.9 0.3C1.5 0.5 1.2 0.8 1 1.1L1 1.1L1 0.1L0 0.1C0 0.3 0 0.6 0 0.8C0 1 0 1.3 0 1.5L0 6.5L0.9 6.5L0.9 3.2C0.9 2.6 1 2.2 1.2 1.8C1.4 1.5 1.6 1.2 1.8 1.1C2 0.9 2.2 0.8 2.4 0.8C2.6 0.8 2.7 0.7 2.8 0.7C3.4 0.7 3.8 0.9 4.1 1.2C4.3 1.5 4.4 2 4.4 2.7L4.4 6.4L5.3 6.4L5.3 3C5.3 2.7 5.3 2.4 5.4 2.1C5.5 1.8 5.6 1.6 5.7 1.4C5.8 1.2 6 1 6.3 0.9C6.5 0.8 6.8 0.7 7.1 0.7C7.9 1 8.3 1.2 8.5 1.5Z" transform="translate(28.1 30)" id="Path" fill="#E8511D" stroke="none" />
        <path d="M4.5 6.1L4.5 5.6C4.2 6 3.9 6.3 3.5 6.5C3.2 6.7 2.7 6.8 2.2 6.8C1.9 6.8 1.7 6.8 1.4 6.7C1.1 6.6 0.9 6.5 0.7 6.3C0.5 6.1 0.3 5.9 0.2 5.7C0.1 5.5 0 5.2 0 4.9C0 4.4 0.1 4 0.4 3.7C0.7 3.4 1 3.1 1.4 3C1.8 2.8 2.2 2.8 2.7 2.7C3.2 2.6 3.6 2.6 4 2.6L4.5 2.6L4.5 2.4C4.5 1.3 4 0.7 2.9 0.7C2.1 0.7 1.5 1 0.9 1.5L0.4 0.9Q1.3 0 3.1 0C3.4 0 3.7 0 4 0.1C4.2 0.2 4.5 0.3 4.7 0.5C4.9 0.7 5.1 0.9 5.2 1.2C5.3 1.5 5.4 1.8 5.4 2.2L5.4 5.9C5.4 6.2 5.5 6.4 5.5 6.6L4.6 6.6C4.5 6.5 4.5 6.3 4.5 6.1ZM4.3 4.7C4.4 4.4 4.4 4.2 4.4 3.9L4.5 3.9L4.5 3.4L3.1 3.4C2.7 3.5 2.4 3.5 2.1 3.6C1.8 3.7 1.5 3.8 1.3 4C1.1 4.2 1 4.5 1 4.8C1 5 1 5.1 1.1 5.3C1.1 5.5 1.3 5.6 1.4 5.7C1.6 5.8 1.7 5.9 1.9 5.9C2 6 2.2 6 2.4 6C2.8 6 3.1 5.9 3.3 5.8C3.5 5.7 3.7 5.6 3.9 5.4C4.1 5.2 4.2 5 4.3 4.7Z" transform="translate(39.7 30.1)" id="Shape" fill="#E8511D" fill-rule="evenodd" stroke="none" />
        <path d="M4.3 8L4.3 7.2C4.2 7.3 4 7.3 3.8 7.4C3.6 7.4 3.5 7.5 3.3 7.5C3.2 7.5 3 7.5 2.9 7.5C2.8 7.5 2.7 7.4 2.6 7.3C2.5 7.2 2.5 7.1 2.4 7C2.4 6.8 2.3 6.7 2.3 6.4L2.3 2.6L4.1 2.6L4.1 1.8L2.3 1.8L2.3 0L1.4 0L1.4 1.8L0 1.8L0 2.6L1.4 2.6L1.4 6.6C1.4 7 1.5 7.2 1.6 7.5C1.7 7.7 1.8 7.9 2 8C2.2 8.1 2.3 8.2 2.5 8.3C2.7 8.3 2.9 8.4 3 8.4C3.5 8.2 3.9 8.1 4.3 8Z" transform="translate(46.2 28.7)" id="Path" fill="#E8511D" stroke="none" />
        <path d="M0 0L0.900002 0L0.900002 6.4L0 6.4L0 0Z" transform="translate(51.9 30.3)" id="Rectangle" fill="#E8511D" stroke="none" />
        <path d="M1.4 0.7C1.4 0.5 1.3 0.4 1.2 0.2C1.1 0.1 0.900001 0 0.700001 0C0.500001 0 0.4 0.1 0.2 0.2C0.1 0.3 0 0.5 0 0.7C0 0.9 0.1 1 0.2 1.2C0.3 1.3 0.500001 1.4 0.700001 1.4C0.900001 1.4 1 1.3 1.2 1.2C1.4 1.1 1.4 0.8 1.4 0.7Z" transform="translate(51.6 27.2)" id="Path" fill="#E8511D" stroke="none" />
        <path d="M6.7 4.7C6.5 5.1 6.3 5.5 6 5.8C5.7 6.1 5.4 6.4 4.9 6.5C4.5 6.7 4 6.8 3.5 6.8C3 6.8 2.5 6.7 2.1 6.5C1.7 6.3 1.3 6.1 1 5.8C0.7 5.5 0.5 5.1 0.3 4.7C0.1 4.3 0 3.9 0 3.4C0 3 0.1 2.5 0.3 2.1C0.5 1.7 0.7 1.3 1 1C1.3 0.7 1.7 0.5 2.1 0.3C2.6 0.1 3 0 3.5 0C4 0 4.5 0.1 4.9 0.3C5.3 0.5 5.7 0.7 6 1C6.3 1.3 6.5 1.7 6.7 2.1C6.9 2.5 7 2.9 7 3.4C7 3.8 6.9 4.3 6.7 4.7ZM2.6 5.8C2.9 5.9 3.2 6 3.6 6C4 6 4.3 5.9 4.6 5.8C4.9 5.7 5.2 5.5 5.4 5.3C5.6 5.1 5.8 4.8 5.9 4.5C6 4.2 6.1 3.9 6.1 3.5C6.1 3.1 6 2.8 5.9 2.5C5.8 2.2 5.6 1.9 5.4 1.7C5.1 1.5 4.9 1.3 4.6 1.2C4.3 1.1 4 1 3.6 1C3.2 1 2.9 1.1 2.6 1.2C2.3 1.3 2 1.5 1.8 1.7C1.6 1.9 1.4 2.2 1.3 2.5C1.2 2.8 1.1 3.1 1.1 3.5C1.1 3.9 1.2 4.2 1.3 4.5C1.4 4.8 1.6 5.1 1.8 5.3C2.1 5.5 2.3 5.7 2.6 5.8Z" transform="translate(54.4 30.1)" id="Shape" fill="#E8511D" fill-rule="evenodd" stroke="none" />
        <path d="M3.1 0C2.9 0 2.7 0 2.5 0.1C2.3 0.2 2.1 0.2 1.9 0.3C1.7 0.4 1.5 0.5 1.4 0.7C1.2 0.8 1.1 1 1 1.2L1 1.2C1 1 1 0.9 1 0.7C1 0.5 1 0.4 1 0.2L0 0.2C0 0.4 0 0.7 0 1C0 1.3 0 1.5 0 1.7L0 6.7L0.9 6.7L0.9 3.4C0.9 2.8 1 2.4 1.2 2C1.4 1.7 1.6 1.4 1.8 1.3C2 1.1 2.3 1 2.5 1C2.7 1 2.8 0.9 2.9 0.9C3.6 0.9 4 1.1 4.3 1.5C4.5 1.9 4.7 2.4 4.7 3.1L4.7 6.6L5.6 6.6L5.6 2.5C5.6 1.7 5.4 1.1 5 0.6C4.6 0.2 3.9 0 3.1 0Z" transform="translate(63 30.2)" id="Path" fill="#E8511D" stroke="none" />
        <path d="M4.4 3.8C4.1 3.5 3.7 3.3 3.3 3.2L2.4 3C2 2.9 1.7 2.8 1.5 2.6C1.3 2.5 1.2 2.2 1.2 1.9C1.2 1.7 1.2 1.6 1.3 1.5C1.4 1.4 1.5 1.3 1.6 1.2C1.7 1.1 1.9 1.1 2 1C2.1 0.9 2.3 0.9 2.5 0.9C2.8 0.9 3.1 1 3.3 1.1C3.5 1.3 3.7 1.5 3.8 1.7L4.6 1.2C4.4 0.8 4.1 0.5 3.7 0.3C3.3 0.1 2.9 0 2.5 0C2.2 0 1.9 0 1.6 0.1C1.3 0.2 1.1 0.3 0.8 0.4C0.6 0.6 0.4 0.8 0.3 1C0.2 1.2 0.1 1.5 0.1 1.9C0.1 2.2 0.2 2.5 0.3 2.7C0.4 2.9 0.6 3.1 0.8 3.2C1 3.3 1.2 3.4 1.3 3.5C1.5 3.6 1.6 3.6 1.7 3.6L2.6 3.8C2.9 3.9 3.2 4 3.5 4.1C3.7 4.2 3.9 4.5 3.9 4.8C3.9 5 3.9 5.1 3.8 5.3C3.7 5.4 3.6 5.5 3.5 5.6C3.4 5.7 3.2 5.8 3 5.8C2.8 5.8 2.6 5.9 2.5 5.9C2.1 5.9 1.8 5.8 1.5 5.6C1.2 5.4 1 5.2 0.8 4.9L0 5.4C0.3 5.9 0.7 6.2 1.1 6.4C1.5 6.6 2 6.7 2.5 6.7C2.8 6.7 3.1 6.7 3.4 6.6C3.7 6.5 4 6.4 4.2 6.3C4.4 6.1 4.6 5.9 4.8 5.7C4.9 5.4 5 5.2 5 4.8C4.9 4.5 4.7 4.1 4.4 3.8Z" transform="translate(70.2 30)" id="Path" fill="#E8511D" stroke="none" />
        <path d="M3.3 3.2L2.4 3C2 2.9 1.7 2.8 1.5 2.6C1.3 2.5 1.2 2.2 1.2 1.9C1.2 1.7 1.2 1.6 1.3 1.5C1.4 1.4 1.5 1.3 1.6 1.2C1.7 1.1 1.9 1.1 2 1C2.2 1 2.3 0.9 2.5 0.9C2.8 0.9 3.1 1 3.3 1.1C3.5 1.3 3.7 1.5 3.8 1.7L4.6 1.2C4.4 0.8 4.1 0.5 3.7 0.3C3.3 0.1 2.9 0 2.5 0C2.2 0 1.9 0 1.6 0.1C1.3 0.2 1.1 0.3 0.8 0.4C0.6 0.6 0.4 0.8 0.3 1C0.2 1.2 0.1 1.5 0.1 1.9C0.1 2.2 0.2 2.5 0.3 2.7C0.4 2.9 0.6 3.1 0.8 3.2C1 3.3 1.2 3.4 1.3 3.5C1.5 3.6 1.6 3.6 1.7 3.6L2.6 3.8C2.9 3.9 3.2 4 3.5 4.1C3.7 4.2 3.9 4.5 3.9 4.8C3.9 5 3.9 5.1 3.8 5.3C3.7 5.4 3.6 5.5 3.5 5.6C3.4 5.7 3.2 5.8 3 5.8C2.8 5.8 2.6 5.9 2.5 5.9C2.1 5.9 1.8 5.8 1.5 5.6C1.2 5.4 1 5.2 0.8 4.9L0 5.4C0.3 5.9 0.7 6.2 1.1 6.4C1.5 6.6 2 6.7 2.5 6.7C2.8 6.7 3.1 6.7 3.4 6.6C3.7 6.5 4 6.4 4.2 6.3C4.4 6.1 4.6 5.9 4.8 5.7C4.9 5.4 5 5.2 5 4.8C5 4.3 4.9 4 4.6 3.7C4.1 3.5 3.8 3.3 3.3 3.2Z" transform="translate(10.4 43.7)" id="Path" fill="#E8511D" stroke="none" />
        <path d="M7.3 1.13687e-13C6.9 1.13687e-13 6.5 0.1 6.1 0.4C5.7 0.6 5.4 1 5.2 1.4C5.1 1.1 5 0.9 4.8 0.7C4.6 0.5 4.5 0.4 4.3 0.3C4.1 0.2 3.9 0.1 3.7 0.1C3.5 0.1 3.3 0 3.1 0C2.7 0 2.3 0.1 1.9 0.3C1.5 0.5 1.2 0.8 1 1.1L1 1.1L1 0.1L0 0.1C0 0.3 0 0.6 0 0.8C0 1 0 1.3 0 1.5L0 6.5L0.9 6.5L0.9 3.2C0.9 2.6 1 2.2 1.2 1.8C1.4 1.5 1.6 1.2 1.8 1.1C2 0.9 2.2 0.8 2.4 0.8C2.6 0.8 2.7 0.7 2.8 0.7C3.4 0.7 3.8 0.9 4.1 1.2C4.3 1.5 4.4 2 4.4 2.7L4.4 6.4L5.3 6.4L5.3 3.2C5.3 2.9 5.3 2.6 5.4 2.3C5.5 2 5.6 1.8 5.7 1.6C5.8 1.4 6 1.2 6.3 1.1C6.5 1 6.8 0.9 7.1 0.9C7.7 0.9 8.1 1.1 8.4 1.4C8.6 1.7 8.7 2.2 8.7 2.9L8.7 6.6L9.6 6.6L9.6 2.5C9.6 1.7 9.4 1.1 9 0.6C8.7 0.3 8.1 1.13687e-13 7.3 1.13687e-13Z" transform="translate(16.5 43.8)" id="Path" fill="#E8511D" stroke="none" />
        <path d="M4.9 0.3C5.3 0.5 5.7 0.7 6 1C6.3 1.3 6.5 1.7 6.7 2.1C6.9 2.5 7 2.9 7 3.4C7 3.8 6.9 4.3 6.7 4.7C6.5 5.1 6.3 5.5 6 5.8C5.7 6.1 5.3 6.3 4.9 6.5C4.5 6.7 4 6.8 3.5 6.8C3 6.8 2.5 6.7 2.1 6.5C1.7 6.3 1.3 6.1 1 5.8C0.7 5.5 0.5 5.1 0.3 4.7C0.1 4.3 0 3.9 0 3.4C0 3 0.1 2.5 0.3 2.1C0.5 1.7 0.7 1.3 1 1C1.3 0.7 1.7 0.5 2.1 0.3C2.6 0.1 3 0 3.5 0C4 0 4.5 0.1 4.9 0.3ZM5.3 5.2C5.5 5 5.7 4.7 5.8 4.4C5.9 4.1 5.9 3.8 6 3.4C6 3 5.9 2.7 5.8 2.4C5.7 2.1 5.5 1.8 5.3 1.6C5 1.4 4.8 1.2 4.5 1.1C4.2 1 3.9 0.9 3.5 0.9C3.1 0.9 2.8 1 2.5 1.1C2.2 1.2 1.9 1.4 1.7 1.6C1.5 1.8 1.3 2.1 1.2 2.4C1.1 2.7 1 3 1 3.4C1 3.8 1.1 4.1 1.2 4.4C1.3 4.7 1.5 5 1.7 5.2C2 5.4 2.2 5.6 2.5 5.7C2.8 5.8 3.1 5.9 3.5 5.9C3.9 5.9 4.2 5.8 4.5 5.7C4.8 5.6 5.1 5.4 5.3 5.2Z" transform="translate(27.9 43.8)" id="Shape" fill="#E8511D" fill-rule="evenodd" stroke="none" />
        <path d="M4.9 0.3C5.3 0.5 5.7 0.7 6 1C6.3 1.3 6.5 1.7 6.7 2.1C6.9 2.5 7 2.9 7 3.4C7 3.8 6.9 4.3 6.7 4.7C6.5 5.1 6.3 5.5 6 5.8C5.7 6.1 5.3 6.3 4.9 6.5C4.5 6.7 4 6.8 3.5 6.8C3 6.8 2.5 6.7 2.1 6.5C1.7 6.3 1.3 6.1 1 5.8C0.7 5.5 0.5 5.1 0.3 4.7C0.1 4.3 0 3.9 0 3.4C0 3 0.1 2.5 0.3 2.1C0.5 1.7 0.7 1.3 1 1C1.3 0.7 1.7 0.5 2.1 0.3C2.6 0.1 3 0 3.5 0C4 0 4.5 0.1 4.9 0.3ZM5.3 5.2C5.5 5 5.7 4.7 5.8 4.4C5.9 4.1 5.9 3.8 6 3.4C6 3 5.9 2.7 5.8 2.4C5.7 2.1 5.5 1.8 5.3 1.6C5 1.4 4.8 1.2 4.5 1.1C4.2 1 3.9 0.9 3.5 0.9C3.1 0.9 2.8 1 2.5 1.1C2.2 1.2 1.9 1.4 1.7 1.6C1.5 1.8 1.3 2.1 1.2 2.4C1.1 2.7 1 3 1 3.4C1 3.8 1.1 4.1 1.2 4.4C1.3 4.7 1.5 5 1.7 5.2C2 5.4 2.2 5.6 2.5 5.7C2.8 5.8 3.1 5.9 3.5 5.9C3.9 5.9 4.2 5.8 4.5 5.7C4.8 5.6 5.1 5.4 5.3 5.2Z" transform="translate(36 43.8)" id="Shape" fill="#E8511D" fill-rule="evenodd" stroke="none" />
        <path d="M3.7 7.5C3.5 7.5 3.4 7.6 3.2 7.6C3.1 7.6 2.9 7.6 2.8 7.6C2.7 7.6 2.6 7.5 2.5 7.4C2.4 7.3 2.4 7.2 2.3 7.1C2.3 6.9 2.2 6.8 2.2 6.5L2.2 2.7L4 2.7L4 1.8L2.3 1.8L2.3 0L1.4 0L1.4 1.8L0 1.8L0 2.6L1.4 2.6L1.4 6.6C1.4 7 1.5 7.2 1.6 7.5C1.7 7.7 1.8 7.9 2 8C2.2 8.1 2.3 8.2 2.5 8.3C2.7 8.3 2.9 8.4 3 8.4C3.5 8.4 3.9 8.3 4.2 8.2L4.2 7.4C4.1 7.4 3.9 7.4 3.7 7.5Z" transform="translate(43.7 42.2)" id="Path" fill="#E8511D" stroke="none" />
        <path d="M3 3.8C2.8 3.8 2.6 3.8 2.4 3.9C2.2 4 2 4 1.8 4.1C1.6 4.2 1.4 4.3 1.3 4.5C1.1 4.6 1 4.8 0.9 5L0.9 5L0.9 0L0 0L0 10.3L0.9 10.3L0.9 7C0.9 6.4 1 6 1.2 5.6C1.4 5.3 1.6 5 1.8 4.9C2 4.7 2.3 4.6 2.5 4.6C2.7 4.6 2.8 4.5 2.9 4.5C3.6 4.5 4 4.7 4.3 5.1C4.5 5.5 4.7 6 4.7 6.7L4.7 10.2L5.6 10.2L5.6 6.1C5.6 5.3 5.4 4.7 5 4.2C4.4 4.1 3.8 3.8 3 3.8Z" transform="translate(49.2 40)" id="Path" fill="#E8511D" stroke="none" />
        <path d="M0 0L0.900002 0L0.900002 10.3L0 10.3L0 0Z" transform="translate(56.9 40.1)" id="Rectangle" fill="#E8511D" stroke="none" />
        <path d="M3.1 5.4L1.1 0.1L0 0.1L2.6 6.6L2.1 7.8C2 8.2 1.8 8.4 1.6 8.6C1.4 8.8 1.2 8.9 0.800001 8.9C0.5 8.9 0.3 8.8 0.1 8.7L0 9.6C0.1 9.6 0.3 9.7 0.4 9.7C0.5 9.7 0.7 9.7 0.800001 9.7C1.4 9.7 1.8 9.6 2.1 9.3C2.4 9 2.6 8.6 2.8 8.1L6 0L4.9 0L3.1 5.4Z" transform="translate(59.3 43.9)" id="Path" fill="#E8511D" stroke="none" />
      </g>
    </g>
    <g id="Group" transform="translate(62 395)">
      <path d="M225.2 63C178.3 59.4 137.1 35.5 110.4 0L39.3 19.1L0 87.3C54.3 157.7 139.2 203.3 234.8 204.2L200.7 134.2L225.2 63Z" transform="translate(0.4 0.8)" id="Path" fill="#E8511D" stroke="none" />
      <g id="Group" transform="translate(87 76)">
        <path d="M9 10.9L2.3 10.9L2.3 7.4L8.3 7.4L8.3 5.3L2.3 5.3L2.3 2.1L8.6 2.1L8.6 0L0 0L0 13L9 13L9 10.9Z" transform="translate(0.8 0.4)" id="Path" fill="#FFFFFF" stroke="none" />
        <path d="M11.7 13L11.7 0L9.4 0L9.4 9.6L9.4 9.6L3.1 0L0 0L0 13L2.4 13L2.4 3L2.4 3L8.8 13L11.7 13Z" transform="translate(12 0.4)" id="Path" fill="#FFFFFF" stroke="none" />
        <path d="M12.3 5.8L7.3 5.8L7.3 7.9L10 7.9L10 11C9.6 11.2 9.1 11.4 8.6 11.5C8.1 11.6 7.5 11.7 6.9 11.7C6.2 11.7 5.6 11.6 5.1 11.3C4.6 11.1 4.1 10.7 3.7 10.3C3.3 9.9 3 9.4 2.8 8.8C2.6 8.2 2.5 7.6 2.5 6.9C2.5 6.3 2.6 5.6 2.8 5.1C3 4.5 3.3 4 3.7 3.6C4.1 3.2 4.6 2.8 5.1 2.6C5.6 2.4 6.3 2.2 6.9 2.2C7.6 2.2 8.2 2.3 8.8 2.5C9.4 2.7 9.9 3 10.3 3.4L12 1.7C11.3 1.1 10.5 0.7 9.7 0.4C8.8 0.2 7.9 0 6.9 0C5.9 0 5 0.2 4.1 0.5C3.3 0.8 2.5 1.3 1.9 1.9C1.3 2.5 0.8 3.2 0.5 4.1C0.2 4.9 0 5.9 0 6.9C0 7.9 0.2 8.8 0.5 9.7C0.8 10.5 1.3 11.2 1.9 11.8C2.5 12.4 3.2 12.9 4.1 13.2C4.9 13.5 5.9 13.7 6.9 13.7C8.9 13.7 10.7 13.3 12.3 12.4L12.3 5.8L12.3 5.8Z" transform="translate(25.9 1.136868E-13)" id="Path" fill="#FFFFFF" stroke="none" />
        <path d="M9.4 10L3.8 10L2.6 13L0 13L5.6 0L7.6 0L13.2 13L10.6 13L9.4 10ZM8.6 8L6.6 2.7L4.6 8L8.6 8Z" transform="translate(39.4 0.4)" id="Shape" fill="#FFFFFF" fill-rule="evenodd" stroke="none" />
        <path d="M4.1 13.2C4.9 13.5 5.9 13.7 6.9 13.7C8.9 13.7 10.7 13.3 12.3 12.4L12.3 5.8L7.3 5.8L7.3 7.9L10 7.9L10 11C9.6 11.2 9.1 11.4 8.6 11.5C8.1 11.6 7.5 11.7 6.9 11.7C6.2 11.7 5.6 11.6 5.1 11.3C4.6 11.1 4.1 10.7 3.7 10.3C3.3 9.9 3 9.4 2.8 8.8C2.6 8.2 2.5 7.6 2.5 6.9C2.5 6.3 2.6 5.6 2.8 5.1C3 4.5 3.3 4 3.7 3.6C4.1 3.2 4.6 2.8 5.1 2.6C5.6 2.4 6.3 2.2 6.9 2.2C7.6 2.2 8.2 2.3 8.8 2.5C9.4 2.7 9.9 3 10.3 3.4L12 1.7C11.3 1.1 10.5 0.7 9.7 0.4C8.8 0.2 7.9 0 6.9 0C5.9 0 5 0.2 4.1 0.5C3.3 0.8 2.5 1.3 1.9 1.9C1.3 2.5 0.8 3.2 0.5 4.1C0.2 4.9 0 5.9 0 6.9C0 7.9 0.2 8.8 0.5 9.7C0.8 10.5 1.3 11.2 1.9 11.8C2.5 12.4 3.2 12.9 4.1 13.2Z" transform="translate(53.5 5.684342E-14)" id="Path" fill="#FFFFFF" stroke="none" />
        <path d="M2.3 10.9L2.3 7.4L8.3 7.4L8.3 5.3L2.3 5.3L2.3 2.1L8.6 2.1L8.6 0L0 0L0 13L8.9 13L8.9 10.9L2.3 10.9Z" transform="translate(68.4 0.4)" id="Path" fill="#FFFFFF" stroke="none" />
        <path d="M6.9 5.3L6.9 5.3L5.2 0L4.3 0L2.6 5.3L2.5 5.3L1 0L0 0L2 6.5L3 6.5L4.7 1.2L4.7 1.2L6.4 6.5L7.5 6.5L9.5 0L8.4 0L6.9 5.3Z" transform="translate(4.8 30.6)" id="Path" fill="#FFFFFF" stroke="none" />
        <path d="M0.7 0C0.5 0 0.4 0.1 0.2 0.2C0.1 0.3 0 0.5 0 0.7C0 0.9 0.1 1 0.2 1.2C0.3 1.3 0.5 1.4 0.7 1.4C0.9 1.4 1 1.3 1.2 1.2C1.3 1.1 1.4 0.9 1.4 0.7C1.4 0.5 1.3 0.4 1.2 0.2C1 0.1 0.9 0 0.7 0Z" transform="translate(15.4 27.5)" id="Path" fill="#FFFFFF" stroke="none" />
        <path d="M0 0L0.900001 0L0.900001 6.4L0 6.4L0 0Z" transform="translate(15.7 30.6)" id="Rectangle" fill="#FFFFFF" stroke="none" />
        <path d="M3.8 7.4C3.6 7.4 3.5 7.5 3.3 7.5C3.2 7.5 3 7.5 2.9 7.5C2.8 7.5 2.7 7.4 2.6 7.3C2.5 7.2 2.5 7.1 2.4 7C2.4 6.8 2.3 6.7 2.3 6.4L2.3 2.6L4.1 2.6L4.1 1.8L2.3 1.8L2.3 0L1.4 0L1.4 1.8L0 1.8L0 2.6L1.4 2.6L1.4 6.6C1.4 7 1.5 7.2 1.6 7.5C1.7 7.7 1.8 7.9 2 8C2.2 8.1 2.3 8.2 2.5 8.3C2.7 8.3 2.9 8.4 3 8.4C3.5 8.4 3.9 8.3 4.2 8.2L4.2 7.4C4.1 7.3 4 7.4 3.8 7.4Z" transform="translate(17.8 28.9)" id="Path" fill="#FFFFFF" stroke="none" />
        <path d="M3 3.8C2.8 3.8 2.6 3.8 2.4 3.9C2.2 4 2 4 1.8 4.1C1.6 4.2 1.4 4.3 1.3 4.5C1.1 4.6 1 4.8 0.9 5L0.9 5L0.9 0L0 0L0 10.3L0.9 10.3L0.9 7C0.9 6.4 1 6 1.2 5.6C1.4 5.3 1.6 5 1.8 4.9C2 4.7 2.3 4.6 2.5 4.6C2.7 4.6 2.8 4.5 2.9 4.5C3.6 4.5 4 4.7 4.3 5.1C4.5 5.5 4.7 6 4.7 6.7L4.7 10.2L5.6 10.2L5.6 6.3C5.6 5.5 5.4 4.9 5 4.4C4.4 4 3.8 3.8 3 3.8Z" transform="translate(23.4 26.7)" id="Path" fill="#FFFFFF" stroke="none" />
        <path d="M2.2 0.2C2 0.3 1.8 0.4 1.6 0.5C1.4 0.6 1.3 0.8 1.2 0.9C1.1 1.1 1 1.2 0.9 1.4L0.9 1.4L0.9 0.2L0 0.2C0 0.7 0 1 0 1.3C0 1.6 0 1.9 0 2.2L0 6.6L0.9 6.6L0.9 3C0.9 2.8 0.9 2.6 1 2.3C1.1 2.1 1.2 1.8 1.4 1.6C1.6 1.4 1.8 1.2 2 1.1C2.2 1 2.5 0.9 2.9 0.9C3.1 0.9 3.3 0.9 3.4 1L3.6 0.1C3.4 0 3.2 0 2.9 0C2.7 0.1 2.5 0.1 2.2 0.2Z" transform="translate(34.7 30.4)" id="Path" fill="#FFFFFF" stroke="none" />
        <path d="M4.9 0.3C5.3 0.5 5.7 0.7 6 1C6.3 1.3 6.5 1.7 6.7 2.1C6.9 2.5 7 2.9 7 3.4C7 3.8 6.9 4.3 6.7 4.7C6.5 5.1 6.3 5.5 6 5.8C5.7 6.1 5.3 6.3 4.9 6.5C4.5 6.7 4 6.8 3.5 6.8C3 6.8 2.5 6.7 2.1 6.5C1.7 6.3 1.3 6.1 1 5.8C0.7 5.5 0.5 5.1 0.3 4.7C0.1 4.3 0 3.9 0 3.4C0 3 0.1 2.5 0.3 2.1C0.5 1.7 0.7 1.3 1 1C1.3 0.7 1.7 0.5 2.1 0.3C2.6 0.1 3 0 3.5 0C4 0 4.5 0.1 4.9 0.3ZM5.3 5.3C5.5 5.1 5.7 4.8 5.8 4.5C5.9 4.1 6 3.8 6 3.5C6 3.1 5.9 2.8 5.8 2.5C5.7 2.2 5.5 1.9 5.3 1.7C5 1.5 4.8 1.3 4.5 1.2C4.2 1.1 3.9 1 3.5 1C3.1 1 2.8 1.1 2.5 1.2C2.2 1.3 1.9 1.5 1.7 1.7C1.5 1.9 1.3 2.2 1.2 2.5C1.1 2.8 1 3.1 1 3.5C1 3.9 1.1 4.2 1.2 4.5C1.3 4.8 1.5 5.1 1.7 5.3C2 5.5 2.2 5.7 2.5 5.8C2.8 5.9 3.1 6 3.5 6C3.9 6 4.2 5.9 4.5 5.8C4.8 5.7 5.1 5.5 5.3 5.3Z" transform="translate(38.5 30.4)" id="Shape" fill="#FFFFFF" fill-rule="evenodd" stroke="none" />
        <path d="M4.8 4C5.2 4.2 5.6 4.4 5.9 4.7C6.2 5 6.4 5.4 6.6 5.9C6.8 6.3 6.9 6.7 6.9 7.2C6.9 7.6 6.8 8.1 6.6 8.5C6.4 8.9 6.2 9.3 5.9 9.6C5.6 9.9 5.2 10.1 4.8 10.3C4.4 10.5 3.9 10.6 3.4 10.6C3.2 10.6 2.9 10.5 2.7 10.5C2.4 10.5 2.2 10.4 2 10.3C1.8 10.2 1.6 10.1 1.4 9.9C1.2 9.7 1 9.5 0.9 9.3L0.9 10.3L0 10.3L0 0L0.9 0L0.9 5C1 4.7 1.2 4.6 1.4 4.4C1.6 4.2 1.8 4.1 2 4C2.2 3.9 2.5 3.8 2.7 3.8C3 3.7 3.2 3.7 3.4 3.7C3.9 3.7 4.4 3.8 4.8 4ZM5.2 9C5.4 8.8 5.6 8.5 5.7 8.2C5.8 7.8 5.9 7.5 5.9 7.2C5.9 6.8 5.8 6.5 5.7 6.2C5.6 5.9 5.5 5.6 5.2 5.4C4.9 5.2 4.7 5 4.4 4.9C4.1 4.8 3.8 4.7 3.4 4.7C3.1 4.7 2.7 4.8 2.4 4.9C2.1 5 1.8 5.2 1.6 5.4C1.4 5.6 1.2 5.9 1.1 6.2C1 6.5 0.9 6.8 0.9 7.2C0.9 7.6 1 7.9 1.1 8.2C1.2 8.5 1.4 8.8 1.6 9C1.8 9.2 2.1 9.4 2.4 9.5C2.7 9.6 3 9.7 3.4 9.7C3.8 9.7 4.1 9.6 4.4 9.5C4.7 9.4 5 9.2 5.2 9Z" transform="translate(47.1 26.7)" id="Shape" fill="#FFFFFF" fill-rule="evenodd" stroke="none" />
        <path d="M4.9 0.3C5.3 0.5 5.7 0.7 6 1C6.3 1.3 6.5 1.7 6.7 2.1C6.9 2.5 7 2.9 7 3.4C7 3.8 6.9 4.3 6.7 4.7C6.5 5.1 6.3 5.5 6 5.8C5.7 6.1 5.3 6.3 4.9 6.5C4.5 6.7 4 6.8 3.5 6.8C3 6.8 2.5 6.7 2.1 6.5C1.7 6.3 1.3 6.1 1 5.8C0.7 5.5 0.5 5.1 0.3 4.7C0.1 4.3 0 3.9 0 3.4C0 3 0.1 2.5 0.3 2.1C0.5 1.7 0.7 1.3 1 1C1.3 0.7 1.7 0.5 2.1 0.3C2.6 0.1 3 0 3.5 0C4 0 4.5 0.1 4.9 0.3ZM5.3 5.3C5.5 5.1 5.7 4.8 5.8 4.5C5.9 4.1 6 3.8 6 3.5C6 3.1 5.9 2.8 5.8 2.5C5.7 2.2 5.5 1.9 5.3 1.7C5 1.5 4.8 1.3 4.5 1.2C4.2 1.1 3.9 1 3.5 1C3.1 1 2.8 1.1 2.5 1.2C2.2 1.3 1.9 1.5 1.7 1.7C1.5 1.9 1.3 2.2 1.2 2.5C1.1 2.8 1 3.1 1 3.5C1 3.9 1.1 4.2 1.2 4.5C1.3 4.8 1.5 5.1 1.7 5.3C2 5.5 2.2 5.7 2.5 5.8C2.8 5.9 3.1 6 3.5 6C3.9 6 4.2 5.9 4.5 5.8C4.8 5.7 5.1 5.5 5.3 5.3Z" transform="translate(55 30.4)" id="Shape" fill="#FFFFFF" fill-rule="evenodd" stroke="none" />
        <path d="M3.8 7.4C3.6 7.4 3.5 7.5 3.3 7.5C3.2 7.5 3 7.5 2.9 7.5C2.8 7.5 2.7 7.4 2.6 7.3C2.5 7.2 2.5 7.1 2.4 7C2.4 6.8 2.3 6.7 2.3 6.4L2.3 2.6L4.1 2.6L4.1 1.8L2.3 1.8L2.3 0L1.4 0L1.4 1.8L0 1.8L0 2.6L1.4 2.6L1.4 6.6C1.4 7 1.5 7.2 1.6 7.5C1.7 7.7 1.8 7.9 2 8C2.2 8.1 2.3 8.2 2.5 8.3C2.7 8.3 2.9 8.4 3 8.4C3.5 8.4 3.9 8.3 4.2 8.2L4.2 7.4C4.1 7.3 3.9 7.4 3.8 7.4Z" transform="translate(62.7 28.9)" id="Path" fill="#FFFFFF" stroke="none" />
        <path d="M3.3 3.2L2.4 3C2 2.9 1.7 2.8 1.5 2.6C1.3 2.4 1.2 2.2 1.2 1.9C1.2 1.7 1.2 1.6 1.3 1.5C1.4 1.4 1.5 1.3 1.6 1.2C1.7 1.1 1.9 1.1 2 1C2.2 1 2.3 0.9 2.5 0.9C2.8 0.9 3.1 1 3.3 1.1C3.5 1.3 3.7 1.5 3.8 1.7L4.6 1.2C4.4 0.8 4.1 0.5 3.7 0.3C3.3 0.1 2.9 0 2.5 0C2.2 0 1.9 0 1.6 0.1C1.3 0.2 1.1 0.3 0.8 0.4C0.6 0.6 0.4 0.8 0.3 1C0.2 1.2 0.1 1.5 0.1 1.9C0.1 2.2 0.2 2.5 0.3 2.7C0.4 2.9 0.6 3.1 0.8 3.2C1 3.3 1.2 3.4 1.3 3.5C1.5 3.6 1.6 3.6 1.7 3.6L2.6 3.8C2.9 3.9 3.2 4 3.5 4.1C3.7 4.2 3.9 4.5 3.9 4.8C3.9 5 3.9 5.1 3.8 5.3C3.7 5.4 3.6 5.5 3.5 5.6C3.4 5.7 3.2 5.8 3 5.8C2.8 5.8 2.6 5.9 2.5 5.9C2.1 5.9 1.8 5.8 1.5 5.6C1.2 5.4 1 5.2 0.8 4.9L0 5.4C0.3 5.9 0.7 6.2 1.1 6.4C1.5 6.6 2 6.7 2.5 6.7C2.8 6.7 3.1 6.7 3.4 6.6C3.7 6.5 4 6.4 4.2 6.3C4.4 6.1 4.6 5.9 4.8 5.7C5 5.5 5 5.2 5 4.8C5 4.3 4.9 4 4.6 3.7C4.3 3.4 3.7 3.3 3.3 3.2Z" transform="translate(67.7 30.3)" id="Path" fill="#FFFFFF" stroke="none" />
      </g>
    </g>
    <g id="Group" transform="translate(0 192)">
      <path d="M161.5 185.8C148.3 162.6 140.7 135.7 140.7 107.1C140.7 87 144.4 67.8 151.2 50.1L97.3 0L18.6 2.9C6.6 35.3 0 70.4 0 107.1C0 168.4 18.4 225.4 49.9 272.8L88.8 205.3L161.5 185.8Z" transform="translate(0 0.9)" id="Path" fill="#E6E6E6" stroke="none" />
      <g id="Group" transform="translate(26 80)">
        <path d="M7 9.1L3.5 0L0 0L0 13L2.2 13L2.2 2.2L2.2 2.2L6.2 13L7.8 13L11.7 2.2L11.8 2.2L11.8 13L14 13L14 0L10.5 0L7 9.1Z" transform="translate(0.8 1.3)" id="Path" fill="#E8511D" stroke="none" />
        <path d="M2.3 7.4L8.3 7.4L8.3 5.3L2.3 5.3L2.3 2.1L8.6 2.1L8.6 0L0 0L0 13L8.9 13L8.9 10.9L2.3 10.9L2.3 7.4Z" transform="translate(17.7 1.3)" id="Path" fill="#E8511D" stroke="none" />
        <path d="M13.2 13L10.6 13L9.4 10L3.8 10L2.6 13L0 13L5.6 0L7.6 0L13.2 13ZM6.5 2.8L4.5 8.1L8.5 8.1L6.5 2.8Z" transform="translate(27.5 1.3)" id="Shape" fill="#E8511D" fill-rule="evenodd" stroke="none" />
        <path d="M5.8 11.3C5.6 11.4 5.3 11.6 5.1 11.6C4.9 11.6 4.6 11.7 4.3 11.7C3.8 11.7 3.3 11.6 2.8 11.3C2.3 11.1 2 10.7 1.7 10.3L0 12C0.5 12.6 1.2 13.1 1.9 13.4C2.6 13.7 3.4 13.8 4.2 13.8C4.8 13.8 5.4 13.7 6 13.5C6.6 13.3 7.1 13.1 7.5 12.7C7.9 12.4 8.3 11.9 8.5 11.4C8.8 10.9 8.9 10.3 8.9 9.6C8.9 8.8 8.7 8.2 8.4 7.7C8.1 7.2 7.7 6.9 7.3 6.6C6.8 6.3 6.4 6.1 5.8 5.9C5.3 5.7 4.8 5.6 4.3 5.4C3.8 5.2 3.5 5 3.2 4.8C2.9 4.6 2.7 4.2 2.7 3.8C2.7 3.5 2.8 3.3 2.9 3C3 2.8 3.2 2.6 3.4 2.5C3.6 2.4 3.8 2.3 4.1 2.2C4.3 2.1 4.6 2.1 4.9 2.1C5.4 2.1 5.8 2.2 6.2 2.3C6.6 2.5 6.9 2.7 7.2 3.1L8.9 1.3C8.4 0.8 7.8 0.5 7.2 0.3C6.6 0.1 5.9 0 5.2 0C4.6 0 4 0.1 3.4 0.2C2.8 0.3 2.3 0.6 1.9 0.9C1.5 1.2 1.1 1.6 0.8 2.1C0.5 2.6 0.4 3.2 0.4 3.8C0.4 4.6 0.6 5.2 0.9 5.6C1.2 6.1 1.6 6.4 2 6.7C2.5 7 2.9 7.2 3.5 7.4C4 7.6 4.5 7.7 5 7.9C5.5 8.1 5.8 8.3 6.1 8.6C6.4 8.9 6.6 9.2 6.6 9.7C6.6 10 6.5 10.3 6.4 10.5C6.2 11 6.1 11.2 5.8 11.3Z" transform="translate(41.3 0.8)" id="Path" fill="#E8511D" stroke="none" />
        <path d="M8.1 8.1C8.1 8.4 8.1 8.8 8 9.1C7.9 9.4 7.7 9.8 7.5 10.1C7.3 10.4 7 10.6 6.6 10.8C6.2 11 5.8 11.1 5.2 11.1C4.6 11.1 4.2 11 3.8 10.8C3.4 10.6 3.1 10.4 2.9 10.1C2.7 9.8 2.5 9.5 2.4 9.1C2.3 8.8 2.3 8.4 2.3 8.1L2.3 0L0 0L0 8.2C0 9 0.1 9.7 0.4 10.3C0.7 10.9 1 11.5 1.5 11.9C2 12.3 2.5 12.7 3.2 12.9C3.8 13.1 4.5 13.3 5.3 13.3C6.1 13.3 6.7 13.2 7.4 12.9C8 12.7 8.6 12.3 9.1 11.9C9.6 11.5 9.9 10.9 10.2 10.3C10.5 9.7 10.6 9 10.6 8.2L10.6 0L8.3 0L8.3 8.1L8.1 8.1Z" transform="translate(52.7 1.4)" id="Path" fill="#E8511D" stroke="none" />
        <path d="M9.3 3.7C9.3 4.7 9 5.5 8.5 6.1C8 6.8 7.2 7.2 6.4 7.3L9.8 13L7 13L4 7.5L2.3 7.5L2.3 13L0 13L0 0L4.5 0C5.1 0 5.7 0.1 6.3 0.2Q7.05 0.35 7.8 0.8C8.3 1 8.6 1.4 8.9 1.9C9.2 2.4 9.3 3 9.3 3.7ZM4 5.5L5 5.5C5.4 5.5 5.7 5.4 5.8 5.2C6.1 5.1 6.3 4.9 6.5 4.7C6.7 4.5 6.8 4.1 6.8 3.7C6.8 3.3 6.8 3 6.6 2.8C6.5 2.6 6.3 2.4 6 2.3C5.7 2.2 5.4 2.1 5.1 2.1C4.8 2 4.5 2 4.2 2L2.2 2L2.2 5.5L4 5.5Z" transform="translate(66 1.3)" id="Shape" fill="#E8511D" fill-rule="evenodd" stroke="none" />
        <path d="M2.3 10.9L2.3 7.4L8.3 7.4L8.3 5.3L2.3 5.3L2.3 2.1L8.6 2.1L8.6 0L0 0L0 13L8.9 13L8.9 10.9L2.3 10.9Z" transform="translate(77.5 1.3)" id="Path" fill="#E8511D" stroke="none" />
        <path d="M6.2 2.5C6.2 3.2 6 3.7 5.6 4.2C5.2 4.7 4.6 4.9 3.7 5.1L6.5 9.7L5.3 9.7L2.6 5.2L1 5.2L1 9.7L0 9.7L0 0L3 0C4 0 4.7 0.2 5.3 0.6C5.9 1 6.2 1.6 6.2 2.5ZM1.1 0.8L1.1 4.2L2.9 4.2C3.3 4.2 3.7 4.2 4 4.1C4.3 4 4.5 3.9 4.7 3.7C4.9 3.6 5 3.4 5.1 3.2C5.2 3 5.2 2.7 5.2 2.5C5.2 2.2 5.2 2 5.1 1.8C5 1.6 4.9 1.5 4.7 1.3C4.5 1.1 4.3 1 4 0.9C3.7 0.8 3.3 0.8 2.9 0.8L1.1 0.8Z" transform="translate(32.9 28.4)" id="Shape" fill="#E8511D" fill-rule="evenodd" stroke="none" />
        <path d="M7.1 0.4C7.7 0.7 8.2 1 8.7 1.5C9.2 2 9.5 2.5 9.8 3.1C10.1 3.7 10.2 4.4 10.2 5.1C10.2 5.8 10.1 6.5 9.8 7.1C9.5 7.7 9.2 8.2 8.7 8.7C8.3 9.2 7.7 9.5 7.1 9.8C6.5 10.1 5.8 10.2 5.1 10.2C4.4 10.2 3.7 10.1 3.1 9.8C2.5 9.5 2 9.2 1.5 8.7C1 8.3 0.7 7.7 0.4 7.1C0.1 6.5 0 5.8 0 5.1C0 4.4 0.1 3.7 0.4 3.1C0.7 2.5 1 2 1.5 1.5C2 1 2.5 0.7 3.1 0.4C3.7 0.1 4.4 0 5.1 0C5.8 0 6.5 0.1 7.1 0.4ZM8 8.1C8.4 7.8 8.6 7.3 8.8 6.8C9 6.3 9.1 5.7 9.1 5.2C9.1 4.6 9 4.1 8.8 3.6C8.6 3.1 8.3 2.7 8 2.3C7.6 1.9 7.2 1.6 6.7 1.4C6.2 1.2 5.6 1.1 5 1.1C4.3 1.1 3.8 1.2 3.3 1.4C2.8 1.6 2.3 1.9 2 2.3C1.6 2.6 1.4 3.1 1.2 3.6C1 4.1 0.9 4.6 0.9 5.2C0.9 5.8 1 6.3 1.2 6.8C1.4 7.3 1.7 7.7 2 8.1C2.4 8.5 2.8 8.8 3.3 9C3.8 9.2 4.4 9.3 5 9.3C5.7 9.3 6.2 9.2 6.7 9C7.2 8.8 7.7 8.5 8 8.1Z" transform="translate(40.4 28)" id="Shape" fill="#E8511D" fill-rule="evenodd" stroke="none" />
        <path d="M0 0L1 0L1 9.7L0 9.7L0 0Z" transform="translate(52.5 28.3)" id="Rectangle" fill="#E8511D" stroke="none" />
      </g>
    </g>
  </g>
</svg>