<?xml version="1.0" encoding="utf-8"?><svg id="normativa" image-rendering="optimizeQuality" baseProfile="basic" version="1.1" x="0px" y="0px" width="50" height="50" xmlns="http://www.w3.org/2000/svg" xmlns:xlink="http://www.w3.org/1999/xlink"><g id="Escena-1" overflow="visible"><g id="Interpolaci.__C3.__B3n-5" transform="translate(24.95 18.65)"><animateTransform attributeName="transform" additive="replace" type="translate" repeatCount="indefinite" dur="7s" keyTimes="0;1" values="24.95,18.65;24.95,18.65"/><animateTransform attributeName="transform" additive="sum" type="rotate" repeatCount="indefinite" dur="7s" keyTimes="0;.995;1" values="0,0,0;360,0,0;360,0,0"/><path fill="#FFF" stroke="none" d="M9.3 -9.2Q5.45 -13.05 .05 -13.05 -5.35 -13.05 -9.2 -9.2 -13.05 -5.4 -13.05 .05 -13.05 5.45 -9.2 9.3 -5.35 13.1 .05 13.1 5.45 13.1 9.3 9.3 13.1 5.45 13.1 .05 13.1 -5.4 9.3 -9.2M.05 -11.6Q4.85 -11.6 8.25 -8.15 11.65 -4.75 11.65 .05 11.65 4.85 8.25 8.25 4.85 11.65 .05 11.65 -4.75 11.65 -8.15 8.25 -11.55 4.85 -11.55 .05 -11.55 -4.75 -8.15 -8.15 -4.75 -11.6 .05 -11.6M1 -8.75Q.85 -9.45 .05 -9.45 -.7 -9.45 -.95 -8.75L-2.65 -3.55 -8.1 -3.55Q-8.85 -3.55 -9.05 -2.85 -9.3 -2.1 -8.7 -1.7L-4.3 1.5 -5.95 6.7Q-6.2 7.45 -5.6 7.85 -5 8.3 -4.4 7.85L.05 4.65 4.45 7.85Q4.7 8.05 5.05 8.05 5.45 8.05 5.65 7.85 6.2 7.45 6.05 6.7L4.35 1.5 8.75 -1.7Q9.4 -2.1 9.15 -2.85 8.9 -3.55 8.15 -3.55L2.7 -3.55 1 -8.75M1.4 -2.8Q1.65 -2.1 2.4 -2.1L6.8 -2.1 3.25 .5Q2.6 1 2.85 1.65L4.25 5.9 .65 3.3Q.4 3.1 .05 3.1 -.35 3.1 -.55 3.3L-4.15 5.9 -2.8 1.65Q-2.55 1 -3.15 .5L-6.75 -2.1 -2.3 -2.1Q-1.5 -2.1 -1.35 -2.8L.05 -7 1.4 -2.8Z"/></g><g id="Interpolaci.__C3.__B3n-4" transform="translate(25 25)"><path fill="#FFF" stroke="none" d="M13.6 -18.8Q13.4 -19.95 12.5 -20.65 11.65 -21.4 10.5 -21.5L8.75 -21.65Q8 -21.65 7.4 -22.35L6.35 -23.7Q5.65 -24.6 4.5 -24.85 3.4 -25.15 2.35 -24.7L.75 -24Q0 -23.6 -.8 -24L-2.4 -24.7Q-3.4 -25.15 -4.5 -24.85 -5.65 -24.6 -6.35 -23.7L-7.45 -22.35Q-7.95 -21.65 -8.8 -21.65L-10.55 -21.5Q-11.65 -21.4 -12.5 -20.65 -13.35 -19.9 -13.6 -18.8L-13.95 -17.1Q-14.1 -16.25 -14.8 -15.85L-16.3 -14.9Q-17.3 -14.3 -17.7 -13.25 -18.1 -12.2 -17.75 -11.1L-17.25 -9.4Q-17 -8.6 -17.4 -7.9L-18.3 -6.4Q-18.9 -5.4 -18.75 -4.25 -18.6 -3.1 -17.8 -2.3L-16.6 -1.1Q-15.95 -.45 -16.05 .35L-16.15 2.1Q-16.2 3.25 -15.55 4.15 -14.9 5.1 -13.8 5.45L-12.6 5.85 -19.5 17.9Q-19.75 18.5 -19.45 19.1 -19.1 19.7 -18.4 19.6L-12.7 19.3 -10 24.4Q-9.7 25 -9 25 -8.3 25 -8 24.45L-1 12.2Q-.55 12.35 0 12.35L1 12.2 7.95 24.45Q8.25 25 8.95 25L9 25Q9.7 25 10 24.4L12.65 19.3 18.4 19.6Q19.05 19.7 19.45 19.1 19.75 18.45 19.45 17.9L12.6 5.85 13.8 5.45Q14.9 5.1 15.55 4.15 16.2 3.25 16.1 2.1L16 .35Q16 -.45 16.55 -1.1L17.8 -2.3Q18.6 -3.1 18.75 -4.25 18.85 -5.4 18.3 -6.4L17.4 -7.9Q16.95 -8.55 17.2 -9.4L17.7 -11.1Q18.05 -12.2 17.65 -13.25 17.25 -14.3 16.25 -14.9L14.75 -15.85Q14.05 -16.25 13.9 -17.1L13.6 -18.8M10.4 -20.05Q11.05 -20 11.55 -19.55 12.05 -19.15 12.15 -18.5L12.45 -16.8Q12.8 -15.3 14 -14.6L15.5 -13.65Q16.7 -12.85 16.3 -11.5L15.8 -9.85Q15.4 -8.35 16.15 -7.15L17 -5.65Q17.35 -5.1 17.25 -4.45 17.2 -3.8 16.75 -3.35L15.5 -2.1Q14.45 -1.05 14.55 .4L14.65 2.15Q14.7 2.8 14.3 3.35 13.95 3.85 13.35 4.05L11.65 4.6 11.2 4.8 11.15 4.8Q10.1 5.35 9.65 6.4L8.9 8Q8.45 9 7.25 9.1L7.2 9.1 5.15 8.75Q3.7 8.5 2.55 9.4L.95 10.6 .9 10.6Q0 11.15 -.95 10.6L-2.55 9.4Q-3.5 8.7 -4.6 8.7L-5.2 8.75 -7.25 9.1Q-8.5 9 -8.95 8L-9.7 6.4Q-10.15 5.35 -11.15 4.8L-11.25 4.8 -11.7 4.6 -13.35 4.05Q-14.7 3.65 -14.7 2.15L-14.6 .4Q-14.5 -1.05 -15.55 -2.1L-16.75 -3.35Q-17.2 -3.8 -17.3 -4.45 -17.4 -5.1 -17.05 -5.65L-16.15 -7.15Q-15.4 -8.5 -15.85 -9.85L-16.35 -11.5Q-16.75 -12.9 -15.5 -13.65L-14.05 -14.6Q-12.75 -15.35 -12.5 -16.8L-12.15 -18.5Q-12.05 -19.15 -11.55 -19.55 -11.1 -20 -10.45 -20.05L-8.7 -20.15Q-7.2 -20.3 -6.3 -21.45L-5.2 -22.8Q-4.25 -23.9 -2.95 -23.35L-1.35 -22.65Q0 -22 1.35 -22.65L2.95 -23.35Q3.5 -23.6 4.15 -23.45 4.8 -23.3 5.2 -22.8L6.25 -21.45Q7.15 -20.3 8.65 -20.15L10.4 -20.05M11 7L11.3 6.55 17.9 18.15 12.65 17.85 11.2 15.3Q10.85 14.7 10.2 15.05 9.6 15.4 9.95 16.05L11.4 18.6 8.95 23.2 2.25 11.45 3.4 10.55Q4.15 10.05 4.9 10.2L6.6 10.5 6.8 10.55 8.25 13.05Q8.5 13.45 8.9 13.45L9.25 13.35Q9.85 13 9.5 12.35L8.4 10.35Q9.6 9.9 10.25 8.6L11 7M-8.4 10.35L-9.55 12.35Q-9.9 13 -9.3 13.35L-8.9 13.45Q-8.45 13.45 -8.3 13.05L-6.85 10.55 -6.65 10.5 -4.95 10.2Q-4.1 10.05 -3.45 10.55L-2.3 11.45 -9 23.2 -11.4 18.6 -10 16.05Q-9.65 15.4 -10.25 15.05 -10.85 14.7 -11.25 15.35L-12.7 17.85 -17.9 18.15 -11.3 6.55 -11 7 -10.3 8.6Q-9.65 9.9 -8.4 10.35Z"/></g></g></svg>