<?xml version="1.0" encoding="utf-8"?>
<svg width="50px" height="50px" viewBox="0 0 50 50" version="1.1" xmlns:xlink="http://www.w3.org/1999/xlink" xmlns="http://www.w3.org/2000/svg">
  <desc>Created with Lunacy</desc>
  <g id="3716717">
    <path d="M1.85832 2.37229C1.6667 2.37226 1.48316 2.29514 1.34903 2.1583C1.02912 1.83289 0.675745 1.54215 0.294784 1.29094C-0.0142964 1.06695 -0.0922599 0.639337 0.117884 0.320681C0.328029 0.00202627 0.751793 -0.0947154 1.0794 0.101175C1.54317 0.408209 1.97349 0.762987 2.36333 1.1597C2.56435 1.36479 2.62278 1.67043 2.51158 1.93521C2.40037 2.19999 2.14122 2.37225 1.85404 2.37229L1.85832 2.37229Z" transform="translate(34.5459 36.6908)" id="Path" fill="#FFFFFF" stroke="none" />
    <path d="M27.7613 14.4085L0.713291 14.4085C0.319351 14.4085 0 14.0891 0 13.6952L0 7.81053C0.00471738 3.49885 3.49885 0.00471738 7.81053 0L20.6355 0C21.0294 0 21.3488 0.319351 21.3488 0.713291C21.3488 1.10723 21.0294 1.42658 20.6355 1.42658L7.81053 1.42658C4.2864 1.43051 1.43051 4.2864 1.42658 7.81053L1.42658 12.9819L27.048 12.9819L27.048 7.81053C27.0494 7.31231 26.9914 6.81569 26.8754 6.33117C26.8081 6.08137 26.8813 5.81474 27.0668 5.63437C27.2522 5.454 27.5208 5.38817 27.7686 5.46234C28.0165 5.53651 28.2047 5.73905 28.2606 5.99164C28.4036 6.58638 28.4754 7.19599 28.4746 7.80768L28.4746 13.6952C28.4746 14.0891 28.1552 14.4085 27.7613 14.4085L27.7613 14.4085Z" transform="translate(10.6543 35.4895)" id="Path" fill="#FFFFFF" stroke="none" />
    <path d="M0 7.47529C0 11.6038 3.3468 14.9506 7.47529 14.9506C11.602 14.9462 14.9462 11.602 14.9506 7.47529C14.9506 3.3468 11.6038 0 7.47529 0C3.3468 0 0 3.3468 0 7.47529ZM1.42658 7.47529C1.42658 4.13468 4.13468 1.42658 7.47529 1.42658C10.8144 1.43012 13.5205 4.13615 13.524 7.47529C13.524 10.8159 10.8159 13.524 7.47529 13.524C4.13468 13.524 1.42658 10.8159 1.42658 7.47529Z" transform="translate(17.41504 17.82422)" id="Shape" fill="#FFFFFF" fill-rule="evenodd" stroke="none" />
    <path d="M14.6082 5.49804L0.713291 5.49804C0.319351 5.49804 0 5.17869 0 4.78475L0 0.71329C0 0.319351 0.319351 0 0.713291 0C1.10723 0 1.42658 0.319351 1.42658 0.71329L1.42658 4.07146L13.8949 4.07146L13.8949 0.71329C13.8949 0.319351 14.2143 0 14.6082 0C15.0021 0 15.3215 0.319351 15.3215 0.71329L15.3215 4.78475C15.3215 5.17869 15.0021 5.49804 14.6082 5.49804Z" transform="translate(17.23096 44.3999)" id="Path" fill="#FFFFFF" stroke="none" />
    <path d="M10.8987 13.6793C11.001 13.7331 11.1148 13.7613 11.2304 13.7613L11.2304 13.7585C11.4407 13.7585 11.6403 13.6658 11.7759 13.5051C11.9115 13.3443 11.9692 13.1319 11.9337 12.9246L11.2297 8.82107L14.2112 5.91512C14.4058 5.72564 14.4758 5.44213 14.392 5.18383C14.3081 4.92553 14.0848 4.73728 13.816 4.69825L9.69537 4.09909L7.85294 0.365724C7.71948 0.139112 7.47611 0 7.21311 0C6.95012 0 6.70675 0.139112 6.57329 0.365724L4.73086 4.09909L0.610184 4.69825C0.341552 4.7375 0.118492 4.92584 0.0347784 5.1841C-0.0489351 5.44236 0.0212136 5.72574 0.215734 5.91512L3.19658 8.82392L2.49256 12.9275C2.44651 13.1953 2.55662 13.466 2.77652 13.6256C2.99641 13.7852 3.2879 13.806 3.52826 13.6793L7.21311 11.742L10.8987 13.6793ZM7.5448 10.3047C7.44261 10.2507 7.32872 10.2225 7.21311 10.2227L7.21311 10.2213C7.09751 10.2211 6.98362 10.2492 6.88143 10.3033L4.14311 11.7427L4.66667 8.69411C4.7065 8.46247 4.62965 8.22608 4.46124 8.06213L2.24576 5.903L5.3072 5.45862C5.53954 5.42488 5.74039 5.27897 5.84431 5.06845L7.21311 2.29731L8.58192 5.0713C8.68583 5.28183 8.88669 5.42773 9.11903 5.46147L12.1805 5.90585L9.9657 8.06498C9.79703 8.22879 9.71992 8.4652 9.75956 8.69696L10.2831 11.7441L7.5448 10.3047Z" transform="translate(35.4458 6.249756)" id="Shape" fill="#FFFFFF" fill-rule="evenodd" stroke="none" />
    <path d="M10.8993 13.6764C11.0017 13.7298 11.1155 13.7577 11.231 13.7578C11.4411 13.7578 11.6406 13.6652 11.7762 13.5046C11.9118 13.344 11.9696 13.1318 11.9343 12.9246L11.2303 8.82036L14.2118 5.91441C14.4064 5.72493 14.4765 5.44141 14.3926 5.18312C14.3087 4.92482 14.0854 4.73657 13.8167 4.69754L9.69599 4.09909L7.85142 0.365724C7.71796 0.139112 7.47459 0 7.2116 0C6.94861 0 6.70523 0.139112 6.57177 0.365724L4.73148 4.09766L0.610804 4.69611C0.342049 4.73514 0.118773 4.9234 0.0348952 5.18169C-0.048983 5.43999 0.021091 5.7235 0.215641 5.91298L3.1972 8.81893L2.49318 12.9232C2.44733 13.1908 2.55736 13.4612 2.77702 13.6208C2.99667 13.7803 3.28786 13.8014 3.52816 13.675L7.21374 11.737L10.8993 13.6764ZM7.54542 10.3011C7.44307 10.2476 7.32925 10.2197 7.21374 10.2198C7.09919 10.2201 6.9864 10.248 6.88491 10.3011L4.14659 11.7406L4.66729 8.69197C4.70687 8.46056 4.63005 8.2245 4.46186 8.0607L2.24638 5.90157L5.30782 5.45719C5.54031 5.4233 5.74119 5.27711 5.84493 5.06631L7.21374 2.29303L8.58254 5.06916C8.68628 5.27996 8.88716 5.42616 9.11965 5.46005L12.1782 5.90157L9.96276 8.0607C9.79457 8.2245 9.71775 8.46056 9.75733 8.69197L10.2809 11.7406L7.54542 10.3011Z" transform="translate(17.7207 0)" id="Shape" fill="#FFFFFF" fill-rule="evenodd" stroke="none" />
    <path d="M10.8948 13.675C10.9973 13.7289 11.1114 13.7571 11.2272 13.757L11.2272 13.7585C11.4375 13.7585 11.6371 13.6658 11.7727 13.5051C11.9083 13.3443 11.966 13.1319 11.9305 12.9246L11.2265 8.82107L14.2073 5.91512C14.4018 5.72574 14.472 5.44236 14.3883 5.1841C14.3046 4.92584 14.0815 4.7375 13.8129 4.69825L9.6922 4.09909L7.84977 0.365724C7.71631 0.139112 7.47294 0 7.20994 0C6.94695 0 6.70358 0.139112 6.57012 0.365724L4.72769 4.09909L0.607013 4.69825C0.3401 4.73848 0.118758 4.92592 0.0351229 5.18257C-0.0485126 5.43921 0.0198871 5.72108 0.21185 5.91084L3.1934 8.81822L2.48939 12.9218C2.44354 13.1894 2.55357 13.4598 2.77323 13.6193C2.99288 13.7789 3.28407 13.7999 3.52437 13.6736L7.20994 11.7377L10.8948 13.675ZM7.54162 10.3004C7.43944 10.2464 7.32555 10.2182 7.20994 10.2184L7.20994 10.217C7.09434 10.2168 6.98045 10.245 6.87826 10.299L4.13994 11.7384L4.6635 8.69268C4.70224 8.46031 4.62376 8.22381 4.45379 8.0607L2.24259 5.90157L5.30403 5.45719C5.53637 5.42345 5.73722 5.27755 5.84114 5.06702L7.20994 2.29303L8.57875 5.06702C8.68266 5.27755 8.88352 5.42345 9.11586 5.45719L12.1773 5.90157L9.96182 8.0607C9.7934 8.22465 9.71656 8.46104 9.75639 8.69268L10.2799 11.7399L7.54162 10.3004Z" transform="translate(0 6.254028)" id="Shape" fill="#FFFFFF" fill-rule="evenodd" stroke="none" />
  </g>
</svg>