<?xml version="1.0" encoding="UTF-8"?>
<svg width="50px" height="50px" viewBox="0 0 50 50" version="1.1" xmlns="http://www.w3.org/2000/svg" xmlns:xlink="http://www.w3.org/1999/xlink">
    <title>1560016</title>
    <g id="04-RPA-&amp;-HIPERAUTOMATIZACIÓN" stroke="none" stroke-width="1" fill="none" fill-rule="evenodd">
        <g id="Desktop-HD-Copy-2" transform="translate(-473.000000, -1336.000000)" fill="#FFFFFF" fill-rule="nonzero">
            <g id="1560016" transform="translate(473.000000, 1336.000000)">
                <path d="M37.4,32.7178423 L35.4381743,30.1012448 C35.6472637,29.6703738 35.8293578,29.2269178 35.9834025,28.773444 L39.2257261,28.3103734 C39.6340765,28.2517942 39.9374018,27.9021571 39.9377593,27.4896266 L39.9377593,22.5103734 C39.9377593,22.0975278 39.6343883,21.7474208 39.2257261,21.6887967 L35.9834025,21.2257261 C35.82939,20.7722403 35.647295,20.3287823 35.4381743,19.8979253 L37.4,17.2821577 C37.6474507,16.9521192 37.6149273,16.4904286 37.3236515,16.1983402 L33.8016598,12.6763485 C33.5095714,12.3850727 33.0478808,12.3525493 32.7178423,12.6 L30.1004149,14.5618257 C29.6695579,14.352705 29.2261,14.17061 28.7726141,14.0165975 L28.3095436,10.7742739 C28.2510096,10.3662349 27.9018418,10.0630102 27.4896266,10.0622407 L22.5103734,10.0622407 C22.0975278,10.0622407 21.7474208,10.3656117 21.6887967,10.7742739 L21.2257261,14.0165975 C20.7722403,14.17061 20.3287823,14.352705 19.8979253,14.5618257 L17.2821577,12.6 C16.9521192,12.3525493 16.4904286,12.3850727 16.1983402,12.6763485 L12.6763485,16.1983402 C12.3850727,16.4904286 12.3525493,16.9521192 12.6,17.2821577 L14.5618257,19.8995851 C14.352705,20.3304421 14.17061,20.7739 14.0165975,21.2273859 L10.7742739,21.6904564 C10.3662349,21.7489904 10.0630102,22.0981582 10.0622407,22.5103734 L10.0622407,27.4896266 C10.0622407,27.9024722 10.3656117,28.2525792 10.7742739,28.3112033 L14.0165975,28.7742739 C14.1706422,29.2277477 14.3527363,29.6712037 14.5618257,30.1020747 L12.6,32.7178423 C12.3525493,33.0478808 12.3850727,33.5095714 12.6763485,33.8016598 L16.1983402,37.3236515 C16.4904286,37.6149273 16.9521192,37.6474507 17.2821577,37.4 L19.8987552,35.4381743 C20.3296262,35.6472637 20.7730822,35.8293578 21.226556,35.9834025 L21.6896266,39.2257261 C21.7482058,39.6340765 22.0978429,39.9374018 22.5103734,39.9377593 L27.4896266,39.9377593 C27.9024722,39.9377593 28.2525792,39.6343883 28.3112033,39.2257261 L28.7742739,35.9834025 C29.2277477,35.8293578 29.6712037,35.6472637 30.1020747,35.4381743 L32.7178423,37.4 C33.0478808,37.6474507 33.5095714,37.6149273 33.8016598,37.3236515 L37.3236515,33.8016598 C37.6149273,33.5095714 37.6474507,33.0478808 37.4,32.7178423 Z M33.1377593,35.6406639 L30.6804979,33.7966805 C30.4199296,33.6011447 30.0690556,33.5761518 29.7834025,33.7327801 C29.1513458,34.0775975 28.4834753,34.3522592 27.7917012,34.5518672 C27.4791435,34.6429807 27.2487334,34.9084391 27.2024896,35.2307054 L26.7701245,38.2780083 L23.2298755,38.2780083 L22.7958506,35.2323651 C22.7496069,34.9100989 22.5191968,34.6446405 22.206639,34.553527 C21.5148649,34.3539189 20.8469945,34.0792572 20.2149378,33.7344398 C19.9292846,33.5778116 19.5784107,33.6028044 19.3178423,33.7983402 L16.8605809,35.6406639 L14.3576763,33.1377593 L16.2,30.6804979 C16.3955358,30.4199296 16.4205287,30.0690556 16.2639004,29.7834025 C15.919083,29.1513458 15.6444213,28.4834753 15.4448133,27.7917012 C15.3536998,27.4791435 15.0882414,27.2487334 14.7659751,27.2024896 L11.7219917,26.7701245 L11.7219917,23.2298755 L14.7676349,22.7958506 C15.0899011,22.7496069 15.3553595,22.5191968 15.446473,22.206639 C15.6458721,21.5146655 15.9208335,20.8467431 16.26639,20.2149378 C16.4227798,19.9291248 16.3974617,19.5782427 16.2016598,19.3178423 L14.3593361,16.8605809 L16.8622407,14.3576763 L19.3195021,16.2 C19.5799025,16.395802 19.9307846,16.42112 20.2165975,16.2647303 C20.8484028,15.9191738 21.5163253,15.6442123 22.2082988,15.4448133 C22.5208565,15.3536998 22.7512666,15.0882414 22.7975104,14.7659751 L23.2298755,11.7219917 L26.7701245,11.7219917 L27.2041494,14.7676349 C27.2503931,15.0899011 27.4808032,15.3553595 27.793361,15.446473 C28.4853345,15.6458721 29.1532569,15.9208335 29.7850622,16.26639 C30.0708752,16.4227798 30.4217573,16.3974617 30.6821577,16.2016598 L33.1394191,14.3593361 L35.6423237,16.8622407 L33.7966805,19.3195021 C33.6008785,19.5799025 33.5755605,19.9307846 33.7319502,20.2165975 C34.0775067,20.8484028 34.3524682,21.5163253 34.5518672,22.2082988 C34.6429807,22.5208565 34.9084391,22.7512666 35.2307054,22.7975104 L38.2763485,23.2315353 L38.2763485,26.7717842 L35.2307054,27.2058091 C34.9084391,27.2520529 34.6429807,27.482463 34.5518672,27.7950207 C34.3522592,28.4867948 34.0775975,29.1546653 33.7327801,29.786722 C33.5761518,30.0723751 33.6011447,30.4232491 33.7966805,30.6838174 L35.6390041,33.1410788 L33.1377593,35.6406639 Z" id="Shape"></path>
                <rect id="Rectangle" x="24.1701245" y="13.3817427" width="1.65975104" height="1.65975104"></rect>
                <polygon id="Rectangle" transform="translate(17.372102, 17.371784) rotate(-45.000000) translate(-17.372102, -17.371784) " points="16.5422265 16.5419087 18.2019775 16.5419087 18.2019775 18.2016598 16.5422265 18.2016598"></polygon>
                <polygon id="Rectangle" transform="translate(17.371646, 32.627760) rotate(-45.000000) translate(-17.371646, -32.627760) " points="16.541771 31.7978847 18.201522 31.7978847 18.201522 33.4576357 16.541771 33.4576357"></polygon>
                <rect id="Rectangle" x="24.1701245" y="34.9585062" width="1.65975104" height="1.65975104"></rect>
                <polygon id="Rectangle" transform="translate(32.628452, 32.628216) rotate(-45.000000) translate(-32.628452, -32.628216) " points="31.7985768 31.7983402 33.4583279 31.7983402 33.4583279 33.4580913 31.7985768 33.4580913"></polygon>
                <polygon id="Rectangle" transform="translate(32.628908, 17.372240) rotate(-45.000000) translate(-32.628908, -17.372240) " points="31.7990324 16.5423643 33.4587834 16.5423643 33.4587834 18.2021153 31.7990324 18.2021153"></polygon>
                <path d="M25,18.3609959 C21.3333793,18.3609959 18.3609959,21.3333793 18.3609959,25 C18.3609959,28.6666207 21.3333793,31.6390041 25,31.6390041 C28.6666207,31.6390041 31.6390041,28.6666207 31.6390041,25 C31.6348881,21.3350855 28.6649145,18.3651119 25,18.3609959 Z M25,29.9792531 C22.2500344,29.9792531 20.0207469,27.7499656 20.0207469,25 C20.0207469,22.2500344 22.2500344,20.0207469 25,20.0207469 C27.7499656,20.0207469 29.9792531,22.2500344 29.9792531,25 C29.9765084,27.7488279 27.7488279,29.9765084 25,29.9792531 L25,29.9792531 Z" id="Shape"></path>
                <rect id="Rectangle" x="13.3817427" y="24.1701245" width="1.65975104" height="1.65975104"></rect>
                <rect id="Rectangle" x="34.9585062" y="24.1701245" width="1.65975104" height="1.65975104"></rect>
                <path d="M45.746888,41.5975104 C44.9338424,41.5976725 44.1389878,41.8381788 43.4622407,42.2887967 L40.8232365,39.6489627 C48.4926462,31.3899987 48.4926462,18.6133208 40.8232365,10.3543568 L43.4622407,7.71452282 C45.2442969,8.8940303 47.6300685,8.5321444 48.9821852,6.87722972 C50.3343019,5.22231503 50.2132673,2.81229054 48.7021481,1.30117138 C47.191029,-0.209947793 44.7810045,-0.330982431 43.1260898,1.0211343 C41.4711751,2.37325104 41.1092892,4.75902261 42.2887967,6.54107884 L39.6489627,9.18008299 C31.3899987,1.51067331 18.6133208,1.51067331 10.3543568,9.18008299 L7.71452282,6.54107884 C8.8940303,4.75902261 8.5321444,2.37325104 6.87722972,1.0211343 C5.22231503,-0.330982431 2.81229054,-0.209947793 1.30117138,1.30117138 C-0.209947793,2.81229054 -0.330982431,5.22231503 1.0211343,6.87722972 C2.37325104,8.5321444 4.75902261,8.8940303 6.54107884,7.71452282 L9.18008299,10.3543568 C1.51067331,18.6133208 1.51067331,31.3899987 9.18008299,39.6489627 L6.54107884,42.2887967 C4.75902261,41.1092892 2.37325104,41.4711751 1.0211343,43.1260898 C-0.330982431,44.7810045 -0.209947793,47.191029 1.30117138,48.7021481 C2.81229054,50.2132673 5.22231503,50.3343019 6.87722972,48.9821852 C8.5321444,47.6300685 8.8940303,45.2442969 7.71452282,43.4622407 L10.3543568,40.8232365 C18.6133208,48.4926462 31.3899987,48.4926462 39.6489627,40.8232365 L42.2887967,43.4622407 C41.2418168,45.0495795 41.4077846,47.1454437 42.6915462,48.5482151 C43.9753077,49.9509866 46.0482869,50.3016287 47.7219859,49.3991084 C49.395685,48.4965882 50.2417242,46.5719038 49.7750453,44.7285313 C49.3083664,42.8851588 47.6484149,41.5949056 45.746888,41.5975104 Z M45.746888,1.76348548 C47.1218707,1.76348548 48.2365145,2.87812925 48.2365145,4.25311203 C48.2365145,5.62809481 47.1218707,6.74273859 45.746888,6.74273859 C44.3719052,6.74273859 43.2572614,5.62809481 43.2572614,4.25311203 C43.2572614,2.87812925 44.3719052,1.76348548 45.746888,1.76348548 Z M4.25311203,6.74273859 C2.87812925,6.74273859 1.76348548,5.62809481 1.76348548,4.25311203 C1.76348548,2.87812925 2.87812925,1.76348548 4.25311203,1.76348548 C5.62809481,1.76348548 6.74273859,2.87812925 6.74273859,4.25311203 C6.74273859,4.91340205 6.4804394,5.54664831 6.01354385,6.01354385 C5.54664831,6.4804394 4.91340205,6.74273859 4.25311203,6.74273859 Z M4.25311203,48.2365145 C2.87812925,48.2365145 1.76348548,47.1218707 1.76348548,45.746888 C1.76348548,44.3719052 2.87812925,43.2572614 4.25311203,43.2572614 C5.62809481,43.2572614 6.74273859,44.3719052 6.74273859,45.746888 C6.74273859,47.1218707 5.62809481,48.2365145 4.25311203,48.2365145 Z M25,44.9170166 C20.00501,44.9202381 15.1925912,43.0393081 11.5236515,39.6497925 L13.1385892,38.0348548 L11.9651452,36.8614108 L10.3502075,38.4763485 C3.32704916,30.8646528 3.32704916,19.1353472 10.3502075,11.5236515 L11.9651452,13.1385892 L13.1385892,11.9651452 L11.5236515,10.3502075 C19.1353472,3.32704916 30.8646528,3.32704916 38.4763485,10.3502075 L36.8614108,11.9651452 L38.0348548,13.1385892 L39.6497925,11.5236515 C46.6729508,19.1353472 46.6729508,30.8646528 39.6497925,38.4763485 L38.0348548,36.8614108 L36.8614108,38.0348548 L38.4763485,39.6497925 C34.8074088,43.0393081 29.99499,44.9202381 25,44.9170166 L25,44.9170166 Z M45.746888,48.2365145 C44.3719052,48.2365145 43.2572614,47.1218707 43.2572614,45.746888 C43.2572614,44.3719052 44.3719052,43.2572614 45.746888,43.2572614 C47.1218707,43.2572614 48.2365145,44.3719052 48.2365145,45.746888 C48.2365145,47.1218707 47.1218707,48.2365145 45.746888,48.2365145 Z" id="Shape"></path>
            </g>
        </g>
    </g>
</svg>