<?xml version="1.0" encoding="utf-8"?><svg id="capacidad" image-rendering="optimizeQuality" baseProfile="basic" version="1.1" x="0px" y="0px" width="50" height="50" xmlns="http://www.w3.org/2000/svg" xmlns:xlink="http://www.w3.org/1999/xlink"><g id="Escena-1" overflow="visible"><g id="Interpolaci.__C3.__B3n-4" transform="translate(23.7 32.15)"><path fill="#FFF" stroke="none" d="M11.3 -17.05Q10.5 -16.3 10.5 -15.2L10.5 15.9 5.1 15.9 5.1 -1.1Q5.1 -2.2 4.3 -2.95 3.55 -3.7 2.45 -3.7L-2.35 -3.7Q-3.45 -3.7 -4.2 -2.95 -4.95 -2.2 -4.95 -1.1L-4.95 15.9 -10.4 15.9 -10.4 7.1Q-10.4 6 -11.15 5.25 -11.9 4.5 -13 4.5L-17.8 4.5Q-18.9 4.5 -19.65 5.25 -20.45 6 -20.45 7.1L-20.45 15.9 -22.7 15.9Q-23.1 15.9 -23.4 16.2 -23.65 16.5 -23.65 16.9 -23.65 17.85 -22.7 17.85L22.7 17.85Q23.1 17.85 23.4 17.6 23.7 17.3 23.7 16.9 23.7 16.5 23.4 16.2 23.1 15.9 22.7 15.9L20.55 15.9 20.55 -15.2Q20.55 -16.3 19.8 -17.05 19.05 -17.8 17.95 -17.8L13.15 -17.8Q12.05 -17.8 11.3 -17.05M17.95 -15.85Q18.6 -15.85 18.6 -15.2L18.6 15.9 12.45 15.9 12.45 -15.2Q12.45 -15.45 12.65 -15.65 12.9 -15.85 13.15 -15.85L17.95 -15.85M2.45 -1.75Q3.15 -1.75 3.15 -1.1L3.15 15.9 -3 15.9 -3 -1.1Q-3 -1.75 -2.35 -1.75L2.45 -1.75M-13 6.45Q-12.35 6.45 -12.35 7.1L-12.35 15.9 -18.5 15.9 -18.5 7.1Q-18.5 6.45 -17.8 6.45L-13 6.45Z"/></g><g mask="url(#mask_)"><g id="Interpolaci.__C3.__B3n-3" transform="translate(-9.55 51.25)"><animateTransform attributeName="transform" additive="replace" type="translate" repeatCount="indefinite" dur="4s" keyTimes="0;.367;.617;.992;1" values="-9.55,51.25;25.7,16.65;25.7,16.65;61.1,-18.95;61.1,-18.95" keySplines=".25 .5 .5 1;.5 0 .75 .5;.5 0 .75 .5;0 0 1 1" calcMode="spline"/><path fill="#FFF" stroke="none" d="M25.8 -9.65L9.7 -25.75 -25.75 9.7 -9.65 25.8 25.8 -9.65Z"/></g></g><mask id="mask_"><g><g id="Interpolaci.__C3.__B3n-2" transform="translate(24.65 15.3)"><g id="Interpolación 2_0.0"><g><g id="Layer1_0_FILL"><path fill="#FFF" stroke="none" d="M-18.55 13.35Q-18.95 13.35 -19.25 13.65 -19.55 13.95 -19.55 14.35 -19.55 14.75 -19.25 15.05 -18.95 15.35 -18.55 15.35 -18.15 15.35 -17.85 15.05 -17.55 14.75 -17.55 14.35 -17.55 13.95 -17.85 13.65 -18.15 13.35 -18.55 13.35M12.65 -15.3Q12.25 -15.3 11.95 -15 11.65 -14.7 11.65 -14.3 11.65 -13.9 11.95 -13.6 12.25 -13.3 12.65 -13.3L16.25 -13.3 6.6 -3.65 3 -7.3Q2.7 -7.6 2.3 -7.6 1.9 -7.6 1.6 -7.3L-15.95 10.25Q-16.25 10.55 -16.25 10.95 -16.25 11.35 -15.95 11.65 -15.6 11.9 -15.25 11.9 -14.85 11.9 -14.6 11.65L2.3 -5.25 5.95 -1.6Q6.2 -1.3 6.65 -1.3 7.05 -1.3 7.3 -1.6L17.65 -11.95 17.65 -8.65Q17.65 -8.25 17.95 -7.95 18.25 -7.65 18.65 -7.65 19.05 -7.65 19.3 -7.95 19.6 -8.25 19.6 -8.65L19.6 -14.25Q19.6 -14.75 19.3 -15 19 -15.3 18.6 -15.25L18.55 -15.3 12.65 -15.3Z" fill-opacity="1"/></g></g></g></g></g></mask></g></svg>