<?xml version="1.0" encoding="utf-8"?>
<svg width="32px" height="35px" viewBox="0 0 32 35" version="1.1" xmlns:xlink="http://www.w3.org/1999/xlink" xmlns="http://www.w3.org/2000/svg">
  <desc>Created with Lunacy</desc>
  <g id="2511405">
    <path d="M19.5556 0C19.7127 3.30385e-05 19.8634 0.0615129 19.9745 0.170917L24.7153 4.83758C24.8264 4.94695 24.8889 5.0953 24.8889 5.25L24.8889 29.75C24.8869 31.36 23.5615 32.6647 21.9259 32.6667L2.96296 32.6667C1.32738 32.6647 0.00195918 31.36 0 29.75L0 16.3333L1.18519 16.3333L1.18519 29.75C1.18519 30.7165 1.98112 31.5 2.96296 31.5L21.9259 31.5C22.9078 31.5 23.7037 30.7165 23.7037 29.75L23.7037 5.83333L20.7407 5.83333C19.7589 5.83333 18.963 5.04983 18.963 4.08333L18.963 1.16667L2.96296 1.16667C2.15185 1.1664 1.4434 1.7066 1.24089 2.47975L0.0936296 2.18808C0.431221 0.899928 1.61152 -0.000136418 2.96296 0L19.5556 0ZM20.1481 1.9915L20.1481 4.08333C20.1481 4.4055 20.4135 4.66667 20.7407 4.66667L22.8658 4.66667L20.1481 1.9915Z" transform="translate(4.740741 2.333333)" id="Shape" fill="#E8511D" fill-rule="evenodd" stroke="none" />
    <path d="M20.9233 3.83869e-08L1.9603 3.83869e-08C1.23845 -0.000115186 0.541386 0.25917 0 0.729167L0.785185 1.60417C1.10943 1.32189 1.52745 1.16626 1.9603 1.16667L20.9233 1.16667C21.9051 1.16667 22.701 1.95017 22.701 2.91667L22.701 29.75C22.7015 30.1761 22.5433 30.5876 22.2566 30.9068L23.1455 31.6797C23.6229 31.1467 23.8863 30.4606 23.8862 29.75L23.8862 2.91667C23.8843 1.30664 22.5588 0.00192861 20.9233 3.83869e-08Z" transform="translate(8.113778 -3.838689E-08)" id="Path" fill="#E8511D" stroke="none" />
    <path d="M2.96296 7L2.96296 6.41667C3.9448 6.41667 4.74074 5.63316 4.74074 4.66667C4.74074 3.70017 3.9448 2.91667 2.96296 2.91667L1.77778 2.91667C1.4505 2.91667 1.18519 2.6555 1.18519 2.33333C1.18519 2.01117 1.4505 1.75 1.77778 1.75L2.96296 1.75C3.29024 1.75 3.55556 2.01117 3.55556 2.33333L4.74074 2.33333C4.74074 1.36683 3.9448 0.583333 2.96296 0.583333L2.96296 0L1.77778 0L1.77778 0.583333C0.795938 0.583333 0 1.36683 0 2.33333C0 3.29983 0.795938 4.08333 1.77778 4.08333L2.96296 4.08333C3.29024 4.08333 3.55556 4.3445 3.55556 4.66667C3.55556 4.98883 3.29024 5.25 2.96296 5.25L1.77778 5.25C1.4505 5.25 1.18519 4.98883 1.18519 4.66667L0 4.66667C0 5.63316 0.795938 6.41667 1.77778 6.41667L1.77778 7L2.96296 7Z" transform="translate(3.555556 8.166667)" id="Path" fill="#E8511D" stroke="none" />
    <path d="M5.92593 0C9.19872 0 11.8519 2.61167 11.8519 5.83333C11.8483 9.05353 9.19724 11.6631 5.92593 11.6667C2.65313 11.6667 0 9.05499 0 5.83333C0 2.61167 2.65313 0 5.92593 0ZM5.92593 1.16667C3.30769 1.16667 1.18519 3.256 1.18519 5.83333C1.18812 8.40946 3.30891 10.4971 5.92593 10.5C8.54416 10.5 10.6667 8.41066 10.6667 5.83333C10.6667 3.256 8.54416 1.16667 5.92593 1.16667Z" transform="translate(0 5.833333)" id="Shape" fill="#E8511D" fill-rule="evenodd" stroke="none" />
    <path d="M0 0L7.11111 0L7.11111 1.16667L0 1.16667L0 0Z" transform="translate(13.62963 8.166667)" id="Path" fill="#E8511D" stroke="none" />
    <path d="M0 0L1.18519 0L1.18519 1.16667L0 1.16667L0 0Z" transform="translate(13.62963 5.833333)" id="Path" fill="#E8511D" stroke="none" />
    <path d="M0 0L4.74074 0L4.74074 1.16667L0 1.16667L0 0Z" transform="translate(16 5.833333)" id="Path" fill="#E8511D" stroke="none" />
    <path d="M1.77778 4.66667C1.4505 4.66667 1.18519 4.92783 1.18519 5.25L1.18519 8.16667L0 8.16667L0 9.33333L15.4074 9.33333L15.4074 8.16667L14.2222 8.16667L14.2222 0.583333C14.2222 0.261167 13.9569 0 13.6296 0L11.2593 0C10.932 0 10.6667 0.261167 10.6667 0.583333L10.6667 8.16667L9.48148 8.16667L9.48148 2.91667C9.48148 2.5945 9.21617 2.33333 8.88889 2.33333L6.51852 2.33333C6.19124 2.33333 5.92593 2.5945 5.92593 2.91667L5.92593 8.16667L4.74074 8.16667L4.74074 5.25C4.74074 4.92783 4.47543 4.66667 4.14815 4.66667L1.77778 4.66667ZM13.037 1.16667L11.8519 1.16667L11.8519 8.16667L13.037 8.16667L13.037 1.16667ZM7.11111 3.5L8.2963 3.5L8.2963 8.16667L7.11111 8.16667L7.11111 3.5ZM2.37037 5.83333L2.37037 8.16667L3.55556 8.16667L3.55556 5.83333L2.37037 5.83333Z" transform="translate(9.481482 12.25)" id="Shape" fill="#E8511D" fill-rule="evenodd" stroke="none" />
    <path d="M0 0.583333C0 0.261167 0.265313 0 0.592593 0L6.51852 0C6.8458 0 7.11111 0.261167 7.11111 0.583333L7.11111 6.41667C7.11111 6.73883 6.8458 7 6.51852 7L0.592593 7C0.265313 7 0 6.73883 0 6.41667L0 0.583333ZM1.18519 5.83333L5.92593 5.83333L5.92593 1.16667L1.18519 1.16667L1.18519 5.83333Z" transform="translate(9.481482 23.91667)" id="Shape" fill="#E8511D" fill-rule="evenodd" stroke="none" />
    <path d="M0 0L7.11111 0L7.11111 1.16667L0 1.16667L0 0Z" transform="translate(18.96296 23.91667)" id="Path" fill="#E8511D" stroke="none" />
    <path d="M0 0L7.11111 0L7.11111 1.16667L0 1.16667L0 0Z" transform="translate(18.96296 28.58333)" id="Path" fill="#E8511D" stroke="none" />
    <path d="M0 0L7.11111 0L7.11111 1.16667L0 1.16667L0 0Z" transform="translate(18.96296 26.25)" id="Path" fill="#E8511D" stroke="none" />
  </g>
</svg>