<?xml version="1.0" encoding="utf-8"?>
<svg width="35px" height="35px" viewBox="0 0 35 35" version="1.1" xmlns:xlink="http://www.w3.org/1999/xlink" xmlns="http://www.w3.org/2000/svg">
  <desc>Created with Lunacy</desc>
  <g id="898681">
    <path d="M34.7361 3.8811C34.5694 3.75156 34.3524 3.70624 34.148 3.75826L30.8957 4.58521C30.3734 4.71789 29.8355 4.78522 29.2968 4.78522L24.5241 4.78522C22.9758 4.78522 21.6825 5.89613 21.449 7.42684C21.3181 8.28475 20.5932 8.90736 19.7254 8.90736L19.5508 8.90736L19.5508 7.4794C20.7298 6.77749 21.5217 5.49062 21.5217 4.02172C21.5218 1.80414 19.7176 0 17.5 0C15.2824 0 13.4783 1.80414 13.4783 4.02172C13.4783 5.49062 14.2702 6.77749 15.4492 7.4794L15.4492 8.90736L15.2746 8.90736C14.4068 8.90736 13.6819 8.28475 13.551 7.42684C13.3175 5.89613 12.0242 4.78522 10.4759 4.78522L5.70315 4.78522C5.16448 4.78522 4.62656 4.71796 4.10437 4.58521L0.852031 3.75833C0.647773 3.70638 0.430596 3.75163 0.263936 3.88117C0.0974121 4.01064 0 4.20984 0 4.4208C0 5.8638 0.556719 7.17883 1.46576 8.16402C1.48572 9.82304 2.27179 11.3001 3.48605 12.259L4.12911 13.1184C5.59535 15.0781 7.93208 16.2481 10.3798 16.2481C12.2573 16.2481 14.0366 15.5881 15.4492 14.3786L15.4492 16.8165L14.8361 16.8165C12.3986 16.8165 10.4155 18.7996 10.4155 21.2371C10.4155 21.982 10.6045 22.7186 10.962 23.3675C11.0865 23.5936 11.3202 23.7214 11.5613 23.7214C11.6729 23.7214 11.786 23.694 11.8906 23.6364C12.2213 23.4542 12.3417 23.0385 12.1595 22.7078C11.9131 22.2604 11.7827 21.7519 11.7827 21.2371C11.7827 19.5534 13.1524 18.1837 14.8361 18.1837L15.4492 18.1837L15.4492 24.2905L13.8428 24.2905C12.0398 24.2905 10.5729 25.7573 10.5729 27.5604C10.5729 29.3634 12.0398 30.8302 13.8428 30.8302L15.7434 30.8302C15.9804 32.1139 16.3595 33.3694 16.8803 34.5857C16.988 34.8372 17.2352 35.0001 17.5087 35.0001L17.5099 35.0001C17.7839 34.9997 18.0312 34.8357 18.1381 34.5834L18.1515 34.5516C18.6614 33.3457 19.0323 32.1016 19.2639 30.8302L20.0407 30.8302C20.8134 30.8302 21.4421 31.4588 21.4421 32.2316C21.4421 33.0043 20.8134 33.6329 20.0407 33.6329L19.9943 33.6329C19.6168 33.6329 19.3107 33.9391 19.3107 34.3165C19.3107 34.694 19.6168 35.0001 19.9943 35.0001L20.0407 35.0001C21.5673 35.0001 22.8093 33.7582 22.8093 32.2316C22.8093 30.705 21.5673 29.463 20.0407 29.463L19.4584 29.463C19.5196 28.8632 19.5508 28.2583 19.5508 27.6492L19.5508 25.6577L20.0065 25.6577C22.444 25.6577 24.4271 23.6746 24.4271 21.2371C24.4271 18.7996 22.444 16.8165 20.0065 16.8165L19.5508 16.8165L19.5508 14.3786C20.9634 15.5882 22.7427 16.2481 24.6202 16.2481C27.0679 16.2481 29.4044 15.0782 30.8709 13.1184L31.5139 12.259C32.7283 11.3001 33.5143 9.82297 33.5342 8.16396C34.4433 7.17883 35 5.8638 35 4.4208C35 4.20984 34.9026 4.01064 34.7361 3.8811ZM17.5 6.67625C16.0362 6.67625 14.8455 5.48543 14.8455 4.02172C14.8455 2.55801 16.0363 1.36719 17.5 1.36719C18.9637 1.36719 20.1545 2.55801 20.1545 4.02172C20.1545 5.48543 18.9638 6.67625 17.5 6.67625ZM10.3798 14.8809C12.0864 14.8809 13.6946 14.22 14.908 13.0197L15.4492 12.4845L15.4492 10.2746L15.2746 10.2746C13.7263 10.2746 12.433 9.16364 12.1995 7.63294C12.0686 6.77503 11.3438 6.15241 10.4759 6.15241L5.70315 6.15241C5.05101 6.15241 4.39981 6.071 3.76763 5.91021L1.46631 5.32513C1.88029 7.1843 3.54279 8.57862 5.52474 8.5789L6.93861 8.5791C7.31616 8.57917 7.62221 8.88528 7.62214 9.26276C7.62207 9.64024 7.31596 9.94629 6.93855 9.94629L6.93848 9.94629L5.5246 9.94608C4.63005 9.94595 3.78526 9.73075 3.03707 9.35163C3.56132 10.9074 5.03303 12.0313 6.76313 12.0313L7.90788 12.0313C8.28536 12.0313 8.59147 12.3374 8.59147 12.7149C8.59147 13.0924 8.28536 13.3985 7.90788 13.3985L6.76313 13.3985C6.58718 13.3985 6.41334 13.3894 6.24176 13.3726C7.39081 14.3334 8.85924 14.8809 10.3798 14.8809ZM28.0615 8.5791L29.4753 8.5789C31.4572 8.57862 33.1197 7.18423 33.5337 5.32513L31.2324 5.91021C30.6002 6.071 29.949 6.15241 29.2968 6.15241L24.5241 6.15241C23.6562 6.15241 22.9314 6.77503 22.8005 7.63294C22.567 9.16364 21.2737 10.2746 19.7254 10.2746L19.5508 10.2746L19.5508 12.4845L20.0921 13.0198C21.3055 14.22 22.9137 14.8809 24.6203 14.8809C26.1408 14.8809 27.6091 14.3334 28.7582 13.3726C28.5867 13.3894 28.4129 13.3985 28.2369 13.3985L27.0922 13.3985C26.7147 13.3985 26.4086 13.0924 26.4086 12.7149C26.4086 12.3374 26.7147 12.0313 27.0922 12.0313L28.237 12.0313C29.967 12.0313 31.4388 10.9074 31.9631 9.35163C31.2149 9.73082 30.3701 9.94595 29.4755 9.94608L28.0617 9.94629C27.6842 9.94636 27.3781 9.64031 27.378 9.26276C27.3779 8.88528 27.684 8.57917 28.0615 8.5791ZM16.8164 24.2904L16.8164 7.98417C17.0387 8.02245 17.2669 8.04351 17.5 8.04351C17.7331 8.04351 17.9613 8.02245 18.1836 7.98417L18.1836 24.2904L16.8164 24.2904ZM23.0599 21.2371C23.0599 19.5534 21.6902 18.1837 20.0065 18.1837L19.5508 18.1837L19.5508 24.2904L20.0065 24.2904C21.6902 24.2904 23.0599 22.9207 23.0599 21.2371ZM13.8428 29.463C12.7937 29.463 11.9401 28.6094 11.9401 27.5603C11.9401 26.5111 12.7937 25.6576 13.8428 25.6576L15.4492 25.6576L15.4492 27.6085C15.4492 28.2314 15.482 28.8498 15.5459 29.463L13.8428 29.463ZM17.5061 32.3122C17.9562 30.8029 18.1836 29.2409 18.1836 27.6492L18.1836 25.6576L16.8164 25.6576L16.8164 27.6085C16.8164 29.215 17.0479 30.7904 17.5061 32.3122Z" transform="translate(6.835938E-05 0)" id="Shape" fill="#E8511D" fill-rule="evenodd" stroke="none" />
    <path d="M1.16683 0.200293C1.03975 0.0730762 0.863379 0 0.683594 0C0.503809 0 0.327441 0.0730762 0.200293 0.200293C0.0731445 0.32751 0 0.503809 0 0.683594C0 0.863379 0.0730762 1.03975 0.200293 1.16683C0.327441 1.29397 0.503809 1.36719 0.683594 1.36719C0.863379 1.36719 1.03975 1.29404 1.16683 1.16683C1.29397 1.03975 1.36719 0.863379 1.36719 0.683594C1.36719 0.503809 1.29404 0.327441 1.16683 0.200293Z" transform="translate(14.0821 33.63288)" id="Path" fill="#E8511D" stroke="none" />
  </g>
</svg>