<?xml version="1.0" encoding="utf-8"?>
<svg width="35px" height="35px" viewBox="0 0 35 35" version="1.1" xmlns:xlink="http://www.w3.org/1999/xlink" xmlns="http://www.w3.org/2000/svg">
  <desc>Created with Lunacy</desc>
  <g id="557295-copy">
    <path d="M14.1102 0L12.6565 0L9.02559 6.22146L5.40158 0L3.95472 0C1.77067 0.00688976 0 1.77756 0 3.95472L0 11.8573C0 13.8415 1.47441 15.4882 3.38976 15.7638L3.38976 25.4094L14.6752 25.4094L14.6752 15.7707C16.5906 15.4951 18.065 13.8484 18.065 11.8642L18.065 3.95472C18.065 1.77756 16.2943 0 14.1102 0ZM13.5522 24.2795L9.59055 24.2795L9.59055 18.0718L8.46063 18.0718L8.46063 24.2795L4.5128 24.2795L4.5128 7.24803L2.45276 1.57776C3.38287 0.971457 4.75394 1.13681 4.75394 1.13681L9.03248 8.46752L13.311 1.13681C13.311 1.13681 14.9577 1.00591 15.6122 1.57776L13.5522 7.24803L13.5522 24.2795ZM1.12992 11.8642C1.12992 13.2215 2.10138 14.3652 3.38287 14.6201L3.38287 7.44095L1.57087 2.45276C1.29528 2.88681 1.12992 3.40354 1.12992 3.95472L1.12992 11.8642ZM14.6752 14.6201C15.9636 14.3583 16.935 13.2215 16.935 11.8573L16.935 3.95472C16.935 3.40354 16.7697 2.88681 16.4872 2.45965L14.6752 7.44783L14.6752 14.6201Z" transform="translate(0 9.587107)" id="Shape" fill="#E8511D" fill-rule="evenodd" stroke="none" />
    <path d="M0 4.50594C0 2.01874 2.03248 -0.0068548 4.51969 3.49591e-05C7.00689 3.49591e-05 9.03248 2.02563 9.03248 4.51283C9.03248 7.00004 7.00689 9.02563 4.51969 9.02563C2.03248 9.02563 0 7.00004 0 4.50594ZM1.12992 4.50594C1.12992 6.37996 2.65256 7.90259 4.51969 7.90259C6.38681 7.90259 7.90945 6.37996 7.90945 4.51283C7.90945 2.6457 6.38681 1.12307 4.51969 1.12307C2.65256 1.12307 1.12992 2.63881 1.12992 4.50594Z" transform="translate(4.512795 0.003409923)" id="Shape" fill="#E8511D" fill-rule="evenodd" stroke="none" />
    <path d="M0 0L0 1.12992C4.36122 1.12992 7.90256 4.67815 7.90256 9.03248C7.90256 13.3937 4.35433 16.935 0 16.935L0 18.065C4.9813 18.065 9.03248 14.0138 9.03248 9.03248C9.03248 4.05118 4.9813 0 0 0Z" transform="translate(19.19488 8.464075)" id="Path" fill="#E8511D" stroke="none" />
    <path d="M19.8632 19.0709L19.8632 12.5463L17.0108 11.8297C16.7628 11.0098 16.4321 10.2175 16.0325 9.45965L17.5482 6.93799L12.9321 2.32185L10.4104 3.8376C9.65256 3.43799 8.86024 3.10728 8.04035 2.85925L7.32382 0L0.799213 0L0.00688976 3.16929L1.10236 3.44488L1.67421 1.12992L6.43504 1.12992L7.09646 3.76181C8.63976 4.14764 9.85236 4.80217 10.4242 5.13976L12.753 3.74114L16.122 7.11024L14.7234 9.43898C15.3228 10.3691 16.0256 12.1949 16.1014 12.7667L18.7333 13.4213L18.7333 18.1821L16.1014 18.8435C15.874 19.6909 15.4055 21.0827 14.7234 22.1713L16.122 24.5L12.753 27.8691L10.4242 26.4705C9.03248 27.3041 8.04724 27.5728 7.09646 27.8484L6.43504 30.4803L1.67421 30.4803L1.09547 28.1654L0 28.4409L0.792323 31.6102L7.32382 31.6102L8.04035 28.7579C8.86024 28.5098 9.65256 28.1791 10.4104 27.7795L12.9321 29.2953L17.5482 24.6791L16.0325 22.1575C16.4321 21.3996 16.7628 20.6073 17.0108 19.7874L19.8632 19.0709Z" transform="translate(15.13681 1.691437)" id="Path" fill="#E8511D" stroke="none" />
  </g>
</svg>