<?xml version="1.0" encoding="utf-8"?>
<svg width="35px" height="35px" viewBox="0 0 35 35" version="1.1" xmlns:xlink="http://www.w3.org/1999/xlink" xmlns="http://www.w3.org/2000/svg">
  <desc>Created with Lunacy</desc>
  <g id="901464">
    <path d="M2.32848 4.07484C1.68546 4.07484 1.16424 3.55363 1.16424 2.9106C1.16424 2.26758 1.68546 1.74636 2.32848 1.74636C2.97151 1.74636 3.49272 2.26758 3.49272 2.9106L4.65696 2.9106C4.65296 1.85209 3.93557 0.929428 2.9106 0.664782L2.9106 0L1.74636 0L1.74636 0.664782C0.503462 0.984657 -0.244782 2.25157 0.0750935 3.49447C0.339667 4.52235 1.26706 5.24039 2.32848 5.23908C2.97151 5.23908 3.49272 5.7603 3.49272 6.40333C3.49272 7.04635 2.97151 7.56757 2.32848 7.56757C1.68546 7.56757 1.16424 7.04635 1.16424 6.40333L0 6.40333C0.00400208 7.46184 0.721466 8.3845 1.74636 8.64915L1.74636 9.31393L2.9106 9.31393L2.9106 8.64915C4.1535 8.32927 4.90175 7.06236 4.58187 5.81946C4.3173 4.79151 3.38991 4.07353 2.32848 4.07484Z" transform="translate(15.13746 16.88273)" id="Path" fill="#E8511D" stroke="none" />
    <path d="M0 7.56757C0 3.38809 3.38809 0 7.56757 0C11.745 0.00480249 15.1303 3.39012 15.1351 7.56757C15.1351 11.747 11.747 15.1351 7.56757 15.1351C3.38809 15.1351 0 11.747 0 7.56757ZM1.16424 7.56757C1.16424 11.104 4.03111 13.9709 7.56757 13.9709C11.1023 13.9667 13.9667 11.1023 13.9709 7.56757C13.9709 4.03111 11.104 1.16424 7.56757 1.16424C4.03111 1.16424 1.16424 4.03111 1.16424 7.56757Z" transform="translate(9.898378 13.97213)" id="Shape" fill="#E8511D" fill-rule="evenodd" stroke="none" />
    <path d="M34.9296 12.2247C34.9296 12.5462 34.6689 12.8068 34.3474 12.8068L32.6011 12.8068L32.6011 30.2704L34.3474 30.2704C34.6689 30.2704 34.9296 30.5311 34.9296 30.8525L34.9296 34.3453C34.9296 34.6667 34.6689 34.9274 34.3474 34.9274L0.584449 34.9274C0.262973 34.9274 0.00232848 34.6667 0.00232848 34.3453L0.00232848 30.8525C0.00232848 30.5311 0.262973 30.2704 0.584449 30.2704L2.33081 30.2704L2.33081 12.8068L0.582121 12.8068C0.260644 12.8068 0 12.5462 0 12.2247L0 9.89619C0 9.88863 0.00407484 9.88281 0.00407484 9.87524C0.00633056 9.81164 0.0190644 9.74892 0.0419127 9.68954C0.0471518 9.68256 0.0471518 9.67441 0.0471518 9.66742C0.0754574 9.6039 0.114823 9.5459 0.163576 9.49628C0.180821 9.481 0.19894 9.46659 0.217713 9.4532C0.243763 9.42853 0.271996 9.40634 0.302121 9.38684L17.1836 0.0729106C17.3585 -0.0243035 17.5711 -0.0243035 17.7459 0.0729106L34.6274 9.38684C34.6576 9.40634 34.6858 9.42853 34.7118 9.4532C34.7306 9.46659 34.7487 9.481 34.766 9.49628C34.8147 9.5459 34.8541 9.6039 34.8824 9.66742C34.8876 9.67441 34.8876 9.68256 34.8876 9.68954C34.9105 9.74892 34.9232 9.81164 34.9255 9.87524C34.9255 9.88281 34.9296 9.88863 34.9296 9.89619L34.9296 12.2247ZM17.4659 1.24705L32.0871 9.31407L2.84482 9.31407L17.4659 1.24705ZM1.16657 10.4783L1.16657 11.6426L33.7653 11.6426L33.7653 10.4783L1.16657 10.4783ZM3.49505 30.2704L3.49505 12.8068L5.82353 12.8068L5.82353 30.2704L3.49505 30.2704ZM6.98778 12.8068L6.98778 30.2704L27.9441 30.2704L27.9441 12.8068L6.98778 12.8068ZM29.1084 30.2704L29.1084 12.8068L31.4368 12.8068L31.4368 30.2704L29.1084 30.2704ZM33.7653 33.7631L33.7653 31.4347L1.16657 31.4347L1.16657 33.7631L33.7653 33.7631Z" transform="translate(-4.136216E-15 0.001091476)" id="Shape" fill="#E8511D" fill-rule="evenodd" stroke="none" />
  </g>
</svg>