<?xml version="1.0" encoding="utf-8"?>
<svg width="35px" height="35px" viewBox="0 0 35 35" version="1.1" xmlns:xlink="http://www.w3.org/1999/xlink" xmlns="http://www.w3.org/2000/svg">
  <desc>Created with Lunacy</desc>
  <g id="2634255">
    <path d="M33.9746 33.9746L34.4873 33.9746C34.7705 33.9746 35 34.2041 35 34.4873C35 34.7705 34.7705 35 34.4873 35L0.512695 35C0.229551 35 0 34.7705 0 34.4873C0 34.2041 0.229551 33.9746 0.512695 33.9746L1.02539 33.9746L1.02539 20.3027L0.512695 20.3027C0.229551 20.3027 0 20.0733 0 19.79C0 19.5068 0.229551 19.2773 0.512695 19.2773L8.87941 19.2773L8.87941 17.749L8.53036 17.8666C8.26205 17.9569 7.97125 17.8127 7.88081 17.5444C7.79044 17.2761 7.93475 16.9853 8.20306 16.8949L10.3223 16.1811L10.3223 12.6135L9.80957 12.6135C9.52643 12.6135 9.29688 12.384 9.29688 12.1008C9.29688 11.8176 9.52643 11.5881 9.80957 11.5881L10.3413 11.5881C10.4318 10.3478 10.8501 9.1648 11.5652 8.13982C11.7274 7.90761 12.0469 7.85094 12.2791 8.01281C12.5113 8.17482 12.5682 8.4944 12.4062 8.72662C11.8117 9.57852 11.4587 10.559 11.3704 11.5881L23.6286 11.5881C23.3678 8.57186 20.8309 6.19664 17.7482 6.19664L17.2517 6.19664C15.9043 6.19664 14.5865 6.66237 13.5412 7.50805C13.3212 7.68619 12.9983 7.65208 12.8202 7.43189C12.6421 7.21178 12.6762 6.88892 12.8963 6.71084C14.055 5.7735 15.4986 5.23435 16.9873 5.17699L16.9873 0.512695C16.9873 0.229482 17.2169 0 17.5 0L22.1484 0C22.808 0 23.3447 0.536689 23.3447 1.19629L23.3447 3.24707C23.3447 3.90667 22.808 4.44336 22.1484 4.44336L18.0127 4.44336L18.0127 5.17686C21.5406 5.30995 24.4018 8.09266 24.6587 11.5881L25.1904 11.5881C25.4736 11.5881 25.7031 11.8176 25.7031 12.1008C25.7031 12.3841 25.4736 12.6135 25.1904 12.6135L24.6777 12.6135L24.6777 16.1811L26.7969 16.895C27.0653 16.9853 27.2096 17.2761 27.1192 17.5444C27.0278 17.8158 26.7312 17.9551 26.4696 17.8667L26.1206 17.7491L26.1206 19.2773L34.4873 19.2773C34.7705 19.2773 35 19.5068 35 19.79C35 20.0733 34.7705 20.3027 34.4873 20.3027L33.9746 20.3027L33.9746 33.9746ZM18.0127 1.02539L22.1484 1.02539C22.2426 1.02539 22.3193 1.10202 22.3193 1.19629L22.3193 3.24707C22.3193 3.34134 22.2426 3.41797 22.1484 3.41797L18.0127 3.41797L18.0127 1.02539ZM23.6523 15.8358L23.6523 12.6135L11.3477 12.6135L11.3477 15.8358L16.4636 14.1127C17.132 13.8875 17.8681 13.8875 18.5365 14.1127L23.6523 15.8358ZM9.90479 17.4037L16.7909 15.0844C17.2482 14.9304 17.752 14.9305 18.2092 15.0844L25.0953 17.4037L25.0953 19.2773L9.90479 19.2773L9.90479 17.4037ZM8.73079 24.8755L2.05078 24.8755L2.05078 20.3027L7.05448 20.3027L7.05448 21.3623C7.05448 22.2104 7.74443 22.9004 8.59257 22.9004L8.73079 22.9004L8.73079 24.8755ZM22.0609 33.9746L19.4556 33.9746L19.4556 22.9004L19.5924 22.9004C19.8756 22.9004 20.1051 22.6709 20.1051 22.3877C20.1051 22.1045 19.8756 21.875 19.5924 21.875L8.59257 21.875C8.30983 21.875 8.07987 21.645 8.07987 21.3623L8.07987 20.3027L26.9201 20.3027L26.9201 21.3623C26.9201 21.645 26.6901 21.875 26.4074 21.875L21.6431 21.875C21.36 21.875 21.1304 22.1045 21.1304 22.3877C21.1304 22.6709 21.36 22.9004 21.6431 22.9004L22.0609 22.9004L22.0609 33.9746ZM26.2691 24.8755L32.9492 24.8755L32.9492 20.3027L27.9454 20.3027L27.9454 21.3623C27.9454 22.2104 27.2555 22.9004 26.4074 22.9004L26.2691 22.9004L26.2691 24.8755ZM9.75625 33.9746L11.9137 33.9746L11.9137 22.9004L9.75625 22.9004L9.75625 33.9746ZM15.2474 33.9746L12.9391 33.9746L12.9391 22.9004L15.2474 22.9004L15.2474 33.9746ZM16.2727 33.9746L18.4302 33.9746L18.4302 22.9004L16.2727 22.9004L16.2727 33.9746ZM23.0863 33.9746L25.2438 33.9746L25.2438 22.9004L23.0863 22.9004L23.0863 33.9746ZM7.70547 33.9746L8.73086 33.9746L8.73086 25.9009L2.05078 25.9009L2.05078 33.9746L3.07617 33.9746L3.07617 29.174C3.07617 27.8977 4.11448 26.8594 5.39082 26.8594C6.66716 26.8594 7.70547 27.8977 7.70547 29.174L7.70547 33.9746ZM32.9492 33.9746L31.9238 33.9746L31.9238 29.174C31.9238 27.8977 30.8855 26.8594 29.6092 26.8594C28.3328 26.8594 27.2945 27.8977 27.2945 29.174L27.2945 33.9746L26.2691 33.9746L26.2691 25.9009L32.9492 25.9009L32.9492 33.9746ZM4.10156 30.8984L4.10156 29.174C4.10156 28.4631 4.67988 27.8848 5.39082 27.8848C6.10176 27.8848 6.68008 28.4631 6.68008 29.174L6.68008 30.8984L4.10156 30.8984ZM28.3199 29.174L28.3199 30.8984L30.8984 30.8984L30.8984 29.174C30.8984 28.4631 30.3201 27.8848 29.6092 27.8848C28.8982 27.8848 28.3199 28.4631 28.3199 29.174ZM6.68008 33.9746L6.68008 31.9238L4.10156 31.9238L4.10156 33.9746L6.68008 33.9746ZM30.8984 31.9238L30.8984 33.9746L28.3199 33.9746L28.3199 31.9238L30.8984 31.9238Z" id="Shape" fill="#E8511D" fill-rule="evenodd" stroke="none" />
  </g>
</svg>